<svg width="119" height="28" viewBox="0 0 119 28" fill="none" xmlns="http://www.w3.org/2000/svg">
<circle cx="14" cy="14" r="13.7532" stroke="#8A7BAE" stroke-width="0.493601"/>
<path d="M14.0752 8.91379C14.1462 8.91379 14.1936 8.97302 14.3358 9.34026C14.5135 9.79043 16.3734 14.683 17.096 16.4837C17.5225 17.538 17.866 17.7275 18.1148 17.7986C18.2925 17.8578 18.4702 17.8697 18.5887 17.8697C18.6597 17.8697 18.7071 17.8815 18.7071 17.9408C18.7071 18.0118 18.6005 18.0355 18.4702 18.0355C18.2925 18.0355 17.4277 18.0355 16.6103 18.0118C16.3852 18 16.2549 18 16.2549 17.9289C16.2549 17.8815 16.3023 17.846 16.3378 17.846C16.3615 17.846 16.4326 17.7868 16.4326 17.6801C16.4326 17.6446 16.4326 17.5735 16.4089 17.5261L15.3072 14.6119C15.2835 14.5645 15.2598 14.5408 15.2006 14.5408H12.6536C12.5944 14.5408 12.5588 14.5764 12.5351 14.6356L11.8243 16.7324C11.7177 17.0286 11.6585 17.3129 11.6585 17.5261C11.6585 17.7631 11.9073 17.8697 12.1087 17.8697H12.2271C12.3101 17.8697 12.3456 17.8934 12.3456 17.9408C12.3456 18.0118 12.2745 18.0355 12.1679 18.0355C11.8836 18.0355 11.3742 18 11.2439 18C11.1136 18 10.462 18.0355 9.90523 18.0355C9.75123 18.0355 9.68015 18.0118 9.68015 17.9408C9.68015 17.8934 9.72753 17.8697 9.78676 17.8697C9.86969 17.8697 10.0355 17.8578 10.1303 17.846C10.6752 17.7749 10.9122 17.3248 11.1254 16.7324L13.8145 9.3758C13.9567 8.98487 14.0041 8.91379 14.0752 8.91379ZM12.7839 14.1144H15.0466C15.1058 14.1144 15.1058 14.0788 15.094 14.0314L13.9686 10.8329C13.933 10.7381 13.9093 10.7026 13.8738 10.7026C13.8501 10.7026 13.8145 10.75 13.7909 10.8329L12.7484 14.0314C12.7247 14.0907 12.7484 14.1144 12.7839 14.1144Z" fill="#8A7BAE"/>
<path d="M37.094 3.64224C37.1828 3.64224 37.242 3.71628 37.4197 4.17533C37.6419 4.73803 39.9667 10.8538 40.87 13.1046C41.4031 14.4225 41.8325 14.6594 42.1435 14.7483C42.3656 14.8223 42.5877 14.8371 42.7358 14.8371C42.8247 14.8371 42.8839 14.8519 42.8839 14.926C42.8839 15.0148 42.7506 15.0444 42.5877 15.0444C42.3656 15.0444 41.2846 15.0444 40.2629 15.0148C39.9815 15 39.8186 15 39.8186 14.9112C39.8186 14.8519 39.8779 14.8075 39.9223 14.8075C39.9519 14.8075 40.0408 14.7335 40.0408 14.6002C40.0408 14.5558 40.0408 14.4669 40.0111 14.4077L38.634 10.7649C38.6044 10.7057 38.5748 10.6761 38.5007 10.6761H35.317C35.243 10.6761 35.1985 10.7205 35.1689 10.7945L34.2804 13.4155C34.1472 13.7857 34.0731 14.1411 34.0731 14.4077C34.0731 14.7038 34.3841 14.8371 34.6358 14.8371H34.7839C34.8876 14.8371 34.932 14.8667 34.932 14.926C34.932 15.0148 34.8431 15.0444 34.7099 15.0444C34.3545 15.0444 33.7177 15 33.5548 15C33.392 15 32.5775 15.0444 31.8815 15.0444C31.689 15.0444 31.6002 15.0148 31.6002 14.926C31.6002 14.8667 31.6594 14.8371 31.7335 14.8371C31.8371 14.8371 32.0444 14.8223 32.1629 14.8075C32.8441 14.7186 33.1402 14.1559 33.4068 13.4155L36.7682 4.21975C36.9459 3.73109 37.0051 3.64224 37.094 3.64224ZM35.4799 10.143H38.3082C38.3823 10.143 38.3823 10.0985 38.3675 10.0393L36.9607 6.04114C36.9163 5.92268 36.8867 5.87825 36.8422 5.87825C36.8126 5.87825 36.7682 5.93748 36.7386 6.04114L35.4355 10.0393C35.4058 10.1133 35.4355 10.143 35.4799 10.143ZM45.804 10.0393L44.649 13.4155C44.5157 13.7857 44.4416 14.1411 44.4416 14.4077C44.4416 14.7038 44.7526 14.8371 45.0043 14.8371H45.1524C45.2561 14.8371 45.3005 14.8667 45.3005 14.926C45.3005 15.0148 45.2117 15.0444 45.0784 15.0444C44.723 15.0444 44.0862 15 43.9234 15C43.7605 15 42.946 15.0444 42.2501 15.0444C42.0575 15.0444 41.9687 15.0148 41.9687 14.926C41.9687 14.8667 42.0279 14.8371 42.102 14.8371C42.2056 14.8371 42.4129 14.8223 42.5314 14.8075C43.2126 14.7186 43.5087 14.1559 43.7753 13.4155L47.1367 4.21975C47.3144 3.73109 47.3736 3.64224 47.4625 3.64224C47.5513 3.64224 47.6106 3.71628 47.7883 4.17533C48.0104 4.73803 50.3352 10.8538 51.2385 13.1046C51.7716 14.4225 52.201 14.6594 52.512 14.7483C52.7341 14.8223 52.9563 14.8371 53.1043 14.8371C53.1932 14.8371 53.2524 14.8519 53.2524 14.926C53.2524 15.0148 53.1191 15.0444 52.9563 15.0444C52.7341 15.0444 51.6532 15.0444 50.6314 15.0148C50.35 15 50.1872 15 50.1872 14.9112C50.1872 14.8519 50.2316 14.8223 50.2908 14.8075C50.3797 14.7779 50.4685 14.6446 50.3797 14.4077L49.0025 10.7649L48.736 10.0393L47.3292 6.04114C47.2552 5.81902 47.1811 5.81902 47.1071 6.04114L45.804 10.0393ZM56.6167 4.57514V8.66216C56.6167 8.76582 56.6315 8.81024 56.7056 8.81024C56.8981 8.81024 58.7195 8.81024 59.0601 8.78063C59.4155 8.75101 59.6228 8.72139 59.756 8.57331C59.8597 8.45485 59.9189 8.38081 59.9782 8.38081C60.0226 8.38081 60.0522 8.41042 60.0522 8.49927C60.0522 8.55851 59.8745 9.55064 59.8745 10.2762C59.8745 10.4391 59.8597 10.5576 59.7708 10.5576C59.6968 10.5576 59.6672 10.4984 59.6672 10.4243C59.6672 10.2762 59.6672 10.1282 59.608 9.93565C59.5487 9.72834 59.4155 9.4766 58.8379 9.41737C58.4381 9.37295 56.9721 9.34333 56.7204 9.34333C56.6464 9.34333 56.6167 9.38776 56.6167 9.44699V13.2823C56.6167 14.2596 56.8833 14.4965 58.3345 14.4965C58.7195 14.4965 59.371 14.4965 59.756 14.3336C60.141 14.1708 60.3187 13.8746 60.4224 13.2675C60.452 13.1046 60.4816 13.0453 60.5557 13.0453C60.6445 13.0453 60.6445 13.1638 60.6445 13.2675C60.6445 13.3859 60.5261 14.3929 60.452 14.7038C60.3484 15.0888 60.2299 15.0888 59.6524 15.0888C57.4164 15.0888 56.4242 15 55.9948 15C55.6098 15 54.8694 15.0444 54.5436 15.0444C54.3807 15.0444 54.3067 15.0148 54.3067 14.926C54.3067 14.8815 54.3363 14.8371 54.4251 14.8371C54.5584 14.8371 54.7361 14.8223 54.8694 14.7779C55.1063 14.7038 55.1804 14.5706 55.2692 14.1411C55.3432 13.7561 55.3729 12.5567 55.3729 10.7501V8.14388C55.3729 5.65613 55.3581 5.03419 55.3284 4.78246C55.284 4.42706 55.1952 4.20494 54.7065 4.10129C54.588 4.07167 54.3363 4.05686 54.203 4.05686C54.1438 4.05686 54.0846 4.02725 54.0846 3.96801C54.0846 3.87917 54.1586 3.84955 54.3215 3.84955C54.9879 3.84955 55.9208 3.89397 55.9948 3.89397C57.5941 3.89397 59.1045 3.87917 59.3414 3.86436C59.5783 3.84955 59.9337 3.81993 59.993 3.80513C60.0818 3.77551 60.141 3.71628 60.2003 3.71628C60.2595 3.71628 60.2891 3.80513 60.2891 3.87917C60.2891 3.98282 60.2151 4.16052 60.1707 4.57514C60.1559 4.72323 60.1262 5.37478 60.0966 5.55247C60.0818 5.62651 60.0522 5.70055 59.9782 5.70055C59.9041 5.70055 59.8745 5.64132 59.8745 5.53767C59.8745 5.4192 59.8301 5.16747 59.7412 4.97496C59.6524 4.78246 59.297 4.4863 58.4233 4.4863C58.3345 4.4863 57.0017 4.44187 56.7056 4.44187C56.6464 4.44187 56.6167 4.47149 56.6167 4.57514ZM65.7289 4.44187C65.64 4.44187 65.5956 4.4863 65.5956 4.60476V10.7501C65.5956 12.1717 65.6104 13.6229 65.6845 14.1115C65.7437 14.5261 65.9214 14.7335 66.2472 14.7779C66.4545 14.8075 66.7803 14.8371 66.9135 14.8371C67.0024 14.8371 67.032 14.8815 67.032 14.926C67.032 15 66.9579 15.0444 66.7951 15.0444C65.9806 15.0444 65.0477 15 64.9737 15C64.8996 15 64.026 15.0444 63.5817 15.0444C63.4188 15.0444 63.3448 15.0148 63.3448 14.926C63.3448 14.8815 63.3744 14.8371 63.4633 14.8371C63.5965 14.8371 63.7742 14.8223 63.9075 14.7779C64.1444 14.7038 64.2185 14.5706 64.3073 14.1411C64.3813 13.7561 64.411 12.5567 64.411 10.7501V8.14388C64.411 5.65613 64.3962 5.03419 64.3665 4.78246C64.3221 4.42706 64.2333 4.20494 63.7446 4.10129C63.6261 4.07167 63.3744 4.05686 63.2411 4.05686C63.1819 4.05686 63.1227 4.02725 63.1227 3.96801C63.1227 3.87917 63.1967 3.84955 63.3596 3.84955C64.026 3.84955 64.9589 3.89397 65.0329 3.89397C65.3291 3.89397 68.4684 3.87917 68.6757 3.86436C68.9126 3.84955 69.268 3.81993 69.3272 3.80513C69.4161 3.77551 69.4753 3.71628 69.5345 3.71628C69.5938 3.71628 69.6234 3.80513 69.6234 3.87917C69.6234 3.98282 69.5494 4.16052 69.5049 4.57514C69.4901 4.72323 69.4605 5.37478 69.4309 5.55247C69.4161 5.62651 69.3865 5.70055 69.3124 5.70055C69.2384 5.70055 69.2088 5.64132 69.2088 5.53767C69.2088 5.4192 69.1643 5.16747 69.0755 4.97496C68.9866 4.78246 68.6313 4.4863 67.7576 4.4863L65.7289 4.44187ZM73.1743 10.7501V8.14388C73.1743 5.83383 73.1743 5.4192 73.1447 4.94535C73.1151 4.44187 72.9966 4.20494 72.508 4.10129C72.3895 4.07167 72.1378 4.05686 72.0045 4.05686C71.9452 4.05686 71.886 4.02725 71.886 3.96801C71.886 3.87917 71.9601 3.84955 72.1229 3.84955C72.7893 3.84955 73.6778 3.89397 73.7963 3.89397C74.122 3.89397 74.9809 3.84955 75.6621 3.84955C77.5131 3.84955 78.1794 4.47149 78.4164 4.69361C78.7421 5.00458 79.1568 5.67094 79.1568 6.45576C79.1568 8.55851 77.6167 9.98008 75.514 9.98008C75.4399 9.98008 75.2771 9.98008 75.203 9.96527C75.129 9.96527 75.0401 9.93565 75.0401 9.86161C75.0401 9.74315 75.129 9.72834 75.4399 9.72834C76.8763 9.72834 78.0017 8.67697 78.0017 7.31463C78.0017 6.82597 77.9573 5.83383 77.1725 5.03419C76.3877 4.23456 75.4844 4.29379 75.1438 4.29379C74.892 4.29379 74.6403 4.32341 74.507 4.38264C74.4182 4.41226 74.3886 4.51591 74.3886 4.66399V10.7501C74.3886 12.1717 74.3886 13.3415 74.4626 13.9634C74.507 14.3929 74.5959 14.7186 75.0401 14.7779C75.2474 14.8075 75.5732 14.8371 75.7065 14.8371C75.7953 14.8371 75.825 14.8815 75.825 14.926C75.825 15 75.7509 15.0444 75.588 15.0444C74.7736 15.0444 73.8407 15 73.7666 15C73.7222 15 72.7893 15.0444 72.3451 15.0444C72.1822 15.0444 72.1081 15.0148 72.1081 14.926C72.1081 14.8815 72.1378 14.8371 72.2266 14.8371C72.3599 14.8371 72.5376 14.8075 72.6708 14.7779C72.967 14.7186 73.041 14.3929 73.1003 13.9634C73.1743 13.3415 73.1743 12.1717 73.1743 10.7501ZM85.1333 3.64224C85.2222 3.64224 85.2814 3.71628 85.4591 4.17533C85.6812 4.73803 88.0061 10.8538 88.9094 13.1046C89.4424 14.4225 89.8719 14.6594 90.1828 14.7483C90.405 14.8223 90.6271 14.8371 90.7752 14.8371C90.864 14.8371 90.9232 14.8519 90.9232 14.926C90.9232 15.0148 90.79 15.0444 90.6271 15.0444C90.405 15.0444 89.324 15.0444 88.3022 15.0148C88.0209 15 87.858 15 87.858 14.9112C87.858 14.8519 87.9172 14.8075 87.9616 14.8075C87.9913 14.8075 88.0801 14.7335 88.0801 14.6002C88.0801 14.5558 88.0801 14.4669 88.0505 14.4077L86.6733 10.7649C86.6437 10.7057 86.6141 10.6761 86.5401 10.6761H83.3563C83.2823 10.6761 83.2379 10.7205 83.2083 10.7945L82.3198 13.4155C82.1865 13.7857 82.1125 14.1411 82.1125 14.4077C82.1125 14.7038 82.4234 14.8371 82.6752 14.8371H82.8233C82.9269 14.8371 82.9713 14.8667 82.9713 14.926C82.9713 15.0148 82.8825 15.0444 82.7492 15.0444C82.3938 15.0444 81.7571 15 81.5942 15C81.4313 15 80.6169 15.0444 79.9209 15.0444C79.7284 15.0444 79.6395 15.0148 79.6395 14.926C79.6395 14.8667 79.6988 14.8371 79.7728 14.8371C79.8765 14.8371 80.0838 14.8223 80.2022 14.8075C80.8834 14.7186 81.1796 14.1559 81.4461 13.4155L84.8075 4.21975C84.9852 3.73109 85.0445 3.64224 85.1333 3.64224ZM83.5192 10.143H86.3476C86.4216 10.143 86.4216 10.0985 86.4068 10.0393L85 6.04114C84.9556 5.92268 84.926 5.87825 84.8816 5.87825C84.852 5.87825 84.8075 5.93748 84.7779 6.04114L83.4748 10.0393C83.4452 10.1133 83.4748 10.143 83.5192 10.143ZM101.988 8.14388V10.7501C101.988 12.1717 101.988 13.3415 102.062 13.9634C102.106 14.3929 102.195 14.7186 102.639 14.7779C102.847 14.8075 103.172 14.8371 103.306 14.8371C103.395 14.8371 103.424 14.8815 103.424 14.926C103.424 15 103.35 15.0444 103.187 15.0444C102.373 15.0444 101.44 15 101.366 15C101.292 15 100.359 15.0444 99.9146 15.0444C99.7517 15.0444 99.6777 15.0148 99.6777 14.926C99.6777 14.8815 99.7073 14.8371 99.7961 14.8371C99.9294 14.8371 100.107 14.8075 100.24 14.7779C100.537 14.7186 100.611 14.3929 100.67 13.9634C100.744 13.3415 100.744 12.1717 100.744 10.7501V9.35814C100.744 9.29891 100.699 9.26929 100.655 9.26929H94.3764C94.332 9.26929 94.2876 9.2841 94.2876 9.35814V10.7501C94.2876 12.1717 94.2876 13.3415 94.3616 13.9634C94.406 14.3929 94.4949 14.7186 94.9391 14.7779C95.1464 14.8075 95.4722 14.8371 95.6055 14.8371C95.6943 14.8371 95.7239 14.8815 95.7239 14.926C95.7239 15 95.6499 15.0444 95.487 15.0444C94.6726 15.0444 93.7397 15 93.6656 15C93.5916 15 92.6587 15.0444 92.2144 15.0444C92.0515 15.0444 91.9775 15.0148 91.9775 14.926C91.9775 14.8815 92.0071 14.8371 92.096 14.8371C92.2292 14.8371 92.4069 14.8075 92.5402 14.7779C92.8364 14.7186 92.9104 14.3929 92.9696 13.9634C93.0437 13.3415 93.0437 12.1717 93.0437 10.7501V8.14388C93.0437 5.83383 93.0437 5.4192 93.0141 4.94535C92.9845 4.44187 92.866 4.20494 92.3773 4.10129C92.2589 4.07167 92.0071 4.05686 91.8739 4.05686C91.8146 4.05686 91.7554 4.02725 91.7554 3.96801C91.7554 3.87917 91.8294 3.84955 91.9923 3.84955C92.6587 3.84955 93.5916 3.89397 93.6656 3.89397C93.7397 3.89397 94.6726 3.84955 95.1168 3.84955C95.2797 3.84955 95.3537 3.87917 95.3537 3.96801C95.3537 4.02725 95.2945 4.05686 95.2353 4.05686C95.1316 4.05686 95.0428 4.07167 94.8651 4.10129C94.4653 4.17533 94.3468 4.42706 94.3172 4.94535C94.2876 5.4192 94.2876 5.99672 94.2876 8.30677V8.61774C94.2876 8.69178 94.332 8.70659 94.3764 8.70659H100.655C100.699 8.70659 100.744 8.69178 100.744 8.61774V8.30677C100.744 5.99672 100.744 5.4192 100.714 4.94535C100.685 4.44187 100.566 4.20494 100.078 4.10129C99.959 4.07167 99.7073 4.05686 99.574 4.05686C99.5148 4.05686 99.4556 4.02725 99.4556 3.96801C99.4556 3.87917 99.5296 3.84955 99.6925 3.84955C100.359 3.84955 101.292 3.89397 101.366 3.89397C101.44 3.89397 102.373 3.84955 102.817 3.84955C102.98 3.84955 103.054 3.87917 103.054 3.96801C103.054 4.02725 102.995 4.05686 102.935 4.05686C102.832 4.05686 102.743 4.07167 102.565 4.10129C102.165 4.17533 102.047 4.42706 102.017 4.94535C101.988 5.4192 101.988 5.83383 101.988 8.14388ZM107.94 14.3484C108.769 14.4077 109.983 14.4225 110.842 14.4225C111.909 14.4225 113.212 14.3929 114.337 14.3484L111.035 5.90787C110.99 5.7894 110.946 5.74498 110.902 5.74498C110.828 5.74498 110.768 5.80421 110.724 5.92268L108.147 13.3119C107.999 13.7265 107.94 14.0523 107.94 14.3484ZM111.183 3.49416C111.272 3.49416 111.346 3.5682 111.538 4.02725L115.151 13.0009C115.477 13.8302 115.951 14.3336 116.588 14.3336C117.003 14.3336 117.373 14.2152 117.462 14.2152C117.506 14.2152 117.521 14.2448 117.521 14.304C117.521 14.3633 117.195 15.9477 117.165 16.1106C117.136 16.2439 117.106 16.3031 117.017 16.3031C116.943 16.3031 116.914 16.2587 116.914 16.0514V15.8885C116.914 15.4294 116.854 14.9556 115.625 14.9556H106.874C106.178 14.9556 105.778 15.0592 105.689 15.4146C105.63 15.6516 105.63 15.7848 105.63 16.155C105.63 16.2735 105.6 16.3031 105.541 16.3031C105.497 16.3031 105.452 16.2587 105.423 16.1698C105.334 15.8589 105.112 14.4965 105.112 14.3929C105.112 14.23 105.126 14.1708 105.156 14.1708C105.275 14.1708 105.497 14.3484 105.911 14.3484C106.666 14.3484 106.963 13.9634 107.214 13.3119L110.842 4.07167C111.035 3.59781 111.094 3.49416 111.183 3.49416Z" fill="#8A7BAE"/>
<line x1="32" y1="21.7532" x2="45" y2="21.7532" stroke="#8A7BAE" stroke-width="0.493601"/>
<line x1="106" y1="21.7532" x2="119" y2="21.7532" stroke="#8A7BAE" stroke-width="0.493601"/>
<path d="M52.542 24.0839C51.0366 24.0839 50.3159 23.23 50.3159 22.0898C50.3159 21.3 50.8046 20.2141 52.3742 20.2141C52.9616 20.2141 53.4058 20.3474 53.5934 20.3474C53.6477 20.3474 53.6576 20.372 53.6576 20.4016C53.6576 20.4559 53.623 20.6929 53.623 20.9792C53.623 21.2161 53.6132 21.2901 53.5737 21.2901C53.5391 21.2901 53.5342 21.2556 53.5342 21.1865C53.5342 20.609 52.9567 20.4016 52.3397 20.4016C51.0711 20.4016 50.7601 21.1766 50.7601 22.0503C50.7601 22.9931 51.4857 23.8569 52.542 23.8569C52.9122 23.8569 53.2035 23.8124 53.4009 23.6101C53.5046 23.5015 53.5687 23.2843 53.5835 23.1954C53.5934 23.1411 53.6033 23.1214 53.6329 23.1214C53.6576 23.1214 53.6675 23.1559 53.6675 23.1954C53.6675 23.23 53.6082 23.6594 53.5589 23.8272C53.5292 23.921 53.5194 23.9309 53.4305 23.9704C53.2331 24.0494 52.858 24.0839 52.542 24.0839ZM55.6699 20.2141C55.6995 20.2141 55.7193 20.2388 55.7785 20.3918C55.8526 20.5793 56.6275 22.6179 56.9286 23.3682C57.1063 23.8075 57.2495 23.8865 57.3531 23.9161C57.4272 23.9408 57.5012 23.9457 57.5506 23.9457C57.5802 23.9457 57.5999 23.9506 57.5999 23.9753C57.5999 24.0049 57.5555 24.0148 57.5012 24.0148C57.4272 24.0148 57.0668 24.0148 56.7262 24.0049C56.6325 24 56.5782 24 56.5782 23.9704C56.5782 23.9506 56.5979 23.9358 56.6127 23.9358C56.6226 23.9358 56.6522 23.9112 56.6522 23.8667C56.6522 23.8519 56.6522 23.8223 56.6423 23.8026L56.1833 22.5883C56.1734 22.5686 56.1635 22.5587 56.1389 22.5587H55.0776C55.0529 22.5587 55.0381 22.5735 55.0283 22.5982L54.7321 23.4718C54.6877 23.5952 54.663 23.7137 54.663 23.8026C54.663 23.9013 54.7666 23.9457 54.8506 23.9457H54.8999C54.9345 23.9457 54.9493 23.9556 54.9493 23.9753C54.9493 24.0049 54.9197 24.0148 54.8752 24.0148C54.7568 24.0148 54.5445 24 54.4902 24C54.4359 24 54.1645 24.0148 53.9325 24.0148C53.8683 24.0148 53.8387 24.0049 53.8387 23.9753C53.8387 23.9556 53.8584 23.9457 53.8831 23.9457C53.9176 23.9457 53.9868 23.9408 54.0262 23.9358C54.2533 23.9062 54.352 23.7186 54.4409 23.4718L55.5613 20.4066C55.6206 20.2437 55.6403 20.2141 55.6699 20.2141ZM55.1319 22.381H56.0747C56.0994 22.381 56.0994 22.3662 56.0944 22.3464L55.6255 21.0137C55.6107 20.9742 55.6008 20.9594 55.586 20.9594C55.5761 20.9594 55.5613 20.9792 55.5515 21.0137L55.1171 22.3464C55.1072 22.3711 55.1171 22.381 55.1319 22.381ZM58.5733 22.3464L58.1883 23.4718C58.1438 23.5952 58.1192 23.7137 58.1192 23.8026C58.1192 23.9013 58.2228 23.9457 58.3067 23.9457H58.3561C58.3906 23.9457 58.4054 23.9556 58.4054 23.9753C58.4054 24.0049 58.3758 24.0148 58.3314 24.0148C58.2129 24.0148 58.0007 24 57.9464 24C57.8921 24 57.6206 24.0148 57.3886 24.0148C57.3245 24.0148 57.2948 24.0049 57.2948 23.9753C57.2948 23.9556 57.3146 23.9457 57.3393 23.9457C57.3738 23.9457 57.4429 23.9408 57.4824 23.9358C57.7095 23.9062 57.8082 23.7186 57.897 23.4718L59.0175 20.4066C59.0767 20.2437 59.0965 20.2141 59.1261 20.2141C59.1557 20.2141 59.1755 20.2388 59.2347 20.3918C59.3087 20.5793 60.0837 22.6179 60.3848 23.3682C60.5625 23.8075 60.7056 23.8865 60.8093 23.9161C60.8833 23.9408 60.9574 23.9457 61.0067 23.9457C61.0363 23.9457 61.0561 23.9506 61.0561 23.9753C61.0561 24.0049 61.0117 24.0148 60.9574 24.0148C60.8833 24.0148 60.523 24.0148 60.1824 24.0049C60.0886 24 60.0343 24 60.0343 23.9704C60.0343 23.9506 60.0491 23.9408 60.0689 23.9358C60.0985 23.926 60.1281 23.8815 60.0985 23.8026L59.6394 22.5883L59.5506 22.3464L59.0817 21.0137C59.057 20.9397 59.0323 20.9397 59.0076 21.0137L58.5733 22.3464ZM61.2002 22.1441C61.2002 21.3444 61.7826 20.2141 63.145 20.2141C64.2556 20.2141 65.0848 20.915 65.0848 22.0651C65.0848 23.1708 64.3049 24.0839 63.1154 24.0839C61.7629 24.0839 61.2002 23.0325 61.2002 22.1441ZM61.6691 22.0059C61.6691 23.1559 62.3602 23.8963 63.2486 23.8963C63.6929 23.8963 64.611 23.6397 64.611 22.2033C64.611 21.0186 63.8903 20.3819 63.1104 20.3819C62.2861 20.3819 61.6691 20.9249 61.6691 22.0059ZM69.2609 21.7146V22.5834C69.2609 23.0572 69.2609 23.4472 69.2856 23.6545C69.3004 23.7976 69.33 23.9062 69.4781 23.926C69.5472 23.9358 69.6558 23.9457 69.7002 23.9457C69.7298 23.9457 69.7397 23.9605 69.7397 23.9753C69.7397 24 69.715 24.0148 69.6607 24.0148C69.3892 24.0148 69.0783 24 69.0536 24C69.0289 24 68.7179 24.0148 68.5698 24.0148C68.5156 24.0148 68.4909 24.0049 68.4909 23.9753C68.4909 23.9605 68.5007 23.9457 68.5304 23.9457C68.5748 23.9457 68.634 23.9358 68.6784 23.926C68.7772 23.9062 68.8018 23.7976 68.8216 23.6545C68.8463 23.4472 68.8463 23.0572 68.8463 22.5834V22.1194C68.8463 22.0996 68.8315 22.0898 68.8166 22.0898H66.7238C66.709 22.0898 66.6942 22.0947 66.6942 22.1194V22.5834C66.6942 23.0572 66.6942 23.4472 66.7188 23.6545C66.7337 23.7976 66.7633 23.9062 66.9113 23.926C66.9805 23.9358 67.089 23.9457 67.1335 23.9457C67.1631 23.9457 67.173 23.9605 67.173 23.9753C67.173 24 67.1483 24.0148 67.094 24.0148C66.8225 24.0148 66.5115 24 66.4869 24C66.4622 24 66.1512 24.0148 66.0031 24.0148C65.9488 24.0148 65.9241 24.0049 65.9241 23.9753C65.9241 23.9605 65.934 23.9457 65.9636 23.9457C66.0081 23.9457 66.0673 23.9358 66.1117 23.926C66.2104 23.9062 66.2351 23.7976 66.2549 23.6545C66.2795 23.4472 66.2795 23.0572 66.2795 22.5834V21.7146C66.2795 20.9446 66.2795 20.8064 66.2697 20.6484C66.2598 20.4806 66.2203 20.4016 66.0574 20.3671C66.0179 20.3572 65.934 20.3523 65.8896 20.3523C65.8699 20.3523 65.8501 20.3424 65.8501 20.3227C65.8501 20.2931 65.8748 20.2832 65.9291 20.2832C66.1512 20.2832 66.4622 20.298 66.4869 20.298C66.5115 20.298 66.8225 20.2832 66.9706 20.2832C67.0249 20.2832 67.0496 20.2931 67.0496 20.3227C67.0496 20.3424 67.0298 20.3523 67.0101 20.3523C66.9755 20.3523 66.9459 20.3572 66.8867 20.3671C66.7534 20.3918 66.7139 20.4757 66.704 20.6484C66.6942 20.8064 66.6942 20.9989 66.6942 21.7689V21.8726C66.6942 21.8973 66.709 21.9022 66.7238 21.9022H68.8166C68.8315 21.9022 68.8463 21.8973 68.8463 21.8726V21.7689C68.8463 20.9989 68.8463 20.8064 68.8364 20.6484C68.8265 20.4806 68.787 20.4016 68.6241 20.3671C68.5847 20.3572 68.5007 20.3523 68.4563 20.3523C68.4366 20.3523 68.4168 20.3424 68.4168 20.3227C68.4168 20.2931 68.4415 20.2832 68.4958 20.2832C68.7179 20.2832 69.0289 20.298 69.0536 20.298C69.0783 20.298 69.3892 20.2832 69.5373 20.2832C69.5916 20.2832 69.6163 20.2931 69.6163 20.3227C69.6163 20.3424 69.5965 20.3523 69.5768 20.3523C69.5422 20.3523 69.5126 20.3572 69.4534 20.3671C69.3201 20.3918 69.2806 20.4757 69.2708 20.6484C69.2609 20.8064 69.2609 20.9446 69.2609 21.7146ZM72.6231 22.5834V21.7146C72.6231 20.9446 72.6231 20.8064 72.6132 20.6484C72.6033 20.4806 72.5639 20.4016 72.401 20.3671C72.3615 20.3572 72.2776 20.3523 72.2331 20.3523C72.2134 20.3523 72.1937 20.3424 72.1937 20.3227C72.1937 20.2931 72.2183 20.2832 72.2726 20.2832C72.4947 20.2832 72.786 20.298 72.8156 20.298C72.86 20.298 73.1463 20.2832 73.2944 20.2832C73.3487 20.2832 73.3734 20.2931 73.3734 20.3227C73.3734 20.3424 73.3536 20.3523 73.3339 20.3523C73.2993 20.3523 73.2697 20.3572 73.2105 20.3671C73.0772 20.3918 73.0377 20.4757 73.0278 20.6484C73.018 20.8064 73.018 20.9446 73.018 21.7146V22.0108H73.0377C73.1216 21.917 74.015 21.0088 74.1927 20.8163C74.3309 20.6731 74.4593 20.5448 74.4593 20.4609C74.4593 20.4016 74.4346 20.372 74.3951 20.3572C74.3704 20.3474 74.3507 20.3375 74.3507 20.3177C74.3507 20.2931 74.3754 20.2832 74.4099 20.2832C74.5086 20.2832 74.6617 20.298 74.7801 20.298C74.8048 20.298 75.1306 20.2832 75.254 20.2832C75.3083 20.2832 75.328 20.2931 75.328 20.3177C75.328 20.3424 75.3181 20.3523 75.2787 20.3523C75.2046 20.3523 75.101 20.377 75.0022 20.4214C74.7999 20.5102 74.6913 20.6336 74.4692 20.8459C74.3458 20.9644 73.4869 21.8035 73.3832 21.9269C73.5116 22.07 74.5383 23.1313 74.7406 23.3188C75.1553 23.7038 75.2392 23.7828 75.4761 23.8815C75.6044 23.9358 75.7476 23.9457 75.7821 23.9457C75.8167 23.9457 75.8463 23.9556 75.8463 23.9753C75.8463 24 75.8216 24.0148 75.7377 24.0148H75.486C75.3478 24.0148 75.254 24.0148 75.1454 24.0049C74.8838 23.9803 74.7604 23.8717 74.5481 23.7038C74.326 23.5212 73.2796 22.3909 73.0426 22.0996H73.018V22.5834C73.018 23.0572 73.018 23.4472 73.0426 23.6545C73.0575 23.7976 73.0871 23.9062 73.2351 23.926C73.3043 23.9358 73.3832 23.9457 73.4277 23.9457C73.4573 23.9457 73.4671 23.9605 73.4671 23.9753C73.4671 24 73.4425 24.0148 73.3882 24.0148C73.1463 24.0148 72.86 24 72.8205 24C72.781 24 72.4947 24.0148 72.3467 24.0148C72.2924 24.0148 72.2677 24.0049 72.2677 23.9753C72.2677 23.9605 72.2776 23.9457 72.3072 23.9457C72.3516 23.9457 72.4108 23.9358 72.4553 23.926C72.554 23.9062 72.5787 23.7976 72.5984 23.6545C72.6231 23.4472 72.6231 23.0572 72.6231 22.5834ZM76.3347 22.5834V21.7146C76.3347 20.9446 76.3347 20.8064 76.3249 20.6484C76.315 20.4806 76.2755 20.4016 76.1126 20.3671C76.0731 20.3572 75.9892 20.3523 75.9448 20.3523C75.925 20.3523 75.9053 20.3424 75.9053 20.3227C75.9053 20.2931 75.93 20.2832 75.9843 20.2832C76.2064 20.2832 76.5026 20.298 76.542 20.298C76.6506 20.298 76.9369 20.2832 77.164 20.2832C77.781 20.2832 78.0031 20.4905 78.0821 20.5645C78.1907 20.6682 78.3289 20.8903 78.3289 21.1519C78.3289 21.8528 77.8155 22.3267 77.1146 22.3267C77.0899 22.3267 77.0356 22.3267 77.011 22.3218C76.9863 22.3218 76.9567 22.3119 76.9567 22.2872C76.9567 22.2477 76.9863 22.2428 77.0899 22.2428C77.5687 22.2428 77.9439 21.8923 77.9439 21.4382C77.9439 21.2753 77.9291 20.9446 77.6675 20.6781C77.4058 20.4115 77.1048 20.4313 76.9912 20.4313C76.9073 20.4313 76.8234 20.4411 76.779 20.4609C76.7494 20.4708 76.7395 20.5053 76.7395 20.5547V22.5834C76.7395 23.0572 76.7395 23.4472 76.7642 23.6545C76.779 23.7976 76.8086 23.9062 76.9567 23.926C77.0258 23.9358 77.1344 23.9457 77.1788 23.9457C77.2084 23.9457 77.2183 23.9605 77.2183 23.9753C77.2183 24 77.1936 24.0148 77.1393 24.0148C76.8678 24.0148 76.5569 24 76.5322 24C76.5174 24 76.2064 24.0148 76.0583 24.0148C76.004 24.0148 75.9793 24.0049 75.9793 23.9753C75.9793 23.9605 75.9892 23.9457 76.0188 23.9457C76.0633 23.9457 76.1225 23.9358 76.1669 23.926C76.2656 23.9062 76.2903 23.7976 76.3101 23.6545C76.3347 23.4472 76.3347 23.0572 76.3347 22.5834ZM80.3211 20.2141C80.3507 20.2141 80.3704 20.2388 80.4297 20.3918C80.5037 20.5793 81.2786 22.6179 81.5797 23.3682C81.7574 23.8075 81.9006 23.8865 82.0042 23.9161C82.0783 23.9408 82.1523 23.9457 82.2017 23.9457C82.2313 23.9457 82.251 23.9506 82.251 23.9753C82.251 24.0049 82.2066 24.0148 82.1523 24.0148C82.0783 24.0148 81.718 24.0148 81.3774 24.0049C81.2836 24 81.2293 24 81.2293 23.9704C81.2293 23.9506 81.249 23.9358 81.2638 23.9358C81.2737 23.9358 81.3033 23.9112 81.3033 23.8667C81.3033 23.8519 81.3033 23.8223 81.2935 23.8026L80.8344 22.5883C80.8245 22.5686 80.8147 22.5587 80.79 22.5587H79.7287C79.7041 22.5587 79.6893 22.5735 79.6794 22.5982L79.3832 23.4718C79.3388 23.5952 79.3141 23.7137 79.3141 23.8026C79.3141 23.9013 79.4178 23.9457 79.5017 23.9457H79.551C79.5856 23.9457 79.6004 23.9556 79.6004 23.9753C79.6004 24.0049 79.5708 24.0148 79.5264 24.0148C79.4079 24.0148 79.1957 24 79.1414 24C79.0871 24 78.8156 24.0148 78.5836 24.0148C78.5194 24.0148 78.4898 24.0049 78.4898 23.9753C78.4898 23.9556 78.5095 23.9457 78.5342 23.9457C78.5688 23.9457 78.6379 23.9408 78.6774 23.9358C78.9044 23.9062 79.0031 23.7186 79.092 23.4718L80.2125 20.4066C80.2717 20.2437 80.2914 20.2141 80.3211 20.2141ZM79.783 22.381H80.7258C80.7505 22.381 80.7505 22.3662 80.7456 22.3464L80.2766 21.0137C80.2618 20.9742 80.252 20.9594 80.2372 20.9594C80.2273 20.9594 80.2125 20.9792 80.2026 21.0137L79.7682 22.3464C79.7584 22.3711 79.7682 22.381 79.783 22.381ZM84.6213 24.0839C83.1158 24.0839 82.3952 23.23 82.3952 22.0898C82.3952 21.3 82.8838 20.2141 84.4535 20.2141C85.0409 20.2141 85.4851 20.3474 85.6727 20.3474C85.727 20.3474 85.7368 20.372 85.7368 20.4016C85.7368 20.4559 85.7023 20.6929 85.7023 20.9792C85.7023 21.2161 85.6924 21.2901 85.6529 21.2901C85.6184 21.2901 85.6134 21.2556 85.6134 21.1865C85.6134 20.609 85.0359 20.4016 84.4189 20.4016C83.1504 20.4016 82.8394 21.1766 82.8394 22.0503C82.8394 22.9931 83.565 23.8569 84.6213 23.8569C84.9915 23.8569 85.2827 23.8124 85.4802 23.6101C85.5838 23.5015 85.648 23.2843 85.6628 23.1954C85.6727 23.1411 85.6825 23.1214 85.7122 23.1214C85.7368 23.1214 85.7467 23.1559 85.7467 23.1954C85.7467 23.23 85.6875 23.6594 85.6381 23.8272C85.6085 23.921 85.5986 23.9309 85.5098 23.9704C85.3123 24.0494 84.9372 24.0839 84.6213 24.0839ZM86.3671 22.1441C86.3671 21.3444 86.9495 20.2141 88.3119 20.2141C89.4225 20.2141 90.2517 20.915 90.2517 22.0651C90.2517 23.1708 89.4718 24.0839 88.2823 24.0839C86.9298 24.0839 86.3671 23.0325 86.3671 22.1441ZM86.836 22.0059C86.836 23.1559 87.5271 23.8963 88.4155 23.8963C88.8598 23.8963 89.7779 23.6397 89.7779 22.2033C89.7779 21.0186 89.0572 20.3819 88.2773 20.3819C87.453 20.3819 86.836 20.9249 86.836 22.0059ZM92.4978 20.4954V22.5834C92.4978 23.0572 92.4978 23.4472 92.5225 23.6545C92.5373 23.7976 92.5669 23.9062 92.715 23.926C92.7841 23.9358 92.8927 23.9457 92.9371 23.9457C92.9667 23.9457 92.9766 23.9605 92.9766 23.9753C92.9766 24 92.9519 24.0148 92.8976 24.0148C92.6261 24.0148 92.3152 24 92.2905 24C92.2658 24 91.9549 24.0148 91.8068 24.0148C91.7525 24.0148 91.7278 24.0049 91.7278 23.9753C91.7278 23.9605 91.7377 23.9457 91.7673 23.9457C91.8117 23.9457 91.8709 23.9358 91.9154 23.926C92.0141 23.9062 92.0388 23.7976 92.0585 23.6545C92.0832 23.4472 92.0832 23.0572 92.0832 22.5834V20.4954L91.3527 20.5053C91.0466 20.5102 90.9282 20.5448 90.8492 20.6633C90.7949 20.7472 90.7801 20.7817 90.7653 20.8163C90.7505 20.8558 90.7357 20.8656 90.7159 20.8656C90.7011 20.8656 90.6912 20.8508 90.6912 20.8212C90.6912 20.7718 90.79 20.3474 90.7998 20.3079C90.8097 20.2782 90.8294 20.2141 90.8492 20.2141C90.8837 20.2141 90.9331 20.2634 91.0664 20.2733C91.2095 20.2881 91.3971 20.298 91.4563 20.298H93.3073C93.6232 20.298 93.7565 20.2486 93.796 20.2486C93.8207 20.2486 93.8207 20.2782 93.8207 20.3079C93.8207 20.4559 93.8059 20.7965 93.8059 20.8508C93.8059 20.8952 93.791 20.915 93.7713 20.915C93.7466 20.915 93.7368 20.9002 93.7318 20.8311L93.7269 20.7768C93.7071 20.6287 93.5936 20.5152 93.1198 20.5053L92.4978 20.4954ZM95.259 20.6484L95.2541 21.8232C95.2541 21.8578 95.264 21.8676 95.2887 21.8775C95.3183 21.8825 95.4071 21.8973 95.5898 21.8973H95.7477C96.419 21.8973 96.9817 22.2823 96.9817 22.9536C96.9817 23.4817 96.5671 24.0296 95.723 24.0296C95.6095 24.0296 95.106 24 95.0665 24C95.0419 24 94.7309 24.0148 94.5828 24.0148C94.5285 24.0148 94.5038 24.0049 94.5038 23.9753C94.5038 23.9605 94.5137 23.9457 94.5433 23.9457C94.5878 23.9457 94.647 23.9358 94.6914 23.926C94.7901 23.9062 94.8148 23.7976 94.8346 23.6545C94.8592 23.4472 94.8592 23.0572 94.8592 22.5834V21.7146C94.8592 20.9446 94.8592 20.9594 94.8494 20.6484C94.8444 20.4806 94.7654 20.3967 94.6569 20.372C94.6026 20.3572 94.5384 20.3523 94.5038 20.3523C94.4841 20.3523 94.4644 20.3424 94.4644 20.3227C94.4644 20.2931 94.489 20.2832 94.5433 20.2832C94.7062 20.2832 95.0172 20.298 95.0419 20.298C95.0665 20.298 95.3775 20.2832 95.5256 20.2832C95.5799 20.2832 95.6046 20.2931 95.6046 20.3227C95.6046 20.3424 95.5848 20.3523 95.5651 20.3523C95.5305 20.3523 95.5009 20.3572 95.4417 20.3671C95.3084 20.3918 95.2689 20.4757 95.259 20.6484ZM95.2541 22.2329V22.3464C95.2541 22.7265 95.2541 23.3386 95.259 23.4126C95.2739 23.6545 95.2739 23.7236 95.4269 23.7976C95.5601 23.8618 95.7724 23.8717 95.8612 23.8717C96.1278 23.8717 96.5572 23.7285 96.5572 23.1708C96.5572 22.7216 96.3055 22.0601 95.5355 22.0601C95.2837 22.0601 95.2492 22.1046 95.2541 22.2329ZM98.1762 21.7146V22.5834C98.1762 23.0572 98.1762 23.4472 98.2009 23.6545C98.2157 23.7976 98.2453 23.9062 98.3934 23.926C98.4625 23.9358 98.5711 23.9457 98.6155 23.9457C98.6452 23.9457 98.655 23.9605 98.655 23.9753C98.655 24 98.6303 24.0148 98.576 24.0148C98.3046 24.0148 97.9936 24 97.9689 24C97.9442 24 97.6333 24.0148 97.4852 24.0148C97.4309 24.0148 97.4062 24.0049 97.4062 23.9753C97.4062 23.9605 97.4161 23.9457 97.4457 23.9457C97.4901 23.9457 97.5494 23.9358 97.5938 23.926C97.6925 23.9062 97.7172 23.7976 97.7369 23.6545C97.7616 23.4472 97.7616 23.0572 97.7616 22.5834V21.7146C97.7616 20.9446 97.7616 20.8064 97.7517 20.6484C97.7419 20.4806 97.6925 20.3967 97.5839 20.372C97.5296 20.3572 97.4654 20.3523 97.4309 20.3523C97.4111 20.3523 97.3914 20.3424 97.3914 20.3227C97.3914 20.2931 97.4161 20.2832 97.4704 20.2832C97.6333 20.2832 97.9442 20.298 97.9689 20.298C97.9936 20.298 98.3046 20.2832 98.4526 20.2832C98.5069 20.2832 98.5316 20.2931 98.5316 20.3227C98.5316 20.3424 98.5119 20.3523 98.4921 20.3523C98.4576 20.3523 98.428 20.3572 98.3687 20.3671C98.2355 20.3918 98.196 20.4757 98.1861 20.6484C98.1762 20.8064 98.1762 20.9446 98.1762 21.7146Z" fill="#8A7BAE"/>
</svg>
