<svg width="40" height="40" viewBox="0 0 40 40" fill="none" xmlns="http://www.w3.org/2000/svg">
<path fill-rule="evenodd" clip-rule="evenodd" d="M19.9993 38.3327C9.87413 38.3327 1.66602 30.1246 1.66602 19.9993C1.66602 9.87413 9.87413 1.66602 19.9993 1.66602C30.1246 1.66602 38.3327 9.87413 38.3327 19.9993C38.3327 30.1246 30.1246 38.3327 19.9993 38.3327ZM19.9993 34.9993C28.2836 34.9993 34.9993 28.2836 34.9993 19.9993C34.9993 11.7151 28.2836 4.99935 19.9993 4.99935C11.7151 4.99935 4.99935 11.7151 4.99935 19.9993C4.99935 28.2836 11.7151 34.9993 19.9993 34.9993ZM17.8445 12.1542L15.4875 14.5112L20.9757 19.9993L15.4875 25.4875L17.8445 27.8445L25.6897 19.9993L17.8445 12.1542Z" fill="#8A7BAE"/>
</svg>
