<svg width="161" height="158" viewBox="0 0 161 158" fill="none" xmlns="http://www.w3.org/2000/svg">
<path d="M55.2294 146.08C53.6389 144.857 52.3878 143.577 51.4762 142.241C50.525 140.848 49.9992 139.461 49.899 138.083C49.7937 136.697 50.2711 135.642 51.331 134.919C51.9117 134.522 52.5883 134.305 53.3607 134.268C54.1331 134.23 55.1702 134.666 56.4721 135.576C55.9517 134.346 55.7939 133.171 55.9987 132.052C56.1913 130.931 56.7813 130.034 57.7686 129.36C59.0536 128.483 60.4732 128.334 62.0275 128.912C63.5695 129.487 65.1184 130.915 66.674 133.194C67.8085 134.857 68.4622 136.236 68.635 137.331C68.8028 138.419 68.5818 139.171 67.972 139.587C67.58 139.854 67.1446 139.949 66.666 139.872C66.1824 139.787 65.7721 139.497 65.4352 139.004C65.1875 138.641 65.0555 138.268 65.0392 137.885C65.0179 137.496 65.1369 136.898 65.3964 136.093C65.7623 134.992 65.7074 134.094 65.2318 133.397C64.6522 132.547 63.8543 132.033 62.8382 131.854C61.8222 131.675 60.8568 131.897 59.9421 132.522C59.3903 132.898 58.9735 133.347 58.6915 133.87C58.3973 134.39 58.2557 134.939 58.2669 135.516C58.2731 136.087 58.3744 136.555 58.571 136.921C58.7603 137.292 59.268 138.137 60.0941 139.457L59.212 140.059C58.4144 138.89 57.7671 138.097 57.2701 137.681C56.761 137.262 56.1847 137.065 55.5414 137.089C54.8908 137.118 54.2643 137.338 53.6617 137.749C52.9285 138.25 52.4805 138.864 52.3178 139.592C52.1478 140.325 52.3129 141.059 52.8133 141.792C53.3335 142.554 54.0123 143.096 54.8495 143.419C55.6794 143.746 56.8709 143.8 58.4238 143.581L59.1001 144.572C57.5702 145.34 56.2799 145.842 55.2294 146.08Z" fill="white"/>
<path d="M56.3896 116.829L56.4969 116.483C56.5344 116.39 56.5931 116.323 56.6728 116.282L56.7326 116.252C57.5427 116.241 58.1383 116.359 58.5195 116.607C58.8922 116.858 59.1483 117.228 59.2877 117.718C59.4295 118.217 59.4168 118.687 59.2496 119.127C59.0716 119.561 58.678 120.025 58.0689 120.518C58.8148 120.699 59.4463 121.072 59.9635 121.638C60.4722 122.206 60.8624 122.968 61.134 123.923C61.384 124.802 61.3861 125.501 61.1403 126.018C60.8861 126.538 60.4589 126.884 59.8587 127.054C59.5797 127.134 59.2797 127.155 58.9586 127.118C58.6351 127.073 58.2954 126.955 57.9395 126.764C57.5727 126.567 57.1338 126.212 56.6225 125.699C56.5454 125.62 56.3103 125.34 55.9174 124.858L53.7515 122.061C53.4231 122.127 53.094 122.207 52.7643 122.3C51.623 122.625 50.8849 122.986 50.55 123.382C50.3444 123.623 50.3017 123.955 50.4219 124.378C50.5421 124.801 50.733 125.167 50.9945 125.476C51.2561 125.786 51.5365 125.985 51.8358 126.073C52.0555 126.139 52.4352 126.14 52.9749 126.078C53.3637 126.032 53.5949 126.025 53.6685 126.059C53.8652 126.14 54.0792 126.331 54.3106 126.63C54.5312 126.924 54.6879 127.122 54.7807 127.223C55.1303 127.617 55.3435 127.95 55.4204 128.22C55.3527 128.367 55.2258 128.467 55.0398 128.52C54.5579 128.657 54.1148 128.674 53.7105 128.569C53.1336 128.404 52.5304 128.082 51.9008 127.603C51.2604 127.118 50.7715 126.636 50.4341 126.156C49.9907 125.497 49.6199 124.643 49.3219 123.594C49.1296 122.918 49.0918 122.303 49.2084 121.749C49.3141 121.189 49.5858 120.746 50.0232 120.421C50.4583 120.087 51.3141 119.739 52.5906 119.376L54.6938 118.819L56.221 118.357L56.6141 118.245C56.9692 118.144 57.2011 118.028 57.31 117.897C57.4079 117.759 57.4353 117.614 57.392 117.462C57.3656 117.369 57.3174 117.296 57.2474 117.243L56.5433 117.032L56.3896 116.829ZM54.6301 121.825C54.9278 122.261 55.3533 122.729 55.9068 123.23C56.4495 123.724 56.9446 124.036 57.3924 124.164C57.7194 124.254 58.0858 124.241 58.4916 124.126C58.8552 124.023 59.124 123.827 59.2982 123.54C59.4725 123.253 59.5187 122.966 59.437 122.678C59.3024 122.205 59.053 121.842 58.6887 121.589C58.1978 121.244 57.8358 121.064 57.6029 121.048C57.3614 121.035 56.7377 121.171 55.7317 121.457C55.3597 121.563 54.9925 121.685 54.6301 121.825Z" fill="white"/>
<path d="M47.284 96.946L48.201 97.1464C48.245 97.7017 48.2657 98.0234 48.2629 98.1112C48.2593 98.5068 48.3353 98.7466 48.4909 98.8306C48.638 98.9056 49.2914 98.9614 50.451 98.9978L51.585 99.0072L52.7722 99.0049L54.339 99.0938C54.725 99.1236 55.1244 99.1449 55.5373 99.1579C56.1874 99.1784 56.6899 99.137 57.0449 99.0339C57.1938 98.4934 57.2903 98.0831 57.3342 97.8031C57.3562 97.6631 57.3869 97.5278 57.4262 97.3971L58.2304 97.4092L58.102 98.9748C58.0601 99.4659 58.0322 99.9355 58.0181 100.384L58.0234 102.309L58.0247 103.945L57.2213 103.907C57.19 103.782 57.168 103.645 57.1551 103.496C57.1091 103.002 57.0386 102.586 56.9437 102.249C55.9217 102.032 54.071 101.882 51.3917 101.797L48.2008 101.763C48.2097 102.317 48.2049 102.889 48.1864 103.477C48.164 104.189 48.1381 104.733 48.1086 105.11L48.047 106.23C48.0398 106.458 48.0454 106.7 48.0637 106.956L49.4082 106.985L55.4688 107.202C55.9784 107.218 56.4194 107.174 56.7919 107.072C56.9409 106.531 57.0373 106.121 57.0813 105.841C57.1033 105.701 57.1338 105.57 57.1728 105.448L57.9774 105.447L57.849 107.013C57.8072 107.504 57.7792 107.974 57.7651 108.422L57.7705 110.347L57.7717 111.983L56.9684 111.945C56.9371 111.821 56.915 111.684 56.9021 111.534C56.8559 111.049 56.7854 110.633 56.6908 110.287C56.0536 110.135 55.0674 110.038 53.7321 109.996L51.1214 109.967L49.4866 109.942C48.6694 109.925 48.1984 109.941 48.0738 109.99C47.9491 110.038 47.8759 110.269 47.8542 110.682C47.8478 110.884 47.8116 111.195 47.7457 111.615L46.8179 111.757L46.9504 110.06L47.0293 109.231L47.0311 108.334C47.0372 108.141 47.0548 107.86 47.084 107.492L47.216 104.555L47.2906 100.508L47.3369 99.4538C47.3743 98.2679 47.3566 97.432 47.284 96.946Z" fill="white"/>
<path d="M50.8609 87.1765L49.9534 87.0784C50.3682 85.9921 50.6526 85.1967 50.8067 84.6924L50.9944 84.0329L51.3153 83.0281C51.6621 81.8934 51.8683 81.0834 51.9339 80.5979L52.7411 81.0238L52.5481 81.9712C52.4248 82.3747 52.424 82.6179 52.5456 82.7011C52.6615 82.7732 53.3472 83.0104 54.6028 83.4125L55.4273 83.692L56.4622 84.0496C59.1687 84.8767 60.6295 85.2542 60.8445 85.1821C61.1137 84.7221 61.3101 84.3502 61.4336 84.0663C61.489 83.9453 61.554 83.8228 61.6287 83.6986L62.3765 83.9133L62.0728 84.7717C61.7501 85.6472 61.5232 86.2993 61.3922 86.728L60.4654 90.1668L59.7253 89.9269C59.7302 89.7905 59.7448 89.6526 59.7691 89.5129C59.8534 88.9965 59.8985 88.5783 59.9044 88.2584C59.4057 87.9957 58.362 87.6217 56.7734 87.1362L55.8744 86.8752L54.4808 86.5183C54.3548 86.4797 54.133 86.3936 53.8154 86.2598C55.8762 89.711 57.093 91.8795 57.4656 92.7654C57.8877 92.8576 58.2306 92.8935 58.4942 92.873C58.7634 92.413 58.9598 92.0411 59.0833 91.7572C59.1386 91.6362 59.2024 91.5178 59.2745 91.402L60.0261 91.6041L59.7224 92.4625C59.3971 93.3465 59.1703 93.9986 59.0419 94.4189L58.115 97.8577L57.375 97.6178C57.3799 97.4814 57.3945 97.3434 57.4188 97.2038C57.5005 96.6957 57.5456 96.2776 57.554 95.9493C57.0553 95.6866 56.516 95.4666 55.936 95.2894L53.9149 94.6855L52.0741 94.123L51.3894 93.9275L50.5661 93.6897C49.8154 93.4695 49.3735 93.3666 49.2405 93.3811C49.1074 93.3956 48.9763 93.599 48.8471 93.9915C48.7983 94.1512 48.6861 94.4432 48.5105 94.8674L47.6031 94.7693C48.0178 93.6829 48.3022 92.8876 48.4563 92.3833L48.6441 91.7238L48.9649 90.719C49.3117 89.5843 49.5166 88.7784 49.5797 88.3014L50.3908 88.7147L50.1978 89.6621C50.0719 90.0739 50.0698 90.3214 50.1915 90.4046C50.3073 90.4767 50.9943 90.7096 52.2525 91.1033L53.01 91.3762L53.9062 91.6914L56.3182 92.4148L54.5066 89.366C53.9447 88.4682 53.5019 87.7217 53.1783 87.1266C52.8606 86.5424 52.6168 86.137 52.4471 85.9105C52.2253 85.8244 52.0766 85.7697 52.0009 85.7466C51.6395 85.6362 51.3717 85.8208 51.1975 86.3006C51.112 86.5502 50.9998 86.8422 50.8609 87.1765Z" fill="white"/>
<path d="M64.8031 73.1791C64.9444 73.1013 65.0448 73.0394 65.1042 72.9935C65.2854 72.8679 65.4644 72.7876 65.6413 72.7524C66.2634 73.417 66.6065 74.3068 66.6705 75.4218C66.7345 76.5367 66.3985 77.6881 65.6625 78.8761C65.1996 79.6232 64.5844 80.2656 63.817 80.8034C63.0495 81.3412 62.2738 81.667 61.4898 81.781C60.8855 81.8718 60.2425 81.825 59.5608 81.6404C58.8836 81.4483 58.3434 81.2273 57.9399 80.9773C57.4543 80.6764 56.9699 80.2316 56.4869 79.6428C55.9964 79.0494 55.6312 78.3372 55.3913 77.5062C55.1514 76.6752 55.1023 75.7866 55.2439 74.8404C55.3902 73.8868 55.7549 72.9393 56.3382 71.9979C57.139 70.7053 57.8985 69.93 58.6167 69.672C59.335 69.4139 59.8958 69.4098 60.2992 69.6598C60.6952 69.9051 60.9442 70.2041 61.0462 70.5568C61.1454 70.8974 61.0839 71.247 60.8617 71.6056C60.6719 71.912 60.3951 72.1334 60.0314 72.2699C59.6723 72.3989 59.2004 72.4013 58.6158 72.2768C58.1888 72.1984 57.832 72.2152 57.5455 72.3271C57.2665 72.4438 57.0367 72.6478 56.8561 72.9391C56.421 73.6414 56.3348 74.4565 56.5974 75.3843C56.8526 76.3075 57.4994 77.0908 58.5379 77.7343C59.7856 78.5073 60.9876 78.7867 62.1439 78.5726C63.2973 78.3464 64.1402 77.8036 64.6725 76.9444C64.9363 76.5186 65.1123 76.1261 65.2003 75.7671C65.2488 75.5387 65.2605 75.1944 65.2354 74.7342C65.2266 74.615 65.1608 74.3623 65.0382 73.9762C64.9202 73.5826 64.8418 73.3169 64.8031 73.1791Z" fill="white"/>
<path d="M76.3765 61.9914L76.7332 61.9298C76.833 61.9209 76.9193 61.9427 76.992 61.9951L77.0466 62.0344C77.4248 62.7509 77.5901 63.3353 77.5426 63.7875C77.4891 64.2333 77.2757 64.6298 76.9024 64.9769C76.5227 65.3301 76.0986 65.5323 75.6304 65.5837C75.1625 65.6227 74.5706 65.4831 73.8545 65.1648C74.0326 65.9113 73.9874 66.6435 73.7188 67.3613C73.4442 68.0727 72.9433 68.7666 72.216 69.4429C71.5466 70.0654 70.9255 70.3849 70.3528 70.4014C69.7741 70.4115 69.2722 70.188 68.8473 69.7311C68.6498 69.5187 68.4943 69.2611 68.3809 68.9585C68.274 68.6499 68.2247 68.2936 68.2332 67.8897C68.2421 67.4734 68.3585 66.921 68.5825 66.2326C68.6174 66.1282 68.7603 65.7913 69.011 65.2221L70.5172 62.0212C70.3091 61.7586 70.0883 61.5019 69.8549 61.2509C69.0469 60.382 68.3901 59.8886 67.8844 59.7707C67.5761 59.6973 67.2611 59.8103 66.9392 60.1095C66.6174 60.4088 66.3782 60.7452 66.2216 61.1189C66.065 61.4926 66.0153 61.8328 66.0726 62.1396C66.1142 62.365 66.2853 62.7039 66.5861 63.1564C66.8043 63.4815 66.9151 63.6845 66.9184 63.7655C66.9356 63.9776 66.8633 64.2548 66.7016 64.5972C66.5404 64.9271 66.4357 65.1565 66.3875 65.2854C66.1955 65.7759 65.9966 66.117 65.7906 66.3085C65.6287 66.315 65.4819 66.2475 65.3502 66.1059C65.0091 65.7391 64.793 65.3519 64.7021 64.9443C64.5867 64.3556 64.5991 63.6719 64.7393 62.8934C64.8799 62.1025 65.0872 61.4477 65.361 60.9291C65.7469 60.2341 66.3389 59.5156 67.137 58.7734C67.6519 58.2946 68.1826 57.9812 68.729 57.8331C69.2759 57.6726 69.7937 57.7132 70.2824 57.9548C70.7776 58.1905 71.4771 58.7942 72.3808 59.7661L73.8332 61.386L74.9388 62.5362L75.2171 62.8355C75.4685 63.1058 75.6775 63.2596 75.844 63.2967C76.011 63.3214 76.1525 63.2799 76.2683 63.1722C76.3391 63.1064 76.3823 63.0302 76.3979 62.9437L76.2656 62.2206L76.3765 61.9914ZM71.127 62.6963C70.8739 63.1598 70.6503 63.7518 70.4562 64.4723C70.2625 65.1805 70.2103 65.7631 70.2994 66.2204C70.3682 66.5525 70.5462 66.873 70.8335 67.1819C71.0909 67.4587 71.387 67.6094 71.722 67.634C72.0569 67.6586 72.3338 67.5691 72.5526 67.3656C72.913 67.0304 73.123 66.6432 73.1825 66.2038C73.2662 65.6098 73.2623 65.2054 73.1706 64.9907C73.0729 64.7695 72.6679 64.2759 71.9557 63.51C71.6923 63.2268 71.4161 62.9556 71.127 62.6963Z" fill="white"/>
<path d="M77.3417 54.0914C77.3376 53.942 77.3052 53.743 77.2446 53.4944L77.1602 53.0266C77.051 52.4617 76.9021 51.8183 76.7136 51.0963L76.6194 50.6645L77.1579 50.3579C77.2308 50.3972 77.2875 50.4257 77.3278 50.4432C77.7014 50.6553 77.9258 50.7652 78.001 50.7729C78.0904 50.7523 78.4903 50.5398 79.2006 50.1354L81.564 48.7442L82.4756 48.2404L85.1336 46.727C85.1565 46.714 85.2362 46.6585 85.3726 46.5606C85.509 46.4627 85.5909 46.3756 85.6183 46.2994C85.6457 46.2231 85.6388 46.0601 85.5978 45.8104L85.5835 45.5455C85.7243 45.4552 85.9321 45.3318 86.2071 45.1752L87.2362 46.956L87.6847 47.717C87.9543 48.1906 88.0956 48.4742 88.1085 48.568C87.9119 48.7912 87.728 48.9566 87.5566 49.0643C87.3301 48.9505 86.9723 48.7042 86.4835 48.3251C86.0566 48.0018 85.774 47.834 85.6356 47.8218C85.5048 47.8052 85.1644 47.9535 84.6145 48.2666L83.9909 48.6368C83.7694 48.7629 83.5185 48.8906 83.2381 49.0199L83.8024 49.9578L84.4775 51.1967L85.5797 53.2392C86.6712 55.1563 87.3313 56.1913 87.56 56.3443C88.1064 56.1849 88.5067 56.0531 88.7609 55.9488C88.8918 55.8945 89.0232 55.85 89.1552 55.8153L89.5646 56.5077L88.1621 57.2152C87.7213 57.4358 87.31 57.6548 86.9281 57.8722L85.2766 58.8884L83.882 59.7431L83.507 59.0312C83.5889 58.9441 83.6904 58.856 83.8116 58.7668C84.2089 58.4698 84.5265 58.1928 84.7646 57.9359C84.5476 57.2706 84.1499 56.43 83.5715 55.4142L82.1167 52.9656C81.4166 51.7359 80.9322 50.9296 80.6635 50.5465C80.3111 50.7269 80.0356 50.8736 79.837 50.9867C79.1573 51.3737 78.754 51.6691 78.6272 51.8728C78.5004 52.0764 78.3803 52.5494 78.2669 53.2916L78.1992 53.679C78.1585 53.9449 78.1037 54.0975 78.035 54.1366C77.8975 54.2149 77.6664 54.1998 77.3417 54.0914Z" fill="white"/>
<path d="M93.389 48.1301L94.7784 47.6288L95.2332 47.4505C97.3193 46.7603 98.7956 46.5496 99.6621 46.8183C100.537 47.0843 101.118 47.6512 101.405 48.519C101.75 49.562 101.587 50.4955 100.915 51.3195C100.252 52.1407 99.1569 52.8039 97.6299 53.3092L95.9444 53.839L90.95 55.6581L90.7266 54.8989L91.4987 54.5045C91.802 54.3579 92.0302 54.2222 92.1834 54.0975C92.234 53.8308 91.9252 52.6878 91.2571 50.6685L90.5156 48.5531L89.9894 47.0886C89.7437 46.346 89.5778 45.9287 89.4919 45.8368C89.4115 45.7338 89.1739 45.743 88.7789 45.8644L87.8362 46.0791L87.4875 45.403L89.0104 44.8852L89.4652 44.707C89.8268 44.5688 90.3289 44.3934 90.9714 44.1808L92.39 43.6837L93.3078 43.3939C93.4663 43.3415 93.7237 43.2239 94.0799 43.0413L94.2113 43.9421C93.6799 44.1827 93.3558 44.3223 93.239 44.361C92.7466 44.5239 92.4739 44.6789 92.4208 44.8261C92.3649 44.9649 92.4142 45.268 92.5688 45.7353L92.9748 46.9202L93.1943 47.5835C93.2495 47.7504 93.3144 47.9326 93.389 48.1301ZM95.0459 52.9282C95.3683 52.9233 95.8216 52.8243 96.4057 52.631C98.2998 52.0043 99.0233 51.0151 98.576 49.6634C98.3828 49.0793 97.9862 48.6782 97.3864 48.46C96.7865 48.2419 96.0109 48.2902 95.0597 48.6049C94.6675 48.7347 94.2363 48.9144 93.7661 49.144C93.7909 49.2469 93.8061 49.3067 93.8116 49.3234L94.0808 50.0953C94.3207 50.9602 94.5746 51.7973 94.8424 52.6067C94.8782 52.7152 94.9461 52.8224 95.0459 52.9282Z" fill="white"/>
<path d="M112.086 47.351C112.232 47.4189 112.341 47.4632 112.413 47.484C112.622 47.5559 112.792 47.6527 112.925 47.7746C112.757 48.6693 112.243 49.4721 111.381 50.1831C110.52 50.894 109.393 51.3039 108 51.4129C107.123 51.4814 106.242 51.3652 105.354 51.0644C104.467 50.7635 103.745 50.3307 103.19 49.7658C102.759 49.3323 102.417 48.786 102.162 48.1271C101.917 47.4674 101.775 46.901 101.738 46.4279C101.694 45.8583 101.766 45.2047 101.955 44.467C102.144 43.7206 102.502 43.0049 103.031 42.32C103.559 41.6351 104.246 41.07 105.093 40.6247C105.949 40.1787 106.928 39.9126 108.032 39.8262C109.548 39.7077 110.623 39.8617 111.256 40.2882C111.888 40.7148 112.223 41.1647 112.26 41.6378C112.297 42.1022 112.203 42.4799 111.979 42.7707C111.763 43.052 111.444 43.2092 111.024 43.2421C110.664 43.2702 110.322 43.1779 109.997 42.9653C109.681 42.752 109.4 42.3729 109.154 41.8279C108.965 41.4371 108.741 41.1593 108.481 40.9945C108.222 40.8385 107.921 40.7738 107.58 40.8005C106.756 40.8649 106.048 41.2774 105.455 42.0378C104.861 42.7895 104.612 43.7744 104.707 44.9923C104.822 46.4556 105.307 47.5902 106.164 48.396C107.028 49.1923 107.964 49.5511 108.972 49.4723C109.471 49.4332 109.892 49.343 110.234 49.2017C110.446 49.1057 110.731 48.9116 111.087 48.6192C111.178 48.5416 111.343 48.3391 111.582 48.0119C111.83 47.684 111.997 47.4637 112.086 47.351Z" fill="white"/>
<path d="M128.046 52.236C128.039 52.3689 128.029 52.4699 128.017 52.539C128.002 52.6168 127.965 52.726 127.903 52.8666C127.341 52.7632 126.797 52.6364 126.271 52.4859L125.91 52.4062L125.206 52.2231L124.347 52.0115L122.229 51.7961L121.894 51.7211L121.66 51.6782C121.659 51.5885 121.664 51.4868 121.676 51.3728C121.699 51.2518 121.708 51.1284 121.704 51.0026C121.833 50.9816 122.045 50.9714 122.34 50.9721C122.983 50.9742 123.375 50.9301 123.517 50.84C123.568 50.5634 123.665 50.1344 123.807 49.553C123.9 49.1947 124.066 48.3629 124.307 47.0577L123.767 46.9316C123.369 46.8584 123.008 46.9037 122.683 47.0673C122.358 47.2309 121.943 47.6373 121.44 48.2864L119.931 50.2207C119.584 50.7467 119.332 51.0712 119.176 51.1943L118.005 50.9254C117.106 50.7601 116.539 50.6646 116.302 50.639L115.486 50.5559L115.061 50.4642C115.071 50.3589 115.084 50.2631 115.1 50.1766C115.122 50.0556 115.163 49.9334 115.221 49.8101C115.829 49.8593 116.286 49.8005 116.594 49.6337C116.903 49.4583 117.317 49.0562 117.835 48.4276C118.705 47.3901 119.355 46.7233 119.784 46.427C120.225 46.1237 120.696 45.9422 121.198 45.8827C120.146 45.4836 119.399 45.0469 118.959 44.5728C118.519 44.0987 118.361 43.5245 118.485 42.8502C118.636 42.029 119.13 41.4318 119.968 41.0586C120.813 40.6869 121.95 40.6322 123.376 40.8945L125.047 41.2824L126.866 41.6705C127.439 41.8116 127.954 41.9243 128.412 42.0086C128.931 42.104 129.368 42.2067 129.723 42.3167C129.729 42.3804 129.731 42.4165 129.73 42.4252L129.618 43.0346C129.509 43.0414 129.315 43.0281 129.035 42.9945L128.812 42.9669L128.654 42.9512L128.347 42.9482C128.259 42.941 128.182 42.9448 128.117 42.9596C128.075 43.086 128.049 43.1795 128.038 43.2401L127.996 43.5407L127.944 43.8259L127.816 44.4459L127.645 45.2321L127.032 48.9264L126.825 49.907C126.69 50.6417 126.627 51.1797 126.636 51.5209C126.837 51.6919 127.104 51.8395 127.439 51.9636C127.706 52.0663 127.908 52.1571 128.046 52.236ZM124.526 46.0122L124.668 45.167L124.729 44.7627L125.157 42.2142C124.989 42.1564 124.762 42.1013 124.477 42.0489C123.578 41.8835 122.888 41.9666 122.407 42.2981C121.935 42.6313 121.649 43.0701 121.548 43.6147C121.327 44.8162 122.112 45.5816 123.901 45.9107L124.526 46.0122Z" fill="white"/>
</svg>
