<svg width="224" height="212" viewBox="0 0 224 212" fill="none" xmlns="http://www.w3.org/2000/svg">
<g filter="url(#filter0_f_336_565)">
<circle cx="109.5" cy="108.5" r="38.5" fill="#E4CDF5"/>
</g>
<path d="M55.2294 146.08C53.6389 144.857 52.3878 143.577 51.4762 142.241C50.525 140.848 49.9992 139.461 49.899 138.083C49.7937 136.697 50.2711 135.642 51.331 134.919C51.9117 134.522 52.5883 134.305 53.3607 134.268C54.1331 134.23 55.1702 134.666 56.4721 135.576C55.9517 134.346 55.7939 133.171 55.9987 132.052C56.1913 130.931 56.7813 130.034 57.7686 129.36C59.0536 128.483 60.4732 128.334 62.0275 128.912C63.5695 129.487 65.1184 130.915 66.674 133.194C67.8085 134.857 68.4622 136.236 68.635 137.331C68.8028 138.419 68.5818 139.171 67.972 139.587C67.58 139.854 67.1446 139.949 66.666 139.872C66.1824 139.787 65.7721 139.497 65.4352 139.004C65.1875 138.641 65.0555 138.268 65.0392 137.885C65.0179 137.496 65.1369 136.898 65.3964 136.093C65.7623 134.992 65.7074 134.094 65.2318 133.397C64.6522 132.547 63.8543 132.033 62.8382 131.854C61.8222 131.675 60.8568 131.897 59.9421 132.522C59.3903 132.898 58.9735 133.347 58.6915 133.87C58.3973 134.39 58.2557 134.939 58.2669 135.516C58.2731 136.087 58.3744 136.555 58.571 136.921C58.7603 137.292 59.268 138.137 60.0941 139.457L59.212 140.059C58.4144 138.89 57.7671 138.097 57.2701 137.681C56.761 137.262 56.1847 137.065 55.5414 137.089C54.8908 137.118 54.2643 137.338 53.6617 137.749C52.9285 138.25 52.4805 138.864 52.3178 139.592C52.1478 140.325 52.3129 141.059 52.8133 141.792C53.3335 142.554 54.0123 143.096 54.8495 143.419C55.6794 143.746 56.8709 143.8 58.4238 143.581L59.1001 144.572C57.5702 145.34 56.2799 145.842 55.2294 146.08Z" fill="white"/>
<path d="M56.3896 116.829L56.4969 116.483C56.5344 116.39 56.5931 116.323 56.6728 116.282L56.7326 116.252C57.5427 116.241 58.1383 116.359 58.5195 116.607C58.8922 116.858 59.1483 117.228 59.2877 117.718C59.4295 118.217 59.4168 118.687 59.2496 119.127C59.0716 119.561 58.678 120.025 58.0689 120.518C58.8148 120.699 59.4463 121.072 59.9635 121.638C60.4722 122.206 60.8624 122.968 61.134 123.923C61.384 124.802 61.3861 125.501 61.1403 126.018C60.8861 126.538 60.4589 126.884 59.8587 127.054C59.5797 127.134 59.2797 127.155 58.9586 127.118C58.6351 127.073 58.2954 126.955 57.9395 126.764C57.5727 126.567 57.1338 126.212 56.6225 125.699C56.5454 125.62 56.3103 125.34 55.9174 124.858L53.7515 122.061C53.4231 122.127 53.094 122.207 52.7643 122.3C51.623 122.625 50.8849 122.986 50.55 123.382C50.3444 123.623 50.3017 123.955 50.4219 124.378C50.5421 124.801 50.733 125.167 50.9945 125.476C51.2561 125.786 51.5365 125.985 51.8358 126.073C52.0555 126.139 52.4352 126.14 52.9749 126.078C53.3637 126.032 53.5949 126.025 53.6685 126.059C53.8652 126.14 54.0792 126.331 54.3106 126.63C54.5312 126.924 54.6879 127.122 54.7807 127.223C55.1303 127.617 55.3435 127.95 55.4204 128.22C55.3527 128.367 55.2258 128.467 55.0398 128.52C54.5579 128.657 54.1148 128.674 53.7105 128.569C53.1336 128.404 52.5304 128.082 51.9008 127.603C51.2604 127.118 50.7715 126.636 50.4341 126.156C49.9907 125.497 49.6199 124.643 49.3219 123.594C49.1296 122.918 49.0918 122.303 49.2084 121.749C49.3141 121.189 49.5858 120.746 50.0232 120.421C50.4583 120.087 51.3141 119.739 52.5906 119.376L54.6938 118.819L56.221 118.357L56.6141 118.245C56.9692 118.144 57.2011 118.028 57.31 117.897C57.4079 117.759 57.4353 117.614 57.392 117.462C57.3656 117.369 57.3174 117.296 57.2474 117.243L56.5433 117.032L56.3896 116.829ZM54.6301 121.825C54.9278 122.261 55.3533 122.729 55.9068 123.23C56.4495 123.724 56.9446 124.036 57.3924 124.164C57.7194 124.254 58.0858 124.241 58.4916 124.126C58.8552 124.023 59.124 123.827 59.2982 123.54C59.4725 123.253 59.5187 122.966 59.437 122.678C59.3024 122.205 59.053 121.842 58.6887 121.589C58.1978 121.244 57.8358 121.064 57.6029 121.048C57.3614 121.035 56.7377 121.171 55.7317 121.457C55.3597 121.563 54.9925 121.685 54.6301 121.825Z" fill="white"/>
<path d="M47.284 99.946L48.201 100.146C48.245 100.702 48.2657 101.023 48.2629 101.111C48.2593 101.507 48.3353 101.747 48.4909 101.831C48.638 101.906 49.2914 101.961 50.451 101.998L51.585 102.007L52.7722 102.005L54.339 102.094C54.725 102.124 55.1244 102.145 55.5373 102.158C56.1874 102.178 56.6899 102.137 57.0449 102.034C57.1938 101.493 57.2903 101.083 57.3342 100.803C57.3562 100.663 57.3869 100.528 57.4262 100.397L58.2304 100.409L58.102 101.975C58.0601 102.466 58.0322 102.935 58.0181 103.384L58.0234 105.309L58.0247 106.945L57.2213 106.907C57.19 106.782 57.168 106.645 57.1551 106.496C57.1091 106.002 57.0386 105.586 56.9437 105.249C55.9217 105.032 54.071 104.882 51.3917 104.797L48.2008 104.763C48.2097 105.317 48.2049 105.889 48.1864 106.477C48.164 107.189 48.1381 107.733 48.1086 108.11L48.047 109.23C48.0398 109.458 48.0454 109.7 48.0637 109.956L49.4082 109.985L55.4688 110.202C55.9784 110.218 56.4194 110.174 56.7919 110.072C56.9409 109.531 57.0373 109.121 57.0813 108.841C57.1033 108.701 57.1338 108.57 57.1728 108.448L57.9774 108.447L57.849 110.013C57.8072 110.504 57.7792 110.974 57.7651 111.422L57.7705 113.347L57.7717 114.983L56.9684 114.945C56.9371 114.821 56.915 114.684 56.9021 114.534C56.8559 114.049 56.7854 113.633 56.6908 113.287C56.0536 113.135 55.0674 113.038 53.7321 112.996L51.1214 112.967L49.4866 112.942C48.6694 112.925 48.1984 112.941 48.0738 112.99C47.9491 113.038 47.8759 113.269 47.8542 113.682C47.8478 113.884 47.8116 114.195 47.7457 114.615L46.8179 114.757L46.9504 113.06L47.0293 112.231L47.0311 111.334C47.0372 111.141 47.0548 110.86 47.084 110.492L47.216 107.555L47.2906 103.508L47.3369 102.454C47.3743 101.268 47.3566 100.432 47.284 99.946Z" fill="white"/>
<path d="M50.8609 88.1765L49.9534 88.0784C50.3682 86.9921 50.6526 86.1967 50.8067 85.6924L50.9944 85.0329L51.3153 84.0281C51.6621 82.8934 51.8683 82.0834 51.9339 81.5979L52.7411 82.0238L52.5481 82.9712C52.4248 83.3747 52.424 83.6179 52.5456 83.7011C52.6615 83.7732 53.3472 84.0104 54.6028 84.4125L55.4273 84.692L56.4622 85.0496C59.1687 85.8767 60.6295 86.2542 60.8445 86.1821C61.1137 85.7221 61.3101 85.3502 61.4336 85.0663C61.489 84.9453 61.554 84.8228 61.6287 84.6986L62.3765 84.9133L62.0728 85.7717C61.7501 86.6472 61.5232 87.2993 61.3922 87.728L60.4654 91.1668L59.7253 90.9269C59.7302 90.7905 59.7448 90.6526 59.7691 90.5129C59.8534 89.9965 59.8985 89.5783 59.9044 89.2584C59.4057 88.9957 58.362 88.6217 56.7734 88.1362L55.8744 87.8752L54.4808 87.5183C54.3548 87.4797 54.133 87.3936 53.8154 87.2598C55.8762 90.711 57.093 92.8795 57.4656 93.7654C57.8877 93.8576 58.2306 93.8935 58.4942 93.873C58.7634 93.413 58.9598 93.0411 59.0833 92.7572C59.1386 92.6362 59.2024 92.5178 59.2745 92.402L60.0261 92.6041L59.7224 93.4625C59.3971 94.3465 59.1703 94.9986 59.0419 95.4189L58.115 98.8577L57.375 98.6178C57.3799 98.4814 57.3945 98.3434 57.4188 98.2038C57.5005 97.6957 57.5456 97.2776 57.554 96.9493C57.0553 96.6866 56.516 96.4666 55.936 96.2894L53.9149 95.6855L52.0741 95.123L51.3894 94.9275L50.5661 94.6897C49.8154 94.4695 49.3735 94.3666 49.2405 94.3811C49.1074 94.3956 48.9763 94.599 48.8471 94.9915C48.7983 95.1512 48.6861 95.4432 48.5105 95.8674L47.6031 95.7693C48.0178 94.6829 48.3022 93.8876 48.4563 93.3833L48.6441 92.7238L48.9649 91.719C49.3117 90.5843 49.5166 89.7784 49.5797 89.3014L50.3908 89.7147L50.1978 90.6621C50.0719 91.0739 50.0698 91.3214 50.1915 91.4046C50.3073 91.4767 50.9943 91.7096 52.2525 92.1033L53.01 92.3762L53.9062 92.6914L56.3182 93.4148L54.5066 90.366C53.9447 89.4682 53.5019 88.7217 53.1783 88.1266C52.8606 87.5424 52.6168 87.137 52.4471 86.9105C52.2253 86.8244 52.0766 86.7697 52.0009 86.7466C51.6395 86.6362 51.3717 86.8208 51.1975 87.3006C51.112 87.5502 50.9998 87.8422 50.8609 88.1765Z" fill="white"/>
<path d="M64.8031 73.1791C64.9444 73.1013 65.0448 73.0394 65.1042 72.9935C65.2854 72.8679 65.4644 72.7876 65.6413 72.7524C66.2634 73.417 66.6065 74.3068 66.6705 75.4218C66.7345 76.5367 66.3985 77.6881 65.6625 78.8761C65.1996 79.6232 64.5844 80.2656 63.817 80.8034C63.0495 81.3412 62.2738 81.667 61.4898 81.781C60.8855 81.8718 60.2425 81.825 59.5608 81.6404C58.8836 81.4483 58.3434 81.2273 57.9399 80.9773C57.4543 80.6764 56.9699 80.2316 56.4869 79.6428C55.9964 79.0494 55.6312 78.3372 55.3913 77.5062C55.1514 76.6752 55.1023 75.7866 55.2439 74.8404C55.3902 73.8868 55.7549 72.9393 56.3382 71.9979C57.139 70.7053 57.8985 69.93 58.6167 69.672C59.335 69.4139 59.8958 69.4098 60.2992 69.6598C60.6952 69.9051 60.9442 70.2041 61.0462 70.5568C61.1454 70.8974 61.0839 71.247 60.8617 71.6056C60.6719 71.912 60.3951 72.1334 60.0314 72.2699C59.6723 72.3989 59.2004 72.4013 58.6158 72.2768C58.1888 72.1984 57.832 72.2152 57.5455 72.3271C57.2665 72.4438 57.0367 72.6478 56.8561 72.9391C56.421 73.6414 56.3348 74.4565 56.5974 75.3843C56.8526 76.3075 57.4994 77.0908 58.5379 77.7343C59.7856 78.5073 60.9876 78.7867 62.1439 78.5726C63.2973 78.3464 64.1402 77.8036 64.6725 76.9444C64.9363 76.5186 65.1123 76.1261 65.2003 75.7671C65.2488 75.5387 65.2605 75.1944 65.2354 74.7342C65.2266 74.615 65.1608 74.3623 65.0382 73.9762C64.9202 73.5826 64.8418 73.3169 64.8031 73.1791Z" fill="white"/>
<path d="M74.3765 62.9914L74.7332 62.9298C74.833 62.9209 74.9193 62.9427 74.992 62.9951L75.0466 63.0344C75.4248 63.7509 75.5901 64.3353 75.5426 64.7875C75.4891 65.2333 75.2757 65.6298 74.9024 65.9769C74.5227 66.3301 74.0986 66.5323 73.6304 66.5837C73.1625 66.6227 72.5706 66.4831 71.8545 66.1648C72.0326 66.9113 71.9874 67.6435 71.7188 68.3613C71.4442 69.0727 70.9433 69.7666 70.216 70.4429C69.5466 71.0654 68.9255 71.3849 68.3528 71.4014C67.7741 71.4115 67.2722 71.188 66.8473 70.7311C66.6498 70.5187 66.4943 70.2611 66.3809 69.9585C66.274 69.6499 66.2247 69.2936 66.2332 68.8897C66.2421 68.4734 66.3585 67.921 66.5825 67.2326C66.6174 67.1282 66.7603 66.7913 67.011 66.2221L68.5172 63.0212C68.3091 62.7586 68.0883 62.5019 67.8549 62.2509C67.0469 61.382 66.3901 60.8886 65.8844 60.7707C65.5761 60.6973 65.2611 60.8103 64.9392 61.1095C64.6174 61.4088 64.3782 61.7452 64.2216 62.1189C64.065 62.4926 64.0153 62.8328 64.0726 63.1396C64.1142 63.365 64.2853 63.7039 64.5861 64.1564C64.8043 64.4815 64.9151 64.6845 64.9184 64.7655C64.9356 64.9776 64.8633 65.2548 64.7016 65.5972C64.5404 65.9271 64.4357 66.1565 64.3875 66.2854C64.1955 66.7759 63.9966 67.117 63.7906 67.3085C63.6287 67.315 63.4819 67.2475 63.3502 67.1059C63.0091 66.7391 62.793 66.3519 62.7021 65.9443C62.5867 65.3556 62.5991 64.6719 62.7393 63.8934C62.8799 63.1025 63.0872 62.4477 63.361 61.9291C63.7469 61.2341 64.3389 60.5156 65.137 59.7734C65.6519 59.2946 66.1826 58.9812 66.729 58.8331C67.2759 58.6726 67.7937 58.7132 68.2824 58.9548C68.7776 59.1905 69.4771 59.7942 70.3808 60.7661L71.8332 62.386L72.9388 63.5362L73.2171 63.8355C73.4685 64.1058 73.6775 64.2596 73.844 64.2967C74.011 64.3214 74.1525 64.2799 74.2683 64.1722C74.3391 64.1064 74.3823 64.0302 74.3979 63.9437L74.2656 63.2206L74.3765 62.9914ZM69.127 63.6963C68.8739 64.1598 68.6503 64.7518 68.4562 65.4723C68.2625 66.1805 68.2103 66.7631 68.2994 67.2204C68.3682 67.5525 68.5462 67.873 68.8335 68.1819C69.0909 68.4587 69.387 68.6094 69.722 68.634C70.0569 68.6586 70.3338 68.5691 70.5526 68.3656C70.913 68.0304 71.123 67.6432 71.1825 67.2038C71.2662 66.6098 71.2623 66.2054 71.1706 65.9907C71.0729 65.7695 70.6679 65.2759 69.9557 64.51C69.6923 64.2268 69.4161 63.9556 69.127 63.6963Z" fill="white"/>
<path d="M72.3417 56.0914C72.3376 55.942 72.3052 55.743 72.2446 55.4944L72.1602 55.0266C72.051 54.4617 71.9021 53.8183 71.7136 53.0963L71.6194 52.6645L72.1579 52.3579C72.2308 52.3972 72.2875 52.4257 72.3278 52.4432C72.7014 52.6553 72.9258 52.7652 73.001 52.7729C73.0904 52.7523 73.4903 52.5398 74.2006 52.1354L76.564 50.7442L77.4756 50.2404L80.1336 48.727C80.1565 48.714 80.2362 48.6585 80.3726 48.5606C80.509 48.4627 80.5909 48.3756 80.6183 48.2994C80.6457 48.2231 80.6388 48.0601 80.5978 47.8104L80.5835 47.5455C80.7243 47.4552 80.9321 47.3318 81.2071 47.1752L82.2362 48.956L82.6847 49.717C82.9543 50.1906 83.0956 50.4742 83.1085 50.568C82.9119 50.7912 82.728 50.9566 82.5566 51.0643C82.3301 50.9505 81.9723 50.7042 81.4835 50.3251C81.0566 50.0018 80.774 49.834 80.6356 49.8218C80.5048 49.8052 80.1644 49.9535 79.6145 50.2666L78.9909 50.6368C78.7694 50.7629 78.5185 50.8906 78.2381 51.0199L78.8024 51.9578L79.4775 53.1967L80.5797 55.2392C81.6712 57.1563 82.3313 58.1913 82.56 58.3443C83.1064 58.1849 83.5067 58.0531 83.7609 57.9488C83.8918 57.8945 84.0232 57.85 84.1552 57.8153L84.5646 58.5077L83.1621 59.2152C82.7213 59.4358 82.31 59.6548 81.9281 59.8722L80.2766 60.8884L78.882 61.7431L78.507 61.0312C78.5889 60.9441 78.6904 60.856 78.8116 60.7668C79.2089 60.4698 79.5265 60.1928 79.7646 59.9359C79.5476 59.2706 79.1499 58.43 78.5715 57.4142L77.1167 54.9656C76.4166 53.7359 75.9322 52.9296 75.6635 52.5465C75.3111 52.7269 75.0356 52.8736 74.837 52.9867C74.1573 53.3737 73.754 53.6691 73.6272 53.8728C73.5004 54.0764 73.3803 54.5494 73.2669 55.2916L73.1992 55.679C73.1585 55.9449 73.1037 56.0975 73.035 56.1366C72.8975 56.2149 72.6664 56.1998 72.3417 56.0914Z" fill="white"/>
<path d="M90.389 49.1301L91.7784 48.6288L92.2332 48.4505C94.3193 47.7603 95.7956 47.5496 96.6621 47.8183C97.537 48.0843 98.118 48.6512 98.4052 49.519C98.7503 50.562 98.587 51.4955 97.9153 52.3195C97.252 53.1407 96.1569 53.8039 94.6299 54.3092L92.9444 54.839L87.95 56.6581L87.7266 55.8989L88.4987 55.5045C88.802 55.3579 89.0302 55.2222 89.1834 55.0975C89.234 54.8308 88.9252 53.6878 88.2571 51.6685L87.5156 49.5531L86.9894 48.0886C86.7437 47.346 86.5778 46.9287 86.4919 46.8368C86.4115 46.7338 86.1739 46.743 85.7789 46.8644L84.8362 47.0791L84.4875 46.403L86.0104 45.8852L86.4652 45.707C86.8268 45.5688 87.3289 45.3934 87.9714 45.1808L89.39 44.6837L90.3078 44.3939C90.4663 44.3415 90.7237 44.2239 91.0799 44.0413L91.2113 44.9421C90.6799 45.1827 90.3558 45.3223 90.239 45.361C89.7466 45.5239 89.4739 45.6789 89.4208 45.8261C89.3649 45.9649 89.4142 46.268 89.5688 46.7353L89.9748 47.9202L90.1943 48.5835C90.2495 48.7504 90.3144 48.9326 90.389 49.1301ZM92.0459 53.9282C92.3683 53.9233 92.8216 53.8243 93.4057 53.631C95.2998 53.0043 96.0233 52.0151 95.576 50.6634C95.3828 50.0793 94.9862 49.6782 94.3864 49.46C93.7865 49.2419 93.0109 49.2902 92.0597 49.6049C91.6675 49.7347 91.2363 49.9144 90.7661 50.144C90.7909 50.2469 90.8061 50.3067 90.8116 50.3234L91.0808 51.0953C91.3207 51.9602 91.5746 52.7973 91.8424 53.6067C91.8782 53.7152 91.9461 53.8224 92.0459 53.9282Z" fill="white"/>
<path d="M112.086 47.351C112.232 47.4189 112.341 47.4632 112.413 47.484C112.622 47.5559 112.792 47.6527 112.925 47.7746C112.757 48.6693 112.243 49.4721 111.381 50.1831C110.52 50.894 109.393 51.3039 108 51.4129C107.123 51.4814 106.242 51.3652 105.354 51.0644C104.467 50.7635 103.745 50.3307 103.19 49.7658C102.759 49.3323 102.417 48.786 102.162 48.1271C101.917 47.4674 101.775 46.901 101.738 46.4279C101.694 45.8583 101.766 45.2047 101.955 44.467C102.144 43.7206 102.502 43.0049 103.031 42.32C103.559 41.6351 104.246 41.07 105.093 40.6247C105.949 40.1787 106.928 39.9126 108.032 39.8262C109.548 39.7077 110.623 39.8617 111.256 40.2882C111.888 40.7148 112.223 41.1647 112.26 41.6378C112.297 42.1022 112.203 42.4799 111.979 42.7707C111.763 43.052 111.444 43.2092 111.024 43.2421C110.664 43.2702 110.322 43.1779 109.997 42.9653C109.681 42.752 109.4 42.3729 109.154 41.8279C108.965 41.4371 108.741 41.1593 108.481 40.9945C108.222 40.8385 107.921 40.7738 107.58 40.8005C106.756 40.8649 106.048 41.2774 105.455 42.0378C104.861 42.7895 104.612 43.7744 104.707 44.9923C104.822 46.4556 105.307 47.5902 106.164 48.396C107.028 49.1923 107.964 49.5511 108.972 49.4723C109.471 49.4332 109.892 49.343 110.234 49.2017C110.446 49.1057 110.731 48.9116 111.087 48.6192C111.178 48.5416 111.343 48.3391 111.582 48.0119C111.83 47.684 111.997 47.4637 112.086 47.351Z" fill="white"/>
<path d="M128.046 52.236C128.039 52.3689 128.029 52.4699 128.017 52.539C128.002 52.6168 127.965 52.726 127.903 52.8666C127.341 52.7632 126.797 52.6364 126.271 52.4859L125.91 52.4062L125.206 52.2231L124.347 52.0115L122.229 51.7961L121.894 51.7211L121.66 51.6782C121.659 51.5885 121.664 51.4868 121.676 51.3728C121.699 51.2518 121.708 51.1284 121.704 51.0026C121.833 50.9816 122.045 50.9714 122.34 50.9721C122.983 50.9742 123.375 50.9301 123.517 50.84C123.568 50.5634 123.665 50.1344 123.807 49.553C123.9 49.1947 124.066 48.3629 124.307 47.0577L123.767 46.9316C123.369 46.8584 123.008 46.9037 122.683 47.0673C122.358 47.2309 121.943 47.6373 121.44 48.2864L119.931 50.2207C119.584 50.7467 119.332 51.0712 119.176 51.1943L118.005 50.9254C117.106 50.7601 116.539 50.6646 116.302 50.639L115.486 50.5559L115.061 50.4642C115.071 50.3589 115.084 50.2631 115.1 50.1766C115.122 50.0556 115.163 49.9334 115.221 49.8101C115.829 49.8593 116.286 49.8005 116.594 49.6337C116.903 49.4583 117.317 49.0562 117.835 48.4276C118.705 47.3901 119.355 46.7233 119.784 46.427C120.225 46.1237 120.696 45.9422 121.198 45.8827C120.146 45.4836 119.399 45.0469 118.959 44.5728C118.519 44.0987 118.361 43.5245 118.485 42.8502C118.636 42.029 119.13 41.4318 119.968 41.0586C120.813 40.6869 121.95 40.6322 123.376 40.8945L125.047 41.2824L126.866 41.6705C127.439 41.8116 127.954 41.9243 128.412 42.0086C128.931 42.104 129.368 42.2067 129.723 42.3167C129.729 42.3804 129.731 42.4165 129.73 42.4252L129.618 43.0346C129.509 43.0414 129.315 43.0281 129.035 42.9945L128.812 42.9669L128.654 42.9512L128.347 42.9482C128.259 42.941 128.182 42.9448 128.117 42.9596C128.075 43.086 128.049 43.1795 128.038 43.2401L127.996 43.5407L127.944 43.8259L127.816 44.4459L127.645 45.2321L127.032 48.9264L126.825 49.907C126.69 50.6417 126.627 51.1797 126.636 51.5209C126.837 51.6919 127.104 51.8395 127.439 51.9636C127.706 52.0663 127.908 52.1571 128.046 52.236ZM124.526 46.0122L124.668 45.167L124.729 44.7627L125.157 42.2142C124.989 42.1564 124.762 42.1013 124.477 42.0489C123.578 41.8835 122.888 41.9666 122.407 42.2981C121.935 42.6313 121.649 43.0701 121.548 43.6147C121.327 44.8162 122.112 45.5816 123.901 45.9107L124.526 46.0122Z" fill="white"/>
<path d="M168.077 65.4557C169.679 66.6652 170.941 67.9337 171.864 69.2614C172.828 70.6468 173.366 72.0283 173.478 73.4061C173.596 74.7911 173.128 75.8499 172.074 76.5826C171.497 76.984 170.822 77.207 170.05 77.2515C169.278 77.2959 168.237 76.869 166.928 75.9708C167.459 77.1964 167.627 78.3695 167.432 79.49C167.249 80.6127 166.667 81.5153 165.686 82.1978C164.409 83.0861 162.991 83.2481 161.431 82.6839C159.884 82.1219 158.323 80.7081 156.747 78.4424C155.598 76.79 154.932 75.4171 154.75 74.3235C154.572 73.2371 154.786 72.4832 155.393 72.0617C155.782 71.7907 156.217 71.6919 156.696 71.7654C157.18 71.846 157.593 72.1317 157.934 72.6224C158.185 72.9831 158.321 73.3547 158.34 73.7371C158.365 74.1267 158.251 74.7251 157.999 75.5322C157.643 76.6364 157.706 77.5348 158.187 78.2275C158.775 79.0717 159.577 79.5789 160.595 79.749C161.612 79.9192 162.576 79.6881 163.485 79.0558C164.033 78.6744 164.446 78.2213 164.723 77.6965C165.013 77.1739 165.15 76.6239 165.133 76.0463C165.122 75.476 165.017 75.0088 164.817 74.6446C164.624 74.2753 164.109 73.4346 163.271 72.1223L164.148 71.5126C164.956 72.6743 165.61 73.4611 166.111 73.873C166.624 74.2871 167.202 74.4794 167.845 74.4496C168.495 74.4149 169.12 74.1892 169.719 73.7727C170.447 73.2659 170.89 72.6476 171.046 71.918C171.21 71.1833 171.038 70.4516 170.531 69.7228C170.004 68.9652 169.321 68.4289 168.481 68.1138C167.648 67.7938 166.456 67.7502 164.905 67.9831L164.22 66.9982C165.743 66.2172 167.029 65.7031 168.077 65.4557Z" fill="white"/>
<path d="M167.176 94.7163L167.072 95.063C167.035 95.1562 166.977 95.2237 166.898 95.2653L166.838 95.2965C166.028 95.3147 165.431 95.2015 165.048 94.9569C164.673 94.7098 164.414 94.3417 164.27 93.8527C164.124 93.3551 164.132 92.8854 164.296 92.4435C164.47 92.0076 164.859 91.5405 165.464 91.0421C164.717 90.8679 164.082 90.5002 163.56 89.9391C163.046 89.3756 162.649 88.6173 162.369 87.6645C162.111 86.7875 162.103 86.0891 162.344 85.5694C162.594 85.0472 163.018 84.6981 163.617 84.5221C163.895 84.4403 164.195 84.4163 164.516 84.4501C164.84 84.4923 165.181 84.6075 165.538 84.7955C165.907 84.9896 166.349 85.3406 166.865 85.8486C166.942 85.9265 167.18 86.2048 167.577 86.6835L169.768 89.4613C170.095 89.3924 170.424 89.3096 170.753 89.213C171.891 88.8784 172.626 88.5113 172.957 88.1116C173.161 87.8686 173.201 87.5363 173.077 87.1146C172.953 86.693 172.759 86.3287 172.494 86.0216C172.23 85.7145 171.948 85.518 171.648 85.4322C171.428 85.3686 171.048 85.3703 170.509 85.4371C170.12 85.4872 169.889 85.4955 169.815 85.4623C169.618 85.3829 169.402 85.1944 169.168 84.8967C168.945 84.605 168.787 84.4088 168.693 84.3081C168.34 83.9172 168.124 83.5868 168.044 83.317C168.111 83.1692 168.237 83.0681 168.422 83.0135C168.903 82.8723 169.346 82.852 169.751 82.9528C170.329 83.1126 170.935 83.4292 171.569 83.9025C172.214 84.3818 172.707 84.8598 173.049 85.3365C173.498 85.9923 173.876 86.843 174.183 87.8886C174.382 88.5632 174.425 89.178 174.313 89.733C174.213 90.2939 173.945 90.739 173.51 91.0683C173.078 91.406 172.226 91.7619 170.952 92.1362L168.854 92.7116L167.331 93.1867L166.939 93.3019C166.585 93.406 166.354 93.5242 166.246 93.6567C166.149 93.795 166.123 93.9401 166.168 94.0919C166.195 94.1846 166.244 94.2573 166.314 94.3099L167.02 94.5146L167.176 94.7163ZM168.891 89.7051C168.59 89.2715 168.16 88.807 167.602 88.3113C167.055 87.8217 166.557 87.5146 166.108 87.39C165.78 87.3031 165.414 87.3191 165.009 87.4381C164.647 87.5447 164.38 87.7423 164.208 88.0309C164.036 88.3195 163.993 88.6072 164.077 88.8939C164.216 89.3661 164.468 89.727 164.835 89.9766C165.329 90.3169 165.692 90.4941 165.925 90.508C166.167 90.5195 166.789 90.3777 167.793 90.0828C168.164 89.9738 168.53 89.8479 168.891 89.7051Z" fill="white"/>
<path d="M176.454 111.518L175.536 111.325C175.487 110.77 175.463 110.449 175.465 110.361C175.465 109.966 175.387 109.726 175.231 109.644C175.083 109.57 174.429 109.52 173.269 109.494L172.135 109.495L170.948 109.507L169.381 109.432C168.994 109.406 168.595 109.388 168.182 109.379C167.532 109.364 167.03 109.41 166.675 109.516C166.531 110.058 166.439 110.469 166.397 110.749C166.376 110.89 166.347 111.025 166.309 111.156L165.504 111.151L165.619 109.585C165.656 109.093 165.68 108.623 165.69 108.175L165.668 106.249L165.652 104.614L166.456 104.645C166.488 104.769 166.512 104.906 166.526 105.056C166.576 105.549 166.65 105.964 166.748 106.3C167.772 106.508 169.624 106.642 172.304 106.703L175.495 106.709C175.481 106.155 175.481 105.583 175.494 104.995C175.51 104.283 175.532 103.738 175.558 103.361L175.609 102.241C175.614 102.013 175.607 101.771 175.586 101.515L174.242 101.498L168.179 101.335C167.67 101.323 167.229 101.37 166.857 101.476C166.713 102.018 166.62 102.429 166.579 102.71C166.558 102.85 166.529 102.981 166.491 103.103L165.686 103.111L165.801 101.545C165.838 101.053 165.862 100.583 165.872 100.135L165.85 98.2095L165.834 96.5739L166.638 96.6053C166.67 96.7291 166.693 96.8659 166.708 97.0157C166.758 97.5003 166.832 97.9152 166.93 98.2603C167.568 98.4066 168.556 98.4948 169.891 98.5251L172.502 98.5314L174.137 98.542C174.954 98.5517 175.425 98.5315 175.549 98.4816C175.674 98.4317 175.745 98.2003 175.763 97.7875C175.767 97.5854 175.801 97.2741 175.863 96.8535L176.79 96.703L176.672 98.4015L176.601 99.2307L176.607 100.128C176.602 100.321 176.587 100.602 176.561 100.97L176.455 103.909L176.416 107.956L176.379 109.01C176.352 110.197 176.378 111.032 176.454 111.518Z" fill="white"/>
<path d="M172.962 124.319L173.871 124.409C173.466 125.499 173.188 126.297 173.038 126.803L172.857 127.464L172.545 128.471C172.208 129.609 172.009 130.421 171.948 130.907L171.137 130.488L171.321 129.539C171.441 129.135 171.44 128.891 171.317 128.809C171.201 128.738 170.513 128.507 169.254 128.116L168.427 127.844L167.389 127.495C164.675 126.692 163.211 126.328 162.997 126.402C162.732 126.864 162.538 127.238 162.417 127.523C162.363 127.644 162.299 127.767 162.226 127.892L161.476 127.684L161.772 126.823C162.087 125.945 162.308 125.291 162.435 124.861L163.332 121.414L164.074 121.647C164.07 121.784 164.057 121.922 164.034 122.062C163.954 122.579 163.913 122.997 163.91 123.317C164.411 123.576 165.458 123.94 167.05 124.412L167.952 124.665L169.348 125.009C169.475 125.047 169.697 125.131 170.016 125.262C167.925 121.829 166.689 119.671 166.308 118.789C165.886 118.7 165.542 118.668 165.279 118.69C165.014 119.153 164.821 119.526 164.7 119.811C164.645 119.933 164.583 120.052 164.512 120.168L163.758 119.973L164.054 119.112C164.372 118.225 164.593 117.571 164.718 117.149L165.614 113.703L166.356 113.936C166.352 114.072 166.339 114.21 166.316 114.35C166.239 114.859 166.197 115.278 166.192 115.606C166.693 115.864 167.234 116.079 167.816 116.251L169.842 116.837L171.688 117.384L172.374 117.573L173.2 117.804C173.952 118.017 174.395 118.116 174.528 118.1C174.661 118.085 174.79 117.88 174.916 117.487C174.963 117.326 175.073 117.034 175.245 116.608L176.153 116.698C175.748 117.788 175.47 118.586 175.321 119.091L175.139 119.752L174.827 120.76C174.49 121.898 174.292 122.705 174.234 123.183L173.419 122.777L173.603 121.828C173.726 121.415 173.726 121.167 173.603 121.085C173.487 121.014 172.798 120.787 171.536 120.405L170.776 120.139L169.877 119.831L167.459 119.129L169.297 122.162C169.867 123.055 170.317 123.797 170.645 124.39C170.968 124.971 171.216 125.374 171.387 125.599C171.61 125.683 171.759 125.737 171.835 125.759C172.197 125.866 172.464 125.679 172.633 125.198C172.717 124.948 172.826 124.655 172.962 124.319Z" fill="white"/>
<path d="M159.145 138.439C159.004 138.518 158.904 138.581 158.845 138.627C158.665 138.754 158.487 138.836 158.31 138.873C157.682 138.214 157.331 137.327 157.258 136.213C157.184 135.099 157.51 133.944 158.235 132.75C158.691 131.999 159.301 131.351 160.063 130.806C160.826 130.262 161.599 129.929 162.382 129.808C162.985 129.712 163.629 129.753 164.312 129.932C164.991 130.118 165.533 130.334 165.939 130.58C166.427 130.877 166.915 131.318 167.404 131.902C167.899 132.491 168.271 133.2 168.518 134.029C168.765 134.858 168.822 135.746 168.689 136.693C168.551 137.648 168.195 138.599 167.62 139.545C166.83 140.845 166.078 141.627 165.362 141.891C164.646 142.156 164.085 142.165 163.68 141.918C163.281 141.677 163.03 141.38 162.925 141.028C162.823 140.688 162.881 140.338 163.1 139.978C163.287 139.67 163.562 139.446 163.924 139.306C164.282 139.174 164.754 139.167 165.34 139.287C165.768 139.361 166.124 139.341 166.41 139.227C166.688 139.108 166.916 138.902 167.094 138.609C167.522 137.903 167.602 137.087 167.331 136.161C167.067 135.24 166.414 134.463 165.369 133.829C164.115 133.067 162.911 132.798 161.756 133.022C160.605 133.259 159.767 133.809 159.242 134.673C158.982 135.101 158.81 135.495 158.725 135.855C158.678 136.084 158.67 136.428 158.699 136.888C158.709 137.007 158.777 137.259 158.903 137.644C159.024 138.037 159.105 138.302 159.145 138.439Z" fill="white"/>
<path d="M149.671 149.728L149.315 149.793C149.215 149.803 149.129 149.782 149.056 149.73L149.001 149.691C148.616 148.978 148.446 148.395 148.489 147.942C148.539 147.496 148.749 147.098 149.119 146.747C149.495 146.391 149.918 146.185 150.385 146.129C150.853 146.086 151.446 146.221 152.165 146.533C151.98 145.788 152.019 145.055 152.281 144.335C152.549 143.621 153.044 142.923 153.766 142.24C154.429 141.612 155.048 141.287 155.62 141.265C156.199 141.25 156.703 141.469 157.132 141.922C157.331 142.133 157.489 142.389 157.605 142.691C157.714 142.998 157.767 143.354 157.762 143.758C157.757 144.174 157.645 144.728 157.427 145.418C157.393 145.523 157.253 145.861 157.008 146.432L155.53 149.647C155.74 149.907 155.963 150.162 156.199 150.411C157.015 151.273 157.676 151.76 158.183 151.874C158.491 151.944 158.805 151.829 159.125 151.526C159.444 151.224 159.68 150.886 159.833 150.511C159.987 150.136 160.033 149.795 159.973 149.489C159.93 149.264 159.756 148.926 159.451 148.477C159.23 148.153 159.117 147.951 159.113 147.87C159.094 147.659 159.164 147.381 159.323 147.037C159.481 146.706 159.584 146.475 159.631 146.346C159.818 145.854 160.014 145.511 160.218 145.318C160.38 145.31 160.528 145.376 160.661 145.516C161.005 145.88 161.224 146.265 161.319 146.672C161.44 147.26 161.433 147.944 161.3 148.723C161.166 149.515 160.965 150.172 160.696 150.693C160.316 151.391 159.73 152.115 158.939 152.864C158.428 153.348 157.9 153.666 157.355 153.819C156.81 153.984 156.291 153.948 155.801 153.711C155.303 153.479 154.599 152.882 153.686 151.918L152.22 150.311L151.104 149.171L150.823 148.874C150.569 148.606 150.359 148.454 150.192 148.418C150.025 148.395 149.884 148.438 149.769 148.546C149.699 148.613 149.656 148.689 149.641 148.776L149.78 149.498L149.671 149.728ZM154.914 148.977C155.163 148.511 155.382 147.917 155.569 147.195C155.757 146.485 155.804 145.902 155.711 145.446C155.639 145.114 155.458 144.795 155.168 144.489C154.908 144.214 154.611 144.066 154.276 144.045C153.94 144.023 153.664 144.115 153.447 144.32C153.09 144.659 152.883 145.048 152.828 145.488C152.749 146.082 152.757 146.487 152.85 146.701C152.95 146.921 153.359 147.411 154.078 148.171C154.344 148.451 154.623 148.72 154.914 148.977Z" fill="white"/>
<path d="M152.777 156.636C152.782 156.786 152.816 156.984 152.879 157.232L152.967 157.699C153.082 158.263 153.236 158.905 153.431 159.626L153.529 160.057L152.993 160.368C152.92 160.329 152.863 160.301 152.823 160.284C152.447 160.075 152.222 159.967 152.147 159.96C152.057 159.982 151.659 160.198 150.953 160.608L148.602 162.02L147.695 162.532L145.05 164.069C145.027 164.082 144.948 164.139 144.813 164.238C144.677 164.337 144.596 164.425 144.569 164.501C144.543 164.578 144.551 164.741 144.594 164.99L144.611 165.255C144.471 165.346 144.264 165.471 143.99 165.63L142.946 163.859L142.49 163.102C142.217 162.631 142.073 162.348 142.059 162.255C142.254 162.03 142.436 161.863 142.606 161.753C142.834 161.865 143.194 162.108 143.686 162.483C144.116 162.803 144.4 162.968 144.538 162.979C144.669 162.994 145.008 162.843 145.556 162.525L146.176 162.149C146.396 162.021 146.646 161.891 146.925 161.76L146.353 160.827L145.667 159.594L144.546 157.561C143.438 155.654 142.769 154.625 142.539 154.474C141.994 154.638 141.595 154.773 141.341 154.88C141.211 154.935 141.08 154.981 140.948 155.017L140.533 154.328L141.929 153.608C142.368 153.384 142.777 153.161 143.157 152.94L144.8 151.91L146.187 151.043L146.568 151.751C146.487 151.839 146.386 151.928 146.266 152.018C145.871 152.319 145.556 152.598 145.32 152.857C145.543 153.521 145.948 154.358 146.535 155.369L148.012 157.804C148.723 159.028 149.214 159.83 149.486 160.21C149.837 160.027 150.111 159.878 150.309 159.763C150.985 159.37 151.386 159.071 151.511 158.866C151.636 158.661 151.752 158.187 151.859 157.444L151.923 157.056C151.961 156.79 152.015 156.637 152.083 156.597C152.22 156.518 152.451 156.531 152.777 156.636Z" fill="white"/>
<path d="M134.782 163.738L133.397 164.252L132.944 164.434C130.864 165.143 129.39 165.367 128.521 165.105C127.644 164.847 127.058 164.286 126.763 163.42C126.409 162.38 126.564 161.445 127.228 160.616C127.884 159.789 128.973 159.116 130.496 158.597L132.176 158.052L137.154 156.189L137.385 156.946L136.616 157.347C136.314 157.497 136.087 157.634 135.935 157.76C135.887 158.028 136.206 159.168 136.891 161.181L137.652 163.29L138.191 164.75C138.443 165.49 138.613 165.906 138.699 165.997C138.781 166.099 139.018 166.088 139.412 165.963L140.353 165.74L140.708 166.413L139.189 166.944L138.736 167.127C138.376 167.268 137.875 167.448 137.235 167.666L135.82 168.176L134.905 168.474C134.747 168.527 134.491 168.647 134.136 168.833L133.997 167.933C134.526 167.688 134.849 167.546 134.966 167.506C135.456 167.339 135.728 167.181 135.78 167.034C135.834 166.894 135.782 166.592 135.623 166.126L135.207 164.944L134.982 164.283C134.925 164.117 134.859 163.935 134.782 163.738ZM133.083 158.955C132.761 158.963 132.308 159.066 131.726 159.264C129.837 159.908 129.123 160.903 129.582 162.251C129.78 162.833 130.18 163.231 130.782 163.444C131.384 163.657 132.159 163.601 133.107 163.278C133.498 163.145 133.928 162.961 134.396 162.728C134.37 162.625 134.355 162.565 134.349 162.549L134.073 161.779C133.825 160.917 133.564 160.082 133.289 159.275C133.252 159.167 133.184 159.06 133.083 158.955Z" fill="white"/>
<path d="M114.094 164.684C113.947 164.617 113.837 164.574 113.765 164.554C113.556 164.484 113.384 164.388 113.25 164.268C113.41 163.371 113.918 162.564 114.773 161.846C115.628 161.127 116.751 160.707 118.143 160.586C119.019 160.51 119.902 160.618 120.792 160.911C121.682 161.204 122.407 161.63 122.968 162.19C123.402 162.62 123.75 163.163 124.01 163.82C124.261 164.477 124.407 165.043 124.449 165.515C124.498 166.084 124.432 166.739 124.249 167.478C124.067 168.226 123.715 168.945 123.193 169.635C122.671 170.324 121.988 170.895 121.145 171.348C120.294 171.802 119.316 172.076 118.213 172.172C116.698 172.304 115.623 172.16 114.986 171.739C114.35 171.318 114.011 170.871 113.969 170.398C113.929 169.934 114.02 169.556 114.241 169.263C114.455 168.98 114.772 168.82 115.192 168.783C115.551 168.752 115.894 168.841 116.221 169.051C116.539 169.261 116.823 169.638 117.074 170.181C117.266 170.57 117.493 170.846 117.754 171.008C118.015 171.162 118.316 171.224 118.657 171.194C119.48 171.122 120.185 170.704 120.771 169.938C121.358 169.181 121.598 168.194 121.492 166.977C121.365 165.515 120.87 164.385 120.006 163.586C119.135 162.798 118.195 162.447 117.188 162.535C116.689 162.579 116.27 162.672 115.929 162.817C115.717 162.915 115.434 163.111 115.081 163.407C114.991 163.485 114.827 163.689 114.591 164.018C114.347 164.349 114.181 164.57 114.094 164.684Z" fill="white"/>
<path d="M99.0938 159.942C99.0992 159.809 99.108 159.708 99.1201 159.639C99.1337 159.561 99.1707 159.451 99.231 159.31C99.7938 159.409 100.339 159.531 100.867 159.676L101.228 159.753L101.933 159.93L102.794 160.134L104.915 160.331L105.25 160.403L105.484 160.443C105.486 160.533 105.482 160.635 105.471 160.749C105.449 160.87 105.441 160.994 105.446 161.119C105.317 161.141 105.105 161.153 104.811 161.155C104.168 161.159 103.776 161.207 103.635 161.298C103.586 161.575 103.493 162.005 103.356 162.587C103.266 162.947 103.107 163.78 102.879 165.087L103.42 165.208C103.818 165.278 104.179 165.23 104.502 165.063C104.826 164.897 105.237 164.487 105.734 163.833L107.226 161.885C107.568 161.356 107.817 161.03 107.973 160.905L109.145 161.164C110.046 161.321 110.614 161.412 110.851 161.435L111.668 161.511L112.094 161.599C112.085 161.704 112.072 161.8 112.057 161.887C112.036 162.008 111.997 162.131 111.939 162.254C111.331 162.211 110.874 162.273 110.568 162.443C110.26 162.621 109.85 163.027 109.338 163.66C108.477 164.705 107.833 165.378 107.406 165.678C106.969 165.985 106.499 166.171 105.997 166.234C107.053 166.624 107.803 167.054 108.248 167.525C108.692 167.995 108.855 168.568 108.737 169.243C108.593 170.065 108.104 170.667 107.27 171.048C106.428 171.427 105.292 171.491 103.864 171.242L102.189 170.869L100.367 170.497C99.7932 170.361 99.2767 170.253 98.8179 170.172C98.2984 170.082 97.8606 169.983 97.5046 169.876C97.4979 169.812 97.4952 169.776 97.4968 169.767L97.6035 169.157C97.7119 169.149 97.9061 169.161 98.1862 169.192L98.4093 169.218L98.5674 169.232L98.8752 169.232C98.9632 169.239 99.0399 169.234 99.105 169.219C99.145 169.092 99.1703 168.998 99.1809 168.938L99.2201 168.637L99.2701 168.351L99.392 167.73L99.5565 166.942L100.136 163.243L100.335 162.26C100.463 161.524 100.522 160.986 100.51 160.645C100.308 160.475 100.039 160.33 99.7029 160.209C99.435 160.109 99.2319 160.02 99.0938 159.942ZM102.669 166.134L102.534 166.981L102.477 167.386L102.071 169.938C102.239 169.994 102.467 170.047 102.752 170.097C103.653 170.255 104.342 170.165 104.82 169.83C105.289 169.492 105.572 169.051 105.667 168.506C105.878 167.302 105.087 166.544 103.294 166.23L102.669 166.134Z" fill="white"/>
<path d="M110.682 139.58C111.267 140.166 112.217 140.166 112.803 139.58L122.349 130.034C122.935 129.449 122.935 128.499 122.349 127.913C121.763 127.327 120.813 127.327 120.227 127.913L111.742 136.398L103.257 127.913C102.671 127.327 101.721 127.327 101.136 127.913C100.55 128.499 100.55 129.449 101.136 130.034L110.682 139.58ZM110.242 73.4648L110.242 138.52H113.242L113.242 73.4648H110.242Z" fill="white"/>
<circle cx="145.796" cy="52.627" r="3.55769" fill="white"/>
<circle cx="78.7081" cy="158.342" r="3.55769" fill="white"/>
<defs>
<filter id="filter0_f_336_565" x="21" y="20" width="177" height="177" filterUnits="userSpaceOnUse" color-interpolation-filters="sRGB">
<feFlood flood-opacity="0" result="BackgroundImageFix"/>
<feBlend mode="normal" in="SourceGraphic" in2="BackgroundImageFix" result="shape"/>
<feGaussianBlur stdDeviation="25" result="effect1_foregroundBlur_336_565"/>
</filter>
</defs>
</svg>
