<svg width="224" height="212" viewBox="0 0 224 212" fill="none" xmlns="http://www.w3.org/2000/svg">
<g filter="url(#filter0_f_336_538)">
<circle cx="109.5" cy="108.5" r="38.5" fill="#8A7BAE"/>
</g>
<path d="M57.2274 145.081C55.6369 143.858 54.3858 142.578 53.4743 141.242C52.523 139.849 51.9973 138.462 51.897 137.084C51.7918 135.698 52.2691 134.643 53.329 133.92C53.9098 133.523 54.5864 133.306 55.3587 133.269C56.1311 133.231 57.1682 133.667 58.4701 134.577C57.9497 133.347 57.7919 132.172 57.9968 131.053C58.1894 129.932 58.7794 129.035 59.7667 128.361C61.0516 127.484 62.4712 127.335 64.0255 127.913C65.5675 128.488 67.1164 129.916 68.6721 132.195C69.8066 133.858 70.4602 135.237 70.633 136.332C70.8008 137.42 70.5798 138.172 69.97 138.588C69.578 138.855 69.1427 138.95 68.664 138.873C68.1804 138.788 67.7702 138.498 67.4333 138.005C67.1856 137.642 67.0535 137.269 67.0372 136.886C67.0159 136.497 67.135 135.899 67.3944 135.094C67.7603 133.993 67.7055 133.095 67.2299 132.398C66.6502 131.548 65.8523 131.034 64.8363 130.855C63.8202 130.676 62.8548 130.898 61.9401 131.523C61.3884 131.899 60.9715 132.348 60.6895 132.871C60.3953 133.391 60.2538 133.94 60.2649 134.517C60.2711 135.088 60.3725 135.556 60.569 135.922C60.7583 136.293 61.266 137.138 62.0921 138.458L61.2101 139.06C60.4124 137.891 59.7651 137.098 59.2682 136.682C58.759 136.263 58.1828 136.066 57.5395 136.09C56.8889 136.119 56.2623 136.339 55.6598 136.75C54.9265 137.251 54.4786 137.865 54.3158 138.593C54.1458 139.326 54.311 140.06 54.8114 140.793C55.3316 141.555 56.0103 142.097 56.8475 142.42C57.6775 142.747 58.8689 142.801 60.4219 142.582L61.0981 143.573C59.5682 144.341 58.278 144.843 57.2274 145.081Z" fill="white"/>
<path d="M56.3876 115.829L56.4949 115.483C56.5325 115.39 56.5911 115.323 56.6708 115.282L56.7306 115.252C57.5407 115.241 58.1364 115.359 58.5176 115.607C58.8903 115.858 59.1463 116.228 59.2857 116.718C59.4276 117.217 59.4149 117.687 59.2477 118.127C59.0697 118.561 58.6761 119.025 58.067 119.518C58.8128 119.699 59.4444 120.072 59.9616 120.638C60.4703 121.206 60.8605 121.968 61.1321 122.923C61.382 123.802 61.3841 124.501 61.1384 125.018C60.8842 125.538 60.457 125.884 59.8567 126.054C59.5778 126.134 59.2777 126.155 58.9566 126.118C58.6331 126.073 58.2934 125.955 57.9375 125.764C57.5708 125.567 57.1318 125.212 56.6206 124.699C56.5434 124.62 56.3084 124.34 55.9154 123.858L53.7496 121.061C53.4211 121.127 53.092 121.207 52.7623 121.3C51.621 121.625 50.8829 121.986 50.548 122.382C50.3425 122.623 50.2998 122.955 50.4199 123.378C50.5401 123.801 50.731 124.167 50.9926 124.476C51.2542 124.786 51.5346 124.985 51.8339 125.073C52.0535 125.139 52.4332 125.14 52.9729 125.078C53.3617 125.032 53.5929 125.025 53.6665 125.059C53.8632 125.14 54.0773 125.331 54.3087 125.63C54.5292 125.924 54.6859 126.122 54.7787 126.223C55.1283 126.617 55.3416 126.95 55.4185 127.22C55.3507 127.367 55.2238 127.467 55.0378 127.52C54.5559 127.657 54.1128 127.674 53.7085 127.569C53.1317 127.404 52.5285 127.082 51.8989 126.603C51.2585 126.118 50.7695 125.636 50.4321 125.156C49.9887 124.497 49.618 123.643 49.3199 122.594C49.1276 121.918 49.0898 121.303 49.2064 120.749C49.3122 120.189 49.5838 119.746 50.0213 119.421C50.4563 119.087 51.3121 118.739 52.5887 118.376L54.6919 117.819L56.219 117.357L56.6122 117.245C56.9672 117.144 57.1992 117.028 57.308 116.897C57.406 116.759 57.4333 116.614 57.3901 116.462C57.3636 116.369 57.3154 116.296 57.2455 116.243L56.5413 116.032L56.3876 115.829ZM54.6282 120.825C54.9258 121.261 55.3514 121.729 55.9049 122.23C56.4475 122.724 56.9427 123.036 57.3904 123.164C57.7175 123.254 58.0839 123.241 58.4897 123.126C58.8532 123.023 59.1221 122.827 59.2963 122.54C59.4705 122.253 59.5168 121.966 59.435 121.678C59.3004 121.205 59.051 120.842 58.6867 120.589C58.1958 120.244 57.8339 120.064 57.6009 120.048C57.3595 120.035 56.7357 120.171 55.7297 120.457C55.3577 120.563 54.9906 120.685 54.6282 120.825Z" fill="white"/>
<path d="M47.284 98.946L48.201 99.1464C48.245 99.7017 48.2657 100.023 48.2629 100.111C48.2593 100.507 48.3353 100.747 48.4909 100.831C48.638 100.906 49.2914 100.961 50.451 100.998L51.585 101.007L52.7722 101.005L54.339 101.094C54.725 101.124 55.1244 101.145 55.5373 101.158C56.1874 101.178 56.6899 101.137 57.0449 101.034C57.1938 100.493 57.2903 100.083 57.3342 99.8031C57.3562 99.6631 57.3869 99.5278 57.4262 99.3971L58.2304 99.4092L58.102 100.975C58.0601 101.466 58.0322 101.935 58.0181 102.384L58.0234 104.309L58.0247 105.945L57.2213 105.907C57.19 105.782 57.168 105.645 57.1551 105.496C57.1091 105.002 57.0386 104.586 56.9437 104.249C55.9217 104.032 54.071 103.882 51.3917 103.797L48.2008 103.763C48.2097 104.317 48.2049 104.889 48.1864 105.477C48.164 106.189 48.1381 106.733 48.1086 107.11L48.047 108.23C48.0398 108.458 48.0454 108.7 48.0637 108.956L49.4082 108.985L55.4688 109.202C55.9784 109.218 56.4194 109.174 56.7919 109.072C56.9409 108.531 57.0373 108.121 57.0813 107.841C57.1033 107.701 57.1338 107.57 57.1728 107.448L57.9774 107.447L57.849 109.013C57.8072 109.504 57.7792 109.974 57.7651 110.422L57.7705 112.347L57.7717 113.983L56.9684 113.945C56.9371 113.821 56.915 113.684 56.9021 113.534C56.8559 113.049 56.7854 112.633 56.6908 112.287C56.0536 112.135 55.0674 112.038 53.7321 111.996L51.1214 111.967L49.4866 111.942C48.6694 111.925 48.1984 111.941 48.0738 111.99C47.9491 112.038 47.8759 112.269 47.8542 112.682C47.8478 112.884 47.8116 113.195 47.7457 113.615L46.8179 113.757L46.9504 112.06L47.0293 111.231L47.0311 110.334C47.0372 110.141 47.0548 109.86 47.084 109.492L47.216 106.555L47.2906 102.508L47.3369 101.454C47.3743 100.268 47.3566 99.432 47.284 98.946Z" fill="white"/>
<path d="M50.8589 86.1765L49.9515 86.0784C50.3662 84.9921 50.6506 84.1967 50.8047 83.6924L50.9925 83.0329L51.3133 82.0281C51.6601 80.8934 51.8663 80.0834 51.9319 79.5979L52.7392 80.0238L52.5462 80.9712C52.4229 81.3747 52.4221 81.6179 52.5437 81.7011C52.6595 81.7732 53.3452 82.0104 54.6009 82.4125L55.4253 82.692L56.4602 83.0496C59.1667 83.8767 60.6275 84.2542 60.8426 84.1821C61.1118 83.7221 61.3082 83.3502 61.4317 83.0663C61.487 82.9453 61.5521 82.8228 61.6268 82.6986L62.3745 82.9133L62.0708 83.7717C61.7481 84.6472 61.5212 85.2993 61.3902 85.728L60.4634 89.1668L59.7234 88.9269C59.7283 88.7905 59.7429 88.6526 59.7672 88.5129C59.8515 87.9965 59.8966 87.5783 59.9024 87.2584C59.4037 86.9957 58.36 86.6217 56.7714 86.1362L55.8724 85.8752L54.4789 85.5183C54.3528 85.4797 54.131 85.3936 53.8135 85.2598C55.8743 88.711 57.091 90.8795 57.4636 91.7654C57.8857 91.8576 58.2286 91.8935 58.4922 91.873C58.7614 91.413 58.9578 91.0411 59.0813 90.7572C59.1367 90.6362 59.2004 90.5178 59.2726 90.402L60.0242 90.6041L59.7205 91.4625C59.3952 92.3465 59.1683 92.9986 59.0399 93.4189L58.1131 96.8577L57.373 96.6178C57.3779 96.4814 57.3925 96.3434 57.4168 96.2038C57.4986 95.6957 57.5437 95.2776 57.5521 94.9493C57.0534 94.6866 56.514 94.4666 55.9341 94.2894L53.9129 93.6855L52.0722 93.123L51.3875 92.9275L50.5641 92.6897C49.8135 92.4695 49.3716 92.3666 49.2385 92.3811C49.1054 92.3956 48.9743 92.599 48.8452 92.9915C48.7964 93.1512 48.6842 93.4432 48.5086 93.8674L47.6011 93.7693C48.0159 92.6829 48.3003 91.8876 48.4544 91.3833L48.6421 90.7238L48.963 89.719C49.3098 88.5843 49.5147 87.7784 49.5777 87.3014L50.3888 87.7147L50.1958 88.6621C50.07 89.0739 50.0679 89.3214 50.1895 89.4046C50.3053 89.4767 50.9923 89.7096 52.2506 90.1033L53.0081 90.3762L53.9043 90.6914L56.3163 91.4148L54.5047 88.366C53.9427 87.4682 53.5 86.7217 53.1764 86.1266C52.8586 85.5424 52.6149 85.137 52.4451 84.9105C52.2233 84.8244 52.0746 84.7697 51.999 84.7466C51.6375 84.6362 51.3697 84.8208 51.1955 85.3006C51.1101 85.5502 50.9979 85.8422 50.8589 86.1765Z" fill="white"/>
<path d="M64.8011 71.1801C64.9424 71.1022 65.0428 71.0404 65.1023 70.9945C65.2834 70.8689 65.4625 70.7886 65.6393 70.7534C66.2615 71.418 66.6046 72.3078 66.6686 73.4227C66.7325 74.5377 66.3965 75.6891 65.6605 76.877C65.1976 77.6242 64.5825 78.2666 63.815 78.8044C63.0476 79.3421 62.2719 79.668 61.4879 79.7819C60.8836 79.8728 60.2406 79.8259 59.5588 79.6413C58.8817 79.4493 58.3414 79.2283 57.938 78.9783C57.4523 78.6774 56.968 78.2326 56.4849 77.6438C55.9944 77.0504 55.6292 76.3382 55.3894 75.5072C55.1495 74.6762 55.1003 73.7876 55.242 72.8414C55.3882 71.8877 55.753 70.9402 56.3362 69.9989C57.1371 68.7063 57.8966 67.931 58.6148 67.6729C59.333 67.4148 59.8938 67.4108 60.2973 67.6608C60.6933 67.9061 60.9423 68.2051 61.0443 68.5578C61.1434 68.8984 61.0819 69.248 60.8597 69.6066C60.6699 69.9129 60.3932 70.1344 60.0294 70.2709C59.6703 70.3999 59.1984 70.4022 58.6138 70.2778C58.1868 70.1994 57.8301 70.2161 57.5435 70.3281C57.2645 70.4447 57.0347 70.6487 56.8542 70.9401C56.4191 71.6424 56.3328 72.4575 56.5954 73.3853C56.8506 74.3085 57.4974 75.0918 58.5359 75.7352C59.7837 76.5083 60.9856 76.7877 62.1419 76.5736C63.2953 76.3473 64.1382 75.8046 64.6705 74.9454C64.9344 74.5195 65.1103 74.1271 65.1984 73.7681C65.2469 73.5396 65.2585 73.1953 65.2335 72.7352C65.2246 72.616 65.1589 72.3633 65.0362 71.9772C64.9182 71.5835 64.8399 71.3178 64.8011 71.1801Z" fill="white"/>
<path d="M75.3745 60.9924L75.7313 60.9307C75.8311 60.9219 75.9174 60.9437 75.9901 60.9961L76.0446 61.0354C76.4228 61.7519 76.5882 62.3362 76.5407 62.7885C76.4872 63.2343 76.2737 63.6308 75.9004 63.9779C75.5207 64.331 75.0967 64.5333 74.6284 64.5847C74.1606 64.6237 73.5686 64.484 72.8526 64.1657C73.0307 64.9123 72.9854 65.6444 72.7168 66.3623C72.4422 67.0737 71.9413 67.7676 71.214 68.4439C70.5446 69.0664 69.9236 69.3859 69.3508 69.4024C68.7721 69.4125 68.2703 69.189 67.8453 68.732C67.6478 68.5196 67.4924 68.2621 67.379 67.9595C67.272 67.6509 67.2228 67.2946 67.2312 66.8907C67.2401 66.4744 67.3566 65.922 67.5806 65.2336C67.6155 65.1292 67.7583 64.7923 68.0091 64.2231L69.5153 61.0222C69.3071 60.7596 69.0864 60.5028 68.8529 60.2518C68.0449 59.3829 67.3881 58.8896 66.8824 58.7717C66.5742 58.6983 66.2591 58.8112 65.9373 59.1105C65.6155 59.4098 65.3763 59.7462 65.2197 60.1199C65.0631 60.4936 65.0134 60.8338 65.0707 61.1406C65.1122 61.366 65.2834 61.7049 65.5841 62.1574C65.8024 62.4825 65.9132 62.6855 65.9165 62.7665C65.9336 62.9785 65.8614 63.2558 65.6997 63.5981C65.5385 63.9281 65.4337 64.1575 65.3855 64.2864C65.1936 64.7769 64.9946 65.1179 64.7887 65.3095C64.6267 65.316 64.4799 65.2485 64.3483 65.1069C64.0071 64.74 63.7911 64.3528 63.7001 63.9453C63.5847 63.3565 63.5971 62.6729 63.7373 61.8944C63.878 61.1035 64.0852 60.4487 64.359 59.9301C64.745 59.2351 65.337 58.5166 66.1351 57.7744C66.65 57.2956 67.1806 56.9821 67.727 56.8341C68.2739 56.6736 68.7917 56.7142 69.2805 56.9558C69.7756 57.1914 70.4751 57.7952 71.3789 58.7671L72.8312 60.387L73.9368 61.5372L74.2152 61.8365C74.4665 62.1068 74.6755 62.2605 74.8421 62.2977C75.0091 62.3224 75.1505 62.2809 75.2664 62.1732C75.3372 62.1073 75.3803 62.0312 75.3959 61.9447L75.2636 61.2216L75.3745 60.9924ZM70.1251 61.6973C69.8719 62.1607 69.6483 62.7527 69.4542 63.4733C69.2606 64.1814 69.2083 64.7641 69.2975 65.2213C69.3662 65.5534 69.5443 65.874 69.8316 66.1829C70.0889 66.4597 70.3851 66.6103 70.72 66.6349C71.0549 66.6595 71.3318 66.5701 71.5506 66.3666C71.9111 66.0314 72.121 65.6441 72.1805 65.2048C72.2643 64.6108 72.2603 64.2064 72.1686 63.9916C72.0709 63.7704 71.666 63.2769 70.9537 62.511C70.6904 62.2278 70.4142 61.9565 70.1251 61.6973Z" fill="white"/>
<path d="M73.3398 56.0914C73.3357 55.942 73.3033 55.743 73.2426 55.4944L73.1583 55.0266C73.0491 54.4617 72.9002 53.8183 72.7116 53.0963L72.6174 52.6645L73.1559 52.3579C73.2289 52.3972 73.2855 52.4257 73.3258 52.4432C73.6994 52.6553 73.9238 52.7652 73.999 52.7729C74.0885 52.7523 74.4883 52.5398 75.1987 52.1354L77.5621 50.7442L78.4737 50.2404L81.1317 48.727C81.1546 48.714 81.2342 48.6585 81.3707 48.5606C81.5071 48.4627 81.589 48.3756 81.6164 48.2994C81.6437 48.2231 81.6369 48.0601 81.5959 47.8104L81.5816 47.5455C81.7223 47.4552 81.9302 47.3318 82.2051 47.1752L83.2342 48.956L83.6827 49.717C83.9523 50.1906 84.0936 50.4742 84.1065 50.568C83.91 50.7912 83.726 50.9566 83.5547 51.0643C83.3281 50.9505 82.9704 50.7042 82.4815 50.3251C82.0547 50.0018 81.772 49.834 81.6336 49.8218C81.5028 49.8052 81.1625 49.9535 80.6125 50.2666L79.9889 50.6368C79.7674 50.7629 79.5165 50.8906 79.2361 51.0199L79.8005 51.9578L80.4755 53.1967L81.5777 55.2392C82.6693 57.1563 83.3294 58.1913 83.5581 58.3443C84.1045 58.1849 84.5048 58.0531 84.7589 57.9488C84.8898 57.8945 85.0213 57.85 85.1532 57.8153L85.5626 58.5077L84.1601 59.2152C83.7193 59.4358 83.308 59.6548 82.9261 59.8722L81.2746 60.8884L79.8801 61.7431L79.5051 61.0312C79.587 60.9441 79.6885 60.856 79.8096 60.7668C80.2069 60.4698 80.5246 60.1928 80.7626 59.9359C80.5456 59.2706 80.1479 58.43 79.5696 57.4142L78.1148 54.9656C77.4146 53.7359 76.9302 52.9296 76.6615 52.5465C76.3091 52.7269 76.0337 52.8736 75.8351 52.9867C75.1553 53.3737 74.752 53.6691 74.6253 53.8728C74.4985 54.0764 74.3784 54.5494 74.2649 55.2916L74.1973 55.679C74.1565 55.9449 74.1018 56.0975 74.033 56.1366C73.8956 56.2149 73.6645 56.1998 73.3398 56.0914Z" fill="white"/>
<path d="M92.387 49.1301L93.7764 48.6288L94.2313 48.4505C96.3173 47.7603 97.7936 47.5496 98.6602 47.8183C99.5351 48.0843 100.116 48.6512 100.403 49.519C100.748 50.562 100.585 51.4955 99.9134 52.3195C99.2501 53.1407 98.1549 53.8039 96.6279 54.3092L94.9425 54.839L89.9481 56.6581L89.7246 55.8989L90.4968 55.5045C90.8001 55.3579 91.0283 55.2222 91.1814 55.0975C91.232 54.8308 90.9233 53.6878 90.2552 51.6685L89.5136 49.5531L88.9874 48.0886C88.7417 47.346 88.5759 46.9287 88.4899 46.8368C88.4096 46.7338 88.1719 46.743 87.777 46.8644L86.8343 47.0791L86.4856 46.403L88.0084 45.8852L88.4633 45.707C88.8249 45.5688 89.3269 45.3934 89.9694 45.1808L91.388 44.6837L92.3059 44.3939C92.4644 44.3415 92.7217 44.2239 93.0779 44.0413L93.2093 44.9421C92.6779 45.1827 92.3538 45.3223 92.237 45.361C91.7447 45.5239 91.472 45.6789 91.4188 45.8261C91.3629 45.9649 91.4123 46.268 91.5669 46.7353L91.9728 47.9202L92.1923 48.5835C92.2475 48.7504 92.3124 48.9326 92.387 49.1301ZM94.044 53.9282C94.3664 53.9233 94.8196 53.8243 95.4037 53.631C97.2979 53.0043 98.0213 52.0151 97.5741 50.6634C97.3808 50.0793 96.9843 49.6782 96.3844 49.46C95.7845 49.2419 95.009 49.2902 94.0578 49.6049C93.6656 49.7347 93.2344 49.9144 92.7642 50.144C92.7889 50.2469 92.8041 50.3067 92.8096 50.3234L93.0789 51.0953C93.3188 51.9602 93.5726 52.7973 93.8404 53.6067C93.8763 53.7152 93.9441 53.8224 94.044 53.9282Z" fill="white"/>
<path d="M112.084 48.351C112.23 48.4189 112.339 48.4632 112.411 48.484C112.62 48.5559 112.79 48.6527 112.923 48.7746C112.755 49.6693 112.241 50.4721 111.379 51.1831C110.518 51.894 109.391 52.3039 107.998 52.4129C107.122 52.4814 106.24 52.3652 105.352 52.0644C104.465 51.7635 103.743 51.3307 103.188 50.7658C102.757 50.3323 102.415 49.786 102.16 49.1271C101.915 48.4674 101.774 47.901 101.737 47.4279C101.692 46.8583 101.764 46.2047 101.953 45.467C102.142 44.7206 102.5 44.0049 103.029 43.32C103.557 42.6351 104.244 42.07 105.091 41.6247C105.947 41.1787 106.926 40.9126 108.03 40.8262C109.546 40.7077 110.621 40.8617 111.254 41.2882C111.886 41.7148 112.221 42.1647 112.258 42.6378C112.295 43.1022 112.201 43.4799 111.977 43.7707C111.761 44.052 111.442 44.2092 111.022 44.2421C110.662 44.2702 110.32 44.1779 109.995 43.9653C109.679 43.752 109.398 43.3729 109.152 42.8279C108.963 42.4371 108.739 42.1593 108.479 41.9945C108.22 41.8385 107.919 41.7738 107.578 41.8005C106.754 41.8649 106.046 42.2774 105.453 43.0378C104.859 43.7895 104.61 44.7744 104.705 45.9923C104.82 47.4556 105.305 48.5902 106.162 49.396C107.026 50.1923 107.962 50.5511 108.97 50.4723C109.469 50.4332 109.89 50.343 110.232 50.2017C110.444 50.1057 110.729 49.9116 111.085 49.6192C111.176 49.5416 111.341 49.3391 111.58 49.0119C111.828 48.684 111.995 48.4637 112.084 48.351Z" fill="white"/>
<path d="M127.046 53.236C127.039 53.3689 127.029 53.4699 127.017 53.539C127.002 53.6168 126.965 53.726 126.903 53.8666C126.341 53.7632 125.797 53.6364 125.271 53.4859L124.91 53.4062L124.206 53.2231L123.347 53.0115L121.229 52.7961L120.894 52.7211L120.66 52.6782C120.659 52.5885 120.664 52.4868 120.676 52.3728C120.699 52.2518 120.708 52.1284 120.704 52.0026C120.833 51.9816 121.045 51.9714 121.34 51.9721C121.983 51.9742 122.375 51.9301 122.517 51.84C122.568 51.5634 122.665 51.1344 122.807 50.553C122.9 50.1947 123.066 49.3629 123.307 48.0577L122.767 47.9316C122.369 47.8584 122.008 47.9037 121.683 48.0673C121.358 48.2309 120.943 48.6373 120.44 49.2864L118.931 51.2207C118.584 51.7467 118.332 52.0712 118.176 52.1943L117.005 51.9254C116.106 51.7601 115.539 51.6646 115.302 51.639L114.486 51.5559L114.061 51.4642C114.071 51.3589 114.084 51.2631 114.1 51.1766C114.122 51.0556 114.163 50.9334 114.221 50.8101C114.829 50.8593 115.286 50.8005 115.594 50.6337C115.903 50.4583 116.317 50.0562 116.835 49.4276C117.705 48.3901 118.355 47.7233 118.784 47.427C119.225 47.1237 119.696 46.9422 120.198 46.8827C119.146 46.4836 118.399 46.0469 117.959 45.5728C117.519 45.0987 117.361 44.5245 117.485 43.8502C117.636 43.029 118.13 42.4318 118.968 42.0586C119.813 41.6869 120.95 41.6322 122.376 41.8945L124.047 42.2824L125.866 42.6705C126.439 42.8116 126.954 42.9243 127.412 43.0086C127.931 43.104 128.368 43.2067 128.723 43.3167C128.729 43.3804 128.731 43.4165 128.73 43.4252L128.618 44.0346C128.509 44.0414 128.315 44.0281 128.035 43.9945L127.812 43.9669L127.654 43.9512L127.347 43.9482C127.259 43.941 127.182 43.9448 127.117 43.9596C127.075 44.086 127.049 44.1795 127.038 44.2401L126.996 44.5407L126.944 44.8259L126.816 45.4459L126.645 46.2321L126.032 49.9264L125.825 50.907C125.69 51.6417 125.627 52.1797 125.636 52.5209C125.837 52.6919 126.104 52.8395 126.439 52.9636C126.706 53.0663 126.908 53.1571 127.046 53.236ZM123.526 47.0122L123.668 46.167L123.729 45.7627L124.157 43.2142C123.989 43.1564 123.762 43.1013 123.477 43.0489C122.578 42.8835 121.888 42.9666 121.407 43.2981C120.935 43.6313 120.649 44.0701 120.548 44.6147C120.327 45.8162 121.112 46.5816 122.901 46.9107L123.526 47.0122Z" fill="white"/>
<path d="M167.077 63.4557C168.679 64.6652 169.941 65.9337 170.864 67.2614C171.828 68.6468 172.366 70.0283 172.478 71.4061C172.596 72.7911 172.128 73.8499 171.074 74.5826C170.497 74.984 169.822 75.207 169.05 75.2515C168.278 75.2959 167.237 74.869 165.928 73.9708C166.459 75.1964 166.627 76.3695 166.432 77.49C166.249 78.6127 165.667 79.5153 164.686 80.1978C163.409 81.0861 161.991 81.2481 160.431 80.6839C158.884 80.1219 157.323 78.7081 155.747 76.4424C154.598 74.79 153.932 73.4171 153.75 72.3235C153.572 71.2371 153.786 70.4832 154.393 70.0617C154.782 69.7907 155.217 69.6919 155.696 69.7654C156.18 69.846 156.593 70.1317 156.934 70.6224C157.185 70.9831 157.321 71.3547 157.34 71.7371C157.365 72.1267 157.251 72.7251 156.999 73.5322C156.643 74.6364 156.706 75.5348 157.187 76.2275C157.775 77.0717 158.577 77.5789 159.595 77.749C160.612 77.9192 161.576 77.6881 162.485 77.0558C163.033 76.6744 163.446 76.2213 163.723 75.6965C164.013 75.1739 164.15 74.6239 164.133 74.0463C164.122 73.476 164.017 73.0088 163.817 72.6446C163.624 72.2753 163.109 71.4346 162.271 70.1223L163.148 69.5126C163.956 70.6743 164.61 71.4611 165.111 71.873C165.624 72.2871 166.202 72.4794 166.845 72.4496C167.495 72.4149 168.12 72.1892 168.719 71.7727C169.447 71.2659 169.89 70.6476 170.046 69.918C170.21 69.1833 170.038 68.4516 169.531 67.7228C169.004 66.9652 168.321 66.4289 167.481 66.1138C166.648 65.7938 165.456 65.7502 163.905 65.9831L163.22 64.9982C164.743 64.2172 166.029 63.7031 167.077 63.4557Z" fill="white"/>
<path d="M167.174 93.7163L167.07 94.063C167.033 94.1562 166.975 94.2237 166.896 94.2653L166.836 94.2965C166.026 94.3147 165.429 94.2015 165.046 93.9569C164.671 93.7098 164.412 93.3417 164.268 92.8527C164.122 92.3551 164.13 91.8854 164.294 91.4435C164.468 91.0076 164.857 90.5405 165.462 90.0421C164.715 89.8679 164.08 89.5002 163.558 88.9391C163.044 88.3756 162.647 87.6173 162.367 86.6645C162.109 85.7875 162.101 85.0891 162.342 84.5694C162.592 84.0472 163.016 83.6981 163.615 83.5221C163.893 83.4403 164.193 83.4163 164.514 83.4501C164.838 83.4923 165.179 83.6075 165.536 83.7955C165.905 83.9896 166.347 84.3406 166.863 84.8486C166.94 84.9265 167.178 85.2048 167.575 85.6835L169.766 88.4613C170.093 88.3924 170.422 88.3096 170.751 88.213C171.889 87.8784 172.624 87.5113 172.955 87.1116C173.159 86.8686 173.199 86.5363 173.075 86.1146C172.951 85.693 172.757 85.3287 172.492 85.0216C172.228 84.7145 171.946 84.518 171.646 84.4322C171.426 84.3686 171.046 84.3703 170.507 84.4371C170.118 84.4872 169.887 84.4955 169.813 84.4623C169.616 84.3829 169.4 84.1944 169.166 83.8967C168.943 83.605 168.785 83.4088 168.691 83.3081C168.338 82.9172 168.122 82.5868 168.042 82.317C168.109 82.1692 168.235 82.0681 168.42 82.0135C168.901 81.8723 169.344 81.852 169.749 81.9528C170.327 82.1126 170.933 82.4292 171.567 82.9025C172.212 83.3818 172.705 83.8598 173.047 84.3365C173.496 84.9923 173.874 85.843 174.182 86.8886C174.38 87.5632 174.423 88.178 174.311 88.733C174.211 89.2939 173.943 89.739 173.508 90.0683C173.076 90.406 172.224 90.7619 170.95 91.1362L168.852 91.7116L167.329 92.1867L166.937 92.3019C166.583 92.406 166.352 92.5242 166.244 92.6567C166.147 92.795 166.121 92.9401 166.166 93.0919C166.193 93.1846 166.242 93.2573 166.312 93.3099L167.019 93.5146L167.174 93.7163ZM168.889 88.7051C168.588 88.2715 168.158 87.807 167.6 87.3113C167.053 86.8217 166.555 86.5146 166.106 86.39C165.779 86.3031 165.412 86.3191 165.007 86.4381C164.645 86.5447 164.378 86.7423 164.206 87.0309C164.034 87.3195 163.991 87.6072 164.075 87.8939C164.214 88.3661 164.466 88.727 164.833 88.9766C165.327 89.3169 165.69 89.4941 165.923 89.508C166.165 89.5195 166.787 89.3777 167.791 89.0828C168.162 88.9738 168.528 88.8479 168.889 88.7051Z" fill="white"/>
<path d="M176.454 111.518L175.536 111.325C175.487 110.77 175.463 110.449 175.465 110.361C175.465 109.966 175.387 109.726 175.231 109.644C175.083 109.57 174.429 109.52 173.269 109.494L172.135 109.495L170.948 109.507L169.381 109.432C168.994 109.406 168.595 109.388 168.182 109.379C167.532 109.364 167.03 109.41 166.675 109.516C166.531 110.058 166.439 110.469 166.397 110.749C166.376 110.89 166.347 111.025 166.309 111.156L165.504 111.151L165.619 109.585C165.656 109.093 165.68 108.623 165.69 108.175L165.668 106.249L165.652 104.614L166.456 104.645C166.488 104.769 166.512 104.906 166.526 105.056C166.576 105.549 166.65 105.964 166.748 106.3C167.772 106.508 169.624 106.642 172.304 106.703L175.495 106.709C175.481 106.155 175.481 105.583 175.494 104.995C175.51 104.283 175.532 103.738 175.558 103.361L175.609 102.241C175.614 102.013 175.607 101.771 175.586 101.515L174.242 101.498L168.179 101.335C167.67 101.323 167.229 101.37 166.857 101.476C166.713 102.018 166.62 102.429 166.579 102.71C166.558 102.85 166.529 102.981 166.491 103.103L165.686 103.111L165.801 101.545C165.838 101.053 165.862 100.583 165.872 100.135L165.85 98.2095L165.834 96.5739L166.638 96.6053C166.67 96.7291 166.693 96.8659 166.708 97.0157C166.758 97.5003 166.832 97.9152 166.93 98.2603C167.568 98.4066 168.556 98.4948 169.891 98.5251L172.502 98.5314L174.137 98.542C174.954 98.5517 175.425 98.5315 175.549 98.4816C175.674 98.4317 175.745 98.2003 175.763 97.7875C175.767 97.5854 175.801 97.2741 175.863 96.8535L176.79 96.703L176.672 98.4015L176.601 99.2307L176.607 100.128C176.602 100.321 176.587 100.602 176.561 100.97L176.455 103.909L176.416 107.956L176.379 109.01C176.352 110.197 176.378 111.032 176.454 111.518Z" fill="white"/>
<path d="M172.962 124.319L173.871 124.409C173.466 125.499 173.188 126.297 173.038 126.803L172.857 127.464L172.545 128.471C172.208 129.609 172.009 130.421 171.948 130.907L171.137 130.488L171.321 129.539C171.441 129.135 171.44 128.891 171.317 128.809C171.201 128.738 170.513 128.507 169.254 128.116L168.427 127.844L167.389 127.495C164.675 126.692 163.211 126.328 162.997 126.402C162.732 126.864 162.538 127.238 162.417 127.523C162.363 127.644 162.299 127.767 162.226 127.892L161.476 127.684L161.772 126.823C162.087 125.945 162.308 125.291 162.435 124.861L163.332 121.414L164.074 121.647C164.07 121.784 164.057 121.922 164.034 122.062C163.954 122.579 163.913 122.997 163.91 123.317C164.411 123.576 165.458 123.94 167.05 124.412L167.952 124.665L169.348 125.009C169.475 125.047 169.697 125.131 170.016 125.262C167.925 121.829 166.689 119.671 166.308 118.789C165.886 118.7 165.542 118.668 165.279 118.69C165.014 119.153 164.821 119.526 164.7 119.811C164.645 119.933 164.583 120.052 164.512 120.168L163.758 119.973L164.054 119.112C164.372 118.225 164.593 117.571 164.718 117.149L165.614 113.703L166.356 113.936C166.352 114.072 166.339 114.21 166.316 114.35C166.239 114.859 166.197 115.278 166.192 115.606C166.693 115.864 167.234 116.079 167.816 116.251L169.842 116.837L171.688 117.384L172.374 117.573L173.2 117.804C173.952 118.017 174.395 118.116 174.528 118.1C174.661 118.085 174.79 117.88 174.916 117.487C174.963 117.326 175.073 117.034 175.245 116.608L176.153 116.698C175.748 117.788 175.47 118.586 175.321 119.091L175.139 119.752L174.827 120.76C174.49 121.898 174.292 122.705 174.234 123.183L173.419 122.777L173.603 121.828C173.726 121.415 173.726 121.167 173.603 121.085C173.487 121.014 172.798 120.787 171.536 120.405L170.776 120.139L169.877 119.831L167.459 119.129L169.297 122.162C169.867 123.055 170.317 123.797 170.645 124.39C170.968 124.971 171.216 125.374 171.387 125.599C171.61 125.683 171.759 125.737 171.835 125.759C172.197 125.866 172.464 125.679 172.633 125.198C172.717 124.948 172.826 124.655 172.962 124.319Z" fill="white"/>
<path d="M160.145 141.439C160.004 141.518 159.904 141.581 159.845 141.627C159.665 141.754 159.487 141.836 159.31 141.873C158.682 141.214 158.331 140.327 158.258 139.213C158.184 138.099 158.51 136.944 159.235 135.75C159.691 134.999 160.301 134.351 161.063 133.806C161.826 133.262 162.599 132.929 163.382 132.808C163.985 132.712 164.629 132.753 165.312 132.932C165.991 133.118 166.533 133.334 166.939 133.58C167.427 133.877 167.915 134.318 168.404 134.902C168.899 135.491 169.271 136.2 169.518 137.029C169.765 137.858 169.822 138.746 169.689 139.693C169.551 140.648 169.195 141.599 168.62 142.545C167.83 143.845 167.078 144.627 166.362 144.891C165.646 145.156 165.085 145.165 164.68 144.918C164.281 144.677 164.03 144.38 163.925 144.028C163.823 143.688 163.881 143.338 164.1 142.978C164.287 142.67 164.562 142.446 164.924 142.306C165.282 142.174 165.754 142.167 166.34 142.287C166.768 142.361 167.124 142.341 167.41 142.227C167.688 142.108 167.916 141.902 168.094 141.609C168.522 140.903 168.602 140.087 168.331 139.161C168.067 138.24 167.414 137.463 166.369 136.829C165.115 136.067 163.911 135.798 162.756 136.022C161.605 136.259 160.767 136.809 160.242 137.673C159.982 138.101 159.81 138.495 159.725 138.855C159.678 139.084 159.67 139.428 159.699 139.888C159.709 140.007 159.777 140.259 159.903 140.644C160.024 141.037 160.105 141.302 160.145 141.439Z" fill="white"/>
<path d="M149.671 151.728L149.315 151.793C149.215 151.803 149.129 151.782 149.056 151.73L149.001 151.691C148.616 150.978 148.446 150.395 148.489 149.942C148.539 149.496 148.749 149.098 149.119 148.747C149.495 148.391 149.918 148.185 150.385 148.129C150.853 148.086 151.446 148.221 152.165 148.533C151.98 147.788 152.019 147.055 152.281 146.335C152.549 145.621 153.044 144.923 153.766 144.24C154.429 143.612 155.048 143.287 155.62 143.265C156.199 143.25 156.703 143.469 157.132 143.922C157.331 144.133 157.489 144.389 157.605 144.691C157.714 144.998 157.767 145.354 157.762 145.758C157.757 146.174 157.645 146.728 157.427 147.418C157.393 147.523 157.253 147.861 157.008 148.432L155.53 151.647C155.74 151.907 155.963 152.162 156.199 152.411C157.015 153.273 157.676 153.76 158.183 153.874C158.491 153.944 158.805 153.829 159.125 153.526C159.444 153.224 159.68 152.886 159.833 152.511C159.987 152.136 160.033 151.795 159.973 151.489C159.93 151.264 159.756 150.926 159.451 150.477C159.23 150.153 159.117 149.951 159.113 149.87C159.094 149.659 159.164 149.381 159.323 149.037C159.481 148.706 159.584 148.475 159.631 148.346C159.818 147.854 160.014 147.511 160.218 147.318C160.38 147.31 160.528 147.376 160.661 147.516C161.005 147.88 161.224 148.265 161.319 148.672C161.44 149.26 161.433 149.944 161.3 150.723C161.166 151.515 160.965 152.172 160.696 152.693C160.316 153.391 159.73 154.115 158.939 154.864C158.428 155.348 157.9 155.666 157.355 155.819C156.81 155.984 156.291 155.948 155.801 155.711C155.303 155.479 154.599 154.882 153.686 153.918L152.22 152.311L151.104 151.171L150.823 150.874C150.569 150.606 150.359 150.454 150.192 150.418C150.025 150.395 149.884 150.438 149.769 150.546C149.699 150.613 149.656 150.689 149.641 150.776L149.78 151.498L149.671 151.728ZM154.914 150.977C155.163 150.511 155.382 149.917 155.569 149.195C155.757 148.485 155.804 147.902 155.711 147.446C155.639 147.114 155.458 146.795 155.168 146.489C154.908 146.214 154.611 146.066 154.276 146.045C153.94 146.023 153.664 146.115 153.447 146.32C153.09 146.659 152.883 147.048 152.828 147.488C152.749 148.082 152.757 148.487 152.85 148.701C152.95 148.921 153.359 149.411 154.078 150.171C154.344 150.451 154.623 150.72 154.914 150.977Z" fill="white"/>
<path d="M150.777 157.636C150.782 157.786 150.816 157.984 150.879 158.232L150.967 158.699C151.082 159.263 151.236 159.905 151.431 160.626L151.529 161.057L150.993 161.368C150.92 161.329 150.863 161.301 150.823 161.284C150.447 161.075 150.222 160.967 150.147 160.96C150.057 160.982 149.659 161.198 148.953 161.608L146.602 163.02L145.695 163.532L143.05 165.069C143.027 165.082 142.948 165.139 142.813 165.238C142.677 165.337 142.596 165.425 142.569 165.501C142.543 165.578 142.551 165.741 142.594 165.99L142.611 166.255C142.471 166.346 142.264 166.471 141.99 166.63L140.946 164.859L140.49 164.102C140.217 163.631 140.073 163.348 140.059 163.255C140.254 163.03 140.436 162.863 140.606 162.753C140.834 162.865 141.194 163.108 141.686 163.483C142.116 163.803 142.4 163.968 142.538 163.979C142.669 163.994 143.008 163.843 143.556 163.525L144.176 163.149C144.396 163.021 144.646 162.891 144.925 162.76L144.353 161.827L143.667 160.594L142.546 158.561C141.438 156.654 140.769 155.625 140.539 155.474C139.994 155.638 139.595 155.773 139.341 155.88C139.211 155.935 139.08 155.981 138.948 156.017L138.533 155.328L139.929 154.608C140.368 154.384 140.777 154.161 141.157 153.94L142.8 152.91L144.187 152.043L144.568 152.751C144.487 152.839 144.386 152.928 144.266 153.018C143.871 153.319 143.556 153.598 143.32 153.857C143.543 154.521 143.948 155.358 144.535 156.369L146.012 158.804C146.723 160.028 147.214 160.83 147.486 161.21C147.837 161.027 148.111 160.878 148.309 160.763C148.985 160.37 149.386 160.071 149.511 159.866C149.636 159.661 149.752 159.187 149.859 158.444L149.923 158.056C149.961 157.79 150.015 157.637 150.083 157.597C150.22 157.518 150.451 157.531 150.777 157.636Z" fill="white"/>
<path d="M132.782 165.738L131.397 166.252L130.944 166.434C128.864 167.143 127.39 167.367 126.521 167.105C125.644 166.847 125.058 166.286 124.763 165.42C124.409 164.38 124.564 163.445 125.228 162.616C125.884 161.789 126.973 161.116 128.496 160.597L130.176 160.052L135.154 158.189L135.385 158.946L134.616 159.347C134.314 159.497 134.087 159.634 133.935 159.76C133.887 160.028 134.206 161.168 134.891 163.181L135.652 165.29L136.191 166.75C136.443 167.49 136.613 167.906 136.699 167.997C136.781 168.099 137.018 168.088 137.412 167.963L138.353 167.74L138.708 168.413L137.189 168.944L136.736 169.127C136.376 169.268 135.875 169.448 135.235 169.666L133.82 170.176L132.905 170.474C132.747 170.527 132.491 170.647 132.136 170.833L131.997 169.933C132.526 169.688 132.849 169.546 132.966 169.506C133.456 169.339 133.728 169.181 133.78 169.034C133.834 168.894 133.782 168.592 133.623 168.126L133.207 166.944L132.982 166.283C132.925 166.117 132.859 165.935 132.782 165.738ZM131.083 160.955C130.761 160.963 130.308 161.066 129.726 161.264C127.837 161.908 127.123 162.903 127.582 164.251C127.78 164.833 128.18 165.231 128.782 165.444C129.384 165.657 130.159 165.601 131.107 165.278C131.498 165.145 131.928 164.961 132.396 164.728C132.37 164.625 132.355 164.565 132.349 164.549L132.073 163.779C131.825 162.917 131.564 162.082 131.289 161.275C131.252 161.167 131.184 161.06 131.083 160.955Z" fill="white"/>
<path d="M111.094 165.684C110.947 165.617 110.837 165.574 110.765 165.554C110.556 165.484 110.384 165.388 110.25 165.268C110.41 164.371 110.918 163.564 111.773 162.846C112.628 162.127 113.751 161.707 115.143 161.586C116.019 161.51 116.902 161.618 117.792 161.911C118.682 162.204 119.407 162.63 119.968 163.19C120.402 163.62 120.75 164.163 121.01 164.82C121.261 165.477 121.407 166.043 121.449 166.515C121.498 167.084 121.432 167.739 121.249 168.478C121.067 169.226 120.715 169.945 120.193 170.635C119.671 171.324 118.988 171.895 118.145 172.348C117.294 172.802 116.316 173.076 115.213 173.172C113.698 173.304 112.623 173.16 111.986 172.739C111.35 172.318 111.011 171.871 110.969 171.398C110.929 170.934 111.02 170.556 111.241 170.263C111.455 169.98 111.772 169.82 112.192 169.783C112.551 169.752 112.894 169.841 113.221 170.051C113.539 170.261 113.823 170.638 114.074 171.181C114.266 171.57 114.493 171.846 114.754 172.008C115.015 172.162 115.316 172.224 115.657 172.194C116.48 172.122 117.185 171.704 117.771 170.938C118.358 170.181 118.598 169.194 118.492 167.977C118.365 166.515 117.87 165.385 117.006 164.586C116.135 163.798 115.195 163.447 114.188 163.535C113.689 163.579 113.27 163.672 112.929 163.817C112.717 163.915 112.434 164.111 112.081 164.407C111.991 164.485 111.827 164.689 111.591 165.018C111.347 165.349 111.181 165.57 111.094 165.684Z" fill="white"/>
<path d="M96.0919 159.941C96.0973 159.808 96.106 159.707 96.1181 159.638C96.1317 159.56 96.1687 159.45 96.2291 159.309C96.7918 159.408 97.3371 159.53 97.8648 159.675L98.2261 159.752L98.9313 159.929L99.7923 160.133L101.913 160.33L102.248 160.402L102.482 160.442C102.484 160.532 102.48 160.634 102.469 160.748C102.447 160.869 102.439 160.993 102.444 161.118C102.315 161.14 102.103 161.152 101.809 161.155C101.166 161.158 100.774 161.206 100.633 161.297C100.584 161.574 100.491 162.004 100.354 162.587C100.264 162.946 100.105 163.779 99.8767 165.086L100.418 165.207C100.816 165.277 101.177 165.229 101.5 165.062C101.824 164.896 102.235 164.486 102.732 163.832L104.224 161.885C104.566 161.355 104.815 161.029 104.971 160.904L106.143 161.163C107.044 161.32 107.612 161.411 107.849 161.434L108.666 161.51L109.092 161.598C109.083 161.703 109.07 161.799 109.055 161.886C109.034 162.007 108.995 162.13 108.937 162.253C108.329 162.21 107.872 162.272 107.566 162.442C107.258 162.62 106.848 163.026 106.336 163.659C105.475 164.704 104.831 165.377 104.404 165.677C103.967 165.984 103.497 166.17 102.995 166.234C104.051 166.623 104.801 167.053 105.246 167.524C105.69 167.994 105.853 168.567 105.735 169.242C105.591 170.064 105.102 170.666 104.268 171.047C103.426 171.426 102.29 171.49 100.862 171.241L99.1873 170.868L97.3652 170.496C96.7912 170.36 96.2748 170.252 95.8159 170.171C95.2964 170.081 94.8587 169.982 94.5026 169.875C94.4959 169.811 94.4933 169.775 94.4948 169.766L94.6015 169.156C94.7099 169.148 94.9042 169.16 95.1843 169.191L95.4073 169.217L95.5654 169.231L95.8732 169.231C95.9613 169.238 96.0379 169.233 96.1031 169.218C96.1431 169.091 96.1684 168.997 96.179 168.937L96.2182 168.636L96.2681 168.35L96.3901 167.729L96.5545 166.941L97.1343 163.242L97.3328 162.259C97.4615 161.523 97.5199 160.985 97.5082 160.644C97.3058 160.474 97.0367 160.329 96.701 160.208C96.433 160.108 96.23 160.019 96.0919 159.941ZM99.6669 166.134L99.5323 166.98L99.4749 167.385L99.0689 169.937C99.2375 169.993 99.4647 170.046 99.7504 170.096C100.651 170.254 101.34 170.164 101.818 169.829C102.287 169.491 102.57 169.05 102.665 168.505C102.876 167.301 102.085 166.543 100.292 166.229L99.6669 166.134Z" fill="white"/>
<path d="M145.332 107.053C145.918 106.467 145.918 105.517 145.332 104.932L135.786 95.3856C135.201 94.7998 134.251 94.7998 133.665 95.3856C133.079 95.9714 133.079 96.9211 133.665 97.5069L142.15 105.992L133.665 114.477C133.079 115.063 133.079 116.013 133.665 116.599C134.251 117.185 135.201 117.185 135.786 116.599L145.332 107.053ZM79.2168 107.492H144.272V104.492H79.2168V107.492Z" fill="white"/>
<circle cx="145.796" cy="52.627" r="3.55769" fill="white"/>
<circle cx="78.7081" cy="158.342" r="3.55769" fill="white"/>
<defs>
<filter id="filter0_f_336_538" x="21" y="20" width="177" height="177" filterUnits="userSpaceOnUse" color-interpolation-filters="sRGB">
<feFlood flood-opacity="0" result="BackgroundImageFix"/>
<feBlend mode="normal" in="SourceGraphic" in2="BackgroundImageFix" result="shape"/>
<feGaussianBlur stdDeviation="25" result="effect1_foregroundBlur_336_538"/>
</filter>
</defs>
</svg>
