<svg width="671" height="73" viewBox="0 0 671 73" fill="none" xmlns="http://www.w3.org/2000/svg">
<g opacity="0.5">
<path fill-rule="evenodd" clip-rule="evenodd" d="M62.5703 27.7764C62.5703 45.676 62.5772 46.4859 62.7413 47.8648C62.8355 48.6551 62.9583 49.5112 63.0144 49.7673C63.5249 52.1007 64.5519 53.8351 66.1463 55.0564C67.5971 56.1677 69.9382 56.8846 72.5479 57.0167L73.6516 57.0726L73.6283 51.2397C73.6156 48.0316 73.6156 43.9032 73.6283 42.0654L73.6516 38.7241L74.9228 40.0756C76.7216 41.9881 76.7578 42.0268 77.4925 42.8248C77.8567 43.2204 78.1755 43.563 78.201 43.5863C78.2408 43.6228 81.2877 46.9079 82.0398 47.7252C82.1855 47.8835 82.3444 48.0553 82.393 48.1069C82.4415 48.1587 83.1365 48.9058 83.9373 49.7673C84.7381 50.6289 85.4846 51.429 85.5961 51.5454C85.7076 51.6619 86.2444 52.2421 86.789 52.8349L87.7791 53.9127L93.0989 53.9145C97.8093 53.9161 98.7095 53.8849 98.3526 53.7328C98.3161 53.7173 97.9886 53.3807 97.6245 52.9849C97.2605 52.589 96.9227 52.2232 96.874 52.1718C96.8252 52.1204 96.5419 51.8156 96.2443 51.4944C92.6111 47.5727 90.7584 45.5769 90.428 45.2293C90.3794 45.1782 90.1013 44.8737 89.8099 44.5526C89.2414 43.9263 88.7281 43.3765 88.0786 42.6985C87.7263 42.3308 87.3435 41.9159 86.0131 40.4599C85.8674 40.3005 85.5207 39.9353 85.2426 39.6484C84.9646 39.3615 84.6592 39.0318 84.5639 38.9157C84.3912 38.7051 84.3912 38.704 84.5839 38.4984C84.6901 38.385 85.075 37.969 85.4392 37.574C85.8034 37.179 86.1411 36.8148 86.1897 36.7646C86.2618 36.6902 87.1666 35.7156 87.5142 35.338C87.6621 35.1772 89.0973 33.6438 89.1917 33.5455C89.2404 33.4949 89.5384 33.1743 89.854 32.833C90.1697 32.4917 90.4677 32.1712 90.5163 32.1205C90.5648 32.07 90.7399 31.8762 90.9054 31.6899C91.0708 31.5037 91.5313 31.0084 91.9287 30.5892C92.326 30.1701 92.8064 29.6557 92.9964 29.4462C93.1864 29.2366 93.3629 29.0461 93.3887 29.0228C93.4145 28.9995 94.0887 28.2756 94.887 27.4141C95.6852 26.5525 96.3594 25.8286 96.3852 25.8053C96.411 25.782 96.7296 25.4391 97.0932 25.0433C97.4567 24.6474 97.9033 24.1711 98.0856 23.9849C98.2678 23.7986 98.4173 23.6176 98.4179 23.5827C98.4184 23.5478 96.0235 23.5192 93.0959 23.5192H87.7729L87.4939 23.8367C87.1162 24.2667 86.8126 24.5973 86.4246 25.0009C86.2455 25.1872 85.3052 26.1969 84.335 27.2447C83.3648 28.2925 82.5505 29.1689 82.5254 29.1922C82.5003 29.2154 81.6863 30.0918 80.7166 31.1396C79.747 32.1874 78.9321 33.0638 78.9058 33.087C78.8796 33.1103 78.3661 33.6628 77.7646 34.3148C77.1631 34.9668 76.4882 35.6907 76.2647 35.9235C76.0413 36.1564 75.5606 36.6703 75.1965 37.0654C74.8324 37.4607 74.461 37.8607 74.371 37.9545C74.281 38.0483 74.1075 38.2489 73.9852 38.4002C73.863 38.5516 73.7277 38.6754 73.6845 38.6754C73.6388 38.6754 73.6155 32.4884 73.6288 23.9002L73.6516 9.125H68.1109H62.5703V27.7764ZM62.9436 60.3355C62.8576 60.3894 62.837 60.8007 62.8553 62.0932L62.8794 63.7805H63.1884H63.4974L63.524 63.1897C63.5485 62.6459 63.6925 62.2987 63.8936 62.2987C63.9266 62.2987 64.2008 62.6416 64.5032 63.0608L65.053 63.8228H65.4945C66.0089 63.8228 66.0383 63.9122 65.1502 62.7724C64.7908 62.3111 64.4809 61.892 64.4615 61.841C64.442 61.79 64.7233 61.4486 65.0865 61.0823C65.4496 60.716 65.7222 60.3782 65.6922 60.3317C65.6622 60.2852 65.4725 60.2649 65.2704 60.2868C64.9577 60.3205 64.8251 60.4055 64.377 60.8589C64.0874 61.1517 63.791 61.4501 63.7182 61.5221C63.6 61.6388 63.581 61.5804 63.5416 60.9809C63.4995 60.3394 63.4875 60.3079 63.2767 60.287C63.1553 60.2749 63.0054 60.2968 62.9436 60.3355ZM66.3401 60.3208C66.3063 60.3531 66.2788 61.1552 66.2788 62.1034V63.8273L67.5812 63.8039L68.8835 63.7805V63.4841V63.1878L67.8902 63.1638L66.8969 63.1399V62.7193V62.2987H67.7357H68.5745V62.0056V61.7124L67.7578 61.6881L66.941 61.6637V61.325V60.9863L67.8953 60.9623L68.8497 60.9381L68.8224 60.6236L68.7952 60.309L67.5983 60.2855C66.9399 60.2726 66.3737 60.2885 66.3401 60.3208ZM69.3202 60.3753C69.2962 60.435 69.5281 61.2257 69.8355 62.1322L70.3944 63.7805H70.7711H71.1478L71.5258 62.6798C72.1222 60.9432 72.283 60.4493 72.283 60.3548C72.283 60.3062 72.1313 60.2666 71.9459 60.2666C71.5658 60.2666 71.6211 60.157 71.0815 61.9812C70.9472 62.4352 70.8058 62.8068 70.7672 62.8068C70.7286 62.8068 70.6721 62.702 70.6416 62.5739C70.4908 61.9403 69.9532 60.3861 69.8658 60.3314C69.7048 60.2306 69.3672 60.2577 69.3202 60.3753ZM72.7446 60.3355C72.6586 60.3894 72.6379 60.8007 72.6563 62.0932L72.6803 63.7805H72.9893H73.2984V62.0447V60.309L73.0776 60.287C72.9562 60.2749 72.8064 60.2968 72.7446 60.3355ZM73.9807 60.3376C73.8947 60.3899 73.8741 60.7999 73.8924 62.0932L73.9165 63.7805H74.2255H74.5345L74.5787 62.5951L74.6228 61.4097L74.9675 62.0024C75.1571 62.3284 75.4779 62.8618 75.6804 63.1878C76.0477 63.7792 76.0494 63.7805 76.4394 63.7805H76.8302L76.8542 62.0639C76.8801 60.199 76.8763 60.1841 76.3911 60.3008C76.1739 60.3531 76.1729 60.3586 76.1484 61.5165L76.1239 62.6798L75.8909 62.2987C75.7628 62.0892 75.5493 61.7272 75.4165 61.4944C74.97 60.7119 74.8172 60.4789 74.6807 60.3725C74.5277 60.2532 74.1503 60.2344 73.9807 60.3376ZM78.5914 60.3749C78.5676 60.4345 78.5589 61.2252 78.5722 62.1318L78.5962 63.7805L78.9273 63.8067L79.2584 63.8331V62.6679C79.2584 61.4323 79.3224 61.3242 79.5518 62.1717C79.6274 62.4511 79.7616 62.9274 79.85 63.2301L80.0107 63.7805L80.3736 63.806C80.6609 63.8262 80.7463 63.7997 80.7837 63.679C80.8098 63.5951 80.9521 63.0933 81.1001 62.5638C81.2481 62.0344 81.3909 61.5803 81.4174 61.5548C81.4441 61.5293 81.4658 62.0292 81.4658 62.6656V63.8228H81.819H82.1722V62.0961C82.1722 60.1975 82.1929 60.2653 81.6131 60.2679C81.213 60.2697 81.1072 60.3628 80.9761 60.828C80.9122 61.0548 80.775 61.5452 80.6712 61.9177C80.4676 62.6483 80.3631 62.8294 80.2877 62.5825C79.9145 61.3602 79.6999 60.5986 79.6999 60.4959C79.6999 60.331 79.5111 60.2666 79.0277 60.2666C78.79 60.2666 78.6176 60.3094 78.5914 60.3749ZM82.8124 60.3227C82.6688 60.3782 82.66 62.4029 82.8011 62.9398C83.0485 63.8817 84.3568 64.1965 85.0924 63.491C85.4374 63.1602 85.5264 62.7471 85.527 61.4748L85.5275 60.3545L85.3069 60.3014C84.845 60.1902 84.8212 60.2496 84.8198 61.5129C84.8184 62.7986 84.7497 63.0422 84.353 63.1684C84.0287 63.2716 83.5972 63.1028 83.4892 62.8304C83.4447 62.7182 83.4084 62.1185 83.4084 61.4979C83.4084 60.547 83.3864 60.3613 83.2687 60.318C83.1097 60.2595 82.972 60.2609 82.8124 60.3227ZM86.0966 60.3749C86.0728 60.4345 86.0642 61.2252 86.0774 62.1318L86.1014 63.7805H86.4105H86.7195L86.7636 63.1233C86.7879 62.7617 86.8375 62.4665 86.874 62.4671C86.9105 62.4676 87.1488 62.4687 87.4038 62.4693C88.059 62.4712 88.1247 62.5339 88.1764 63.2057L88.2205 63.7805L88.5633 63.8074L88.9062 63.8344L88.865 63.1523C88.8358 62.6684 88.7796 62.4234 88.6718 62.3091C88.5272 62.1559 88.5307 62.1369 88.7455 61.9147C89.2279 61.4155 88.9108 60.5643 88.1737 60.3792C87.6124 60.2384 86.1525 60.2354 86.0966 60.3749ZM89.5597 60.3231C89.5273 60.3541 89.5008 61.1542 89.5008 62.1012V63.8228H89.806H90.1112L90.1371 63.2089L90.1631 62.5951L90.7857 62.5527C91.8023 62.4836 92.2 62.1187 92.1308 61.3185C92.0614 60.5155 91.6347 60.2785 90.244 60.2703C89.9 60.2683 89.5921 60.292 89.5597 60.3231ZM92.6306 60.3749C92.6068 60.4345 92.5981 61.2252 92.6114 62.1318L92.6354 63.7805H92.9444H93.2535L93.279 63.0396L93.3045 62.2987H94.0481H94.7918L94.8173 63.0396L94.8428 63.7805H95.1518H95.4609L95.4848 62.0679L95.5087 60.3553L95.2863 60.3018C94.8586 60.199 94.7987 60.288 94.7987 61.026V61.706H94.0481H93.2976V61.0377C93.2976 60.5064 93.269 60.3589 93.1579 60.318C92.9266 60.2329 92.6767 60.2598 92.6306 60.3749ZM95.8213 60.34C95.8004 60.3725 96.0279 60.8171 96.3272 61.3278C96.8584 62.2347 96.8721 62.2742 96.9165 63.0184L96.9619 63.7805H97.271H97.58L97.6241 63.0608C97.6609 62.4618 97.709 62.2809 97.9111 61.9829C98.0447 61.7859 98.1539 61.6037 98.1539 61.5781C98.1539 61.5524 98.3107 61.2662 98.5023 60.9419L98.8508 60.3522L98.6348 60.3002C98.2014 60.1959 98.0376 60.3211 97.6792 61.0293C97.4909 61.4016 97.3093 61.706 97.2755 61.706C97.2417 61.706 97.09 61.4488 96.9386 61.1345C96.7872 60.8202 96.6256 60.5104 96.5795 60.446C96.4914 60.3231 95.8868 60.2384 95.8213 60.34ZM88.126 61.077C88.2974 61.2414 88.3032 61.4539 88.1419 61.6654C88.0463 61.7907 87.8795 61.8341 87.3913 61.8605L86.7636 61.8945V61.4192V60.944H87.3755C87.8138 60.944 88.0265 60.9817 88.126 61.077ZM91.2726 61.0316C91.3877 61.0907 91.4429 61.2082 91.442 61.3915C91.4398 61.8413 91.3375 61.9157 90.7188 61.9167L90.1631 61.9177L90.1354 61.5482C90.1202 61.3449 90.1289 61.1259 90.1548 61.0613C90.2113 60.92 91.0136 60.8988 91.2726 61.0316ZM77.4042 63.4469V63.8331L77.7353 63.8067C78.0567 63.7812 78.0672 63.7699 78.0935 63.4206L78.1207 63.0608H77.7624H77.4042V63.4469Z" fill="#8A7BAE"/>
</g>
<g opacity="0.5">
<path fill-rule="evenodd" clip-rule="evenodd" d="M589.768 9.19058C589.768 9.22682 589.804 9.28706 589.847 9.32448C589.916 9.3839 590.012 9.39561 590.606 9.41697C590.98 9.43043 591.379 9.45739 591.492 9.47685C591.605 9.49634 591.803 9.51345 591.932 9.51488L592.166 9.51748V9.34391V9.17037L591.97 9.14783C591.861 9.13544 591.322 9.12516 590.771 9.12502C589.821 9.1247 589.768 9.12816 589.768 9.19058ZM586.516 9.25103C586.49 9.27974 586.436 9.30324 586.397 9.30324C586.301 9.30324 586.268 9.42275 586.329 9.54369C586.37 9.62407 586.4 9.64025 586.491 9.63064C586.552 9.62414 586.762 9.61104 586.958 9.6015C587.154 9.59197 587.33 9.56915 587.35 9.55084C587.369 9.53248 587.516 9.51748 587.675 9.51748C588.001 9.51748 588.082 9.47442 588.082 9.3007V9.19611L587.323 9.19747C586.706 9.19858 586.556 9.20857 586.516 9.25103ZM585.347 9.42122C585.347 9.44682 585.403 9.51913 585.471 9.5819C585.564 9.66849 585.628 9.69602 585.733 9.69602H585.872V9.53534V9.37465H585.609C585.419 9.37465 585.347 9.38736 585.347 9.42122ZM583.29 9.82104C582.947 9.8942 582.623 10.0011 582.083 10.2188C581.647 10.3943 581.212 10.5117 580.588 10.6225C580.454 10.6463 580.235 10.7194 580.101 10.7849C579.967 10.8505 579.748 10.9303 579.614 10.9622C579.48 10.9942 579.261 11.0759 579.127 11.1438C578.993 11.2116 578.597 11.4058 578.247 11.5752C576.974 12.1906 575.904 12.8003 574.898 13.4831C574.453 13.7851 574.295 13.8739 574.202 13.8739C573.98 13.8739 573.176 14.4319 572.401 15.1249C572.154 15.346 571.766 15.6712 571.54 15.8475C571.309 16.0266 571.097 16.2224 571.059 16.2914C571.008 16.3855 570.931 16.4417 570.736 16.528C570.495 16.6346 570.472 16.6557 570.339 16.8868C570.262 17.0218 570.154 17.1569 570.099 17.1868C570.041 17.2185 569.97 17.3104 569.93 17.4055C569.889 17.5024 569.744 17.6885 569.576 17.8597C569.42 18.0193 569.199 18.2907 569.085 18.4629C568.852 18.8172 568.644 18.9876 568.357 19.0584L568.173 19.104L567.917 19.6044C567.754 19.9248 567.572 20.2142 567.414 20.4084C567.186 20.6882 567.053 20.889 566.612 21.6225C566.236 22.246 565.539 22.9887 565.001 23.3364C564.839 23.4411 564.751 23.5295 564.687 23.6503C564.566 23.8806 564.419 24.2771 564.367 24.5205C564.323 24.7208 564.32 24.7241 564.022 24.9105C563.787 25.0579 563.703 25.1338 563.635 25.262C563.432 25.6437 563.074 26.5513 562.867 27.2084L562.721 27.6701L562.868 27.9256C562.949 28.066 563.015 28.2052 563.015 28.2348C563.015 28.3191 562.665 28.7739 562.517 28.8813C562.407 28.9611 562.376 29.014 562.34 29.1835C562.316 29.2965 562.223 29.7023 562.133 30.0853C561.925 30.9752 561.739 31.9009 561.575 32.8705C561.162 35.3028 561.129 36.1872 561.369 38.3695C562.106 45.0587 564.207 50.1979 567.88 54.2952C568.92 55.456 571.316 57.6237 572.881 58.8211C573.774 59.504 574.81 60.169 575.838 60.7195C576.091 60.8549 576.38 61.0155 576.48 61.0763C576.627 61.1653 576.703 61.1869 576.867 61.1869C577.057 61.1869 577.083 61.1761 577.221 61.0441C577.308 60.9599 577.404 60.9013 577.455 60.9013C577.585 60.9013 578.612 61.3183 578.682 61.3993C578.716 61.4382 578.755 61.5629 578.77 61.6766C578.83 62.1393 578.97 62.2669 579.642 62.4749C579.999 62.5853 580.203 62.6275 580.449 62.6413C580.714 62.6562 580.785 62.6722 580.814 62.7237C580.884 62.8491 581.14 62.9015 581.844 62.9346C582.383 62.96 582.619 62.9887 583.024 63.0782C583.698 63.2274 583.916 63.2786 584.317 63.3817C584.553 63.4426 584.756 63.4691 584.996 63.4704C585.213 63.4716 585.388 63.4921 585.474 63.5264C585.549 63.5562 585.816 63.6303 586.069 63.691C586.545 63.8058 587.309 63.8775 588.026 63.8749C588.418 63.8735 588.728 63.7849 588.751 63.6676C588.791 63.4624 588.905 63.4627 589.115 63.6686C589.273 63.8236 589.286 63.8293 589.501 63.8293C589.702 63.8293 589.733 63.819 589.818 63.7235C589.869 63.6652 589.923 63.5512 589.937 63.4702L589.963 63.3228L590.138 63.3453C590.619 63.4077 590.742 63.4087 590.765 63.3505C590.785 63.3008 590.899 63.2937 591.675 63.2937H592.563L592.73 63.4572L592.897 63.6207L593.178 63.597C593.488 63.5708 593.861 63.5666 594.214 63.5851C594.393 63.5946 594.46 63.5834 594.516 63.5347C594.575 63.484 594.66 63.4723 594.964 63.4723C595.315 63.4723 595.344 63.4666 595.426 63.383C595.505 63.3028 595.544 63.2937 595.801 63.2937C596.109 63.2937 596.564 63.1994 596.8 63.0867C596.879 63.049 597.059 63.0083 597.201 62.9962C597.512 62.9697 597.67 62.8894 597.762 62.7125C597.83 62.5805 597.832 62.5796 598.061 62.5796C598.248 62.5797 598.365 62.551 598.667 62.4305C598.873 62.3485 599.097 62.2363 599.164 62.1812C599.343 62.0349 599.463 61.9841 599.863 61.8851C600.217 61.7972 600.377 61.7355 600.56 61.6158C600.611 61.582 600.729 61.5432 600.822 61.5296C600.915 61.516 601.075 61.4596 601.178 61.4045C601.446 61.2609 601.915 61.0689 602.281 60.9533C602.455 60.8985 602.697 60.79 602.82 60.7122C603.049 60.5674 603.391 60.409 603.642 60.3318C603.719 60.308 603.8 60.2579 603.821 60.2203C603.865 60.1419 604.046 60.0443 604.147 60.0443C604.185 60.0443 604.298 59.9644 604.399 59.8667C604.542 59.7286 604.637 59.6723 604.829 59.6135C605.236 59.4882 605.455 59.3741 605.534 59.2468C605.627 59.0976 605.71 59.0375 606.367 58.6439C606.666 58.465 606.997 58.2577 607.103 58.1833C607.209 58.1088 607.34 58.0374 607.394 58.0245C607.447 58.0117 607.491 57.9895 607.491 57.9753C607.491 57.9103 607.778 57.6857 607.918 57.6417C608.106 57.5823 608.291 57.3644 608.494 56.9651C608.614 56.7284 608.654 56.6813 608.775 56.6348C608.853 56.605 608.94 56.5806 608.969 56.5806C608.998 56.5806 609.102 56.4722 609.2 56.3396C609.409 56.058 609.417 56.0516 609.592 56.0237C609.703 56.0059 609.74 55.9752 609.816 55.8362C610.027 55.4539 610.634 55.0002 611.119 54.8637C611.26 54.8239 611.316 54.7732 611.559 54.4659C611.858 54.0877 611.885 54.0071 611.784 53.7772C611.732 53.6584 611.733 53.6521 611.831 53.5866C611.979 53.4866 612.285 53.3453 612.46 53.2954C612.557 53.2677 612.636 53.216 612.674 53.1545C612.707 53.1011 612.81 52.9867 612.904 52.9002C613.062 52.7544 613.074 52.73 613.074 52.5619C613.074 52.4028 613.1 52.3412 613.29 52.0562C613.498 51.7417 613.51 51.7308 613.672 51.7068C613.796 51.6885 613.877 51.6466 613.981 51.5467L614.123 51.4113V51.0668C614.123 50.8569 614.143 50.6773 614.174 50.6073C614.273 50.3851 614.522 50.129 614.739 50.0279C614.853 49.9747 615.045 49.8405 615.166 49.7297C615.347 49.5638 615.407 49.4767 615.506 49.2358L615.626 48.9433L615.544 48.7894C615.498 48.7048 615.42 48.5831 615.368 48.519L615.275 48.4025L615.36 48.1798C615.481 47.8619 615.643 47.5627 615.835 47.3055L616.001 47.0823H616.331C616.607 47.0823 616.677 47.0703 616.759 47.0093C616.871 46.9249 616.933 46.7447 616.933 46.5009C616.933 46.407 616.959 46.2724 616.99 46.2019C617.021 46.1299 617.046 45.9655 617.046 45.8267C617.046 45.5237 617.135 45.336 617.346 45.1973C617.427 45.1441 617.493 45.0775 617.494 45.0494C617.497 44.9497 617.768 43.8802 617.897 43.4579C617.97 43.2223 618.043 42.9411 618.06 42.833C618.077 42.725 618.141 42.4998 618.204 42.3326C618.364 41.9008 618.434 41.4792 618.463 40.762C618.486 40.206 618.498 40.1253 618.568 40.03C618.886 39.6006 618.969 39.2418 618.936 38.4432C618.917 37.9739 618.923 37.8186 618.966 37.6911C619.006 37.5736 619.018 37.3864 619.011 36.9948C619.005 36.7002 619.019 36.3145 619.04 36.1378C619.081 35.8038 619.049 34.948 618.94 33.4597C618.886 32.7096 618.861 32.5616 618.712 32.1116C618.662 31.9593 618.613 31.7263 618.603 31.5938C618.582 31.3113 618.327 30.1315 618.19 29.6877C618.092 29.3662 617.796 28.6636 617.7 28.5252C617.67 28.4812 617.645 28.3793 617.645 28.2988C617.645 28.1426 617.604 28.0411 617.491 27.9228C617.453 27.8824 617.371 27.6815 617.311 27.4765C617.25 27.2714 617.142 26.9658 617.07 26.7973C616.818 26.2016 615.924 24.5653 615.228 23.4257C614.669 22.509 614.237 21.766 613.984 21.2833C613.673 20.6919 613.495 20.4066 613.272 20.1396C613.173 20.0223 613.019 19.7898 612.929 19.6228C612.544 18.9117 612.129 18.3786 611.813 18.1884C611.526 18.0153 611.364 17.8413 611.179 17.5062C611.019 17.2151 610.78 16.9782 610.523 16.8539C610.425 16.8064 610.32 16.7351 610.291 16.6955C610.262 16.6559 610.13 16.557 609.998 16.4758C609.866 16.3946 609.457 16.1034 609.089 15.8287C608.437 15.3416 606.752 14.2394 606.394 14.0657C606.296 14.0179 605.97 13.8909 605.669 13.7835L605.123 13.5882H604.09H603.057L602.628 13.8048C601.836 14.2048 601.54 14.4001 601.117 14.8003C600.502 15.3822 599.774 16.3531 599.753 16.6182C599.747 16.6956 599.721 16.7956 599.696 16.8405C599.638 16.944 599.626 17.0688 599.601 17.8444C599.586 18.3004 599.593 18.4986 599.625 18.5563C599.65 18.6003 599.677 18.8178 599.685 19.0397C599.701 19.5011 599.79 19.7906 600.115 20.4441C600.453 21.1243 600.733 21.4858 601.038 21.636C601.11 21.6714 601.16 21.735 601.189 21.8265C601.242 21.9965 601.44 22.1838 601.632 22.2466C601.762 22.289 601.787 22.3177 601.867 22.5166C601.923 22.6562 602.012 22.7904 602.105 22.8765C602.283 23.041 602.736 23.2651 602.891 23.2651C602.952 23.2651 603.165 23.3273 603.364 23.4033C603.563 23.4793 603.852 23.5715 604.007 23.6081C604.209 23.656 604.335 23.7111 604.456 23.8052C604.65 23.9549 604.871 24.0666 605.045 24.1024C605.176 24.1293 605.356 24.3036 605.356 24.4035C605.356 24.4384 605.473 24.5492 605.627 24.659C605.777 24.7655 606.481 25.4013 607.192 26.0718C608.094 26.9224 608.524 27.3043 608.616 27.3353C608.71 27.3672 608.779 27.4298 608.859 27.5578C608.979 27.7486 609.389 28.1368 609.508 28.1729C609.557 28.1877 609.588 28.2404 609.604 28.3362C609.647 28.5918 609.775 28.8557 609.985 29.1235C610.23 29.4359 610.495 29.8611 610.585 30.0853C610.62 30.1737 610.708 30.2949 610.78 30.3546C610.885 30.4425 610.924 30.514 610.981 30.7289C611.02 30.8749 611.102 31.0969 611.164 31.2223C611.242 31.381 611.276 31.5059 611.277 31.6337C611.278 31.8628 611.374 32.0676 611.554 32.2218C611.689 32.3373 611.693 32.3475 611.689 32.5788C611.683 32.8967 611.709 33.0967 611.768 33.1978C611.81 33.2693 611.837 33.4488 611.889 33.9953C611.894 34.0542 611.931 34.1667 611.971 34.2453C612.032 34.3654 612.042 34.4541 612.034 34.8035C612.028 35.0964 612.041 35.2542 612.078 35.3391C612.12 35.4359 612.127 35.6607 612.115 36.4949C612.106 37.0957 612.082 37.5798 612.059 37.6479C612.036 37.7125 612.029 37.7915 612.042 37.8233C612.054 37.8552 612.048 38.0031 612.028 38.1521C612.007 38.3012 611.964 38.6561 611.931 38.9409C611.782 40.2382 611.286 42.0972 610.724 43.4579C610.059 45.0718 608.617 47.502 607.398 49.0657C606.101 50.7302 604.38 52.256 602.077 53.7835C599.671 55.3797 597.057 56.5938 594.752 57.1865C592.796 57.6894 590.35 57.9139 588.101 57.797C585.719 57.6732 584.29 57.4443 583.075 56.9918C582.802 56.8898 582.584 56.8306 582.482 56.8306C582.382 56.8306 582.26 56.798 582.157 56.7435C582.067 56.6956 581.825 56.6145 581.619 56.5633C580.595 56.3087 579.689 55.9415 578.719 55.3881C578.5 55.2635 578.236 55.1349 578.131 55.1023C578.011 55.0653 577.922 55.0123 577.893 54.9609C577.836 54.8586 577.665 54.7595 577.545 54.7595C577.401 54.7595 575.919 53.7208 574.818 52.8475C573.172 51.5418 572.073 50.3702 570.95 48.7237C570.023 47.3649 569.35 46.1034 568.604 44.3255C567.929 42.7169 567.55 41.3334 567.289 39.53C567.083 38.1064 567.087 37.6874 567.325 34.6023C567.423 33.3341 567.579 32.5156 567.979 31.1565C568.798 28.372 570.751 24.8146 572.584 22.767C573.706 21.5131 574.902 20.5772 576.779 19.4844C577.766 18.9099 578.628 18.299 579.418 17.6149C579.674 17.3936 579.921 17.1835 579.967 17.148C580.114 17.0341 582.832 16.1494 584.747 15.5921C585.855 15.2699 586.832 15.0721 587.782 14.9777C588.019 14.9541 588.229 14.9211 588.249 14.9043C588.305 14.8559 589.035 14.8692 589.487 14.9269C589.714 14.9557 590.077 14.9804 590.293 14.9817C590.509 14.9829 590.762 14.9992 590.855 15.0178C590.948 15.0365 591.157 15.0603 591.321 15.0708C591.484 15.0813 591.643 15.1095 591.673 15.1335C591.726 15.1756 591.827 15.1767 592.996 15.1484C593.215 15.1431 593.299 15.1552 593.352 15.1995C593.39 15.2314 593.485 15.2768 593.562 15.3005C593.64 15.3242 593.721 15.3745 593.742 15.4122C593.776 15.473 593.824 15.4807 594.169 15.4807C594.384 15.4807 594.642 15.4624 594.744 15.44C594.97 15.3902 595.046 15.4069 595.328 15.5686C595.526 15.6827 595.574 15.695 595.822 15.695C595.973 15.695 596.107 15.6789 596.119 15.6593C596.158 15.6002 596.347 15.619 596.413 15.6884C596.447 15.724 596.493 15.8003 596.515 15.858C596.54 15.9214 596.63 16.0086 596.745 16.0788C596.897 16.1723 596.972 16.1949 597.131 16.1949C597.334 16.1949 597.409 16.1524 597.428 16.0271C597.433 15.9916 597.528 15.9142 597.64 15.8545L597.843 15.7463L597.854 15.5417C597.864 15.37 597.855 15.3339 597.798 15.3178C597.761 15.3073 597.668 15.2673 597.592 15.229C597.424 15.1443 597.253 15.1398 597.13 15.2168C597.042 15.272 597.032 15.2698 596.905 15.1635C596.734 15.0202 596.52 14.917 596.335 14.8888C596.211 14.87 596.144 14.8208 595.917 14.5843C595.69 14.3486 595.627 14.3024 595.53 14.3024C595.442 14.3024 595.377 14.2651 595.261 14.149C595.036 13.9241 595.013 13.9124 594.686 13.8576C594.522 13.83 594.273 13.7581 594.133 13.6978C593.842 13.5718 593.673 13.5613 593.287 13.645C593.071 13.6918 592.993 13.6943 592.839 13.6593C592.61 13.6069 592.247 13.3879 592.114 13.2216C592.029 13.1151 591.988 13.0947 591.825 13.0799C591.703 13.0687 591.608 13.0366 591.56 12.9903C591.46 12.8949 591.498 12.7792 591.64 12.7495C591.698 12.7372 591.777 12.695 591.814 12.6557C591.902 12.5636 591.862 12.4987 591.632 12.3563C591.494 12.2713 591.454 12.2233 591.437 12.1242C591.39 11.8534 591.236 11.5668 590.986 11.282L590.863 11.1422L590.344 11.1155C589.079 11.0504 588.858 11.0477 588.538 11.0936C588.235 11.137 588.049 11.1437 587.633 11.1265C587.476 11.12 587.101 11.1467 586.265 11.224C586.04 11.2448 585.878 11.2809 585.778 11.3326C585.683 11.3823 585.563 11.41 585.444 11.41C585.217 11.41 584.792 11.4769 584.691 11.5287C584.65 11.5499 584.532 11.5794 584.429 11.5944C584.326 11.6094 584.14 11.6362 584.015 11.6539C583.891 11.6716 583.739 11.7104 583.678 11.7401C583.533 11.8107 583.213 11.8742 583.002 11.8742C582.89 11.8742 582.76 11.9101 582.608 11.9833C582.483 12.0433 582.21 12.1469 582 12.2137C581.645 12.3267 581.595 12.3337 581.282 12.3149C580.948 12.2949 580.941 12.2961 580.691 12.4237C580.547 12.497 580.384 12.5527 580.314 12.5527C580.224 12.5527 580.16 12.5831 580.08 12.6634C580.02 12.7243 579.865 12.846 579.737 12.9338C579.546 13.0643 579.459 13.0995 579.258 13.1265C579.108 13.1469 578.959 13.1935 578.873 13.2477C578.797 13.2962 578.675 13.3549 578.603 13.3783C578.53 13.4017 578.416 13.4745 578.348 13.5402C578.219 13.6648 578.125 13.6863 577.997 13.6207C577.922 13.5827 577.923 13.5795 578.027 13.474C578.164 13.3361 578.593 13.0587 578.889 12.916C579.016 12.8551 579.151 12.7679 579.189 12.7222C579.227 12.6766 579.314 12.6175 579.382 12.591C579.449 12.5645 579.571 12.4968 579.653 12.4406C579.734 12.3844 579.833 12.3384 579.873 12.3384C579.999 12.3384 580.17 12.1639 580.311 11.8927L580.447 11.6308L580.703 11.552C580.974 11.4691 581.016 11.4701 581.469 11.572C581.613 11.6044 581.849 11.6335 581.993 11.6365L582.256 11.6421L582.267 11.3652C582.28 11.0237 582.332 10.9756 582.677 10.9855C582.937 10.9929 582.986 10.9725 582.986 10.8588C582.986 10.7454 582.905 10.6904 582.705 10.6689C582.549 10.6521 582.527 10.6604 582.408 10.7804C582.337 10.8517 582.253 10.9101 582.222 10.9101C582.153 10.9101 581.862 10.803 581.862 10.7777C581.862 10.7681 581.915 10.7136 581.979 10.6566C582.066 10.5787 582.132 10.553 582.243 10.553C582.406 10.553 582.63 10.4582 582.739 10.3426C582.796 10.2826 582.855 10.2674 583.027 10.2674C583.147 10.2674 583.255 10.2513 583.267 10.2316C583.28 10.212 583.328 10.1959 583.373 10.1959C583.419 10.1959 583.519 10.1638 583.596 10.1245C583.673 10.0852 583.793 10.0531 583.864 10.0531C584.049 10.0531 584.201 9.87963 584.061 9.82832C583.923 9.77797 583.51 9.77408 583.29 9.82104ZM585.536 9.93163C585.315 9.98829 585.192 10.0694 585.22 10.1399C585.249 10.212 585.488 10.3031 585.648 10.3031H585.797V10.0888C585.797 9.97098 585.784 9.87564 585.769 9.87692C585.753 9.87821 585.648 9.90284 585.536 9.93163ZM593.412 11.9467C593.342 11.9735 593.328 12.0064 593.328 12.14C593.328 12.2795 593.342 12.3076 593.431 12.3514C593.633 12.4507 593.831 12.4811 594.124 12.4581C594.39 12.4372 594.415 12.4286 594.415 12.3578C594.415 12.2647 594.271 12.1578 593.954 12.0148C593.717 11.9081 593.563 11.8888 593.412 11.9467ZM592.082 12.4128C592.04 12.4568 592.017 12.5388 592.017 12.6419V12.8026H592.235C592.454 12.8026 592.455 12.8029 592.742 13.0526C592.965 13.2468 593.055 13.3025 593.143 13.3025C593.237 13.3025 593.266 13.2814 593.311 13.1787C593.366 13.0541 593.383 12.7432 593.343 12.6013C593.302 12.457 592.89 12.3375 592.447 12.3416C592.202 12.3439 592.136 12.3568 592.082 12.4128ZM593.515 12.9256C593.515 13.1228 593.527 13.1636 593.599 13.2112C593.721 13.2928 593.885 13.2792 594.027 13.1757C594.13 13.1007 594.152 13.0608 594.152 12.9492C594.152 12.75 594.069 12.6955 593.765 12.6955H593.515V12.9256ZM594.915 13.0711C594.881 13.156 594.973 13.4516 595.072 13.5761C595.127 13.6438 595.234 13.7134 595.341 13.7501C595.44 13.7837 595.61 13.8513 595.72 13.9002C595.938 13.9973 596.109 13.9949 596.273 13.8925C596.343 13.8493 596.363 13.8048 596.363 13.697C596.363 13.5393 596.287 13.4454 596.16 13.4454C595.955 13.4454 595.445 13.2215 595.318 13.0753C595.25 12.9974 594.946 12.9942 594.915 13.0711ZM584.987 13.6447C585.043 13.7849 585.006 13.8584 584.803 14.0078C584.643 14.1258 584.565 14.1595 584.453 14.1595C584.195 14.1595 584.071 13.8999 584.263 13.7611C584.482 13.6022 584.94 13.5286 584.987 13.6447ZM577.833 14.0792C577.741 14.2927 577.558 14.387 577.146 14.4334C576.973 14.4529 576.962 14.4486 576.848 14.3163C576.721 14.1693 576.697 14.0881 576.781 14.0881C576.81 14.0881 576.873 14.0565 576.922 14.0179C576.998 13.957 577.069 13.9475 577.451 13.9465L577.892 13.9453L577.833 14.0792ZM598.449 15.5402C598.401 15.5856 598.424 15.858 598.482 15.937C598.531 16.0038 598.575 16.0163 598.763 16.0163H598.986V15.8404C598.986 15.6928 598.97 15.6525 598.887 15.5904C598.791 15.5183 598.506 15.4857 598.449 15.5402ZM596.906 28.6578C596.493 28.6989 596.186 28.7857 595.782 28.9758C595.112 29.2908 594.624 29.7568 594.301 30.3888C594.023 30.9339 593.984 31.1071 593.986 31.7993C593.987 32.3477 593.995 32.4094 594.093 32.692C594.282 33.2355 594.534 33.6312 594.926 33.9989C595.524 34.5609 596.228 34.8542 597.075 34.8942C597.765 34.9268 598.354 34.7874 598.965 34.4471C599.26 34.2827 599.772 33.8101 599.984 33.5054C600.654 32.5448 600.702 31.2474 600.104 30.2281C599.484 29.1719 598.179 28.5308 596.906 28.6578ZM584.71 31.7457V34.7987H586.021H587.333V34.3524V33.906H586.527H585.722V31.2994V28.6927H585.216H584.71V31.7457ZM580.613 28.7555C580.516 28.9041 577.934 34.7466 577.955 34.7666C577.994 34.8016 578.966 34.821 579.002 34.7875C579.017 34.7731 579.182 34.3962 579.369 33.9499L579.71 33.1383L580.837 33.1289L581.963 33.1194L582.33 33.9412L582.696 34.763H583.235C583.531 34.763 583.773 34.7567 583.773 34.7489C583.773 34.7411 583.185 33.3874 582.466 31.7405L581.16 28.7462L580.896 28.7358C580.751 28.7301 580.623 28.7389 580.613 28.7555ZM588.345 31.7814V34.8344L589.216 34.8342C590.236 34.834 590.662 34.7845 591.151 34.6093C591.631 34.4376 591.877 34.2867 592.24 33.9417C592.71 33.4955 592.932 33.0965 593.074 32.4438C593.211 31.8127 593.128 30.9729 592.875 30.424C592.6 29.8296 592.068 29.3203 591.435 29.0467C590.885 28.8092 590.307 28.7291 589.141 28.7287L588.345 28.7284V31.7814ZM597.783 29.6403C598.164 29.726 598.518 29.9222 598.839 30.2265C599.284 30.648 599.51 31.1586 599.51 31.742C599.51 32.3384 599.293 32.8312 598.838 33.2649C598.377 33.7037 597.876 33.905 597.243 33.905C596.601 33.905 596.111 33.7049 595.631 33.2471C595.168 32.8062 594.977 32.3663 594.977 31.7457C594.977 31.3741 595.043 31.0931 595.206 30.7771C595.484 30.2393 596.083 29.7816 596.692 29.6408C596.979 29.5744 597.489 29.5742 597.783 29.6403ZM590.381 29.7092C590.954 29.8065 591.471 30.1159 591.765 30.5377C592.037 30.9279 592.107 31.1636 592.109 31.6921C592.111 32.2373 592.024 32.5334 591.745 32.93C591.294 33.5727 590.594 33.901 589.665 33.9048L589.356 33.906V31.7814V29.6568L589.722 29.658C589.922 29.6587 590.219 29.6817 590.381 29.7092ZM581.233 31.3611C581.433 31.8262 581.592 32.2118 581.585 32.218C581.579 32.2242 581.244 32.2249 580.841 32.2196L580.108 32.2099L580.47 31.3619C580.669 30.8955 580.84 30.5143 580.851 30.5147C580.861 30.5152 581.033 30.8961 581.233 31.3611ZM572.439 36.6729C571.144 36.9458 570.199 37.8309 569.886 39.0658C569.792 39.4356 569.799 40.0867 569.902 40.4838C570.187 41.587 571.064 42.451 572.222 42.7701C572.608 42.8766 573.5 42.885 573.881 42.7858C574.116 42.7246 574.879 42.3876 575.016 42.2848C575.076 42.2396 575.081 42.1706 575.072 41.5667L575.062 40.8986L574.931 41.0665C574.678 41.3905 574.164 41.6988 573.692 41.8107C573.385 41.8832 572.809 41.8858 572.532 41.8159C571.431 41.5369 570.676 40.4745 570.844 39.4415C570.963 38.7063 571.387 38.1239 572.032 37.8095C572.445 37.6078 572.634 37.5658 573.113 37.5683C573.461 37.57 573.565 37.5846 573.778 37.6619C574.16 37.8003 574.427 37.9656 574.77 38.2762L575.08 38.5579L575.062 38.3477C575.052 38.232 575.033 37.9311 575.021 37.6789L574.998 37.2204L574.776 37.0837C574.48 36.9016 574.077 36.7456 573.724 36.6764C573.377 36.6086 572.752 36.6069 572.439 36.6729ZM578.526 36.6731C577.468 36.8743 576.519 37.634 576.128 38.5933C575.802 39.3949 575.835 40.3107 576.219 41.0988C576.541 41.7598 577.212 42.3664 577.922 42.6399C578.389 42.8196 578.584 42.851 579.221 42.8487C579.771 42.8468 579.846 42.8385 580.139 42.7474C581.223 42.4098 581.972 41.6957 582.334 40.6549C582.432 40.3725 582.44 40.3102 582.441 39.7621C582.443 39.0843 582.406 38.9129 582.141 38.3874C581.684 37.4807 580.841 36.8601 579.808 36.6703C579.472 36.6088 578.858 36.6101 578.526 36.6731ZM595 36.6762C594.377 36.8087 593.886 37.0579 593.43 37.4727C593.084 37.7874 592.888 38.0477 592.691 38.4546C592.472 38.9049 592.41 39.1997 592.412 39.7621C592.414 40.3319 592.473 40.5893 592.709 41.0701C592.907 41.4732 593.086 41.7061 593.449 42.0345C594.113 42.6341 594.895 42.9012 595.866 42.8597C597.476 42.7909 598.751 41.6389 598.947 40.0779C599.021 39.4872 598.914 38.9317 598.614 38.3517C598.205 37.5624 597.54 37.0243 596.625 36.7437C596.354 36.6606 596.229 36.6442 595.782 36.6337C595.406 36.6248 595.185 36.6369 595 36.6762ZM583.511 39.7443V42.7616H584.036H584.56V41.5351V40.3085L584.979 40.2843C585.677 40.2439 586.045 40.1168 586.418 39.7877C586.839 39.4169 587.016 38.9638 586.986 38.3338C586.958 37.7427 586.75 37.35 586.311 37.0629C585.899 36.7931 585.51 36.727 584.333 36.727H583.511V39.7443ZM588.157 39.7405V42.7616H588.682H589.206V41.5352V40.3087L589.609 40.2864C590.354 40.2451 590.791 40.0778 591.165 39.6907C591.484 39.3599 591.641 38.9488 591.641 38.4395C591.643 37.5995 591.203 37.0334 590.378 36.811C590.212 36.7662 589.931 36.7489 589.159 36.7361L588.157 36.7194V39.7405ZM600.035 39.7443V42.7616H601.365H602.695V42.3153V41.8689H601.871H601.047V39.2979V36.727H600.541H600.035V39.7443ZM605.935 36.7646C605.921 36.7869 605.304 38.1334 604.566 39.7567L603.222 42.7081L603.455 42.7307C603.583 42.7431 603.832 42.7548 604.007 42.7568L604.325 42.7603L604.668 41.9486L605.012 41.1369L606.167 41.1285L607.323 41.1201L607.68 41.9141L608.038 42.7081L608.589 42.7179C608.892 42.7234 609.14 42.7234 609.14 42.7179C609.14 42.7125 608.543 41.3663 607.814 39.7264L606.488 36.7448L606.225 36.7344C606.057 36.7278 605.952 36.7388 605.935 36.7646ZM579.923 37.6649C580.292 37.7943 580.566 37.9644 580.826 38.2269C581.099 38.5015 581.313 38.8716 581.397 39.2127C581.48 39.5478 581.452 40.1237 581.339 40.4307C581.119 41.0266 580.567 41.5525 579.941 41.7628C579.616 41.872 578.973 41.8996 578.642 41.8186C577.992 41.66 577.482 41.2706 577.161 40.6874C576.971 40.3424 576.904 40.0345 576.927 39.6015C576.958 39.0214 577.155 38.6009 577.588 38.1882C577.879 37.9107 578.225 37.7175 578.607 37.6188C578.992 37.5194 579.565 37.5394 579.923 37.6649ZM596.365 37.648C597.075 37.8871 597.61 38.3806 597.824 38.9929C598.111 39.8144 597.903 40.649 597.26 41.2607C596.832 41.668 596.314 41.8689 595.692 41.8689C595.027 41.8689 594.539 41.6758 594.076 41.2303C593.752 40.9178 593.584 40.6417 593.477 40.2408C593.252 39.4024 593.587 38.499 594.313 37.9897C594.617 37.7765 594.777 37.701 595.102 37.6167C595.447 37.5275 596.052 37.5424 596.365 37.648ZM585.398 37.7058C585.665 37.7657 585.788 37.8473 585.901 38.0401C586.077 38.34 586.041 38.7999 585.824 39.0361C585.626 39.2501 585.458 39.3083 584.982 39.3265L584.56 39.3427V38.499V37.6554L584.869 37.6559C585.039 37.6562 585.277 37.6787 585.398 37.7058ZM589.981 37.6948C590.112 37.7165 590.273 37.7693 590.34 37.8122C590.699 38.0427 590.77 38.6839 590.474 39.0258C590.283 39.2467 590.111 39.3081 589.628 39.3265L589.206 39.3427V38.499V37.6554H589.475C589.623 37.6554 589.85 37.6731 589.981 37.6948ZM606.564 39.3431C606.765 39.7995 606.929 40.185 606.929 40.1997C606.929 40.2144 606.592 40.2264 606.18 40.2264C605.768 40.2264 605.431 40.215 605.431 40.2011C605.431 40.1541 606.157 38.5124 606.178 38.5128C606.189 38.5129 606.363 38.8866 606.564 39.3431ZM616.088 42.5682C616.122 42.6968 616.072 43.0863 616.01 43.1713C615.982 43.21 615.959 43.3151 615.959 43.4049C615.959 43.5297 615.892 43.7143 615.674 44.1914C615.517 44.5343 615.171 45.329 614.904 45.9575C614.416 47.108 614 47.9196 613.323 49.0353C613.166 49.2944 613 49.5807 612.954 49.6716C612.892 49.7931 612.843 49.842 612.768 49.8562C612.688 49.8715 612.596 49.9786 612.318 50.3803C612.126 50.658 611.845 51.0239 611.694 51.1935C611.542 51.363 611.254 51.7165 611.053 51.979C610.853 52.2416 610.62 52.5045 610.536 52.5635C610.418 52.6466 610.388 52.6883 610.402 52.7495C610.418 52.8137 610.335 52.9066 609.959 53.2494C609.705 53.4809 609.151 53.9918 608.728 54.3846C608.304 54.7774 607.646 55.3391 607.266 55.6329C606.585 56.1585 605.809 56.7814 605.353 57.169C605.226 57.2775 605.102 57.3662 605.079 57.3662C604.948 57.3663 604.54 57.6021 604.338 57.7945C604.143 57.9808 604.062 58.0282 603.726 58.1534C603.513 58.2327 603.19 58.3878 603.008 58.4979C602.825 58.6081 602.64 58.6961 602.596 58.6935C602.548 58.6907 602.491 58.7244 602.455 58.7769C602.367 58.9042 602.224 58.9833 602.026 59.0129C601.715 59.0595 601.486 59.1641 601.28 59.3535C601.142 59.4803 601.041 59.5416 600.947 59.5562C600.873 59.5676 600.783 59.602 600.748 59.6326C600.713 59.6632 600.584 59.7127 600.462 59.7427C600.341 59.7726 600.134 59.8447 600.003 59.9028C599.724 60.0264 599.66 60.0334 599.66 59.9406C599.66 59.897 599.724 59.8372 599.838 59.7743C599.936 59.7203 600.075 59.6323 600.147 59.5788C600.219 59.5252 600.388 59.4549 600.522 59.4225C600.782 59.3596 600.963 59.2668 601.759 58.7871C602.037 58.6194 602.65 58.2701 603.122 58.0109C604.106 57.4701 604.765 57.0634 605.425 56.5909C605.68 56.4085 605.961 56.2283 606.051 56.1904C606.321 56.0768 606.552 55.9095 606.967 55.5286C607.183 55.3298 607.495 55.0555 607.66 54.919C607.825 54.7826 608.213 54.4378 608.523 54.1529C608.833 53.8679 609.264 53.474 609.48 53.2776C609.779 53.0058 609.906 52.8608 610.012 52.6706C610.109 52.4963 610.202 52.3851 610.32 52.3033C610.413 52.2388 610.559 52.1022 610.644 51.9998C610.789 51.8267 611.013 51.4309 611.013 51.3494C611.014 51.3298 611.089 51.2683 611.181 51.2128C611.403 51.079 611.482 50.985 611.803 50.4681C611.952 50.2279 612.254 49.7655 612.475 49.4406C612.695 49.1157 612.997 48.6572 613.146 48.4218C613.295 48.1864 613.472 47.9453 613.539 47.8862C613.686 47.7579 613.791 47.5699 613.878 47.2787C613.913 47.1608 614.017 46.942 614.108 46.7924C614.306 46.4685 614.529 45.9879 614.652 45.6183C614.701 45.471 614.798 45.2621 614.866 45.1541C615.101 44.7839 615.33 44.2876 615.401 43.9978C615.506 43.5686 615.846 42.6487 615.934 42.5563C616.032 42.4531 616.058 42.4551 616.088 42.5682ZM599.299 60.0219C599.24 60.0882 599.133 60.1705 599.061 60.2049C598.887 60.2879 598.469 60.4014 598.338 60.4014H598.233L598.337 60.2772C598.474 60.1136 598.995 59.9156 599.317 59.9045L599.405 59.9015L599.299 60.0219Z" fill="#8A7BAE"/>
</g>
<g opacity="0.5">
<path fill-rule="evenodd" clip-rule="evenodd" d="M415.683 11.776C414.556 11.9541 412.574 12.5632 411.714 12.9958L411.158 13.2751L412.537 13.352C415.902 13.5398 418.924 14.4621 421.392 16.0542L422.251 16.609L424.352 16.651C426.163 16.6873 426.6 16.7359 427.507 17.0027C428.087 17.1731 428.581 17.3314 428.605 17.3545C428.629 17.3777 427.547 17.3967 426.2 17.3967C424.854 17.3967 423.709 17.4381 423.656 17.4888C423.603 17.5395 423.812 17.7812 424.12 18.0259C425.195 18.8791 427.012 20.7324 427.883 21.8633C429.406 23.8397 430.492 25.8976 431.025 27.8162C431.147 28.2518 431.285 28.6523 431.332 28.7061C431.38 28.7599 431.52 28.3212 431.643 27.7312C431.933 26.3429 431.938 24.0916 431.655 22.6525C430.603 17.3104 426.266 13.03 420.755 11.8973C419.51 11.6414 416.926 11.5796 415.683 11.776ZM410.646 14.1425C410.068 14.7573 409.06 17.4534 408.782 19.1311C408.587 20.304 408.624 22.9597 408.853 24.2211C409.135 25.7793 409.811 27.6299 410.708 29.2994C411.603 30.9659 411.845 31.2531 411.694 30.4689C411.446 29.1857 411.416 27.1498 411.623 25.7906C412.277 21.506 414.682 18.5883 418.538 17.3988C418.921 17.2806 419.281 17.1432 419.338 17.0935C419.501 16.9512 417.854 15.885 416.3 15.1265C414.686 14.3389 413.11 13.9235 411.735 13.9235C411.046 13.9235 410.807 13.9717 410.646 14.1425ZM408.65 14.9462C406.55 16.6861 404.949 19.2125 404.22 21.9347C403.886 23.1817 403.763 25.6231 403.966 26.9591C404.535 30.703 406.615 34.0123 409.732 36.129C410.523 36.6666 412.195 37.5653 412.405 37.5653C412.448 37.5653 412.235 37.2868 411.933 36.9464C409.989 34.7593 408.341 32.0773 407.595 29.8879C405.996 25.1968 406.525 19.8859 409.05 15.2945C409.391 14.6746 409.652 14.1673 409.63 14.1673C409.608 14.1673 409.167 14.5179 408.65 14.9462ZM419.931 18.5385C418.736 18.9067 417.377 19.6757 416.474 20.4949C415.483 21.3941 414.737 22.7087 414.476 24.0164C414.253 25.1349 414.398 27.3456 414.797 28.8943C415.419 31.3127 416.997 34.6856 418.712 37.2607L419.523 38.4793L420.076 38.4455C420.379 38.4269 421.027 38.3071 421.514 38.1793C423.785 37.5844 425.76 36.5096 427.55 34.8961L428.686 33.872L428.607 33.0682C428.112 27.9947 426.375 24.061 422.903 20.1527C421.737 18.8399 421.124 18.3047 420.798 18.3173C420.705 18.3208 420.314 18.4204 419.931 18.5385ZM377.505 51.7245C375.032 55.0186 372.397 58.5273 371.649 59.5214L370.289 61.329H371.167H372.045L374.363 58.2216L376.682 55.114H379.308L381.933 55.1139L381.967 58.191L382.001 61.2681L382.793 61.3044L383.586 61.3407L383.553 53.566L383.521 45.7912L382.761 45.7631L382.001 45.7351L377.505 51.7245ZM449.44 52.1354C449.44 56.2366 449.396 58.5143 449.317 58.4675C449.25 58.4274 446.71 55.5725 443.673 52.1233L438.151 45.8522H437.463H436.775V53.5297V61.2071H437.597H438.419L438.452 54.851L438.485 48.4951L440.466 50.7381C441.555 51.9719 444.079 54.8321 446.074 57.0942L449.702 61.2071H450.414H451.125L451.043 59.8362C450.998 59.0822 450.961 55.5999 450.96 52.0977L450.96 45.7303H450.2H449.44V52.1354ZM453.239 53.4687V61.2071H454.062H454.886V58.1605V55.1139H457.52H460.155L462.428 58.1532L464.701 61.1926L465.566 61.1998C466.042 61.2039 466.413 61.1586 466.389 61.0993C466.366 61.0399 463.754 57.5599 460.585 53.3659L454.822 45.7403L454.031 45.7353L453.239 45.7303V53.4687ZM385.737 53.5906V61.329L390.771 61.3243L395.805 61.3195L396.249 60.7482C396.492 60.434 396.711 60.1345 396.734 60.0827C396.757 60.0309 394.663 59.9885 392.08 59.9885H387.383V52.9203V45.8522H386.56H385.737V53.5906ZM393.553 46.4583C393.294 46.7917 393.082 47.0934 393.082 47.1286C393.082 47.1638 394.479 47.1927 396.185 47.1927H399.288V54.2667V61.3406L400.08 61.3044L400.871 61.2681L400.82 54.2304L400.768 47.1927H403.484H406.2L406.67 46.5865C406.929 46.2531 407.14 45.9515 407.14 45.9163C407.14 45.881 404.189 45.8522 400.582 45.8522H394.023L393.553 46.4583ZM408.813 50.7572C408.831 53.455 408.863 56.9099 408.884 58.4347L408.922 61.2071H414.162H419.4L419.846 60.6283L420.292 60.0494L415.362 60.0175L410.433 59.9857V57.1841V54.3827H414.712H418.991L419.461 53.7766C419.72 53.4431 419.931 53.1415 419.931 53.1063C419.931 53.0711 417.794 53.0422 415.182 53.0422H410.433V50.1174V47.1927H414.775H419.117L419.588 46.5865C419.846 46.2531 420.058 45.9515 420.058 45.9163C420.058 45.881 417.521 45.8522 414.42 45.8522H408.781L408.813 50.7572ZM422.464 53.5223V61.2071H423.288H424.111V57.7845V54.3618L426.169 54.4037C428.579 54.4528 428.75 54.5108 429.627 55.5746C429.943 55.9579 430.925 57.382 431.81 58.7393L433.419 61.2069L434.352 61.207L435.285 61.2071L435.098 60.933C434.996 60.7821 434.099 59.4372 433.106 57.9442C431.948 56.2028 431.053 54.9969 430.61 54.5805L429.919 53.9312L430.571 53.8569C432.017 53.6921 433.275 52.8074 433.954 51.4775C434.253 50.8899 434.304 50.6415 434.298 49.801C434.292 48.9808 434.232 48.6988 433.943 48.1297C433.517 47.2914 432.683 46.5621 431.728 46.1931C431.042 45.9281 430.836 45.915 426.739 45.877L422.464 45.8374V53.5223ZM431.27 47.5583C431.891 47.8582 432.257 48.1297 432.503 48.473C432.929 49.0665 433.076 50.0033 432.848 50.6692C432.624 51.3221 431.789 52.1449 430.891 52.5965L430.126 52.9813L427.119 53.0196L424.111 53.0582V50.0536V47.049L427.249 47.0903L430.387 47.1317L431.27 47.5583ZM456.975 50.8682C458.09 52.3515 459.021 53.6119 459.044 53.6692C459.067 53.7265 458.141 53.7734 456.986 53.7734H454.886L454.885 52.3415C454.885 51.554 454.848 50.2927 454.802 49.5386C454.755 48.7455 454.769 48.1684 454.835 48.1695C454.898 48.1706 455.861 49.385 456.975 50.8682ZM381.938 51.0314V53.7734H379.848C378.699 53.7734 377.758 53.7412 377.758 53.7019C377.758 53.6101 381.815 48.2895 381.885 48.2895C381.914 48.2895 381.938 49.5233 381.938 51.0314ZM467.848 58.639C467.39 58.9077 467.11 59.5677 467.23 60.0937C467.274 60.2851 467.481 60.6003 467.691 60.7939C468.009 61.0866 468.181 61.1462 468.708 61.1462C469.279 61.1462 469.386 61.1006 469.776 60.6911C470.408 60.0273 470.309 59.1063 469.549 58.5945C469.163 58.3344 468.33 58.3562 467.848 58.639ZM469.342 58.7796C469.742 58.9857 469.969 59.6298 469.822 60.1423C469.586 60.9635 468.643 61.217 467.94 60.6479C467.612 60.3825 467.55 60.2461 467.55 59.7894C467.55 59.3752 467.624 59.1752 467.861 58.9472C468.2 58.6211 468.884 58.5437 469.342 58.7796ZM468.184 59.7988C468.184 60.2503 468.239 60.5978 468.31 60.5978C468.38 60.5978 468.437 60.4333 468.437 60.2322C468.437 60.0312 468.491 59.8666 468.556 59.8666C468.622 59.8666 468.777 60.0312 468.9 60.2322C469.024 60.4333 469.169 60.5978 469.224 60.5978C469.375 60.5978 469.343 60.4357 469.135 60.1498C468.968 59.92 468.969 59.8833 469.144 59.8187C469.271 59.7717 469.326 59.6283 469.3 59.4104C469.264 59.1096 469.204 59.0706 468.722 59.0371L468.184 58.9996V59.7988ZM469.029 59.3306C469.108 59.528 468.885 59.7395 468.595 59.7429C468.508 59.7439 468.437 59.6077 468.437 59.4401C468.437 59.2151 468.504 59.1354 468.694 59.1354C468.836 59.1354 468.986 59.2232 469.029 59.3306Z" fill="#8A7BAE"/>
</g>
<g opacity="0.5">
<path fill-rule="evenodd" clip-rule="evenodd" d="M246.906 6.32296C234.531 8.07111 225.495 19.0747 226.811 30.7945C227.408 36.111 229.388 40.217 233.2 44.0383C236.565 47.412 240.737 49.7034 245.316 50.6923C247.8 51.2286 253.421 51.234 255.715 50.7019C262.777 49.0647 268.366 44.8698 271.582 38.7927C272.176 37.6701 272.961 35.8277 273.327 34.6984C273.933 32.8232 273.992 32.2998 274.005 28.6676C274.022 24.0576 273.669 22.4746 271.812 18.8412C267.305 10.0205 257.087 4.88458 246.906 6.32296ZM249.048 8.00069C246.831 10.0841 247.101 11.7408 249.913 13.3053C253.372 15.2298 253.909 16.5178 252.798 20.2291C251.695 23.9095 253.164 25.6846 258.431 27.0376C262.801 28.1603 264.486 29.2733 264.668 31.1564C264.749 31.9982 264.732 32.0539 264.568 31.4751C264.257 30.3759 263.849 29.7845 262.986 29.1823C261.956 28.4629 261.195 28.1966 258.491 27.6082C254.755 26.7952 252.529 25.5629 251.529 23.7544C250.918 22.6489 251.026 20.7085 251.791 19.0237C252.95 16.4717 252.532 15.1283 250.213 13.9533C248.146 12.9061 247.332 12.2466 247.153 11.4743C246.893 10.3522 247.254 9.37731 248.345 8.2543L249.36 7.20944L248.379 7.59688C247.133 8.08936 246.829 8.38298 246.407 9.50693L246.065 10.4187L246.054 9.47651C246.035 7.82639 246.948 7.06859 248.988 7.04099L250.084 7.02625L249.048 8.00069ZM257.453 7.75924C259.162 8.28121 263.051 10.0532 263.051 10.3101C263.051 10.4014 262.624 10.5406 262.102 10.6199C260.286 10.8955 259.081 12.3084 259.141 14.0918C259.16 14.6648 259.216 14.8461 259.271 14.513C259.603 12.5166 260.119 11.9394 261.572 11.9394C263.08 11.9394 263.63 12.5879 263.49 14.1985C263.25 16.9431 260.705 18.4409 257.85 17.5173C256.314 17.0203 254.978 15.9841 254.658 15.041C254.246 13.8284 254.04 13.6359 252.972 13.4644C251.562 13.2384 250.572 12.5606 250.235 11.5913C249.882 10.5759 250.078 9.33263 250.67 8.84318C251.264 8.35116 252.223 7.90056 252.373 8.0428C252.442 8.10808 252.15 8.33221 251.725 8.54091C250.685 9.05141 250.381 9.85857 250.839 10.8978C251.034 11.3421 251.277 11.7055 251.377 11.7055C251.478 11.7055 251.973 11.2722 252.478 10.7425C253.245 9.93812 253.424 9.54857 253.567 8.37994L253.738 6.98086L254.83 7.13621C255.431 7.2216 256.611 7.50212 257.453 7.75924ZM244.558 8.25454C244.296 8.8013 244.08 9.62274 244.077 10.0794C244.07 11.1879 243.732 11.486 242.845 11.168C242.244 10.9526 242.049 11.0026 241.367 11.5466C240.48 12.2553 240.073 12.3236 239.646 11.8353C239.245 11.3767 239.421 10.3976 239.887 10.4938C240.172 10.5527 240.186 10.5069 239.953 10.2816C239.519 9.86208 238.895 10.4243 238.895 11.2347C238.895 12.0267 239.755 13.1092 240.384 13.1092C240.64 13.1092 241.24 12.9328 241.716 12.7173C242.526 12.3509 242.611 12.3509 243.038 12.7173C243.672 13.2622 244.139 13.2077 244.774 12.5147C245.381 11.8517 245.82 11.9214 245.62 12.649C245.408 13.4155 244.66 13.6253 241.379 13.8385C237.461 14.093 235.631 14.4145 234.22 15.0965C231.942 16.1973 231.021 17.8315 231.013 20.7869C231.007 22.8586 230.713 23.7598 230.113 23.5413C229.909 23.4669 229.815 23.5101 229.9 23.64C230.146 24.0181 230.972 23.9032 231.225 23.4556C231.353 23.2271 231.58 22.214 231.728 21.2047C232.251 17.6328 233.429 16.0569 235.937 15.5726L236.8 15.406L235.665 16.1027C234.093 17.0674 233.4 18.4632 233.415 20.6381C233.435 23.655 235.189 25.7459 237.851 25.9267C239.025 26.0065 239.38 25.9366 239.943 25.515C240.316 25.2356 240.621 24.8912 240.621 24.7494C240.621 24.6077 240.337 24.7445 239.99 25.0536C238.735 26.1733 236.765 25.6151 235.82 23.8714C234.957 22.2802 235.195 19.7928 236.363 18.1838C237.827 16.1692 238.515 16.4881 240.253 19.9846C242.146 23.7942 242.548 23.9488 243.981 21.4197L244.754 20.0569L244.918 21.4377C245.336 24.9485 243.791 29.926 242.033 30.7341C241.125 31.1518 239.982 30.8579 239.743 30.1453C239.502 29.4247 239.982 29.1144 240.794 29.4656C241.472 29.759 241.473 29.7585 241.009 29.2721C240.45 28.6861 239.471 28.6404 238.853 29.1718C238.212 29.7225 238.244 31.2264 238.906 31.6667C239.348 31.9603 239.36 32.02 239.009 32.148C238.441 32.3548 237.867 32.3304 236.435 32.0392C234.897 31.7261 233.719 30.846 233.719 30.0105C233.719 28.5822 235.598 27.9851 236.289 29.194C236.636 29.8004 236.657 29.8072 236.667 29.311C236.69 28.0558 234.795 27.4236 233.275 28.1798C232.502 28.5639 231.195 29.8334 230.777 30.6059C230.532 31.0582 230.359 31.1176 229.652 30.9917C228.968 30.8698 228.705 30.9484 228.203 31.425L227.59 32.0071L227.417 30.4733C226.493 22.2891 231.37 13.6649 239.302 9.45475C240.513 8.81183 244.439 7.29764 244.984 7.26325C245.011 7.26161 244.819 7.70777 244.558 8.25454ZM264.777 11.7055C265.048 11.9628 265.266 12.3577 265.262 12.5828C265.255 12.9632 265.236 12.9621 264.994 12.5669C264.85 12.3329 264.382 11.9385 263.954 11.6905C263.254 11.2855 263.231 11.2392 263.729 11.2385C264.034 11.238 264.505 11.4481 264.777 11.7055ZM248.878 14.345C249.556 14.6669 250.33 15.1606 250.598 15.4423C251.325 16.2059 251.242 17.5451 250.408 18.5186C247.901 21.4422 247.827 22.1331 249.743 24.7375C250.674 26.0032 251.074 26.7861 251.16 27.512C251.276 28.4811 251.225 28.5752 249.956 29.7665C249.227 30.4501 246.933 32.0986 244.856 33.4296C240.127 36.4606 238.353 37.8573 237.523 39.2014C236.408 41.0062 236.84 41.8994 239.635 43.5692L240.99 44.3792V42.0215C240.99 39.8579 241.049 39.5631 241.704 38.4406C242.301 37.4181 243.643 35.8827 243.293 36.6222C243.233 36.7509 242.983 37.2724 242.74 37.7813C241.267 40.8597 241.817 44.6529 244.159 47.5599C244.651 48.171 244.979 48.6712 244.887 48.6712C244.795 48.6712 243.826 47.8018 242.732 46.7394C241.542 45.5834 240.026 44.4049 238.958 43.8048C237.067 42.7433 236.43 41.9663 236.43 40.7189C236.43 38.7835 238.297 36.9888 244.294 33.1603C248.592 30.4167 250.36 28.971 250.619 27.9881C250.798 27.3139 250.346 26.3825 248.92 24.4851C247.361 22.4096 247.378 20.468 248.972 18.5537C250.815 16.3407 250.847 15.7502 249.168 14.9502C247.814 14.305 246.536 13.3855 246.536 13.0566C246.536 12.912 246.786 13.0109 247.091 13.2765C247.396 13.5423 248.2 14.0228 248.878 14.345ZM266.819 14.2818C268.962 15.8816 266.567 19.0712 262.708 19.7572L261.749 19.9275L262.652 20.6338C263.72 21.4695 264.292 22.4288 264.261 23.3333C264.24 23.9544 264.227 23.946 263.996 23.1695C263.614 21.882 262.39 20.8559 259.908 19.7432C257.515 18.67 256.997 18.3314 258.553 18.8586C260.705 19.5876 263.435 18.9446 265.416 17.2419C266.617 16.2101 266.891 15.3571 266.256 14.6307C265.858 14.1758 264.924 14.1793 264.524 14.637C264.277 14.9194 264.273 15.125 264.507 15.6121C264.771 16.161 264.761 16.1959 264.42 15.9275C263.866 15.4907 263.95 14.5974 264.585 14.1754C265.326 13.6822 266.063 13.7175 266.819 14.2818ZM246.394 14.5029C247.695 14.7895 248.615 15.4781 248.71 16.2375C248.767 16.6881 248.473 17.2604 247.66 18.2872C247.04 19.0708 246.464 19.9696 246.38 20.2848C246.122 21.2625 246.43 22.747 247.266 24.5531C248.712 27.6772 248.037 29.9085 245.227 31.2933C244.193 31.8031 243.607 31.9257 242.168 31.9334C240.592 31.9418 240.325 31.8777 239.827 31.3717C239.518 31.0577 239.448 30.9304 239.672 31.0891C241.071 32.0796 243.244 31.7858 244.928 30.3781C247.147 28.5244 247.568 26.6796 246.427 23.8075C245.754 22.1155 245.616 20.4191 246.083 19.5862C246.241 19.3052 246.808 18.5238 247.344 17.8497C248.945 15.833 248.236 14.9942 244.561 14.5584C242.728 14.3408 242.725 14.3391 244.071 14.3148C244.817 14.3012 245.862 14.3859 246.394 14.5029ZM244.413 15.8582C244.042 17.3423 243.077 20.0492 242.785 20.4284C242.503 20.7932 242.304 20.6032 240.929 18.6588C240.081 17.4606 239.388 16.3072 239.388 16.0955C239.388 15.6187 240.85 15.2752 243.028 15.2399L244.574 15.2149L244.413 15.8582ZM268.722 17.5509C268.551 17.9433 267.803 18.7912 267.061 19.4353C265.525 20.7672 265.543 20.8816 267.44 21.937C268.603 22.5841 270.582 22.7884 271.555 22.3621C271.995 22.1693 272.012 22.1885 271.711 22.5397C270.594 23.8424 267.641 23.4278 265.611 21.6832L264.426 20.6647L265.402 20.2263C266.587 19.6943 268.42 17.9573 268.628 17.1698C268.712 16.8547 268.837 16.6509 268.906 16.7171C268.976 16.7833 268.893 17.1586 268.722 17.5509ZM271.181 19.0249C271.183 19.126 270.971 19.0998 270.709 18.9664C270.141 18.6779 269.953 18.6623 269.953 18.9028C269.953 19.0008 270.202 19.1852 270.507 19.3122C270.843 19.4516 271.092 19.7888 271.138 20.1638C271.285 21.375 269.226 22.0119 268.227 21.0639C267.596 20.4642 267.599 20.4418 268.475 19.1922C268.88 18.6131 269.337 17.7847 269.488 17.3511L269.764 16.5632L270.47 17.7021C270.859 18.3286 271.179 18.9238 271.181 19.0249ZM235.862 17.2707C235.101 18.0678 234.639 19.5214 234.62 21.1755C234.599 22.9755 234.278 22.4356 234.236 20.53C234.202 18.9566 235.219 16.8526 236.014 16.8526C236.149 16.8526 236.081 17.0407 235.862 17.2707ZM259.068 20.3854C259.65 20.4186 258.392 20.778 257.594 20.8065C257.054 20.8259 256.874 20.6682 256.546 19.8894C255.942 18.4573 256.045 18.4012 257.404 19.4208C258.094 19.9385 258.843 20.3725 259.068 20.3854ZM255.422 21.1224C256.027 22.6981 256.192 22.7402 258.415 21.8827C259.249 21.561 260.25 21.2978 260.64 21.2978C261.561 21.2978 262.449 22.1511 262.795 23.3679C263.293 25.1256 262.468 26.3829 261.534 25.2882C261.184 24.8781 261.079 24.8421 261.079 25.1322C261.079 25.649 261.917 26.4007 262.701 26.5874C264.128 26.9276 266.009 25.2071 266.009 23.5616V22.9992L267.16 23.5523C267.984 23.9481 268.725 24.1053 269.767 24.1053C271.047 24.1053 271.31 24.0228 271.942 23.4231C272.337 23.0478 272.707 22.8125 272.764 22.9C272.891 23.0953 273.31 25.427 273.515 27.0869C273.665 28.3031 273.662 28.3117 273.097 28.0672C272.207 27.6824 271.232 28.1531 270.776 29.1888C270.44 29.9529 270.429 30.4206 270.691 32.8751C270.855 34.4214 270.951 36.2654 270.903 36.9732L270.816 38.2599L270.381 36.6222C268.961 31.2814 265.948 28.2074 260.163 26.1979C254.809 24.3381 253.788 23.5726 253.835 21.4555C253.85 20.7897 254 19.9292 254.17 19.5431C254.522 18.7402 254.497 18.7091 255.422 21.1224ZM252.468 26.2695C253.336 27.4068 253.43 28.7621 252.716 29.8722C252.456 30.2777 251.373 31.3006 250.31 32.1454C248.036 33.9516 246.84 35.3694 245.787 37.5042C244.093 40.9416 244.719 45.2865 247.313 48.0914C249.14 50.066 252.452 50.5721 252.452 48.8766C252.452 48.3757 251.592 48.2594 251.368 48.7297C251.291 48.8906 251.255 48.8115 251.288 48.5542C251.359 48.0032 252.304 47.7952 252.835 48.214C253.404 48.6623 253.256 49.5247 252.514 50.0819C251.956 50.5005 251.627 50.5674 250.656 50.4598C246.445 49.9926 242.908 45.1016 243.419 40.4545C243.777 37.209 245.35 34.8855 249.034 32.1641C252.089 29.9069 252.793 29.0445 252.618 27.7734C252.55 27.2818 252.197 26.4538 251.835 25.9335C251.001 24.7375 251.502 25.003 252.468 26.2695ZM273.366 29.12C273.416 29.369 273.251 29.7253 272.999 29.9118C272.594 30.2117 272.591 30.2349 272.972 30.1102C273.323 29.9955 273.404 30.1062 273.404 30.7028C273.404 31.8777 272.87 34.4569 272.671 34.2435C272.397 33.9495 271.829 29.3599 272.011 28.91C272.226 28.3768 273.249 28.5351 273.366 29.12ZM260.307 31.4749C262.768 32.4435 263.654 33.1067 263.873 34.1474C264.215 35.7699 262.841 37.642 260.937 38.1481C260.043 38.3856 259.664 38.375 258.742 38.0873C257.477 37.6921 257.357 37.8199 258.248 38.6139C259.144 39.4129 261.363 39.5427 262.739 38.8769C264.98 37.7915 266.117 35.5589 265.972 32.5279C265.886 30.747 265.898 30.7004 266.342 31.0811C267.543 32.1129 268.478 34.5332 268.844 37.5581C269.082 39.5224 268.838 39.1038 268.248 36.5361C267.972 35.3371 267.47 33.8133 267.133 33.1495L266.519 31.943L266.695 32.8789C267.199 35.5518 266.659 37.4837 264.983 39.0084C263.373 40.4734 260.826 40.9453 258.991 40.119C257.962 39.6555 257.459 39.0379 257.231 37.9553L257.074 37.2073L258.122 37.5581C260.168 38.2433 261.804 37.774 262.806 36.2149C263.976 34.3928 263.143 33.0471 260.18 31.9739C258.446 31.3457 256.96 30.2604 256.363 29.1872C256.2 28.8933 256.504 29.0847 257.062 29.6273C257.759 30.3039 258.715 30.8488 260.307 31.4749ZM256.223 31.0301C256.77 31.6082 257.972 32.421 259.116 32.986C261.816 34.3191 262.224 35.2903 260.503 36.2865C259.559 36.8325 258.664 36.8634 257.93 36.3749C257.245 35.9199 257.23 35.3046 257.889 34.7386C258.318 34.3699 258.472 34.3491 258.898 34.6017C259.626 35.0327 259.758 34.7428 259.039 34.295C257.367 33.2555 255.452 35.8967 256.154 38.274C257.33 42.2616 263.187 43.1792 266.26 39.8574C266.681 39.4021 267.095 39.0956 267.18 39.1761C267.264 39.2566 267.334 39.9805 267.334 40.7846C267.334 41.9542 267.191 42.4953 266.622 43.4887C265.807 44.9091 265.008 45.3957 263.488 45.3957C262.192 45.3957 261.268 44.8487 261.373 44.1447C261.437 43.7194 261.601 43.6459 262.426 43.6721L263.404 43.7033L262.83 43.2627C262.126 42.7218 261.131 42.697 260.372 43.2016C259.909 43.5088 259.821 43.7428 259.905 44.4299C259.963 44.8967 260.056 45.4329 260.113 45.6213C260.194 45.8891 259.821 46.0031 258.401 46.1442C256.794 46.3035 256.504 46.27 255.889 45.8545C254.926 45.2034 253.964 43.2176 253.554 41.0342C253.093 38.5805 253.097 34.1696 253.561 32.5279C253.761 31.8202 253.927 30.9861 253.928 30.6747C253.93 30.3631 254.124 29.9057 254.36 29.6584C254.767 29.2312 254.801 29.2295 255.038 29.6247C255.175 29.8535 255.708 30.4859 256.223 31.0301ZM233.344 31.5865C233.576 31.8302 234.283 32.2724 234.913 32.5693C235.929 33.0473 236.42 33.1093 239.199 33.1109C242.484 33.1128 242.456 33.3585 239.142 33.6142C236.914 33.7859 234.818 33.4172 233.614 32.6419L232.745 32.0822L232.464 33.0656C232.163 34.1186 232.307 36.9729 232.711 37.9305L232.948 38.4939L232.964 37.9361C232.992 36.9086 233.558 35.5317 234.233 34.8455C235.409 33.6507 237.417 34.0847 237.799 35.6162C237.92 36.104 237.813 36.3836 237.328 36.8445C236.626 37.5099 236.232 37.5798 235.61 37.1486C235.245 36.8955 235.313 36.8562 236.117 36.8562C237.009 36.8562 237.046 36.8244 237.046 36.0628C237.046 34.999 236.431 34.6179 235.504 35.1062C233.908 35.9463 233.431 39.047 234.551 41.3014C235.227 42.6619 235.788 43.1885 237.704 44.262C239.011 44.9942 243.811 49.1391 243.352 49.1391C243.237 49.1391 242.214 48.342 241.08 47.3678C239.946 46.3936 238.242 45.2093 237.294 44.7357C234.545 43.364 232.668 41.2481 231.505 38.2099C230.703 36.1173 230.854 33.012 231.855 31.0072L232.555 29.6034L232.738 30.3734C232.839 30.7968 233.111 31.3427 233.344 31.5865ZM229.268 32.5029C229.405 32.7467 229.63 33.8846 229.767 35.0318C230.048 37.3877 230.669 39.2912 231.752 41.1117C232.158 41.7951 232.45 42.3542 232.4 42.3542C232.208 42.3542 230.515 39.7704 229.701 38.2347C229.232 37.3477 228.62 35.9012 228.342 35.0198C227.854 33.474 227.853 33.4214 228.298 33.5321C228.685 33.6282 228.716 33.5803 228.489 33.2352C228.197 32.7911 228.373 32.06 228.772 32.06C228.908 32.06 229.131 32.2593 229.268 32.5029ZM251.029 34.2286C250.587 35.9823 250.701 36.8557 251.709 39.4297C252.255 40.8239 252.297 42.653 251.82 44.1698C251.682 44.607 251.777 44.7397 252.366 44.9344C252.758 45.064 253.209 45.3679 253.368 45.6098C253.645 46.0314 253.605 46.0375 252.377 45.7588C245.701 44.2446 244.725 39.9393 249.758 34.2059C250.586 33.2628 251.3 32.5263 251.345 32.5693C251.391 32.6124 251.248 33.3589 251.029 34.2286ZM261.465 45.3662C261.836 45.643 262.581 45.9364 263.12 46.0183L264.101 46.1671L263.514 46.6011C261.837 47.8425 257.89 49.5258 255.75 49.9121C254.993 50.049 254.981 50.0373 255.006 49.1414C255.068 46.9001 251.847 46.0026 250.799 47.9693C250.562 48.4138 250.487 48.4534 250.484 48.1342C250.474 46.9614 252.759 46.0078 254.211 46.5786C255.056 46.9109 255.9 48.0376 255.902 48.834C255.903 49.344 255.912 49.3452 257.195 48.9835C259.418 48.3572 263.343 46.3316 262.335 46.3316C261.819 46.3316 260.34 44.8712 260.355 44.3771L260.371 43.875L260.581 44.3691C260.697 44.6407 261.095 45.0895 261.465 45.3662ZM237.147 58.1061C236.549 58.4053 235.728 59.0988 235.321 59.6469C234.674 60.5187 234.581 60.8434 234.581 62.2409C234.581 63.6427 234.673 63.9621 235.331 64.8507C236.375 66.2608 237.676 66.9114 239.46 66.9163C244.136 66.9287 246.455 61.7659 243.075 58.8669C241.831 57.8001 241.184 57.5617 239.534 57.5617C238.648 57.5617 237.887 57.7353 237.147 58.1061ZM242.485 58.742C243.442 59.5913 243.825 60.4426 243.825 61.7245C243.825 63.146 243.041 64.6296 241.778 65.6003C240.621 66.4886 238.455 66.7322 237.198 66.1152C234.852 64.9639 234.667 61.3799 236.851 59.4041C238.233 58.1533 238.613 58.0095 240.305 58.0925C241.524 58.1524 241.969 58.2851 242.485 58.742ZM245.304 62.3578C245.304 66.3239 245.34 66.6861 245.735 66.6863C246.13 66.6863 246.167 66.3328 246.167 62.5335V58.3805L246.874 58.3038C248.443 58.1337 249.494 58.7815 249.494 59.9179C249.494 60.7573 248.721 61.539 247.892 61.539C247.553 61.539 247.276 61.6188 247.276 61.7166C247.276 61.8141 247.914 62.7977 248.693 63.9024C249.472 65.007 250.224 66.0975 250.363 66.3258C250.502 66.5539 250.812 66.702 251.052 66.655C251.411 66.5843 251.176 66.1407 249.737 64.171C248.621 62.6423 248.118 61.7729 248.351 61.7729C248.552 61.7729 249.058 61.5004 249.475 61.1672C250.48 60.3647 250.527 59.2183 249.584 58.5146C249.061 58.1236 248.583 58.0296 247.119 58.0296H245.304V62.3578ZM251.959 62.3578C251.959 66.0493 252.014 66.6861 252.329 66.6861C252.644 66.6861 252.699 66.0493 252.699 62.3578C252.699 58.6664 252.644 58.0296 252.329 58.0296C252.014 58.0296 251.959 58.6664 251.959 62.3578ZM254.424 62.3578V66.6861H255.689C257.451 66.6861 258.784 66.2551 259.492 65.4571C260.62 64.1846 260.067 62.5342 258.32 61.9559L257.596 61.7163L258.345 61.284C258.757 61.0463 259.162 60.5928 259.246 60.2763C259.636 58.8026 258.532 58.0296 256.038 58.0296H254.424V62.3578ZM260.833 62.3578V66.6861H263.544C265.035 66.6861 266.255 66.5949 266.255 66.4835C266.255 66.3719 265.497 66.3321 264.57 66.3951C261.979 66.571 261.819 66.4224 261.819 63.8423V61.7168L263.298 61.8183C264.111 61.874 264.777 61.834 264.777 61.7294C264.777 61.6246 264.111 61.539 263.298 61.539H261.819V59.8758V58.2123L263.667 58.301C264.684 58.3496 265.516 58.3087 265.516 58.2095C265.516 58.1105 264.462 58.0296 263.174 58.0296H260.833V62.3578ZM257.82 58.6278C258.202 58.8817 258.368 59.231 258.368 59.7805C258.368 60.8137 257.439 61.539 256.116 61.539H255.163V60.0573C255.163 59.2422 255.237 58.5052 255.328 58.4196C255.637 58.1264 257.271 58.2628 257.82 58.6278ZM258.121 62.3096C259.037 62.749 259.391 63.6121 259.087 64.6579C258.751 65.8125 257.975 66.2638 256.479 66.1733L255.287 66.1012L255.215 64.0541L255.144 62.0069L256.325 62.0104C256.974 62.0123 257.782 62.147 258.121 62.3096Z" fill="#8A7BAE"/>
</g>
</svg>
