<svg width="1440" height="20" fill="none" xmlns="http://www.w3.org/2000/svg"><path d="m3.486 9.996-.714-.308c-.644-.28-1.11-.555-1.4-.826a1.896 1.896 0 0 1-.63-1.442c0-.71.266-1.279.798-1.708.541-.439 1.176-.658 1.904-.658.308 0 .63.028.966.084.345.047.649.121.91.224.121.047.191.107.21.182a.941.941 0 0 1 .042.336l.056 1.092c0 .112-.051.168-.154.168-.065 0-.117-.047-.154-.14a4.374 4.374 0 0 1-.07-.182c-.168-.513-.373-.882-.616-1.106-.28-.252-.681-.378-1.204-.378-.495 0-.92.13-1.274.392-.355.252-.532.62-.532 1.106 0 .513.294.961.882 1.344.205.13.728.378 1.568.742.29.13.537.257.742.378.28.159.495.322.644.49.205.233.369.495.49.784.121.28.182.574.182.882 0 .383-.089.747-.266 1.092-.177.345-.42.644-.728.896a2.95 2.95 0 0 1-1.022.56 4.171 4.171 0 0 1-1.204.168c-.355 0-.723-.051-1.106-.154a3.782 3.782 0 0 1-1.008-.392.405.405 0 0 1-.168-.21 1.92 1.92 0 0 1-.028-.364v-.728c0-.168.01-.327.028-.476.019-.15.047-.247.084-.294a.172.172 0 0 1 .14-.07c.084 0 .135.051.154.154.019.103.033.205.042.308.075.616.28 1.097.616 1.442.336.345.817.518 1.442.518.56 0 1.045-.168 1.456-.504.42-.336.63-.775.63-1.316 0-.523-.163-.957-.49-1.302-.261-.28-.667-.541-1.218-.784zm11.035-3.85.098.91c0 .121-.052.182-.154.182a3.982 3.982 0 0 0-.938-1.218c-.43-.383-1-.574-1.708-.574-1.111 0-1.988.42-2.632 1.26-.588.765-.882 1.717-.882 2.856 0 1.027.289 1.941.868 2.744.345.476.732.845 1.162 1.106.438.252.933.378 1.484.378.7 0 1.269-.229 1.708-.686l1.008-1.512c.12 0 .172.06.154.182l-.07 1.134c0 .224-.02.364-.056.42-.038.056-.168.14-.392.252a5.882 5.882 0 0 1-2.534.588c-1.27 0-2.352-.448-3.248-1.344-.887-.905-1.33-1.988-1.33-3.248 0-1.27.48-2.338 1.442-3.206a4.931 4.931 0 0 1 3.416-1.316c.298 0 .667.037 1.106.112.448.075.816.163 1.106.266.196.065.312.182.35.35 0 .019.014.14.042.364zm2.111 6.398V6.51c0-.355-.042-.579-.126-.672-.112-.121-.373-.182-.784-.182-.233 0-.35-.056-.35-.168 0-.14.084-.21.252-.21.15 0 .406.01.77.028.373.019.574.028.602.028.28 0 .738-.01 1.372-.028.644-.019.985-.028 1.022-.028.738 0 1.344.168 1.82.504.55.383.826.924.826 1.624a1.93 1.93 0 0 1-.672 1.498c-.41.364-.924.588-1.54.672.196.028.369.145.518.35.066.084.178.275.336.574l1.134 2.184c.205.401.336.635.392.7a.849.849 0 0 0 .686.322c.122 0 .21.01.266.028.066.019.098.075.098.168 0 .103-.084.154-.252.154h-1.484a.347.347 0 0 1-.294-.154c-.028-.028-.088-.135-.182-.322l-1.372-2.73c-.27-.523-.457-.826-.56-.91-.159-.121-.49-.182-.994-.182-.168 0-.27.023-.308.07-.037.047-.06.145-.07.294v2.422c0 .513.028.817.084.91.103.168.378.252.826.252.112 0 .2.01.266.028.066.019.098.065.098.14 0 .121-.08.182-.238.182-.187 0-.49-.01-.91-.028-.41-.019-.63-.028-.658-.028-.177 0-.48.01-.91.028-.43.019-.658.028-.686.028-.159 0-.238-.06-.238-.182 0-.084.028-.13.084-.14.066-.019.154-.028.266-.028.532 0 .826-.13.882-.392.019-.084.028-.34.028-.77zm1.106-5.852v2.506c0 .093.038.163.112.21a.757.757 0 0 0 .308.056c.14-.01.238-.014.294-.014.392 0 .719-.028.98-.084.262-.056.509-.173.742-.35.233-.187.402-.401.504-.644.112-.252.168-.523.168-.812 0-.635-.177-1.125-.532-1.47-.355-.345-.85-.518-1.484-.518-.513 0-.826.06-.938.182-.102.112-.154.425-.154.938zm5.723 2.912c0-1.25.49-2.32 1.47-3.206.99-.896 2.128-1.344 3.416-1.344 1.354 0 2.502.43 3.444 1.288.952.85 1.428 1.937 1.428 3.262s-.471 2.417-1.414 3.276c-.942.859-2.095 1.288-3.458 1.288-1.288 0-2.417-.439-3.388-1.316-.998-.905-1.498-1.988-1.498-3.248zm8.484 0c0-.57-.07-1.092-.21-1.568a3.662 3.662 0 0 0-.728-1.33 3.422 3.422 0 0 0-1.176-.938 3.21 3.21 0 0 0-1.456-.336c-.55 0-1.068.112-1.554.336a3.33 3.33 0 0 0-1.204.952 3.844 3.844 0 0 0-.686 1.33 5.582 5.582 0 0 0-.21 1.554c0 .56.07 1.092.21 1.596.15.495.392.943.728 1.344.336.392.738.695 1.204.91.476.215.98.322 1.512.322.523 0 1.018-.117 1.484-.35a3.55 3.55 0 0 0 1.19-.966c.327-.41.556-.854.686-1.33.14-.476.21-.985.21-1.526zm4.424-2.8v5.306c0 .607.056.999.168 1.176.168.261.541.392 1.12.392.299 0 .579-.033.84-.098.27-.075.504-.196.7-.364.14-.112.28-.29.42-.532a4.4 4.4 0 0 0 .308-.63c.047-.121.103-.182.168-.182.084 0 .126.065.126.196 0 .14-.028.392-.084.756-.046.355-.07.588-.07.7 0 .233-.014.383-.042.448-.028.056-.135.084-.322.084-.467 0-1.246-.01-2.338-.028A367.9 367.9 0 0 0 35.641 14c-.158 0-.392.01-.7.028-.308.019-.541.028-.7.028-.158 0-.238-.065-.238-.196 0-.121.121-.182.364-.182.448 0 .719-.08.812-.238.056-.093.084-.397.084-.91V6.496c0-.345-.042-.565-.126-.658-.112-.121-.373-.182-.784-.182-.233 0-.35-.06-.35-.182 0-.13.08-.196.238-.196.187 0 .486.01.896.028.42.019.644.028.672.028.178 0 .48-.01.91-.028.43-.019.658-.028.686-.028.159 0 .238.065.238.196 0 .075-.037.126-.112.154a.939.939 0 0 1-.252.028c-.401 0-.653.056-.756.168-.103.112-.154.336-.154.672v.308zm6.527 0v5.306c0 .607.056.999.168 1.176.168.261.541.392 1.12.392.298 0 .578-.033.84-.098.27-.075.504-.196.7-.364.14-.112.28-.29.42-.532a4.4 4.4 0 0 0 .308-.63c.046-.121.102-.182.168-.182.084 0 .126.065.126.196 0 .14-.028.392-.084.756-.047.355-.07.588-.07.7 0 .233-.014.383-.042.448-.028.056-.136.084-.322.084-.467 0-1.246-.01-2.338-.028A368.42 368.42 0 0 0 42.168 14c-.159 0-.392.01-.7.028-.308.019-.542.028-.7.028-.159 0-.238-.065-.238-.196 0-.121.121-.182.364-.182.448 0 .718-.08.812-.238.056-.093.084-.397.084-.91V6.496c0-.345-.042-.565-.126-.658-.112-.121-.374-.182-.784-.182-.234 0-.35-.06-.35-.182 0-.13.079-.196.238-.196.186 0 .485.01.896.028.42.019.644.028.672.028.177 0 .48-.01.91-.028.429-.019.658-.028.686-.028.158 0 .238.065.238.196 0 .075-.038.126-.112.154a.939.939 0 0 1-.252.028c-.402 0-.654.056-.756.168-.103.112-.154.336-.154.672v.308zm9.76 5.698V6.384c0-.205-.023-.355-.07-.448-.074-.14-.205-.21-.391-.21a1.15 1.15 0 0 0-.336.056c-.112.028-.234.06-.364.098-.103 0-.154-.051-.154-.154 0-.215.527-.378 1.582-.49 1.054-.121 1.866-.182 2.436-.182.672 0 1.311.089 1.918.266.616.168 1.18.448 1.694.84.522.392.942.891 1.26 1.498.326.607.49 1.237.49 1.89a4.5 4.5 0 0 1-1.512 3.374 4.192 4.192 0 0 1-1.624.882 7.39 7.39 0 0 1-2.002.252c-.355 0-.948-.01-1.778-.028-.831-.019-1.265-.028-1.302-.028-.103 0-.276.01-.518.028l-.364.028c-.159 0-.238-.065-.238-.196 0-.075.032-.117.098-.126.065-.019.154-.028.266-.028.522 0 .816-.14.882-.42.018-.084.028-.345.028-.784zm1.107-6.062v5.81c0 .625.093 1.04.28 1.246.196.196.602.294 1.218.294.662 0 1.204-.07 1.624-.21.522-.168.98-.457 1.372-.868.401-.42.7-.887.896-1.4a4.627 4.627 0 0 0 .294-1.638c0-1.297-.402-2.338-1.204-3.122-.803-.784-1.844-1.176-3.122-1.176a5.8 5.8 0 0 0-.742.042c-.206.028-.355.089-.448.182a.552.552 0 0 0-.154.322c-.01.13-.014.303-.014.518zm7.923 3.164c0-1.25.49-2.32 1.47-3.206.99-.896 2.128-1.344 3.416-1.344 1.353 0 2.501.43 3.444 1.288.952.85 1.428 1.937 1.428 3.262s-.471 2.417-1.414 3.276-2.095 1.288-3.458 1.288c-1.288 0-2.417-.439-3.388-1.316-.999-.905-1.498-1.988-1.498-3.248zm8.484 0c0-.57-.07-1.092-.21-1.568a3.662 3.662 0 0 0-.728-1.33 3.422 3.422 0 0 0-1.176-.938 3.21 3.21 0 0 0-1.456-.336c-.55 0-1.069.112-1.554.336a3.33 3.33 0 0 0-1.204.952 3.844 3.844 0 0 0-.686 1.33 5.582 5.582 0 0 0-.21 1.554c0 .56.07 1.092.21 1.596.15.495.392.943.728 1.344.336.392.737.695 1.204.91.476.215.98.322 1.512.322.523 0 1.017-.117 1.484-.35a3.55 3.55 0 0 0 1.19-.966c.327-.41.555-.854.686-1.33.14-.476.21-.985.21-1.526zm8.442.742L76.96 13.86a.91.91 0 0 1-.098.224c-.047.056-.098.084-.154.084-.056 0-.108-.047-.154-.14a1.33 1.33 0 0 1-.084-.168l-3.304-7.112a20.16 20.16 0 0 1-.196-.434c-.103-.224-.192-.373-.266-.448a.546.546 0 0 0-.252-.168 1.036 1.036 0 0 0-.322-.042c-.224 0-.336-.07-.336-.21 0-.112.074-.168.224-.168.15 0 .373.01.672.028.298.019.532.028.7.028.158 0 .415-.01.77-.028.364-.019.555-.028.574-.028.168 0 .252.065.252.196 0 .084-.028.135-.084.154a.768.768 0 0 1-.252.028c-.159 0-.29.019-.392.056-.103.037-.154.121-.154.252 0 .103.028.224.084.364.065.14.112.238.14.294l2.786 6.006 1.022-2.184a7.5 7.5 0 0 0 .112-.266.826.826 0 0 0 .056-.28c0-.112-.047-.28-.14-.504a2.934 2.934 0 0 1-.14-.308L76.862 6.58a7.283 7.283 0 0 0-.294-.588c-.15-.224-.327-.336-.532-.336h-.168c-.168 0-.252-.06-.252-.182 0-.13.07-.196.21-.196.15 0 .406.01.77.028.373.019.574.028.602.028.158 0 .415-.01.77-.028.364-.019.555-.028.574-.028.158 0 .238.07.238.21 0 .084-.042.135-.126.154-.075.01-.178.014-.308.014a.692.692 0 0 0-.336.07c-.084.047-.126.13-.126.252a.98.98 0 0 0 .07.294l.154.364.896 1.96.924-1.974c.028-.075.074-.191.14-.35.065-.159.098-.27.098-.336 0-.084-.047-.15-.14-.196a.472.472 0 0 0-.266-.084c-.262 0-.392-.056-.392-.168 0-.14.088-.21.266-.21.112 0 .28.01.504.028.224.019.392.028.504.028.112 0 .28-.01.504-.028.224-.019.392-.028.504-.028.121 0 .182.06.182.182 0 .093-.033.15-.098.168a1.223 1.223 0 0 1-.308.028c-.299 0-.546.126-.742.378-.084.112-.22.373-.406.784l-.644 1.344a5.72 5.72 0 0 0-.252.56 1.03 1.03 0 0 0-.07.336c0 .084.014.168.042.252.028.084.102.252.224.504l1.19 2.688 2.38-5.754c.046-.103.093-.229.14-.378.046-.15.07-.266.07-.35 0-.168-.066-.27-.196-.308a1.786 1.786 0 0 0-.504-.056c-.159 0-.238-.065-.238-.196 0-.121.08-.182.238-.182.112 0 .308.01.588.028.28.019.43.028.448.028.112 0 .28-.01.504-.028.224-.019.396-.028.518-.028.158 0 .238.07.238.21 0 .112-.126.168-.378.168-.103 0-.192.01-.266.028-.066.019-.145.08-.238.182a1.72 1.72 0 0 0-.266.42c-.084.177-.164.355-.238.532l-2.912 7.028a1.274 1.274 0 0 1-.07.168c-.028.065-.075.098-.14.098-.066 0-.13-.06-.196-.182l-.126-.252-1.512-3.332zm13.91 1.848V6.51c0-.345-.05-.574-.153-.686-.103-.112-.36-.168-.77-.168-.234 0-.35-.051-.35-.154 0-.15.084-.224.252-.224.14 0 .373.01.7.028.326.019.504.028.532.028.149 0 .382-.01.7-.028.326-.019.499-.028.518-.028.158 0 .238.075.238.224 0 .056-.028.098-.084.126a.897.897 0 0 1-.28.028c-.439 0-.71.084-.812.252-.066.112-.098.415-.098.91v7.112c0 .177-.033.266-.098.266-.066 0-.136-.042-.21-.126l-.14-.21-5.88-7.644v6.328c0 .513.028.817.084.91.093.168.368.252.826.252.233 0 .35.047.35.14 0 .14-.08.21-.238.21-.14 0-.374-.01-.7-.028a26.114 26.114 0 0 0-.532-.028c-.131 0-.332.01-.602.028a9.69 9.69 0 0 1-.616.028c-.168 0-.252-.07-.252-.21 0-.093.074-.14.224-.14h.14c.532 0 .826-.13.882-.392.018-.084.028-.34.028-.77V6.51c0-.355-.042-.579-.126-.672-.112-.121-.374-.182-.784-.182-.234 0-.35-.051-.35-.154 0-.084.032-.14.098-.168a.525.525 0 0 1 .238-.056h1.736a.66.66 0 0 1 .336.182c.018.019.098.121.238.308l4.956 6.426z" fill="#fff"/><circle cx="124.5" cy="10" r="3.5" fill="#4C465A"/><path d="m152.486 9.996-.714-.308c-.644-.28-1.111-.555-1.4-.826a1.896 1.896 0 0 1-.63-1.442c0-.71.266-1.279.798-1.708.541-.439 1.176-.658 1.904-.658.308 0 .63.028.966.084.345.047.649.121.91.224.121.047.191.107.21.182a.941.941 0 0 1 .042.336l.056 1.092c0 .112-.051.168-.154.168-.065 0-.117-.047-.154-.14a4.374 4.374 0 0 1-.07-.182c-.168-.513-.373-.882-.616-1.106-.28-.252-.681-.378-1.204-.378-.495 0-.919.13-1.274.392-.355.252-.532.62-.532 1.106 0 .513.294.961.882 1.344.205.13.728.378 1.568.742.289.13.537.257.742.378.28.159.495.322.644.49.205.233.369.495.49.784a2.2 2.2 0 0 1 .182.882c0 .383-.089.747-.266 1.092-.177.345-.42.644-.728.896a2.95 2.95 0 0 1-1.022.56 4.171 4.171 0 0 1-1.204.168c-.355 0-.723-.051-1.106-.154a3.773 3.773 0 0 1-1.008-.392.405.405 0 0 1-.168-.21 1.892 1.892 0 0 1-.028-.364v-.728c0-.168.009-.327.028-.476.019-.15.047-.247.084-.294a.172.172 0 0 1 .14-.07c.084 0 .135.051.154.154.019.103.033.205.042.308.075.616.28 1.097.616 1.442.336.345.817.518 1.442.518.56 0 1.045-.168 1.456-.504.42-.336.63-.775.63-1.316 0-.523-.163-.957-.49-1.302-.261-.28-.667-.541-1.218-.784zm11.035-3.85.098.91c0 .121-.052.182-.154.182a3.992 3.992 0 0 0-.938-1.218c-.43-.383-.999-.574-1.708-.574-1.111 0-1.988.42-2.632 1.26-.588.765-.882 1.717-.882 2.856 0 1.027.289 1.941.868 2.744.345.476.732.845 1.162 1.106.438.252.933.378 1.484.378.7 0 1.269-.229 1.708-.686l1.008-1.512c.121 0 .172.06.154.182l-.07 1.134c0 .224-.019.364-.056.42-.038.056-.168.14-.392.252a5.885 5.885 0 0 1-2.534.588c-1.27 0-2.352-.448-3.248-1.344-.887-.905-1.33-1.988-1.33-3.248 0-1.27.48-2.338 1.442-3.206a4.93 4.93 0 0 1 3.416-1.316 6.8 6.8 0 0 1 1.106.112 6.67 6.67 0 0 1 1.106.266c.196.065.312.182.35.35 0 .019.014.14.042.364zm2.111 6.398V6.51c0-.355-.042-.579-.126-.672-.112-.121-.373-.182-.784-.182-.233 0-.35-.056-.35-.168 0-.14.084-.21.252-.21.15 0 .406.01.77.028.374.019.574.028.602.028.28 0 .738-.01 1.372-.028.644-.019.985-.028 1.022-.028.738 0 1.344.168 1.82.504.551.383.826.924.826 1.624a1.93 1.93 0 0 1-.672 1.498c-.41.364-.924.588-1.54.672.196.028.369.145.518.35.066.084.178.275.336.574l1.134 2.184c.206.401.336.635.392.7a.85.85 0 0 0 .686.322c.122 0 .21.01.266.028.066.019.098.075.098.168 0 .103-.084.154-.252.154h-1.484a.348.348 0 0 1-.294-.154c-.028-.028-.088-.135-.182-.322l-1.372-2.73c-.27-.523-.457-.826-.56-.91-.158-.121-.49-.182-.994-.182-.168 0-.27.023-.308.07-.037.047-.06.145-.07.294v2.422c0 .513.028.817.084.91.103.168.378.252.826.252.112 0 .201.01.266.028.066.019.098.065.098.14 0 .121-.079.182-.238.182-.186 0-.49-.01-.91-.028-.41-.019-.63-.028-.658-.028-.177 0-.48.01-.91.028-.429.019-.658.028-.686.028-.158 0-.238-.06-.238-.182 0-.084.028-.13.084-.14.066-.019.154-.028.266-.028.532 0 .826-.13.882-.392.019-.084.028-.34.028-.77zm1.106-5.852v2.506c0 .093.038.163.112.21a.758.758 0 0 0 .308.056c.14-.01.238-.014.294-.014.392 0 .719-.028.98-.084a1.86 1.86 0 0 0 .742-.35c.234-.187.402-.401.504-.644.112-.252.168-.523.168-.812 0-.635-.177-1.125-.532-1.47-.354-.345-.849-.518-1.484-.518-.513 0-.826.06-.938.182-.102.112-.154.425-.154.938zm5.723 2.912c0-1.25.49-2.32 1.47-3.206.99-.896 2.128-1.344 3.416-1.344 1.354 0 2.502.43 3.444 1.288.952.85 1.428 1.937 1.428 3.262s-.471 2.417-1.414 3.276c-.942.859-2.095 1.288-3.458 1.288-1.288 0-2.417-.439-3.388-1.316-.998-.905-1.498-1.988-1.498-3.248zm8.484 0c0-.57-.07-1.092-.21-1.568a3.652 3.652 0 0 0-.728-1.33 3.422 3.422 0 0 0-1.176-.938 3.21 3.21 0 0 0-1.456-.336c-.55 0-1.068.112-1.554.336a3.333 3.333 0 0 0-1.204.952 3.849 3.849 0 0 0-.686 1.33 5.582 5.582 0 0 0-.21 1.554c0 .56.07 1.092.21 1.596.15.495.392.943.728 1.344.336.392.738.695 1.204.91.476.215.98.322 1.512.322.523 0 1.018-.117 1.484-.35a3.548 3.548 0 0 0 1.19-.966c.327-.41.556-.854.686-1.33.14-.476.21-.985.21-1.526zm4.424-2.8v5.306c0 .607.056.999.168 1.176.168.261.541.392 1.12.392.299 0 .579-.033.84-.098.271-.075.504-.196.7-.364.14-.112.28-.29.42-.532.112-.187.215-.397.308-.63.047-.121.103-.182.168-.182.084 0 .126.065.126.196 0 .14-.028.392-.084.756-.047.355-.07.588-.07.7 0 .233-.014.383-.042.448-.028.056-.135.084-.322.084-.467 0-1.246-.01-2.338-.028a369.987 369.987 0 0 0-1.722-.028c-.159 0-.392.01-.7.028-.308.019-.541.028-.7.028-.159 0-.238-.065-.238-.196 0-.121.121-.182.364-.182.448 0 .719-.08.812-.238.056-.093.084-.397.084-.91V6.496c0-.345-.042-.565-.126-.658-.112-.121-.373-.182-.784-.182-.233 0-.35-.06-.35-.182 0-.13.079-.196.238-.196.187 0 .485.01.896.028.42.019.644.028.672.028.177 0 .481-.01.91-.028.429-.019.658-.028.686-.028.159 0 .238.065.238.196 0 .075-.037.126-.112.154a.936.936 0 0 1-.252.028c-.401 0-.653.056-.756.168-.103.112-.154.336-.154.672v.308zm6.527 0v5.306c0 .607.056.999.168 1.176.168.261.541.392 1.12.392.298 0 .578-.033.84-.098.27-.075.504-.196.7-.364.14-.112.28-.29.42-.532.112-.187.214-.397.308-.63.046-.121.102-.182.168-.182.084 0 .126.065.126.196 0 .14-.028.392-.084.756-.047.355-.07.588-.07.7 0 .233-.014.383-.042.448-.028.056-.136.084-.322.084-.467 0-1.246-.01-2.338-.028a369.987 369.987 0 0 0-1.722-.028c-.159 0-.392.01-.7.028-.308.019-.542.028-.7.028-.159 0-.238-.065-.238-.196 0-.121.121-.182.364-.182.448 0 .718-.08.812-.238.056-.093.084-.397.084-.91V6.496c0-.345-.042-.565-.126-.658-.112-.121-.374-.182-.784-.182-.234 0-.35-.06-.35-.182 0-.13.079-.196.238-.196.186 0 .485.01.896.028.42.019.644.028.672.028.177 0 .48-.01.91-.028.429-.019.658-.028.686-.028.158 0 .238.065.238.196 0 .075-.038.126-.112.154a.946.946 0 0 1-.252.028c-.402 0-.654.056-.756.168-.103.112-.154.336-.154.672v.308zm9.761 5.698V6.384c0-.205-.024-.355-.07-.448-.075-.14-.206-.21-.392-.21-.103 0-.215.019-.336.056-.112.028-.234.06-.364.098-.103 0-.154-.051-.154-.154 0-.215.527-.378 1.582-.49 1.054-.121 1.866-.182 2.436-.182.672 0 1.311.089 1.918.266a4.89 4.89 0 0 1 1.694.84c.522.392.942.891 1.26 1.498.326.607.49 1.237.49 1.89 0 .644-.131 1.26-.392 1.848a4.415 4.415 0 0 1-1.12 1.526 4.2 4.2 0 0 1-1.624.882 7.395 7.395 0 0 1-2.002.252c-.355 0-.948-.01-1.778-.028-.831-.019-1.265-.028-1.302-.028-.103 0-.276.01-.518.028l-.364.028c-.159 0-.238-.065-.238-.196 0-.075.032-.117.098-.126.065-.019.154-.028.266-.028.522 0 .816-.14.882-.42.018-.084.028-.345.028-.784zm1.106-6.062v5.81c0 .625.093 1.04.28 1.246.196.196.602.294 1.218.294.662 0 1.204-.07 1.624-.21a3.25 3.25 0 0 0 1.372-.868c.401-.42.7-.887.896-1.4a4.627 4.627 0 0 0 .294-1.638c0-1.297-.402-2.338-1.204-3.122-.803-.784-1.844-1.176-3.122-1.176-.28 0-.528.014-.742.042-.206.028-.355.089-.448.182a.548.548 0 0 0-.154.322c-.01.13-.014.303-.014.518zm7.923 3.164c0-1.25.49-2.32 1.47-3.206.989-.896 2.128-1.344 3.416-1.344 1.353 0 2.501.43 3.444 1.288.952.85 1.428 1.937 1.428 3.262s-.471 2.417-1.414 3.276-2.095 1.288-3.458 1.288c-1.288 0-2.417-.439-3.388-1.316-.999-.905-1.498-1.988-1.498-3.248zm8.484 0c0-.57-.07-1.092-.21-1.568a3.667 3.667 0 0 0-.728-1.33 3.422 3.422 0 0 0-1.176-.938 3.21 3.21 0 0 0-1.456-.336c-.551 0-1.069.112-1.554.336a3.333 3.333 0 0 0-1.204.952 3.849 3.849 0 0 0-.686 1.33 5.582 5.582 0 0 0-.21 1.554c0 .56.07 1.092.21 1.596.149.495.392.943.728 1.344.336.392.737.695 1.204.91.476.215.98.322 1.512.322.523 0 1.017-.117 1.484-.35a3.548 3.548 0 0 0 1.19-.966c.327-.41.555-.854.686-1.33.14-.476.21-.985.21-1.526zm8.442.742-1.652 3.514a.958.958 0 0 1-.098.224c-.047.056-.098.084-.154.084-.056 0-.108-.047-.154-.14a1.222 1.222 0 0 1-.084-.168l-3.304-7.112c-.066-.14-.131-.285-.196-.434-.103-.224-.192-.373-.266-.448a.55.55 0 0 0-.252-.168 1.04 1.04 0 0 0-.322-.042c-.224 0-.336-.07-.336-.21 0-.112.074-.168.224-.168.149 0 .373.01.672.028.298.019.532.028.7.028.158 0 .415-.01.77-.028.364-.019.555-.028.574-.028.168 0 .252.065.252.196 0 .084-.028.135-.084.154a.771.771 0 0 1-.252.028c-.159 0-.29.019-.392.056-.103.037-.154.121-.154.252 0 .103.028.224.084.364.065.14.112.238.14.294l2.786 6.006 1.022-2.184c.037-.084.074-.173.112-.266a.836.836 0 0 0 .056-.28c0-.112-.047-.28-.14-.504a2.711 2.711 0 0 1-.14-.308l-1.162-2.506a7.283 7.283 0 0 0-.294-.588c-.15-.224-.327-.336-.532-.336h-.168c-.168 0-.252-.06-.252-.182 0-.13.07-.196.21-.196.149 0 .406.01.77.028.373.019.574.028.602.028.158 0 .415-.01.77-.028.364-.019.555-.028.574-.028.158 0 .238.07.238.21 0 .084-.042.135-.126.154-.075.01-.178.014-.308.014a.692.692 0 0 0-.336.07c-.084.047-.126.13-.126.252 0 .065.023.163.07.294l.154.364.896 1.96.924-1.974c.028-.075.074-.191.14-.35.065-.159.098-.27.098-.336 0-.084-.047-.15-.14-.196a.473.473 0 0 0-.266-.084c-.262 0-.392-.056-.392-.168 0-.14.088-.21.266-.21.112 0 .28.01.504.028.224.019.392.028.504.028.112 0 .28-.01.504-.028.224-.019.392-.028.504-.028.121 0 .182.06.182.182 0 .093-.033.15-.098.168a1.227 1.227 0 0 1-.308.028c-.299 0-.546.126-.742.378-.084.112-.22.373-.406.784l-.644 1.344c-.15.308-.234.495-.252.56a1.02 1.02 0 0 0-.07.336c0 .084.014.168.042.252.028.084.102.252.224.504l1.19 2.688 2.38-5.754c.046-.103.093-.229.14-.378.046-.15.07-.266.07-.35 0-.168-.066-.27-.196-.308a1.793 1.793 0 0 0-.504-.056c-.159 0-.238-.065-.238-.196 0-.121.079-.182.238-.182.112 0 .308.01.588.028.28.019.429.028.448.028.112 0 .28-.01.504-.028a6.68 6.68 0 0 1 .518-.028c.158 0 .238.07.238.21 0 .112-.126.168-.378.168-.103 0-.192.01-.266.028-.066.019-.145.08-.238.182a1.699 1.699 0 0 0-.266.42c-.084.177-.164.355-.238.532l-2.912 7.028a1.33 1.33 0 0 1-.07.168c-.028.065-.075.098-.14.098-.066 0-.131-.06-.196-.182l-.126-.252-1.512-3.332zm13.911 1.848V6.51c0-.345-.052-.574-.154-.686-.103-.112-.36-.168-.77-.168-.234 0-.35-.051-.35-.154 0-.15.084-.224.252-.224.14 0 .373.01.7.028.326.019.504.028.532.028.149 0 .382-.01.7-.028.326-.019.499-.028.518-.028.158 0 .238.075.238.224 0 .056-.028.098-.084.126a.899.899 0 0 1-.28.028c-.439 0-.71.084-.812.252-.066.112-.098.415-.098.91v7.112c0 .177-.033.266-.098.266-.066 0-.136-.042-.21-.126a23.248 23.248 0 0 1-.14-.21l-5.88-7.644v6.328c0 .513.028.817.084.91.093.168.368.252.826.252.233 0 .35.047.35.14 0 .14-.08.21-.238.21-.14 0-.374-.01-.7-.028a26.285 26.285 0 0 0-.532-.028c-.131 0-.332.01-.602.028a9.702 9.702 0 0 1-.616.028c-.168 0-.252-.07-.252-.21 0-.093.074-.14.224-.14h.14c.532 0 .826-.13.882-.392.018-.084.028-.34.028-.77V6.51c0-.355-.042-.579-.126-.672-.112-.121-.374-.182-.784-.182-.234 0-.35-.051-.35-.154 0-.084.032-.14.098-.168a.523.523 0 0 1 .238-.056h1.736c.13.028.242.089.336.182.018.019.098.121.238.308l4.956 6.426z" fill="#fff"/><circle cx="273.5" cy="10" r="3.5" fill="#4C465A"/><path d="m301.486 9.996-.714-.308c-.644-.28-1.111-.555-1.4-.826a1.896 1.896 0 0 1-.63-1.442c0-.71.266-1.279.798-1.708.541-.439 1.176-.658 1.904-.658.308 0 .63.028.966.084.345.047.649.121.91.224.121.047.191.107.21.182a.941.941 0 0 1 .042.336l.056 1.092c0 .112-.051.168-.154.168-.065 0-.117-.047-.154-.14a4.374 4.374 0 0 1-.07-.182c-.168-.513-.373-.882-.616-1.106-.28-.252-.681-.378-1.204-.378-.495 0-.919.13-1.274.392-.355.252-.532.62-.532 1.106 0 .513.294.961.882 1.344.205.13.728.378 1.568.742.289.13.537.257.742.378.28.159.495.322.644.49.205.233.369.495.49.784a2.2 2.2 0 0 1 .182.882c0 .383-.089.747-.266 1.092-.177.345-.42.644-.728.896a2.95 2.95 0 0 1-1.022.56 4.171 4.171 0 0 1-1.204.168c-.355 0-.723-.051-1.106-.154a3.773 3.773 0 0 1-1.008-.392.405.405 0 0 1-.168-.21 1.892 1.892 0 0 1-.028-.364v-.728c0-.168.009-.327.028-.476.019-.15.047-.247.084-.294a.172.172 0 0 1 .14-.07c.084 0 .135.051.154.154.019.103.033.205.042.308.075.616.28 1.097.616 1.442.336.345.817.518 1.442.518.56 0 1.045-.168 1.456-.504.42-.336.63-.775.63-1.316 0-.523-.163-.957-.49-1.302-.261-.28-.667-.541-1.218-.784zm11.035-3.85.098.91c0 .121-.052.182-.154.182a3.992 3.992 0 0 0-.938-1.218c-.43-.383-.999-.574-1.708-.574-1.111 0-1.988.42-2.632 1.26-.588.765-.882 1.717-.882 2.856 0 1.027.289 1.941.868 2.744.345.476.732.845 1.162 1.106.438.252.933.378 1.484.378.7 0 1.269-.229 1.708-.686l1.008-1.512c.121 0 .172.06.154.182l-.07 1.134c0 .224-.019.364-.056.42-.038.056-.168.14-.392.252a5.885 5.885 0 0 1-2.534.588c-1.27 0-2.352-.448-3.248-1.344-.887-.905-1.33-1.988-1.33-3.248 0-1.27.48-2.338 1.442-3.206a4.93 4.93 0 0 1 3.416-1.316 6.8 6.8 0 0 1 1.106.112 6.67 6.67 0 0 1 1.106.266c.196.065.312.182.35.35 0 .019.014.14.042.364zm2.111 6.398V6.51c0-.355-.042-.579-.126-.672-.112-.121-.373-.182-.784-.182-.233 0-.35-.056-.35-.168 0-.14.084-.21.252-.21.15 0 .406.01.77.028.374.019.574.028.602.028.28 0 .738-.01 1.372-.028.644-.019.985-.028 1.022-.028.738 0 1.344.168 1.82.504.551.383.826.924.826 1.624a1.93 1.93 0 0 1-.672 1.498c-.41.364-.924.588-1.54.672.196.028.369.145.518.35.066.084.178.275.336.574l1.134 2.184c.206.401.336.635.392.7a.85.85 0 0 0 .686.322c.122 0 .21.01.266.028.066.019.098.075.098.168 0 .103-.084.154-.252.154h-1.484a.348.348 0 0 1-.294-.154c-.028-.028-.088-.135-.182-.322l-1.372-2.73c-.27-.523-.457-.826-.56-.91-.158-.121-.49-.182-.994-.182-.168 0-.27.023-.308.07-.037.047-.06.145-.07.294v2.422c0 .513.028.817.084.91.103.168.378.252.826.252.112 0 .201.01.266.028.066.019.098.065.098.14 0 .121-.079.182-.238.182-.186 0-.49-.01-.91-.028-.41-.019-.63-.028-.658-.028-.177 0-.48.01-.91.028-.429.019-.658.028-.686.028-.158 0-.238-.06-.238-.182 0-.084.028-.13.084-.14.066-.019.154-.028.266-.028.532 0 .826-.13.882-.392.019-.084.028-.34.028-.77zm1.106-5.852v2.506c0 .093.038.163.112.21a.758.758 0 0 0 .308.056c.14-.01.238-.014.294-.014.392 0 .719-.028.98-.084a1.86 1.86 0 0 0 .742-.35c.234-.187.402-.401.504-.644.112-.252.168-.523.168-.812 0-.635-.177-1.125-.532-1.47-.354-.345-.849-.518-1.484-.518-.513 0-.826.06-.938.182-.102.112-.154.425-.154.938zm5.723 2.912c0-1.25.49-2.32 1.47-3.206.99-.896 2.128-1.344 3.416-1.344 1.354 0 2.502.43 3.444 1.288.952.85 1.428 1.937 1.428 3.262s-.471 2.417-1.414 3.276c-.942.859-2.095 1.288-3.458 1.288-1.288 0-2.417-.439-3.388-1.316-.998-.905-1.498-1.988-1.498-3.248zm8.484 0c0-.57-.07-1.092-.21-1.568a3.652 3.652 0 0 0-.728-1.33 3.422 3.422 0 0 0-1.176-.938 3.21 3.21 0 0 0-1.456-.336c-.55 0-1.068.112-1.554.336a3.333 3.333 0 0 0-1.204.952 3.849 3.849 0 0 0-.686 1.33 5.582 5.582 0 0 0-.21 1.554c0 .56.07 1.092.21 1.596.15.495.392.943.728 1.344.336.392.738.695 1.204.91.476.215.98.322 1.512.322.523 0 1.018-.117 1.484-.35a3.548 3.548 0 0 0 1.19-.966c.327-.41.556-.854.686-1.33.14-.476.21-.985.21-1.526zm4.424-2.8v5.306c0 .607.056.999.168 1.176.168.261.541.392 1.12.392.299 0 .579-.033.84-.098.271-.075.504-.196.7-.364.14-.112.28-.29.42-.532.112-.187.215-.397.308-.63.047-.121.103-.182.168-.182.084 0 .126.065.126.196 0 .14-.028.392-.084.756-.047.355-.07.588-.07.7 0 .233-.014.383-.042.448-.028.056-.135.084-.322.084-.467 0-1.246-.01-2.338-.028a369.987 369.987 0 0 0-1.722-.028c-.159 0-.392.01-.7.028-.308.019-.541.028-.7.028-.159 0-.238-.065-.238-.196 0-.121.121-.182.364-.182.448 0 .719-.08.812-.238.056-.093.084-.397.084-.91V6.496c0-.345-.042-.565-.126-.658-.112-.121-.373-.182-.784-.182-.233 0-.35-.06-.35-.182 0-.13.079-.196.238-.196.187 0 .485.01.896.028.42.019.644.028.672.028.177 0 .481-.01.91-.028.429-.019.658-.028.686-.028.159 0 .238.065.238.196 0 .075-.037.126-.112.154a.936.936 0 0 1-.252.028c-.401 0-.653.056-.756.168-.103.112-.154.336-.154.672v.308zm6.527 0v5.306c0 .607.056.999.168 1.176.168.261.541.392 1.12.392.298 0 .578-.033.84-.098.27-.075.504-.196.7-.364.14-.112.28-.29.42-.532.112-.187.214-.397.308-.63.046-.121.102-.182.168-.182.084 0 .126.065.126.196 0 .14-.028.392-.084.756-.047.355-.07.588-.07.7 0 .233-.014.383-.042.448-.028.056-.136.084-.322.084-.467 0-1.246-.01-2.338-.028a369.987 369.987 0 0 0-1.722-.028c-.159 0-.392.01-.7.028-.308.019-.542.028-.7.028-.159 0-.238-.065-.238-.196 0-.121.121-.182.364-.182.448 0 .718-.08.812-.238.056-.093.084-.397.084-.91V6.496c0-.345-.042-.565-.126-.658-.112-.121-.374-.182-.784-.182-.234 0-.35-.06-.35-.182 0-.13.079-.196.238-.196.186 0 .485.01.896.028.42.019.644.028.672.028.177 0 .48-.01.91-.028.429-.019.658-.028.686-.028.158 0 .238.065.238.196 0 .075-.038.126-.112.154a.946.946 0 0 1-.252.028c-.402 0-.654.056-.756.168-.103.112-.154.336-.154.672v.308zm9.761 5.698V6.384c0-.205-.024-.355-.07-.448-.075-.14-.206-.21-.392-.21-.103 0-.215.019-.336.056-.112.028-.234.06-.364.098-.103 0-.154-.051-.154-.154 0-.215.527-.378 1.582-.49 1.054-.121 1.866-.182 2.436-.182.672 0 1.311.089 1.918.266a4.89 4.89 0 0 1 1.694.84c.522.392.942.891 1.26 1.498.326.607.49 1.237.49 1.89 0 .644-.131 1.26-.392 1.848a4.415 4.415 0 0 1-1.12 1.526 4.2 4.2 0 0 1-1.624.882 7.395 7.395 0 0 1-2.002.252c-.355 0-.948-.01-1.778-.028-.831-.019-1.265-.028-1.302-.028-.103 0-.276.01-.518.028l-.364.028c-.159 0-.238-.065-.238-.196 0-.075.032-.117.098-.126.065-.019.154-.028.266-.028.522 0 .816-.14.882-.42.018-.084.028-.345.028-.784zm1.106-6.062v5.81c0 .625.093 1.04.28 1.246.196.196.602.294 1.218.294.662 0 1.204-.07 1.624-.21a3.25 3.25 0 0 0 1.372-.868c.401-.42.7-.887.896-1.4a4.627 4.627 0 0 0 .294-1.638c0-1.297-.402-2.338-1.204-3.122-.803-.784-1.844-1.176-3.122-1.176-.28 0-.528.014-.742.042-.206.028-.355.089-.448.182a.548.548 0 0 0-.154.322c-.01.13-.014.303-.014.518zm7.923 3.164c0-1.25.49-2.32 1.47-3.206.989-.896 2.128-1.344 3.416-1.344 1.353 0 2.501.43 3.444 1.288.952.85 1.428 1.937 1.428 3.262s-.471 2.417-1.414 3.276-2.095 1.288-3.458 1.288c-1.288 0-2.417-.439-3.388-1.316-.999-.905-1.498-1.988-1.498-3.248zm8.484 0c0-.57-.07-1.092-.21-1.568a3.667 3.667 0 0 0-.728-1.33 3.422 3.422 0 0 0-1.176-.938 3.21 3.21 0 0 0-1.456-.336c-.551 0-1.069.112-1.554.336a3.333 3.333 0 0 0-1.204.952 3.849 3.849 0 0 0-.686 1.33 5.582 5.582 0 0 0-.21 1.554c0 .56.07 1.092.21 1.596.149.495.392.943.728 1.344.336.392.737.695 1.204.91.476.215.98.322 1.512.322.523 0 1.017-.117 1.484-.35a3.548 3.548 0 0 0 1.19-.966c.327-.41.555-.854.686-1.33.14-.476.21-.985.21-1.526zm8.442.742-1.652 3.514a.958.958 0 0 1-.098.224c-.047.056-.098.084-.154.084-.056 0-.108-.047-.154-.14a1.222 1.222 0 0 1-.084-.168l-3.304-7.112c-.066-.14-.131-.285-.196-.434-.103-.224-.192-.373-.266-.448a.55.55 0 0 0-.252-.168 1.04 1.04 0 0 0-.322-.042c-.224 0-.336-.07-.336-.21 0-.112.074-.168.224-.168.149 0 .373.01.672.028.298.019.532.028.7.028.158 0 .415-.01.77-.028.364-.019.555-.028.574-.028.168 0 .252.065.252.196 0 .084-.028.135-.084.154a.771.771 0 0 1-.252.028c-.159 0-.29.019-.392.056-.103.037-.154.121-.154.252 0 .103.028.224.084.364.065.14.112.238.14.294l2.786 6.006 1.022-2.184c.037-.084.074-.173.112-.266a.836.836 0 0 0 .056-.28c0-.112-.047-.28-.14-.504a2.711 2.711 0 0 1-.14-.308l-1.162-2.506a7.283 7.283 0 0 0-.294-.588c-.15-.224-.327-.336-.532-.336h-.168c-.168 0-.252-.06-.252-.182 0-.13.07-.196.21-.196.149 0 .406.01.77.028.373.019.574.028.602.028.158 0 .415-.01.77-.028.364-.019.555-.028.574-.028.158 0 .238.07.238.21 0 .084-.042.135-.126.154-.075.01-.178.014-.308.014a.692.692 0 0 0-.336.07c-.084.047-.126.13-.126.252 0 .065.023.163.07.294l.154.364.896 1.96.924-1.974c.028-.075.074-.191.14-.35.065-.159.098-.27.098-.336 0-.084-.047-.15-.14-.196a.473.473 0 0 0-.266-.084c-.262 0-.392-.056-.392-.168 0-.14.088-.21.266-.21.112 0 .28.01.504.028.224.019.392.028.504.028.112 0 .28-.01.504-.028.224-.019.392-.028.504-.028.121 0 .182.06.182.182 0 .093-.033.15-.098.168a1.227 1.227 0 0 1-.308.028c-.299 0-.546.126-.742.378-.084.112-.22.373-.406.784l-.644 1.344c-.15.308-.234.495-.252.56a1.02 1.02 0 0 0-.07.336c0 .084.014.168.042.252.028.084.102.252.224.504l1.19 2.688 2.38-5.754c.046-.103.093-.229.14-.378.046-.15.07-.266.07-.35 0-.168-.066-.27-.196-.308a1.793 1.793 0 0 0-.504-.056c-.159 0-.238-.065-.238-.196 0-.121.079-.182.238-.182.112 0 .308.01.588.028.28.019.429.028.448.028.112 0 .28-.01.504-.028a6.68 6.68 0 0 1 .518-.028c.158 0 .238.07.238.21 0 .112-.126.168-.378.168-.103 0-.192.01-.266.028-.066.019-.145.08-.238.182a1.699 1.699 0 0 0-.266.42c-.084.177-.164.355-.238.532l-2.912 7.028a1.33 1.33 0 0 1-.07.168c-.028.065-.075.098-.14.098-.066 0-.131-.06-.196-.182l-.126-.252-1.512-3.332zm13.911 1.848V6.51c0-.345-.052-.574-.154-.686-.103-.112-.36-.168-.77-.168-.234 0-.35-.051-.35-.154 0-.15.084-.224.252-.224.14 0 .373.01.7.028.326.019.504.028.532.028.149 0 .382-.01.7-.028.326-.019.499-.028.518-.028.158 0 .238.075.238.224 0 .056-.028.098-.084.126a.899.899 0 0 1-.28.028c-.439 0-.71.084-.812.252-.066.112-.098.415-.098.91v7.112c0 .177-.033.266-.098.266-.066 0-.136-.042-.21-.126a23.248 23.248 0 0 1-.14-.21l-5.88-7.644v6.328c0 .513.028.817.084.91.093.168.368.252.826.252.233 0 .35.047.35.14 0 .14-.08.21-.238.21-.14 0-.374-.01-.7-.028a26.285 26.285 0 0 0-.532-.028c-.131 0-.332.01-.602.028a9.702 9.702 0 0 1-.616.028c-.168 0-.252-.07-.252-.21 0-.093.074-.14.224-.14h.14c.532 0 .826-.13.882-.392.018-.084.028-.34.028-.77V6.51c0-.355-.042-.579-.126-.672-.112-.121-.374-.182-.784-.182-.234 0-.35-.051-.35-.154 0-.084.032-.14.098-.168a.523.523 0 0 1 .238-.056h1.736c.13.028.242.089.336.182.018.019.098.121.238.308l4.956 6.426z" fill="#fff"/><circle cx="422.5" cy="10" r="3.5" fill="#4C465A"/><path d="m450.486 9.996-.714-.308c-.644-.28-1.111-.555-1.4-.826a1.896 1.896 0 0 1-.63-1.442c0-.71.266-1.279.798-1.708.541-.439 1.176-.658 1.904-.658.308 0 .63.028.966.084.345.047.649.121.91.224.121.047.191.107.21.182a.941.941 0 0 1 .042.336l.056 1.092c0 .112-.051.168-.154.168-.065 0-.117-.047-.154-.14a4.374 4.374 0 0 1-.07-.182c-.168-.513-.373-.882-.616-1.106-.28-.252-.681-.378-1.204-.378-.495 0-.919.13-1.274.392-.355.252-.532.62-.532 1.106 0 .513.294.961.882 1.344.205.13.728.378 1.568.742.289.13.537.257.742.378.28.159.495.322.644.49.205.233.369.495.49.784a2.2 2.2 0 0 1 .182.882c0 .383-.089.747-.266 1.092-.177.345-.42.644-.728.896a2.95 2.95 0 0 1-1.022.56 4.171 4.171 0 0 1-1.204.168c-.355 0-.723-.051-1.106-.154a3.773 3.773 0 0 1-1.008-.392.405.405 0 0 1-.168-.21 1.892 1.892 0 0 1-.028-.364v-.728c0-.168.009-.327.028-.476.019-.15.047-.247.084-.294a.172.172 0 0 1 .14-.07c.084 0 .135.051.154.154.019.103.033.205.042.308.075.616.28 1.097.616 1.442.336.345.817.518 1.442.518.56 0 1.045-.168 1.456-.504.42-.336.63-.775.63-1.316 0-.523-.163-.957-.49-1.302-.261-.28-.667-.541-1.218-.784zm11.035-3.85.098.91c0 .121-.052.182-.154.182a3.992 3.992 0 0 0-.938-1.218c-.43-.383-.999-.574-1.708-.574-1.111 0-1.988.42-2.632 1.26-.588.765-.882 1.717-.882 2.856 0 1.027.289 1.941.868 2.744.345.476.732.845 1.162 1.106.438.252.933.378 1.484.378.7 0 1.269-.229 1.708-.686l1.008-1.512c.121 0 .172.06.154.182l-.07 1.134c0 .224-.019.364-.056.42-.038.056-.168.14-.392.252a5.885 5.885 0 0 1-2.534.588c-1.27 0-2.352-.448-3.248-1.344-.887-.905-1.33-1.988-1.33-3.248 0-1.27.48-2.338 1.442-3.206a4.93 4.93 0 0 1 3.416-1.316 6.8 6.8 0 0 1 1.106.112 6.67 6.67 0 0 1 1.106.266c.196.065.312.182.35.35 0 .019.014.14.042.364zm2.111 6.398V6.51c0-.355-.042-.579-.126-.672-.112-.121-.373-.182-.784-.182-.233 0-.35-.056-.35-.168 0-.14.084-.21.252-.21.15 0 .406.01.77.028.374.019.574.028.602.028.28 0 .738-.01 1.372-.028.644-.019.985-.028 1.022-.028.738 0 1.344.168 1.82.504.551.383.826.924.826 1.624a1.93 1.93 0 0 1-.672 1.498c-.41.364-.924.588-1.54.672.196.028.369.145.518.35.066.084.178.275.336.574l1.134 2.184c.206.401.336.635.392.7a.85.85 0 0 0 .686.322c.122 0 .21.01.266.028.066.019.098.075.098.168 0 .103-.084.154-.252.154h-1.484a.348.348 0 0 1-.294-.154c-.028-.028-.088-.135-.182-.322l-1.372-2.73c-.27-.523-.457-.826-.56-.91-.158-.121-.49-.182-.994-.182-.168 0-.27.023-.308.07-.037.047-.06.145-.07.294v2.422c0 .513.028.817.084.91.103.168.378.252.826.252.112 0 .201.01.266.028.066.019.098.065.098.14 0 .121-.079.182-.238.182-.186 0-.49-.01-.91-.028-.41-.019-.63-.028-.658-.028-.177 0-.48.01-.91.028-.429.019-.658.028-.686.028-.158 0-.238-.06-.238-.182 0-.084.028-.13.084-.14.066-.019.154-.028.266-.028.532 0 .826-.13.882-.392.019-.084.028-.34.028-.77zm1.106-5.852v2.506c0 .093.038.163.112.21a.758.758 0 0 0 .308.056c.14-.01.238-.014.294-.014.392 0 .719-.028.98-.084a1.86 1.86 0 0 0 .742-.35c.234-.187.402-.401.504-.644.112-.252.168-.523.168-.812 0-.635-.177-1.125-.532-1.47-.354-.345-.849-.518-1.484-.518-.513 0-.826.06-.938.182-.102.112-.154.425-.154.938zm5.723 2.912c0-1.25.49-2.32 1.47-3.206.99-.896 2.128-1.344 3.416-1.344 1.354 0 2.502.43 3.444 1.288.952.85 1.428 1.937 1.428 3.262s-.471 2.417-1.414 3.276c-.942.859-2.095 1.288-3.458 1.288-1.288 0-2.417-.439-3.388-1.316-.998-.905-1.498-1.988-1.498-3.248zm8.484 0c0-.57-.07-1.092-.21-1.568a3.652 3.652 0 0 0-.728-1.33 3.422 3.422 0 0 0-1.176-.938 3.21 3.21 0 0 0-1.456-.336c-.55 0-1.068.112-1.554.336a3.333 3.333 0 0 0-1.204.952 3.849 3.849 0 0 0-.686 1.33 5.582 5.582 0 0 0-.21 1.554c0 .56.07 1.092.21 1.596.15.495.392.943.728 1.344.336.392.738.695 1.204.91.476.215.98.322 1.512.322.523 0 1.018-.117 1.484-.35a3.548 3.548 0 0 0 1.19-.966c.327-.41.556-.854.686-1.33.14-.476.21-.985.21-1.526zm4.424-2.8v5.306c0 .607.056.999.168 1.176.168.261.541.392 1.12.392.299 0 .579-.033.84-.098.271-.075.504-.196.7-.364.14-.112.28-.29.42-.532.112-.187.215-.397.308-.63.047-.121.103-.182.168-.182.084 0 .126.065.126.196 0 .14-.028.392-.084.756-.047.355-.07.588-.07.7 0 .233-.014.383-.042.448-.028.056-.135.084-.322.084-.467 0-1.246-.01-2.338-.028a369.987 369.987 0 0 0-1.722-.028c-.159 0-.392.01-.7.028-.308.019-.541.028-.7.028-.159 0-.238-.065-.238-.196 0-.121.121-.182.364-.182.448 0 .719-.08.812-.238.056-.093.084-.397.084-.91V6.496c0-.345-.042-.565-.126-.658-.112-.121-.373-.182-.784-.182-.233 0-.35-.06-.35-.182 0-.13.079-.196.238-.196.187 0 .485.01.896.028.42.019.644.028.672.028.177 0 .481-.01.91-.028.429-.019.658-.028.686-.028.159 0 .238.065.238.196 0 .075-.037.126-.112.154a.936.936 0 0 1-.252.028c-.401 0-.653.056-.756.168-.103.112-.154.336-.154.672v.308zm6.527 0v5.306c0 .607.056.999.168 1.176.168.261.541.392 1.12.392.298 0 .578-.033.84-.098.27-.075.504-.196.7-.364.14-.112.28-.29.42-.532.112-.187.214-.397.308-.63.046-.121.102-.182.168-.182.084 0 .126.065.126.196 0 .14-.028.392-.084.756-.047.355-.07.588-.07.7 0 .233-.014.383-.042.448-.028.056-.136.084-.322.084-.467 0-1.246-.01-2.338-.028a369.987 369.987 0 0 0-1.722-.028c-.159 0-.392.01-.7.028-.308.019-.542.028-.7.028-.159 0-.238-.065-.238-.196 0-.121.121-.182.364-.182.448 0 .718-.08.812-.238.056-.093.084-.397.084-.91V6.496c0-.345-.042-.565-.126-.658-.112-.121-.374-.182-.784-.182-.234 0-.35-.06-.35-.182 0-.13.079-.196.238-.196.186 0 .485.01.896.028.42.019.644.028.672.028.177 0 .48-.01.91-.028.429-.019.658-.028.686-.028.158 0 .238.065.238.196 0 .075-.038.126-.112.154a.946.946 0 0 1-.252.028c-.402 0-.654.056-.756.168-.103.112-.154.336-.154.672v.308zm9.761 5.698V6.384c0-.205-.024-.355-.07-.448-.075-.14-.206-.21-.392-.21-.103 0-.215.019-.336.056-.112.028-.234.06-.364.098-.103 0-.154-.051-.154-.154 0-.215.527-.378 1.582-.49 1.054-.121 1.866-.182 2.436-.182.672 0 1.311.089 1.918.266a4.89 4.89 0 0 1 1.694.84c.522.392.942.891 1.26 1.498.326.607.49 1.237.49 1.89 0 .644-.131 1.26-.392 1.848a4.415 4.415 0 0 1-1.12 1.526 4.2 4.2 0 0 1-1.624.882 7.395 7.395 0 0 1-2.002.252c-.355 0-.948-.01-1.778-.028-.831-.019-1.265-.028-1.302-.028-.103 0-.276.01-.518.028l-.364.028c-.159 0-.238-.065-.238-.196 0-.075.032-.117.098-.126.065-.019.154-.028.266-.028.522 0 .816-.14.882-.42.018-.084.028-.345.028-.784zm1.106-6.062v5.81c0 .625.093 1.04.28 1.246.196.196.602.294 1.218.294.662 0 1.204-.07 1.624-.21a3.25 3.25 0 0 0 1.372-.868c.401-.42.7-.887.896-1.4a4.627 4.627 0 0 0 .294-1.638c0-1.297-.402-2.338-1.204-3.122-.803-.784-1.844-1.176-3.122-1.176-.28 0-.528.014-.742.042-.206.028-.355.089-.448.182a.548.548 0 0 0-.154.322c-.01.13-.014.303-.014.518zm7.923 3.164c0-1.25.49-2.32 1.47-3.206.989-.896 2.128-1.344 3.416-1.344 1.353 0 2.501.43 3.444 1.288.952.85 1.428 1.937 1.428 3.262s-.471 2.417-1.414 3.276-2.095 1.288-3.458 1.288c-1.288 0-2.417-.439-3.388-1.316-.999-.905-1.498-1.988-1.498-3.248zm8.484 0c0-.57-.07-1.092-.21-1.568a3.667 3.667 0 0 0-.728-1.33 3.422 3.422 0 0 0-1.176-.938 3.21 3.21 0 0 0-1.456-.336c-.551 0-1.069.112-1.554.336a3.333 3.333 0 0 0-1.204.952 3.849 3.849 0 0 0-.686 1.33 5.582 5.582 0 0 0-.21 1.554c0 .56.07 1.092.21 1.596.149.495.392.943.728 1.344.336.392.737.695 1.204.91.476.215.98.322 1.512.322.523 0 1.017-.117 1.484-.35a3.548 3.548 0 0 0 1.19-.966c.327-.41.555-.854.686-1.33.14-.476.21-.985.21-1.526zm8.442.742-1.652 3.514a.958.958 0 0 1-.098.224c-.047.056-.098.084-.154.084-.056 0-.108-.047-.154-.14a1.222 1.222 0 0 1-.084-.168l-3.304-7.112c-.066-.14-.131-.285-.196-.434-.103-.224-.192-.373-.266-.448a.55.55 0 0 0-.252-.168 1.04 1.04 0 0 0-.322-.042c-.224 0-.336-.07-.336-.21 0-.112.074-.168.224-.168.149 0 .373.01.672.028.298.019.532.028.7.028.158 0 .415-.01.77-.028.364-.019.555-.028.574-.028.168 0 .252.065.252.196 0 .084-.028.135-.084.154a.771.771 0 0 1-.252.028c-.159 0-.29.019-.392.056-.103.037-.154.121-.154.252 0 .103.028.224.084.364.065.14.112.238.14.294l2.786 6.006 1.022-2.184c.037-.084.074-.173.112-.266a.836.836 0 0 0 .056-.28c0-.112-.047-.28-.14-.504a2.711 2.711 0 0 1-.14-.308l-1.162-2.506a7.283 7.283 0 0 0-.294-.588c-.15-.224-.327-.336-.532-.336h-.168c-.168 0-.252-.06-.252-.182 0-.13.07-.196.21-.196.149 0 .406.01.77.028.373.019.574.028.602.028.158 0 .415-.01.77-.028.364-.019.555-.028.574-.028.158 0 .238.07.238.21 0 .084-.042.135-.126.154-.075.01-.178.014-.308.014a.692.692 0 0 0-.336.07c-.084.047-.126.13-.126.252 0 .065.023.163.07.294l.154.364.896 1.96.924-1.974c.028-.075.074-.191.14-.35.065-.159.098-.27.098-.336 0-.084-.047-.15-.14-.196a.473.473 0 0 0-.266-.084c-.262 0-.392-.056-.392-.168 0-.14.088-.21.266-.21.112 0 .28.01.504.028.224.019.392.028.504.028.112 0 .28-.01.504-.028.224-.019.392-.028.504-.028.121 0 .182.06.182.182 0 .093-.033.15-.098.168a1.227 1.227 0 0 1-.308.028c-.299 0-.546.126-.742.378-.084.112-.22.373-.406.784l-.644 1.344c-.15.308-.234.495-.252.56a1.02 1.02 0 0 0-.07.336c0 .084.014.168.042.252.028.084.102.252.224.504l1.19 2.688 2.38-5.754c.046-.103.093-.229.14-.378.046-.15.07-.266.07-.35 0-.168-.066-.27-.196-.308a1.793 1.793 0 0 0-.504-.056c-.159 0-.238-.065-.238-.196 0-.121.079-.182.238-.182.112 0 .308.01.588.028.28.019.429.028.448.028.112 0 .28-.01.504-.028a6.68 6.68 0 0 1 .518-.028c.158 0 .238.07.238.21 0 .112-.126.168-.378.168-.103 0-.192.01-.266.028-.066.019-.145.08-.238.182a1.699 1.699 0 0 0-.266.42c-.084.177-.164.355-.238.532l-2.912 7.028a1.33 1.33 0 0 1-.07.168c-.028.065-.075.098-.14.098-.066 0-.131-.06-.196-.182l-.126-.252-1.512-3.332zm13.911 1.848V6.51c0-.345-.052-.574-.154-.686-.103-.112-.36-.168-.77-.168-.234 0-.35-.051-.35-.154 0-.15.084-.224.252-.224.14 0 .373.01.7.028.326.019.504.028.532.028.149 0 .382-.01.7-.028.326-.019.499-.028.518-.028.158 0 .238.075.238.224 0 .056-.028.098-.084.126a.899.899 0 0 1-.28.028c-.439 0-.71.084-.812.252-.066.112-.098.415-.098.91v7.112c0 .177-.033.266-.098.266-.066 0-.136-.042-.21-.126a23.248 23.248 0 0 1-.14-.21l-5.88-7.644v6.328c0 .513.028.817.084.91.093.168.368.252.826.252.233 0 .35.047.35.14 0 .14-.08.21-.238.21-.14 0-.374-.01-.7-.028a26.285 26.285 0 0 0-.532-.028c-.131 0-.332.01-.602.028a9.702 9.702 0 0 1-.616.028c-.168 0-.252-.07-.252-.21 0-.093.074-.14.224-.14h.14c.532 0 .826-.13.882-.392.018-.084.028-.34.028-.77V6.51c0-.355-.042-.579-.126-.672-.112-.121-.374-.182-.784-.182-.234 0-.35-.051-.35-.154 0-.084.032-.14.098-.168a.523.523 0 0 1 .238-.056h1.736c.13.028.242.089.336.182.018.019.098.121.238.308l4.956 6.426z" fill="#fff"/><circle cx="571.5" cy="10" r="3.5" fill="#4C465A"/><path d="m599.486 9.996-.714-.308c-.644-.28-1.111-.555-1.4-.826a1.896 1.896 0 0 1-.63-1.442c0-.71.266-1.279.798-1.708.541-.439 1.176-.658 1.904-.658.308 0 .63.028.966.084.345.047.649.121.91.224.121.047.191.107.21.182a.941.941 0 0 1 .042.336l.056 1.092c0 .112-.051.168-.154.168-.065 0-.117-.047-.154-.14a4.374 4.374 0 0 1-.07-.182c-.168-.513-.373-.882-.616-1.106-.28-.252-.681-.378-1.204-.378-.495 0-.919.13-1.274.392-.355.252-.532.62-.532 1.106 0 .513.294.961.882 1.344.205.13.728.378 1.568.742.289.13.537.257.742.378.28.159.495.322.644.49.205.233.369.495.49.784a2.2 2.2 0 0 1 .182.882c0 .383-.089.747-.266 1.092-.177.345-.42.644-.728.896a2.95 2.95 0 0 1-1.022.56 4.171 4.171 0 0 1-1.204.168c-.355 0-.723-.051-1.106-.154a3.773 3.773 0 0 1-1.008-.392.405.405 0 0 1-.168-.21 1.892 1.892 0 0 1-.028-.364v-.728c0-.168.009-.327.028-.476.019-.15.047-.247.084-.294a.172.172 0 0 1 .14-.07c.084 0 .135.051.154.154.019.103.033.205.042.308.075.616.28 1.097.616 1.442.336.345.817.518 1.442.518.56 0 1.045-.168 1.456-.504.42-.336.63-.775.63-1.316 0-.523-.163-.957-.49-1.302-.261-.28-.667-.541-1.218-.784zm11.035-3.85.098.91c0 .121-.052.182-.154.182a3.992 3.992 0 0 0-.938-1.218c-.43-.383-.999-.574-1.708-.574-1.111 0-1.988.42-2.632 1.26-.588.765-.882 1.717-.882 2.856 0 1.027.289 1.941.868 2.744.345.476.732.845 1.162 1.106.438.252.933.378 1.484.378.7 0 1.269-.229 1.708-.686l1.008-1.512c.121 0 .172.06.154.182l-.07 1.134c0 .224-.019.364-.056.42-.038.056-.168.14-.392.252a5.885 5.885 0 0 1-2.534.588c-1.27 0-2.352-.448-3.248-1.344-.887-.905-1.33-1.988-1.33-3.248 0-1.27.48-2.338 1.442-3.206a4.93 4.93 0 0 1 3.416-1.316 6.8 6.8 0 0 1 1.106.112 6.67 6.67 0 0 1 1.106.266c.196.065.312.182.35.35 0 .019.014.14.042.364zm2.111 6.398V6.51c0-.355-.042-.579-.126-.672-.112-.121-.373-.182-.784-.182-.233 0-.35-.056-.35-.168 0-.14.084-.21.252-.21.15 0 .406.01.77.028.374.019.574.028.602.028.28 0 .738-.01 1.372-.028.644-.019.985-.028 1.022-.028.738 0 1.344.168 1.82.504.551.383.826.924.826 1.624a1.93 1.93 0 0 1-.672 1.498c-.41.364-.924.588-1.54.672.196.028.369.145.518.35.066.084.178.275.336.574l1.134 2.184c.206.401.336.635.392.7a.85.85 0 0 0 .686.322c.122 0 .21.01.266.028.066.019.098.075.098.168 0 .103-.084.154-.252.154h-1.484a.348.348 0 0 1-.294-.154c-.028-.028-.088-.135-.182-.322l-1.372-2.73c-.27-.523-.457-.826-.56-.91-.158-.121-.49-.182-.994-.182-.168 0-.27.023-.308.07-.037.047-.06.145-.07.294v2.422c0 .513.028.817.084.91.103.168.378.252.826.252.112 0 .201.01.266.028.066.019.098.065.098.14 0 .121-.079.182-.238.182-.186 0-.49-.01-.91-.028-.41-.019-.63-.028-.658-.028-.177 0-.48.01-.91.028-.429.019-.658.028-.686.028-.158 0-.238-.06-.238-.182 0-.084.028-.13.084-.14.066-.019.154-.028.266-.028.532 0 .826-.13.882-.392.019-.084.028-.34.028-.77zm1.106-5.852v2.506c0 .093.038.163.112.21a.758.758 0 0 0 .308.056c.14-.01.238-.014.294-.014.392 0 .719-.028.98-.084a1.86 1.86 0 0 0 .742-.35c.234-.187.402-.401.504-.644.112-.252.168-.523.168-.812 0-.635-.177-1.125-.532-1.47-.354-.345-.849-.518-1.484-.518-.513 0-.826.06-.938.182-.102.112-.154.425-.154.938zm5.723 2.912c0-1.25.49-2.32 1.47-3.206.99-.896 2.128-1.344 3.416-1.344 1.354 0 2.502.43 3.444 1.288.952.85 1.428 1.937 1.428 3.262s-.471 2.417-1.414 3.276c-.942.859-2.095 1.288-3.458 1.288-1.288 0-2.417-.439-3.388-1.316-.998-.905-1.498-1.988-1.498-3.248zm8.484 0c0-.57-.07-1.092-.21-1.568a3.652 3.652 0 0 0-.728-1.33 3.422 3.422 0 0 0-1.176-.938 3.21 3.21 0 0 0-1.456-.336c-.55 0-1.068.112-1.554.336a3.333 3.333 0 0 0-1.204.952 3.849 3.849 0 0 0-.686 1.33 5.582 5.582 0 0 0-.21 1.554c0 .56.07 1.092.21 1.596.15.495.392.943.728 1.344.336.392.738.695 1.204.91.476.215.98.322 1.512.322.523 0 1.018-.117 1.484-.35a3.548 3.548 0 0 0 1.19-.966c.327-.41.556-.854.686-1.33.14-.476.21-.985.21-1.526zm4.424-2.8v5.306c0 .607.056.999.168 1.176.168.261.541.392 1.12.392.299 0 .579-.033.84-.098.271-.075.504-.196.7-.364.14-.112.28-.29.42-.532.112-.187.215-.397.308-.63.047-.121.103-.182.168-.182.084 0 .126.065.126.196 0 .14-.028.392-.084.756-.047.355-.07.588-.07.7 0 .233-.014.383-.042.448-.028.056-.135.084-.322.084-.467 0-1.246-.01-2.338-.028a369.987 369.987 0 0 0-1.722-.028c-.159 0-.392.01-.7.028-.308.019-.541.028-.7.028-.159 0-.238-.065-.238-.196 0-.121.121-.182.364-.182.448 0 .719-.08.812-.238.056-.093.084-.397.084-.91V6.496c0-.345-.042-.565-.126-.658-.112-.121-.373-.182-.784-.182-.233 0-.35-.06-.35-.182 0-.13.079-.196.238-.196.187 0 .485.01.896.028.42.019.644.028.672.028.177 0 .481-.01.91-.028.429-.019.658-.028.686-.028.159 0 .238.065.238.196 0 .075-.037.126-.112.154a.936.936 0 0 1-.252.028c-.401 0-.653.056-.756.168-.103.112-.154.336-.154.672v.308zm6.527 0v5.306c0 .607.056.999.168 1.176.168.261.541.392 1.12.392.298 0 .578-.033.84-.098.27-.075.504-.196.7-.364.14-.112.28-.29.42-.532.112-.187.214-.397.308-.63.046-.121.102-.182.168-.182.084 0 .126.065.126.196 0 .14-.028.392-.084.756-.047.355-.07.588-.07.7 0 .233-.014.383-.042.448-.028.056-.136.084-.322.084-.467 0-1.246-.01-2.338-.028a369.987 369.987 0 0 0-1.722-.028c-.159 0-.392.01-.7.028-.308.019-.542.028-.7.028-.159 0-.238-.065-.238-.196 0-.121.121-.182.364-.182.448 0 .718-.08.812-.238.056-.093.084-.397.084-.91V6.496c0-.345-.042-.565-.126-.658-.112-.121-.374-.182-.784-.182-.234 0-.35-.06-.35-.182 0-.13.079-.196.238-.196.186 0 .485.01.896.028.42.019.644.028.672.028.177 0 .48-.01.91-.028.429-.019.658-.028.686-.028.158 0 .238.065.238.196 0 .075-.038.126-.112.154a.946.946 0 0 1-.252.028c-.402 0-.654.056-.756.168-.103.112-.154.336-.154.672v.308zm9.761 5.698V6.384c0-.205-.024-.355-.07-.448-.075-.14-.206-.21-.392-.21-.103 0-.215.019-.336.056-.112.028-.234.06-.364.098-.103 0-.154-.051-.154-.154 0-.215.527-.378 1.582-.49 1.054-.121 1.866-.182 2.436-.182.672 0 1.311.089 1.918.266a4.89 4.89 0 0 1 1.694.84c.522.392.942.891 1.26 1.498.326.607.49 1.237.49 1.89 0 .644-.131 1.26-.392 1.848a4.415 4.415 0 0 1-1.12 1.526 4.2 4.2 0 0 1-1.624.882 7.395 7.395 0 0 1-2.002.252c-.355 0-.948-.01-1.778-.028-.831-.019-1.265-.028-1.302-.028-.103 0-.276.01-.518.028l-.364.028c-.159 0-.238-.065-.238-.196 0-.075.032-.117.098-.126.065-.019.154-.028.266-.028.522 0 .816-.14.882-.42.018-.084.028-.345.028-.784zm1.106-6.062v5.81c0 .625.093 1.04.28 1.246.196.196.602.294 1.218.294.662 0 1.204-.07 1.624-.21a3.25 3.25 0 0 0 1.372-.868c.401-.42.7-.887.896-1.4a4.627 4.627 0 0 0 .294-1.638c0-1.297-.402-2.338-1.204-3.122-.803-.784-1.844-1.176-3.122-1.176-.28 0-.528.014-.742.042-.206.028-.355.089-.448.182a.548.548 0 0 0-.154.322c-.01.13-.014.303-.014.518zm7.923 3.164c0-1.25.49-2.32 1.47-3.206.989-.896 2.128-1.344 3.416-1.344 1.353 0 2.501.43 3.444 1.288.952.85 1.428 1.937 1.428 3.262s-.471 2.417-1.414 3.276-2.095 1.288-3.458 1.288c-1.288 0-2.417-.439-3.388-1.316-.999-.905-1.498-1.988-1.498-3.248zm8.484 0c0-.57-.07-1.092-.21-1.568a3.667 3.667 0 0 0-.728-1.33 3.422 3.422 0 0 0-1.176-.938 3.21 3.21 0 0 0-1.456-.336c-.551 0-1.069.112-1.554.336a3.333 3.333 0 0 0-1.204.952 3.849 3.849 0 0 0-.686 1.33 5.582 5.582 0 0 0-.21 1.554c0 .56.07 1.092.21 1.596.149.495.392.943.728 1.344.336.392.737.695 1.204.91.476.215.98.322 1.512.322.523 0 1.017-.117 1.484-.35a3.548 3.548 0 0 0 1.19-.966c.327-.41.555-.854.686-1.33.14-.476.21-.985.21-1.526zm8.442.742-1.652 3.514a.958.958 0 0 1-.098.224c-.047.056-.098.084-.154.084-.056 0-.108-.047-.154-.14a1.222 1.222 0 0 1-.084-.168l-3.304-7.112c-.066-.14-.131-.285-.196-.434-.103-.224-.192-.373-.266-.448a.55.55 0 0 0-.252-.168 1.04 1.04 0 0 0-.322-.042c-.224 0-.336-.07-.336-.21 0-.112.074-.168.224-.168.149 0 .373.01.672.028.298.019.532.028.7.028.158 0 .415-.01.77-.028.364-.019.555-.028.574-.028.168 0 .252.065.252.196 0 .084-.028.135-.084.154a.771.771 0 0 1-.252.028c-.159 0-.29.019-.392.056-.103.037-.154.121-.154.252 0 .103.028.224.084.364.065.14.112.238.14.294l2.786 6.006 1.022-2.184c.037-.084.074-.173.112-.266a.836.836 0 0 0 .056-.28c0-.112-.047-.28-.14-.504a2.711 2.711 0 0 1-.14-.308l-1.162-2.506a7.283 7.283 0 0 0-.294-.588c-.15-.224-.327-.336-.532-.336h-.168c-.168 0-.252-.06-.252-.182 0-.13.07-.196.21-.196.149 0 .406.01.77.028.373.019.574.028.602.028.158 0 .415-.01.77-.028.364-.019.555-.028.574-.028.158 0 .238.07.238.21 0 .084-.042.135-.126.154-.075.01-.178.014-.308.014a.692.692 0 0 0-.336.07c-.084.047-.126.13-.126.252 0 .065.023.163.07.294l.154.364.896 1.96.924-1.974c.028-.075.074-.191.14-.35.065-.159.098-.27.098-.336 0-.084-.047-.15-.14-.196a.473.473 0 0 0-.266-.084c-.262 0-.392-.056-.392-.168 0-.14.088-.21.266-.21.112 0 .28.01.504.028.224.019.392.028.504.028.112 0 .28-.01.504-.028.224-.019.392-.028.504-.028.121 0 .182.06.182.182 0 .093-.033.15-.098.168a1.227 1.227 0 0 1-.308.028c-.299 0-.546.126-.742.378-.084.112-.22.373-.406.784l-.644 1.344c-.15.308-.234.495-.252.56a1.02 1.02 0 0 0-.07.336c0 .084.014.168.042.252.028.084.102.252.224.504l1.19 2.688 2.38-5.754c.046-.103.093-.229.14-.378.046-.15.07-.266.07-.35 0-.168-.066-.27-.196-.308a1.793 1.793 0 0 0-.504-.056c-.159 0-.238-.065-.238-.196 0-.121.079-.182.238-.182.112 0 .308.01.588.028.28.019.429.028.448.028.112 0 .28-.01.504-.028a6.68 6.68 0 0 1 .518-.028c.158 0 .238.07.238.21 0 .112-.126.168-.378.168-.103 0-.192.01-.266.028-.066.019-.145.08-.238.182a1.699 1.699 0 0 0-.266.42c-.084.177-.164.355-.238.532l-2.912 7.028a1.33 1.33 0 0 1-.07.168c-.028.065-.075.098-.14.098-.066 0-.131-.06-.196-.182l-.126-.252-1.512-3.332zm13.911 1.848V6.51c0-.345-.052-.574-.154-.686-.103-.112-.36-.168-.77-.168-.234 0-.35-.051-.35-.154 0-.15.084-.224.252-.224.14 0 .373.01.7.028.326.019.504.028.532.028.149 0 .382-.01.7-.028.326-.019.499-.028.518-.028.158 0 .238.075.238.224 0 .056-.028.098-.084.126a.899.899 0 0 1-.28.028c-.439 0-.71.084-.812.252-.066.112-.098.415-.098.91v7.112c0 .177-.033.266-.098.266-.066 0-.136-.042-.21-.126a23.248 23.248 0 0 1-.14-.21l-5.88-7.644v6.328c0 .513.028.817.084.91.093.168.368.252.826.252.233 0 .35.047.35.14 0 .14-.08.21-.238.21-.14 0-.374-.01-.7-.028a26.285 26.285 0 0 0-.532-.028c-.131 0-.332.01-.602.028a9.702 9.702 0 0 1-.616.028c-.168 0-.252-.07-.252-.21 0-.093.074-.14.224-.14h.14c.532 0 .826-.13.882-.392.018-.084.028-.34.028-.77V6.51c0-.355-.042-.579-.126-.672-.112-.121-.374-.182-.784-.182-.234 0-.35-.051-.35-.154 0-.084.032-.14.098-.168a.523.523 0 0 1 .238-.056h1.736c.13.028.242.089.336.182.018.019.098.121.238.308l4.956 6.426z" fill="#fff"/><circle cx="719.5" cy="10" r="3.5" fill="#4C465A"/><path d="m747.486 9.996-.714-.308c-.644-.28-1.111-.555-1.4-.826a1.896 1.896 0 0 1-.63-1.442c0-.71.266-1.279.798-1.708.541-.439 1.176-.658 1.904-.658.308 0 .63.028.966.084.345.047.649.121.91.224.121.047.191.107.21.182a.941.941 0 0 1 .042.336l.056 1.092c0 .112-.051.168-.154.168-.065 0-.117-.047-.154-.14a4.374 4.374 0 0 1-.07-.182c-.168-.513-.373-.882-.616-1.106-.28-.252-.681-.378-1.204-.378-.495 0-.919.13-1.274.392-.355.252-.532.62-.532 1.106 0 .513.294.961.882 1.344.205.13.728.378 1.568.742.289.13.537.257.742.378.28.159.495.322.644.49.205.233.369.495.49.784a2.2 2.2 0 0 1 .182.882c0 .383-.089.747-.266 1.092-.177.345-.42.644-.728.896a2.95 2.95 0 0 1-1.022.56 4.171 4.171 0 0 1-1.204.168c-.355 0-.723-.051-1.106-.154a3.773 3.773 0 0 1-1.008-.392.405.405 0 0 1-.168-.21 1.892 1.892 0 0 1-.028-.364v-.728c0-.168.009-.327.028-.476.019-.15.047-.247.084-.294a.172.172 0 0 1 .14-.07c.084 0 .135.051.154.154.019.103.033.205.042.308.075.616.28 1.097.616 1.442.336.345.817.518 1.442.518.56 0 1.045-.168 1.456-.504.42-.336.63-.775.63-1.316 0-.523-.163-.957-.49-1.302-.261-.28-.667-.541-1.218-.784zm11.035-3.85.098.91c0 .121-.052.182-.154.182a3.992 3.992 0 0 0-.938-1.218c-.43-.383-.999-.574-1.708-.574-1.111 0-1.988.42-2.632 1.26-.588.765-.882 1.717-.882 2.856 0 1.027.289 1.941.868 2.744.345.476.732.845 1.162 1.106.438.252.933.378 1.484.378.7 0 1.269-.229 1.708-.686l1.008-1.512c.121 0 .172.06.154.182l-.07 1.134c0 .224-.019.364-.056.42-.038.056-.168.14-.392.252a5.885 5.885 0 0 1-2.534.588c-1.27 0-2.352-.448-3.248-1.344-.887-.905-1.33-1.988-1.33-3.248 0-1.27.48-2.338 1.442-3.206a4.93 4.93 0 0 1 3.416-1.316 6.8 6.8 0 0 1 1.106.112 6.67 6.67 0 0 1 1.106.266c.196.065.312.182.35.35 0 .019.014.14.042.364zm2.111 6.398V6.51c0-.355-.042-.579-.126-.672-.112-.121-.373-.182-.784-.182-.233 0-.35-.056-.35-.168 0-.14.084-.21.252-.21.15 0 .406.01.77.028.374.019.574.028.602.028.28 0 .738-.01 1.372-.028.644-.019.985-.028 1.022-.028.738 0 1.344.168 1.82.504.551.383.826.924.826 1.624a1.93 1.93 0 0 1-.672 1.498c-.41.364-.924.588-1.54.672.196.028.369.145.518.35.066.084.178.275.336.574l1.134 2.184c.206.401.336.635.392.7a.85.85 0 0 0 .686.322c.122 0 .21.01.266.028.066.019.098.075.098.168 0 .103-.084.154-.252.154h-1.484a.348.348 0 0 1-.294-.154c-.028-.028-.088-.135-.182-.322l-1.372-2.73c-.27-.523-.457-.826-.56-.91-.158-.121-.49-.182-.994-.182-.168 0-.27.023-.308.07-.037.047-.06.145-.07.294v2.422c0 .513.028.817.084.91.103.168.378.252.826.252.112 0 .201.01.266.028.066.019.098.065.098.14 0 .121-.079.182-.238.182-.186 0-.49-.01-.91-.028-.41-.019-.63-.028-.658-.028-.177 0-.48.01-.91.028-.429.019-.658.028-.686.028-.158 0-.238-.06-.238-.182 0-.084.028-.13.084-.14.066-.019.154-.028.266-.028.532 0 .826-.13.882-.392.019-.084.028-.34.028-.77zm1.106-5.852v2.506c0 .093.038.163.112.21a.758.758 0 0 0 .308.056c.14-.01.238-.014.294-.014.392 0 .719-.028.98-.084a1.86 1.86 0 0 0 .742-.35c.234-.187.402-.401.504-.644.112-.252.168-.523.168-.812 0-.635-.177-1.125-.532-1.47-.354-.345-.849-.518-1.484-.518-.513 0-.826.06-.938.182-.102.112-.154.425-.154.938zm5.723 2.912c0-1.25.49-2.32 1.47-3.206.99-.896 2.128-1.344 3.416-1.344 1.354 0 2.502.43 3.444 1.288.952.85 1.428 1.937 1.428 3.262s-.471 2.417-1.414 3.276c-.942.859-2.095 1.288-3.458 1.288-1.288 0-2.417-.439-3.388-1.316-.998-.905-1.498-1.988-1.498-3.248zm8.484 0c0-.57-.07-1.092-.21-1.568a3.652 3.652 0 0 0-.728-1.33 3.422 3.422 0 0 0-1.176-.938 3.21 3.21 0 0 0-1.456-.336c-.55 0-1.068.112-1.554.336a3.333 3.333 0 0 0-1.204.952 3.849 3.849 0 0 0-.686 1.33 5.582 5.582 0 0 0-.21 1.554c0 .56.07 1.092.21 1.596.15.495.392.943.728 1.344.336.392.738.695 1.204.91.476.215.98.322 1.512.322.523 0 1.018-.117 1.484-.35a3.548 3.548 0 0 0 1.19-.966c.327-.41.556-.854.686-1.33.14-.476.21-.985.21-1.526zm4.424-2.8v5.306c0 .607.056.999.168 1.176.168.261.541.392 1.12.392.299 0 .579-.033.84-.098.271-.075.504-.196.7-.364.14-.112.28-.29.42-.532.112-.187.215-.397.308-.63.047-.121.103-.182.168-.182.084 0 .126.065.126.196 0 .14-.028.392-.084.756-.047.355-.07.588-.07.7 0 .233-.014.383-.042.448-.028.056-.135.084-.322.084-.467 0-1.246-.01-2.338-.028a369.987 369.987 0 0 0-1.722-.028c-.159 0-.392.01-.7.028-.308.019-.541.028-.7.028-.159 0-.238-.065-.238-.196 0-.121.121-.182.364-.182.448 0 .719-.08.812-.238.056-.093.084-.397.084-.91V6.496c0-.345-.042-.565-.126-.658-.112-.121-.373-.182-.784-.182-.233 0-.35-.06-.35-.182 0-.13.079-.196.238-.196.187 0 .485.01.896.028.42.019.644.028.672.028.177 0 .481-.01.91-.028.429-.019.658-.028.686-.028.159 0 .238.065.238.196 0 .075-.037.126-.112.154a.936.936 0 0 1-.252.028c-.401 0-.653.056-.756.168-.103.112-.154.336-.154.672v.308zm6.527 0v5.306c0 .607.056.999.168 1.176.168.261.541.392 1.12.392.298 0 .578-.033.84-.098.27-.075.504-.196.7-.364.14-.112.28-.29.42-.532.112-.187.214-.397.308-.63.046-.121.102-.182.168-.182.084 0 .126.065.126.196 0 .14-.028.392-.084.756-.047.355-.07.588-.07.7 0 .233-.014.383-.042.448-.028.056-.136.084-.322.084-.467 0-1.246-.01-2.338-.028a369.987 369.987 0 0 0-1.722-.028c-.159 0-.392.01-.7.028-.308.019-.542.028-.7.028-.159 0-.238-.065-.238-.196 0-.121.121-.182.364-.182.448 0 .718-.08.812-.238.056-.093.084-.397.084-.91V6.496c0-.345-.042-.565-.126-.658-.112-.121-.374-.182-.784-.182-.234 0-.35-.06-.35-.182 0-.13.079-.196.238-.196.186 0 .485.01.896.028.42.019.644.028.672.028.177 0 .48-.01.91-.028.429-.019.658-.028.686-.028.158 0 .238.065.238.196 0 .075-.038.126-.112.154a.946.946 0 0 1-.252.028c-.402 0-.654.056-.756.168-.103.112-.154.336-.154.672v.308zm9.761 5.698V6.384c0-.205-.024-.355-.07-.448-.075-.14-.206-.21-.392-.21-.103 0-.215.019-.336.056-.112.028-.234.06-.364.098-.103 0-.154-.051-.154-.154 0-.215.527-.378 1.582-.49 1.054-.121 1.866-.182 2.436-.182.672 0 1.311.089 1.918.266a4.89 4.89 0 0 1 1.694.84c.522.392.942.891 1.26 1.498.326.607.49 1.237.49 1.89 0 .644-.131 1.26-.392 1.848a4.415 4.415 0 0 1-1.12 1.526 4.2 4.2 0 0 1-1.624.882 7.395 7.395 0 0 1-2.002.252c-.355 0-.948-.01-1.778-.028-.831-.019-1.265-.028-1.302-.028-.103 0-.276.01-.518.028l-.364.028c-.159 0-.238-.065-.238-.196 0-.075.032-.117.098-.126.065-.019.154-.028.266-.028.522 0 .816-.14.882-.42.018-.084.028-.345.028-.784zm1.106-6.062v5.81c0 .625.093 1.04.28 1.246.196.196.602.294 1.218.294.662 0 1.204-.07 1.624-.21a3.25 3.25 0 0 0 1.372-.868c.401-.42.7-.887.896-1.4a4.627 4.627 0 0 0 .294-1.638c0-1.297-.402-2.338-1.204-3.122-.803-.784-1.844-1.176-3.122-1.176-.28 0-.528.014-.742.042-.206.028-.355.089-.448.182a.548.548 0 0 0-.154.322c-.01.13-.014.303-.014.518zm7.923 3.164c0-1.25.49-2.32 1.47-3.206.989-.896 2.128-1.344 3.416-1.344 1.353 0 2.501.43 3.444 1.288.952.85 1.428 1.937 1.428 3.262s-.471 2.417-1.414 3.276-2.095 1.288-3.458 1.288c-1.288 0-2.417-.439-3.388-1.316-.999-.905-1.498-1.988-1.498-3.248zm8.484 0c0-.57-.07-1.092-.21-1.568a3.667 3.667 0 0 0-.728-1.33 3.422 3.422 0 0 0-1.176-.938 3.21 3.21 0 0 0-1.456-.336c-.551 0-1.069.112-1.554.336a3.333 3.333 0 0 0-1.204.952 3.849 3.849 0 0 0-.686 1.33 5.582 5.582 0 0 0-.21 1.554c0 .56.07 1.092.21 1.596.149.495.392.943.728 1.344.336.392.737.695 1.204.91.476.215.98.322 1.512.322.523 0 1.017-.117 1.484-.35a3.548 3.548 0 0 0 1.19-.966c.327-.41.555-.854.686-1.33.14-.476.21-.985.21-1.526zm8.442.742-1.652 3.514a.958.958 0 0 1-.098.224c-.047.056-.098.084-.154.084-.056 0-.108-.047-.154-.14a1.222 1.222 0 0 1-.084-.168l-3.304-7.112c-.066-.14-.131-.285-.196-.434-.103-.224-.192-.373-.266-.448a.55.55 0 0 0-.252-.168 1.04 1.04 0 0 0-.322-.042c-.224 0-.336-.07-.336-.21 0-.112.074-.168.224-.168.149 0 .373.01.672.028.298.019.532.028.7.028.158 0 .415-.01.77-.028.364-.019.555-.028.574-.028.168 0 .252.065.252.196 0 .084-.028.135-.084.154a.771.771 0 0 1-.252.028c-.159 0-.29.019-.392.056-.103.037-.154.121-.154.252 0 .103.028.224.084.364.065.14.112.238.14.294l2.786 6.006 1.022-2.184c.037-.084.074-.173.112-.266a.836.836 0 0 0 .056-.28c0-.112-.047-.28-.14-.504a2.711 2.711 0 0 1-.14-.308l-1.162-2.506a7.283 7.283 0 0 0-.294-.588c-.15-.224-.327-.336-.532-.336h-.168c-.168 0-.252-.06-.252-.182 0-.13.07-.196.21-.196.149 0 .406.01.77.028.373.019.574.028.602.028.158 0 .415-.01.77-.028.364-.019.555-.028.574-.028.158 0 .238.07.238.21 0 .084-.042.135-.126.154-.075.01-.178.014-.308.014a.692.692 0 0 0-.336.07c-.084.047-.126.13-.126.252 0 .065.023.163.07.294l.154.364.896 1.96.924-1.974c.028-.075.074-.191.14-.35.065-.159.098-.27.098-.336 0-.084-.047-.15-.14-.196a.473.473 0 0 0-.266-.084c-.262 0-.392-.056-.392-.168 0-.14.088-.21.266-.21.112 0 .28.01.504.028.224.019.392.028.504.028.112 0 .28-.01.504-.028.224-.019.392-.028.504-.028.121 0 .182.06.182.182 0 .093-.033.15-.098.168a1.227 1.227 0 0 1-.308.028c-.299 0-.546.126-.742.378-.084.112-.22.373-.406.784l-.644 1.344c-.15.308-.234.495-.252.56a1.02 1.02 0 0 0-.07.336c0 .084.014.168.042.252.028.084.102.252.224.504l1.19 2.688 2.38-5.754c.046-.103.093-.229.14-.378.046-.15.07-.266.07-.35 0-.168-.066-.27-.196-.308a1.793 1.793 0 0 0-.504-.056c-.159 0-.238-.065-.238-.196 0-.121.079-.182.238-.182.112 0 .308.01.588.028.28.019.429.028.448.028.112 0 .28-.01.504-.028a6.68 6.68 0 0 1 .518-.028c.158 0 .238.07.238.21 0 .112-.126.168-.378.168-.103 0-.192.01-.266.028-.066.019-.145.08-.238.182a1.699 1.699 0 0 0-.266.42c-.084.177-.164.355-.238.532l-2.912 7.028a1.33 1.33 0 0 1-.07.168c-.028.065-.075.098-.14.098-.066 0-.131-.06-.196-.182l-.126-.252-1.512-3.332zm13.911 1.848V6.51c0-.345-.052-.574-.154-.686-.103-.112-.36-.168-.77-.168-.234 0-.35-.051-.35-.154 0-.15.084-.224.252-.224.14 0 .373.01.7.028.326.019.504.028.532.028.149 0 .382-.01.7-.028.326-.019.499-.028.518-.028.158 0 .238.075.238.224 0 .056-.028.098-.084.126a.899.899 0 0 1-.28.028c-.439 0-.71.084-.812.252-.066.112-.098.415-.098.91v7.112c0 .177-.033.266-.098.266-.066 0-.136-.042-.21-.126a23.248 23.248 0 0 1-.14-.21l-5.88-7.644v6.328c0 .513.028.817.084.91.093.168.368.252.826.252.233 0 .35.047.35.14 0 .14-.08.21-.238.21-.14 0-.374-.01-.7-.028a26.285 26.285 0 0 0-.532-.028c-.131 0-.332.01-.602.028a9.702 9.702 0 0 1-.616.028c-.168 0-.252-.07-.252-.21 0-.093.074-.14.224-.14h.14c.532 0 .826-.13.882-.392.018-.084.028-.34.028-.77V6.51c0-.355-.042-.579-.126-.672-.112-.121-.374-.182-.784-.182-.234 0-.35-.051-.35-.154 0-.084.032-.14.098-.168a.523.523 0 0 1 .238-.056h1.736c.13.028.242.089.336.182.018.019.098.121.238.308l4.956 6.426z" fill="#fff"/><circle cx="867.5" cy="10" r="3.5" fill="#4C465A"/><path d="m895.486 9.996-.714-.308c-.644-.28-1.111-.555-1.4-.826a1.896 1.896 0 0 1-.63-1.442c0-.71.266-1.279.798-1.708.541-.439 1.176-.658 1.904-.658.308 0 .63.028.966.084.345.047.649.121.91.224.121.047.191.107.21.182a.941.941 0 0 1 .042.336l.056 1.092c0 .112-.051.168-.154.168-.065 0-.117-.047-.154-.14a4.374 4.374 0 0 1-.07-.182c-.168-.513-.373-.882-.616-1.106-.28-.252-.681-.378-1.204-.378-.495 0-.919.13-1.274.392-.355.252-.532.62-.532 1.106 0 .513.294.961.882 1.344.205.13.728.378 1.568.742.289.13.537.257.742.378.28.159.495.322.644.49.205.233.369.495.49.784a2.2 2.2 0 0 1 .182.882c0 .383-.089.747-.266 1.092-.177.345-.42.644-.728.896a2.95 2.95 0 0 1-1.022.56 4.171 4.171 0 0 1-1.204.168c-.355 0-.723-.051-1.106-.154a3.773 3.773 0 0 1-1.008-.392.405.405 0 0 1-.168-.21 1.892 1.892 0 0 1-.028-.364v-.728c0-.168.009-.327.028-.476.019-.15.047-.247.084-.294a.172.172 0 0 1 .14-.07c.084 0 .135.051.154.154.019.103.033.205.042.308.075.616.28 1.097.616 1.442.336.345.817.518 1.442.518.56 0 1.045-.168 1.456-.504.42-.336.63-.775.63-1.316 0-.523-.163-.957-.49-1.302-.261-.28-.667-.541-1.218-.784zm11.035-3.85.098.91c0 .121-.052.182-.154.182a3.992 3.992 0 0 0-.938-1.218c-.43-.383-.999-.574-1.708-.574-1.111 0-1.988.42-2.632 1.26-.588.765-.882 1.717-.882 2.856 0 1.027.289 1.941.868 2.744.345.476.732.845 1.162 1.106.438.252.933.378 1.484.378.7 0 1.269-.229 1.708-.686l1.008-1.512c.121 0 .172.06.154.182l-.07 1.134c0 .224-.019.364-.056.42-.038.056-.168.14-.392.252a5.885 5.885 0 0 1-2.534.588c-1.27 0-2.352-.448-3.248-1.344-.887-.905-1.33-1.988-1.33-3.248 0-1.27.48-2.338 1.442-3.206a4.93 4.93 0 0 1 3.416-1.316 6.8 6.8 0 0 1 1.106.112 6.67 6.67 0 0 1 1.106.266c.196.065.312.182.35.35 0 .019.014.14.042.364zm2.111 6.398V6.51c0-.355-.042-.579-.126-.672-.112-.121-.373-.182-.784-.182-.233 0-.35-.056-.35-.168 0-.14.084-.21.252-.21.15 0 .406.01.77.028.374.019.574.028.602.028.28 0 .738-.01 1.372-.028.644-.019.985-.028 1.022-.028.738 0 1.344.168 1.82.504.551.383.826.924.826 1.624a1.93 1.93 0 0 1-.672 1.498c-.41.364-.924.588-1.54.672.196.028.369.145.518.35.066.084.178.275.336.574l1.134 2.184c.206.401.336.635.392.7a.85.85 0 0 0 .686.322c.122 0 .21.01.266.028.066.019.098.075.098.168 0 .103-.084.154-.252.154h-1.484a.348.348 0 0 1-.294-.154c-.028-.028-.088-.135-.182-.322l-1.372-2.73c-.27-.523-.457-.826-.56-.91-.158-.121-.49-.182-.994-.182-.168 0-.27.023-.308.07-.037.047-.06.145-.07.294v2.422c0 .513.028.817.084.91.103.168.378.252.826.252.112 0 .201.01.266.028.066.019.098.065.098.14 0 .121-.079.182-.238.182-.186 0-.49-.01-.91-.028-.41-.019-.63-.028-.658-.028-.177 0-.48.01-.91.028-.429.019-.658.028-.686.028-.158 0-.238-.06-.238-.182 0-.084.028-.13.084-.14.066-.019.154-.028.266-.028.532 0 .826-.13.882-.392.019-.084.028-.34.028-.77zm1.106-5.852v2.506c0 .093.038.163.112.21a.758.758 0 0 0 .308.056c.14-.01.238-.014.294-.014.392 0 .719-.028.98-.084a1.86 1.86 0 0 0 .742-.35c.234-.187.402-.401.504-.644.112-.252.168-.523.168-.812 0-.635-.177-1.125-.532-1.47-.354-.345-.849-.518-1.484-.518-.513 0-.826.06-.938.182-.102.112-.154.425-.154.938zm5.723 2.912c0-1.25.49-2.32 1.47-3.206.99-.896 2.128-1.344 3.416-1.344 1.354 0 2.502.43 3.444 1.288.952.85 1.428 1.937 1.428 3.262s-.471 2.417-1.414 3.276c-.942.859-2.095 1.288-3.458 1.288-1.288 0-2.417-.439-3.388-1.316-.998-.905-1.498-1.988-1.498-3.248zm8.484 0c0-.57-.07-1.092-.21-1.568a3.652 3.652 0 0 0-.728-1.33 3.422 3.422 0 0 0-1.176-.938 3.21 3.21 0 0 0-1.456-.336c-.55 0-1.068.112-1.554.336a3.333 3.333 0 0 0-1.204.952 3.849 3.849 0 0 0-.686 1.33 5.582 5.582 0 0 0-.21 1.554c0 .56.07 1.092.21 1.596.15.495.392.943.728 1.344.336.392.738.695 1.204.91.476.215.98.322 1.512.322.523 0 1.018-.117 1.484-.35a3.548 3.548 0 0 0 1.19-.966c.327-.41.556-.854.686-1.33.14-.476.21-.985.21-1.526zm4.424-2.8v5.306c0 .607.056.999.168 1.176.168.261.541.392 1.12.392.299 0 .579-.033.84-.098.271-.075.504-.196.7-.364.14-.112.28-.29.42-.532.112-.187.215-.397.308-.63.047-.121.103-.182.168-.182.084 0 .126.065.126.196 0 .14-.028.392-.084.756-.047.355-.07.588-.07.7 0 .233-.014.383-.042.448-.028.056-.135.084-.322.084-.467 0-1.246-.01-2.338-.028a369.987 369.987 0 0 0-1.722-.028c-.159 0-.392.01-.7.028-.308.019-.541.028-.7.028-.159 0-.238-.065-.238-.196 0-.121.121-.182.364-.182.448 0 .719-.08.812-.238.056-.093.084-.397.084-.91V6.496c0-.345-.042-.565-.126-.658-.112-.121-.373-.182-.784-.182-.233 0-.35-.06-.35-.182 0-.13.079-.196.238-.196.187 0 .485.01.896.028.42.019.644.028.672.028.177 0 .481-.01.91-.028.429-.019.658-.028.686-.028.159 0 .238.065.238.196 0 .075-.037.126-.112.154a.936.936 0 0 1-.252.028c-.401 0-.653.056-.756.168-.103.112-.154.336-.154.672v.308zm6.527 0v5.306c0 .607.056.999.168 1.176.168.261.541.392 1.12.392.298 0 .578-.033.84-.098.27-.075.504-.196.7-.364.14-.112.28-.29.42-.532.112-.187.214-.397.308-.63.046-.121.102-.182.168-.182.084 0 .126.065.126.196 0 .14-.028.392-.084.756-.047.355-.07.588-.07.7 0 .233-.014.383-.042.448-.028.056-.136.084-.322.084-.467 0-1.246-.01-2.338-.028a369.987 369.987 0 0 0-1.722-.028c-.159 0-.392.01-.7.028-.308.019-.542.028-.7.028-.159 0-.238-.065-.238-.196 0-.121.121-.182.364-.182.448 0 .718-.08.812-.238.056-.093.084-.397.084-.91V6.496c0-.345-.042-.565-.126-.658-.112-.121-.374-.182-.784-.182-.234 0-.35-.06-.35-.182 0-.13.079-.196.238-.196.186 0 .485.01.896.028.42.019.644.028.672.028.177 0 .48-.01.91-.028.429-.019.658-.028.686-.028.158 0 .238.065.238.196 0 .075-.038.126-.112.154a.946.946 0 0 1-.252.028c-.402 0-.654.056-.756.168-.103.112-.154.336-.154.672v.308zm9.761 5.698V6.384c0-.205-.024-.355-.07-.448-.075-.14-.206-.21-.392-.21-.103 0-.215.019-.336.056-.112.028-.234.06-.364.098-.103 0-.154-.051-.154-.154 0-.215.527-.378 1.582-.49 1.054-.121 1.866-.182 2.436-.182.672 0 1.311.089 1.918.266a4.89 4.89 0 0 1 1.694.84c.522.392.942.891 1.26 1.498.326.607.49 1.237.49 1.89 0 .644-.131 1.26-.392 1.848a4.415 4.415 0 0 1-1.12 1.526 4.2 4.2 0 0 1-1.624.882 7.395 7.395 0 0 1-2.002.252c-.355 0-.948-.01-1.778-.028-.831-.019-1.265-.028-1.302-.028-.103 0-.276.01-.518.028l-.364.028c-.159 0-.238-.065-.238-.196 0-.075.032-.117.098-.126.065-.019.154-.028.266-.028.522 0 .816-.14.882-.42.018-.084.028-.345.028-.784zm1.106-6.062v5.81c0 .625.093 1.04.28 1.246.196.196.602.294 1.218.294.662 0 1.204-.07 1.624-.21a3.25 3.25 0 0 0 1.372-.868c.401-.42.7-.887.896-1.4a4.627 4.627 0 0 0 .294-1.638c0-1.297-.402-2.338-1.204-3.122-.803-.784-1.844-1.176-3.122-1.176-.28 0-.528.014-.742.042-.206.028-.355.089-.448.182a.548.548 0 0 0-.154.322c-.01.13-.014.303-.014.518zm7.923 3.164c0-1.25.49-2.32 1.47-3.206.989-.896 2.128-1.344 3.416-1.344 1.353 0 2.501.43 3.444 1.288.952.85 1.428 1.937 1.428 3.262s-.471 2.417-1.414 3.276-2.095 1.288-3.458 1.288c-1.288 0-2.417-.439-3.388-1.316-.999-.905-1.498-1.988-1.498-3.248zm8.484 0c0-.57-.07-1.092-.21-1.568a3.667 3.667 0 0 0-.728-1.33 3.422 3.422 0 0 0-1.176-.938 3.21 3.21 0 0 0-1.456-.336c-.551 0-1.069.112-1.554.336a3.333 3.333 0 0 0-1.204.952 3.849 3.849 0 0 0-.686 1.33 5.582 5.582 0 0 0-.21 1.554c0 .56.07 1.092.21 1.596.149.495.392.943.728 1.344.336.392.737.695 1.204.91.476.215.98.322 1.512.322.523 0 1.017-.117 1.484-.35a3.548 3.548 0 0 0 1.19-.966c.327-.41.555-.854.686-1.33.14-.476.21-.985.21-1.526zm8.442.742-1.652 3.514a.958.958 0 0 1-.098.224c-.047.056-.098.084-.154.084-.056 0-.108-.047-.154-.14a1.222 1.222 0 0 1-.084-.168l-3.304-7.112c-.066-.14-.131-.285-.196-.434-.103-.224-.192-.373-.266-.448a.55.55 0 0 0-.252-.168 1.04 1.04 0 0 0-.322-.042c-.224 0-.336-.07-.336-.21 0-.112.074-.168.224-.168.149 0 .373.01.672.028.298.019.532.028.7.028.158 0 .415-.01.77-.028.364-.019.555-.028.574-.028.168 0 .252.065.252.196 0 .084-.028.135-.084.154a.771.771 0 0 1-.252.028c-.159 0-.29.019-.392.056-.103.037-.154.121-.154.252 0 .103.028.224.084.364.065.14.112.238.14.294l2.786 6.006 1.022-2.184c.037-.084.074-.173.112-.266a.836.836 0 0 0 .056-.28c0-.112-.047-.28-.14-.504a2.711 2.711 0 0 1-.14-.308l-1.162-2.506a7.283 7.283 0 0 0-.294-.588c-.15-.224-.327-.336-.532-.336h-.168c-.168 0-.252-.06-.252-.182 0-.13.07-.196.21-.196.149 0 .406.01.77.028.373.019.574.028.602.028.158 0 .415-.01.77-.028.364-.019.555-.028.574-.028.158 0 .238.07.238.21 0 .084-.042.135-.126.154-.075.01-.178.014-.308.014a.692.692 0 0 0-.336.07c-.084.047-.126.13-.126.252 0 .065.023.163.07.294l.154.364.896 1.96.924-1.974c.028-.075.074-.191.14-.35.065-.159.098-.27.098-.336 0-.084-.047-.15-.14-.196a.473.473 0 0 0-.266-.084c-.262 0-.392-.056-.392-.168 0-.14.088-.21.266-.21.112 0 .28.01.504.028.224.019.392.028.504.028.112 0 .28-.01.504-.028.224-.019.392-.028.504-.028.121 0 .182.06.182.182 0 .093-.033.15-.098.168a1.227 1.227 0 0 1-.308.028c-.299 0-.546.126-.742.378-.084.112-.22.373-.406.784l-.644 1.344c-.15.308-.234.495-.252.56a1.02 1.02 0 0 0-.07.336c0 .084.014.168.042.252.028.084.102.252.224.504l1.19 2.688 2.38-5.754c.046-.103.093-.229.14-.378.046-.15.07-.266.07-.35 0-.168-.066-.27-.196-.308a1.793 1.793 0 0 0-.504-.056c-.159 0-.238-.065-.238-.196 0-.121.079-.182.238-.182.112 0 .308.01.588.028.28.019.429.028.448.028.112 0 .28-.01.504-.028a6.68 6.68 0 0 1 .518-.028c.158 0 .238.07.238.21 0 .112-.126.168-.378.168-.103 0-.192.01-.266.028-.066.019-.145.08-.238.182a1.699 1.699 0 0 0-.266.42c-.084.177-.164.355-.238.532l-2.912 7.028a1.33 1.33 0 0 1-.07.168c-.028.065-.075.098-.14.098-.066 0-.131-.06-.196-.182l-.126-.252-1.512-3.332zm13.911 1.848V6.51c0-.345-.052-.574-.154-.686-.103-.112-.36-.168-.77-.168-.234 0-.35-.051-.35-.154 0-.15.084-.224.252-.224.14 0 .373.01.7.028.326.019.504.028.532.028.149 0 .382-.01.7-.028.326-.019.499-.028.518-.028.158 0 .238.075.238.224 0 .056-.028.098-.084.126a.899.899 0 0 1-.28.028c-.439 0-.71.084-.812.252-.066.112-.098.415-.098.91v7.112c0 .177-.033.266-.098.266-.066 0-.136-.042-.21-.126a23.248 23.248 0 0 1-.14-.21l-5.88-7.644v6.328c0 .513.028.817.084.91.093.168.368.252.826.252.233 0 .35.047.35.14 0 .14-.08.21-.238.21-.14 0-.374-.01-.7-.028a26.285 26.285 0 0 0-.532-.028c-.131 0-.332.01-.602.028a9.702 9.702 0 0 1-.616.028c-.168 0-.252-.07-.252-.21 0-.093.074-.14.224-.14h.14c.532 0 .826-.13.882-.392.018-.084.028-.34.028-.77V6.51c0-.355-.042-.579-.126-.672-.112-.121-.374-.182-.784-.182-.234 0-.35-.051-.35-.154 0-.084.032-.14.098-.168a.523.523 0 0 1 .238-.056h1.736c.13.028.242.089.336.182.018.019.098.121.238.308l4.956 6.426z" fill="#fff"/><circle cx="1016.5" cy="10" r="3.5" fill="#4C465A"/><path d="m1044.49 9.996-.72-.308c-.64-.28-1.11-.555-1.4-.826a1.896 1.896 0 0 1-.63-1.442c0-.71.27-1.279.8-1.708a2.935 2.935 0 0 1 1.9-.658c.31 0 .63.028.97.084.35.047.65.121.91.224.12.047.19.107.21.182.03.065.04.177.04.336l.06 1.092c0 .112-.05.168-.16.168-.06 0-.11-.047-.15-.14-.04-.093-.06-.154-.07-.182-.17-.513-.37-.882-.62-1.106-.28-.252-.68-.378-1.2-.378-.49 0-.92.13-1.27.392-.36.252-.54.62-.54 1.106 0 .513.3.961.89 1.344.2.13.72.378 1.56.742.29.13.54.257.75.378.28.159.49.322.64.49.21.233.37.495.49.784.12.28.18.574.18.882 0 .383-.09.747-.26 1.092-.18.345-.42.644-.73.896-.3.252-.64.439-1.02.56a4.243 4.243 0 0 1-2.31.014 3.71 3.71 0 0 1-1.01-.392.39.39 0 0 1-.17-.21 1.795 1.795 0 0 1-.03-.364v-.728c0-.168.01-.327.03-.476.02-.15.05-.247.08-.294.04-.047.09-.07.14-.07.09 0 .14.051.16.154.02.103.03.205.04.308.07.616.28 1.097.62 1.442.33.345.81.518 1.44.518.56 0 1.04-.168 1.45-.504.42-.336.63-.775.63-1.316 0-.523-.16-.957-.49-1.302-.26-.28-.66-.541-1.21-.784zm11.03-3.85.1.91c0 .121-.05.182-.16.182a3.936 3.936 0 0 0-.93-1.218c-.43-.383-1-.574-1.71-.574-1.11 0-1.99.42-2.63 1.26-.59.765-.89 1.717-.89 2.856 0 1.027.29 1.941.87 2.744.35.476.74.845 1.16 1.106.44.252.94.378 1.49.378.7 0 1.27-.229 1.71-.686.33-.504.67-1.008 1-1.512.13 0 .18.06.16.182l-.07 1.134c0 .224-.02.364-.06.42-.03.056-.17.14-.39.252-.83.392-1.67.588-2.53.588-1.27 0-2.36-.448-3.25-1.344-.89-.905-1.33-1.988-1.33-3.248 0-1.27.48-2.338 1.44-3.206a4.934 4.934 0 0 1 3.42-1.316c.3 0 .66.037 1.1.112.45.075.82.163 1.11.266.19.065.31.182.35.35 0 .019.01.14.04.364zm2.11 6.398V6.51c0-.355-.04-.579-.12-.672-.12-.121-.38-.182-.79-.182-.23 0-.35-.056-.35-.168 0-.14.09-.21.25-.21.15 0 .41.01.77.028.38.019.58.028.61.028.28 0 .73-.01 1.37-.028.64-.019.98-.028 1.02-.028.74 0 1.34.168 1.82.504.55.383.83.924.83 1.624a1.93 1.93 0 0 1-.68 1.498c-.41.364-.92.588-1.54.672.2.028.37.145.52.35.07.084.18.275.34.574l1.13 2.184c.21.401.34.635.39.7a.86.86 0 0 0 .69.322c.12 0 .21.01.27.028.06.019.09.075.09.168 0 .103-.08.154-.25.154h-1.48a.366.366 0 0 1-.3-.154 5.188 5.188 0 0 1-.18-.322l-1.37-2.73c-.27-.523-.46-.826-.56-.91-.16-.121-.49-.182-.99-.182-.17 0-.27.023-.31.07-.04.047-.06.145-.07.294v2.422c0 .513.03.817.08.91.1.168.38.252.83.252.11 0 .2.01.26.028.07.019.1.065.1.14 0 .121-.08.182-.24.182-.18 0-.49-.01-.91-.028-.41-.019-.63-.028-.65-.028-.18 0-.48.01-.91.028-.43.019-.66.028-.69.028-.16 0-.24-.06-.24-.182 0-.084.03-.13.09-.14a.939.939 0 0 1 .26-.028c.53 0 .83-.13.88-.392.02-.084.03-.34.03-.77zm1.11-5.852v2.506c0 .093.04.163.11.21.08.037.19.056.31.056.14-.01.24-.014.29-.014.39 0 .72-.028.98-.084.26-.056.51-.173.74-.35.24-.187.41-.401.51-.644.11-.252.17-.523.17-.812 0-.635-.18-1.125-.54-1.47-.35-.345-.85-.518-1.48-.518-.51 0-.83.06-.94.182-.1.112-.15.425-.15.938zm5.72 2.912c0-1.25.49-2.32 1.47-3.206.99-.896 2.13-1.344 3.42-1.344 1.35 0 2.5.43 3.44 1.288.95.85 1.43 1.937 1.43 3.262s-.47 2.417-1.41 3.276c-.95.859-2.1 1.288-3.46 1.288-1.29 0-2.42-.439-3.39-1.316-1-.905-1.5-1.988-1.5-3.248zm8.49 0c0-.57-.07-1.092-.21-1.568-.14-.476-.39-.92-.73-1.33-.34-.41-.73-.723-1.18-.938a3.2 3.2 0 0 0-1.45-.336c-.56 0-1.07.112-1.56.336a3.31 3.31 0 0 0-1.2.952c-.32.401-.55.845-.69 1.33a5.582 5.582 0 0 0-.21 1.554c0 .56.07 1.092.21 1.596.15.495.39.943.73 1.344.34.392.74.695 1.2.91.48.215.98.322 1.52.322.52 0 1.01-.117 1.48-.35.48-.243.87-.565 1.19-.966.33-.41.55-.854.69-1.33.14-.476.21-.985.21-1.526zm4.42-2.8v5.306c0 .607.06.999.17 1.176.17.261.54.392 1.12.392.3 0 .58-.033.84-.098.27-.075.5-.196.7-.364.14-.112.28-.29.42-.532.11-.187.21-.397.31-.63.04-.121.1-.182.16-.182.09 0 .13.065.13.196a7 7 0 0 1-.08.756c-.05.355-.07.588-.07.7 0 .233-.02.383-.05.448-.02.056-.13.084-.32.084-.47 0-1.24-.01-2.34-.028-1.08-.019-1.65-.028-1.72-.028-.16 0-.39.01-.7.028-.31.019-.54.028-.7.028-.16 0-.24-.065-.24-.196 0-.121.12-.182.37-.182.45 0 .72-.08.81-.238.06-.093.08-.397.08-.91V6.496c0-.345-.04-.565-.12-.658-.11-.121-.38-.182-.79-.182-.23 0-.35-.06-.35-.182 0-.13.08-.196.24-.196.19 0 .49.01.9.028.42.019.64.028.67.028.18 0 .48-.01.91-.028.43-.019.66-.028.69-.028.15 0 .23.065.23.196 0 .075-.03.126-.11.154a.91.91 0 0 1-.25.028c-.4 0-.65.056-.76.168-.1.112-.15.336-.15.672v.308zm6.53 0v5.306c0 .607.05.999.16 1.176.17.261.55.392 1.12.392.3 0 .58-.033.84-.098.27-.075.51-.196.7-.364.14-.112.28-.29.42-.532.12-.187.22-.397.31-.63.05-.121.1-.182.17-.182.08 0 .13.065.13.196 0 .14-.03.392-.09.756-.04.355-.07.588-.07.7 0 .233-.01.383-.04.448-.03.056-.14.084-.32.084-.47 0-1.25-.01-2.34-.028-1.08-.019-1.66-.028-1.72-.028-.16 0-.39.01-.7.028-.31.019-.54.028-.7.028-.16 0-.24-.065-.24-.196 0-.121.12-.182.36-.182.45 0 .72-.08.82-.238.05-.093.08-.397.08-.91V6.496c0-.345-.04-.565-.13-.658-.11-.121-.37-.182-.78-.182-.23 0-.35-.06-.35-.182 0-.13.08-.196.24-.196.18 0 .48.01.89.028.42.019.65.028.68.028.17 0 .48-.01.91-.028.43-.019.65-.028.68-.028.16 0 .24.065.24.196 0 .075-.04.126-.11.154a.961.961 0 0 1-.25.028c-.41 0-.66.056-.76.168-.1.112-.15.336-.15.672v.308zm9.76 5.698V6.384c0-.205-.03-.355-.07-.448-.08-.14-.21-.21-.4-.21-.1 0-.21.019-.33.056-.11.028-.23.06-.37.098-.1 0-.15-.051-.15-.154 0-.215.53-.378 1.58-.49 1.06-.121 1.87-.182 2.44-.182.67 0 1.31.089 1.92.266a4.89 4.89 0 0 1 1.69.84c.52.392.94.891 1.26 1.498.33.607.49 1.237.49 1.89 0 .644-.13 1.26-.39 1.848a4.454 4.454 0 0 1-1.12 1.526 4.23 4.23 0 0 1-1.63.882c-.59.168-1.26.252-2 .252-.35 0-.94-.01-1.78-.028-.83-.019-1.26-.028-1.3-.028-.1 0-.27.01-.52.028-.23.019-.35.028-.36.028-.16 0-.24-.065-.24-.196 0-.075.04-.117.1-.126.07-.019.15-.028.27-.028.52 0 .81-.14.88-.42.02-.084.03-.345.03-.784zm1.1-6.062v5.81c0 .625.1 1.04.28 1.246.2.196.6.294 1.22.294.66 0 1.2-.07 1.62-.21.53-.168.98-.457 1.38-.868.4-.42.7-.887.89-1.4.2-.523.3-1.069.3-1.638 0-1.297-.4-2.338-1.21-3.122-.8-.784-1.84-1.176-3.12-1.176-.28 0-.53.014-.74.042-.21.028-.36.089-.45.182a.58.58 0 0 0-.15.322c-.01.13-.02.303-.02.518zm7.93 3.164c0-1.25.49-2.32 1.47-3.206.99-.896 2.12-1.344 3.41-1.344 1.36 0 2.5.43 3.45 1.288.95.85 1.42 1.937 1.42 3.262s-.47 2.417-1.41 3.276-2.1 1.288-3.46 1.288c-1.29 0-2.42-.439-3.39-1.316-.99-.905-1.49-1.988-1.49-3.248zm8.48 0c0-.57-.07-1.092-.21-1.568-.14-.476-.38-.92-.73-1.33-.33-.41-.73-.723-1.17-.938a3.241 3.241 0 0 0-1.46-.336c-.55 0-1.07.112-1.55.336-.48.224-.88.541-1.21.952-.32.401-.54.845-.68 1.33a5.582 5.582 0 0 0-.21 1.554c0 .56.07 1.092.21 1.596.15.495.39.943.72 1.344.34.392.74.695 1.21.91.47.215.98.322 1.51.322.52 0 1.02-.117 1.48-.35.48-.243.88-.565 1.19-.966.33-.41.56-.854.69-1.33.14-.476.21-.985.21-1.526zm8.44.742-1.65 3.514c-.05.13-.08.205-.1.224a.192.192 0 0 1-.15.084c-.06 0-.11-.047-.16-.14-.04-.084-.07-.14-.08-.168l-3.3-7.112c-.07-.14-.13-.285-.2-.434-.1-.224-.19-.373-.27-.448a.49.49 0 0 0-.25-.168 1.008 1.008 0 0 0-.32-.042c-.22 0-.34-.07-.34-.21 0-.112.08-.168.23-.168.15 0 .37.01.67.028.3.019.53.028.7.028.16 0 .42-.01.77-.028.36-.019.56-.028.57-.028.17 0 .26.065.26.196 0 .084-.03.135-.09.154a.733.733 0 0 1-.25.028c-.16 0-.29.019-.39.056-.1.037-.16.121-.16.252 0 .103.03.224.09.364.06.14.11.238.14.294l2.78 6.006 1.03-2.184c.03-.084.07-.173.11-.266a.75.75 0 0 0 .05-.28c0-.112-.04-.28-.14-.504-.07-.15-.12-.252-.14-.308l-1.16-2.506c-.17-.355-.26-.55-.29-.588-.15-.224-.33-.336-.53-.336h-.17c-.17 0-.25-.06-.25-.182 0-.13.07-.196.21-.196.15 0 .4.01.77.028.37.019.57.028.6.028.16 0 .41-.01.77-.028.36-.019.55-.028.57-.028.16 0 .24.07.24.21 0 .084-.04.135-.13.154-.07.01-.17.014-.3.014-.14 0-.26.023-.34.07-.08.047-.13.13-.13.252 0 .065.03.163.07.294.06.13.11.252.16.364l.89 1.96.93-1.974c.03-.075.07-.191.14-.35.06-.159.1-.27.1-.336 0-.084-.05-.15-.14-.196a.508.508 0 0 0-.27-.084c-.26 0-.39-.056-.39-.168 0-.14.09-.21.26-.21.12 0 .28.01.51.028.22.019.39.028.5.028.11 0 .28-.01.51-.028.22-.019.39-.028.5-.028.12 0 .18.06.18.182 0 .093-.03.15-.1.168-.06.019-.16.028-.3.028-.3 0-.55.126-.75.378-.08.112-.22.373-.4.784l-.65 1.344c-.15.308-.23.495-.25.56-.04.13-.07.243-.07.336 0 .084.02.168.04.252.03.084.11.252.23.504l1.19 2.688 2.38-5.754c.04-.103.09-.229.14-.378.04-.15.07-.266.07-.35 0-.168-.07-.27-.2-.308a1.771 1.771 0 0 0-.5-.056c-.16 0-.24-.065-.24-.196 0-.121.08-.182.24-.182.11 0 .31.01.59.028.28.019.43.028.44.028.12 0 .28-.01.51-.028.22-.019.39-.028.52-.028.15 0 .23.07.23.21 0 .112-.12.168-.37.168-.11 0-.2.01-.27.028-.07.019-.14.08-.24.182-.09.103-.18.243-.26.42a6.23 6.23 0 0 0-.24.532l-2.91 7.028c-.02.056-.05.112-.07.168-.03.065-.08.098-.14.098-.07 0-.13-.06-.2-.182-.07-.13-.11-.215-.13-.252l-1.51-3.332zm13.91 1.848V6.51c0-.345-.05-.574-.15-.686-.1-.112-.36-.168-.77-.168-.23 0-.35-.051-.35-.154 0-.15.08-.224.25-.224.14 0 .37.01.7.028.33.019.5.028.53.028.15 0 .39-.01.7-.028.33-.019.5-.028.52-.028.16 0 .24.075.24.224 0 .056-.03.098-.09.126a.869.869 0 0 1-.28.028c-.43 0-.7.084-.81.252-.06.112-.1.415-.1.91v7.112c0 .177-.03.266-.09.266-.07 0-.14-.042-.21-.126-.02-.028-.07-.098-.14-.21l-5.88-7.644v6.328c0 .513.02.817.08.91.09.168.37.252.83.252.23 0 .35.047.35.14 0 .14-.08.21-.24.21-.14 0-.37-.01-.7-.028-.33-.019-.51-.028-.53-.028-.13 0-.33.01-.61.028-.27.019-.47.028-.61.028-.17 0-.25-.07-.25-.21 0-.093.07-.14.22-.14h.14c.53 0 .83-.13.88-.392.02-.084.03-.34.03-.77V6.51c0-.355-.04-.579-.13-.672-.11-.121-.37-.182-.78-.182-.23 0-.35-.051-.35-.154 0-.084.03-.14.1-.168a.502.502 0 0 1 .24-.056h1.73c.13.028.25.089.34.182.02.019.1.121.24.308l4.95 6.426z" fill="#fff"/><circle cx="1165.5" cy="10" r="3.5" fill="#4C465A"/><path d="m1193.49 9.996-.72-.308c-.64-.28-1.11-.555-1.4-.826a1.896 1.896 0 0 1-.63-1.442c0-.71.27-1.279.8-1.708a2.935 2.935 0 0 1 1.9-.658c.31 0 .63.028.97.084.35.047.65.121.91.224.12.047.19.107.21.182.03.065.04.177.04.336l.06 1.092c0 .112-.05.168-.16.168-.06 0-.11-.047-.15-.14-.04-.093-.06-.154-.07-.182-.17-.513-.37-.882-.62-1.106-.28-.252-.68-.378-1.2-.378-.49 0-.92.13-1.27.392-.36.252-.54.62-.54 1.106 0 .513.3.961.89 1.344.2.13.72.378 1.56.742.29.13.54.257.75.378.28.159.49.322.64.49.21.233.37.495.49.784.12.28.18.574.18.882 0 .383-.09.747-.26 1.092-.18.345-.42.644-.73.896-.3.252-.64.439-1.02.56a4.243 4.243 0 0 1-2.31.014 3.71 3.71 0 0 1-1.01-.392.39.39 0 0 1-.17-.21 1.795 1.795 0 0 1-.03-.364v-.728c0-.168.01-.327.03-.476.02-.15.05-.247.08-.294.04-.047.09-.07.14-.07.09 0 .14.051.16.154.02.103.03.205.04.308.07.616.28 1.097.62 1.442.33.345.81.518 1.44.518.56 0 1.04-.168 1.45-.504.42-.336.63-.775.63-1.316 0-.523-.16-.957-.49-1.302-.26-.28-.66-.541-1.21-.784zm11.03-3.85.1.91c0 .121-.05.182-.16.182a3.936 3.936 0 0 0-.93-1.218c-.43-.383-1-.574-1.71-.574-1.11 0-1.99.42-2.63 1.26-.59.765-.89 1.717-.89 2.856 0 1.027.29 1.941.87 2.744.35.476.74.845 1.16 1.106.44.252.94.378 1.49.378.7 0 1.27-.229 1.71-.686.33-.504.67-1.008 1-1.512.13 0 .18.06.16.182l-.07 1.134c0 .224-.02.364-.06.42-.03.056-.17.14-.39.252-.83.392-1.67.588-2.53.588-1.27 0-2.36-.448-3.25-1.344-.89-.905-1.33-1.988-1.33-3.248 0-1.27.48-2.338 1.44-3.206a4.934 4.934 0 0 1 3.42-1.316c.3 0 .66.037 1.1.112.45.075.82.163 1.11.266.19.065.31.182.35.35 0 .019.01.14.04.364zm2.11 6.398V6.51c0-.355-.04-.579-.12-.672-.12-.121-.38-.182-.79-.182-.23 0-.35-.056-.35-.168 0-.14.09-.21.25-.21.15 0 .41.01.77.028.38.019.58.028.61.028.28 0 .73-.01 1.37-.028.64-.019.98-.028 1.02-.028.74 0 1.34.168 1.82.504.55.383.83.924.83 1.624a1.93 1.93 0 0 1-.68 1.498c-.41.364-.92.588-1.54.672.2.028.37.145.52.35.07.084.18.275.34.574l1.13 2.184c.21.401.34.635.39.7a.86.86 0 0 0 .69.322c.12 0 .21.01.27.028.06.019.09.075.09.168 0 .103-.08.154-.25.154h-1.48a.366.366 0 0 1-.3-.154 5.188 5.188 0 0 1-.18-.322l-1.37-2.73c-.27-.523-.46-.826-.56-.91-.16-.121-.49-.182-.99-.182-.17 0-.27.023-.31.07-.04.047-.06.145-.07.294v2.422c0 .513.03.817.08.91.1.168.38.252.83.252.11 0 .2.01.26.028.07.019.1.065.1.14 0 .121-.08.182-.24.182-.18 0-.49-.01-.91-.028-.41-.019-.63-.028-.65-.028-.18 0-.48.01-.91.028-.43.019-.66.028-.69.028-.16 0-.24-.06-.24-.182 0-.084.03-.13.09-.14a.939.939 0 0 1 .26-.028c.53 0 .83-.13.88-.392.02-.084.03-.34.03-.77zm1.11-5.852v2.506c0 .093.04.163.11.21.08.037.19.056.31.056.14-.01.24-.014.29-.014.39 0 .72-.028.98-.084.26-.056.51-.173.74-.35.24-.187.41-.401.51-.644.11-.252.17-.523.17-.812 0-.635-.18-1.125-.54-1.47-.35-.345-.85-.518-1.48-.518-.51 0-.83.06-.94.182-.1.112-.15.425-.15.938zm5.72 2.912c0-1.25.49-2.32 1.47-3.206.99-.896 2.13-1.344 3.42-1.344 1.35 0 2.5.43 3.44 1.288.95.85 1.43 1.937 1.43 3.262s-.47 2.417-1.41 3.276c-.95.859-2.1 1.288-3.46 1.288-1.29 0-2.42-.439-3.39-1.316-1-.905-1.5-1.988-1.5-3.248zm8.49 0c0-.57-.07-1.092-.21-1.568-.14-.476-.39-.92-.73-1.33-.34-.41-.73-.723-1.18-.938a3.2 3.2 0 0 0-1.45-.336c-.56 0-1.07.112-1.56.336a3.31 3.31 0 0 0-1.2.952c-.32.401-.55.845-.69 1.33a5.582 5.582 0 0 0-.21 1.554c0 .56.07 1.092.21 1.596.15.495.39.943.73 1.344.34.392.74.695 1.2.91.48.215.98.322 1.52.322.52 0 1.01-.117 1.48-.35.48-.243.87-.565 1.19-.966.33-.41.55-.854.69-1.33.14-.476.21-.985.21-1.526zm4.42-2.8v5.306c0 .607.06.999.17 1.176.17.261.54.392 1.12.392.3 0 .58-.033.84-.098.27-.075.5-.196.7-.364.14-.112.28-.29.42-.532.11-.187.21-.397.31-.63.04-.121.1-.182.16-.182.09 0 .13.065.13.196a7 7 0 0 1-.08.756c-.05.355-.07.588-.07.7 0 .233-.02.383-.05.448-.02.056-.13.084-.32.084-.47 0-1.24-.01-2.34-.028-1.08-.019-1.65-.028-1.72-.028-.16 0-.39.01-.7.028-.31.019-.54.028-.7.028-.16 0-.24-.065-.24-.196 0-.121.12-.182.37-.182.45 0 .72-.08.81-.238.06-.093.08-.397.08-.91V6.496c0-.345-.04-.565-.12-.658-.11-.121-.38-.182-.79-.182-.23 0-.35-.06-.35-.182 0-.13.08-.196.24-.196.19 0 .49.01.9.028.42.019.64.028.67.028.18 0 .48-.01.91-.028.43-.019.66-.028.69-.028.15 0 .23.065.23.196 0 .075-.03.126-.11.154a.91.91 0 0 1-.25.028c-.4 0-.65.056-.76.168-.1.112-.15.336-.15.672v.308zm6.53 0v5.306c0 .607.05.999.16 1.176.17.261.55.392 1.12.392.3 0 .58-.033.84-.098.27-.075.51-.196.7-.364.14-.112.28-.29.42-.532.12-.187.22-.397.31-.63.05-.121.1-.182.17-.182.08 0 .13.065.13.196 0 .14-.03.392-.09.756-.04.355-.07.588-.07.7 0 .233-.01.383-.04.448-.03.056-.14.084-.32.084-.47 0-1.25-.01-2.34-.028-1.08-.019-1.66-.028-1.72-.028-.16 0-.39.01-.7.028-.31.019-.54.028-.7.028-.16 0-.24-.065-.24-.196 0-.121.12-.182.36-.182.45 0 .72-.08.82-.238.05-.093.08-.397.08-.91V6.496c0-.345-.04-.565-.13-.658-.11-.121-.37-.182-.78-.182-.23 0-.35-.06-.35-.182 0-.13.08-.196.24-.196.18 0 .48.01.89.028.42.019.65.028.68.028.17 0 .48-.01.91-.028.43-.019.65-.028.68-.028.16 0 .24.065.24.196 0 .075-.04.126-.11.154a.961.961 0 0 1-.25.028c-.41 0-.66.056-.76.168-.1.112-.15.336-.15.672v.308zm9.76 5.698V6.384c0-.205-.03-.355-.07-.448-.08-.14-.21-.21-.4-.21-.1 0-.21.019-.33.056-.11.028-.23.06-.37.098-.1 0-.15-.051-.15-.154 0-.215.53-.378 1.58-.49 1.06-.121 1.87-.182 2.44-.182.67 0 1.31.089 1.92.266a4.89 4.89 0 0 1 1.69.84c.52.392.94.891 1.26 1.498.33.607.49 1.237.49 1.89 0 .644-.13 1.26-.39 1.848a4.454 4.454 0 0 1-1.12 1.526 4.23 4.23 0 0 1-1.63.882c-.59.168-1.26.252-2 .252-.35 0-.94-.01-1.78-.028-.83-.019-1.26-.028-1.3-.028-.1 0-.27.01-.52.028-.23.019-.35.028-.36.028-.16 0-.24-.065-.24-.196 0-.075.04-.117.1-.126.07-.019.15-.028.27-.028.52 0 .81-.14.88-.42.02-.084.03-.345.03-.784zm1.1-6.062v5.81c0 .625.1 1.04.28 1.246.2.196.6.294 1.22.294.66 0 1.2-.07 1.62-.21.53-.168.98-.457 1.38-.868.4-.42.7-.887.89-1.4.2-.523.3-1.069.3-1.638 0-1.297-.4-2.338-1.21-3.122-.8-.784-1.84-1.176-3.12-1.176-.28 0-.53.014-.74.042-.21.028-.36.089-.45.182a.58.58 0 0 0-.15.322c-.01.13-.02.303-.02.518zm7.93 3.164c0-1.25.49-2.32 1.47-3.206.99-.896 2.12-1.344 3.41-1.344 1.36 0 2.5.43 3.45 1.288.95.85 1.42 1.937 1.42 3.262s-.47 2.417-1.41 3.276-2.1 1.288-3.46 1.288c-1.29 0-2.42-.439-3.39-1.316-.99-.905-1.49-1.988-1.49-3.248zm8.48 0c0-.57-.07-1.092-.21-1.568-.14-.476-.38-.92-.73-1.33-.33-.41-.73-.723-1.17-.938a3.241 3.241 0 0 0-1.46-.336c-.55 0-1.07.112-1.55.336-.48.224-.88.541-1.21.952-.32.401-.54.845-.68 1.33a5.582 5.582 0 0 0-.21 1.554c0 .56.07 1.092.21 1.596.15.495.39.943.72 1.344.34.392.74.695 1.21.91.47.215.98.322 1.51.322.52 0 1.02-.117 1.48-.35.48-.243.88-.565 1.19-.966.33-.41.56-.854.69-1.33.14-.476.21-.985.21-1.526zm8.44.742-1.65 3.514c-.05.13-.08.205-.1.224a.192.192 0 0 1-.15.084c-.06 0-.11-.047-.16-.14-.04-.084-.07-.14-.08-.168l-3.3-7.112c-.07-.14-.13-.285-.2-.434-.1-.224-.19-.373-.27-.448a.49.49 0 0 0-.25-.168 1.008 1.008 0 0 0-.32-.042c-.22 0-.34-.07-.34-.21 0-.112.08-.168.23-.168.15 0 .37.01.67.028.3.019.53.028.7.028.16 0 .42-.01.77-.028.36-.019.56-.028.57-.028.17 0 .26.065.26.196 0 .084-.03.135-.09.154a.733.733 0 0 1-.25.028c-.16 0-.29.019-.39.056-.1.037-.16.121-.16.252 0 .103.03.224.09.364.06.14.11.238.14.294l2.78 6.006 1.03-2.184c.03-.084.07-.173.11-.266a.75.75 0 0 0 .05-.28c0-.112-.04-.28-.14-.504-.07-.15-.12-.252-.14-.308l-1.16-2.506c-.17-.355-.26-.55-.29-.588-.15-.224-.33-.336-.53-.336h-.17c-.17 0-.25-.06-.25-.182 0-.13.07-.196.21-.196.15 0 .4.01.77.028.37.019.57.028.6.028.16 0 .41-.01.77-.028.36-.019.55-.028.57-.028.16 0 .24.07.24.21 0 .084-.04.135-.13.154-.07.01-.17.014-.3.014-.14 0-.26.023-.34.07-.08.047-.13.13-.13.252 0 .065.03.163.07.294.06.13.11.252.16.364l.89 1.96.93-1.974c.03-.075.07-.191.14-.35.06-.159.1-.27.1-.336 0-.084-.05-.15-.14-.196a.508.508 0 0 0-.27-.084c-.26 0-.39-.056-.39-.168 0-.14.09-.21.26-.21.12 0 .28.01.51.028.22.019.39.028.5.028.11 0 .28-.01.51-.028.22-.019.39-.028.5-.028.12 0 .18.06.18.182 0 .093-.03.15-.1.168-.06.019-.16.028-.3.028-.3 0-.55.126-.75.378-.08.112-.22.373-.4.784l-.65 1.344c-.15.308-.23.495-.25.56-.04.13-.07.243-.07.336 0 .084.02.168.04.252.03.084.11.252.23.504l1.19 2.688 2.38-5.754c.04-.103.09-.229.14-.378.04-.15.07-.266.07-.35 0-.168-.07-.27-.2-.308a1.771 1.771 0 0 0-.5-.056c-.16 0-.24-.065-.24-.196 0-.121.08-.182.24-.182.11 0 .31.01.59.028.28.019.43.028.44.028.12 0 .28-.01.51-.028.22-.019.39-.028.52-.028.15 0 .23.07.23.21 0 .112-.12.168-.37.168-.11 0-.2.01-.27.028-.07.019-.14.08-.24.182-.09.103-.18.243-.26.42a6.23 6.23 0 0 0-.24.532l-2.91 7.028c-.02.056-.05.112-.07.168-.03.065-.08.098-.14.098-.07 0-.13-.06-.2-.182-.07-.13-.11-.215-.13-.252l-1.51-3.332zm13.91 1.848V6.51c0-.345-.05-.574-.15-.686-.1-.112-.36-.168-.77-.168-.23 0-.35-.051-.35-.154 0-.15.08-.224.25-.224.14 0 .37.01.7.028.33.019.5.028.53.028.15 0 .39-.01.7-.028.33-.019.5-.028.52-.028.16 0 .24.075.24.224 0 .056-.03.098-.09.126a.869.869 0 0 1-.28.028c-.43 0-.7.084-.81.252-.06.112-.1.415-.1.91v7.112c0 .177-.03.266-.09.266-.07 0-.14-.042-.21-.126-.02-.028-.07-.098-.14-.21l-5.88-7.644v6.328c0 .513.02.817.08.91.09.168.37.252.83.252.23 0 .35.047.35.14 0 .14-.08.21-.24.21-.14 0-.37-.01-.7-.028-.33-.019-.51-.028-.53-.028-.13 0-.33.01-.61.028-.27.019-.47.028-.61.028-.17 0-.25-.07-.25-.21 0-.093.07-.14.22-.14h.14c.53 0 .83-.13.88-.392.02-.084.03-.34.03-.77V6.51c0-.355-.04-.579-.13-.672-.11-.121-.37-.182-.78-.182-.23 0-.35-.051-.35-.154 0-.084.03-.14.1-.168a.502.502 0 0 1 .24-.056h1.73c.13.028.25.089.34.182.02.019.1.121.24.308l4.95 6.426z" fill="#fff"/><circle cx="1314.5" cy="10" r="3.5" fill="#4C465A"/><path d="m1342.49 9.996-.72-.308c-.64-.28-1.11-.555-1.4-.826a1.896 1.896 0 0 1-.63-1.442c0-.71.27-1.279.8-1.708a2.935 2.935 0 0 1 1.9-.658c.31 0 .63.028.97.084.35.047.65.121.91.224.12.047.19.107.21.182.03.065.04.177.04.336l.06 1.092c0 .112-.05.168-.16.168-.06 0-.11-.047-.15-.14-.04-.093-.06-.154-.07-.182-.17-.513-.37-.882-.62-1.106-.28-.252-.68-.378-1.2-.378-.49 0-.92.13-1.27.392-.36.252-.54.62-.54 1.106 0 .513.3.961.89 1.344.2.13.72.378 1.56.742.29.13.54.257.75.378.28.159.49.322.64.49.21.233.37.495.49.784.12.28.18.574.18.882 0 .383-.09.747-.26 1.092-.18.345-.42.644-.73.896-.3.252-.64.439-1.02.56a4.243 4.243 0 0 1-2.31.014 3.71 3.71 0 0 1-1.01-.392.39.39 0 0 1-.17-.21 1.795 1.795 0 0 1-.03-.364v-.728c0-.168.01-.327.03-.476.02-.15.05-.247.08-.294.04-.047.09-.07.14-.07.09 0 .14.051.16.154.02.103.03.205.04.308.07.616.28 1.097.62 1.442.33.345.81.518 1.44.518.56 0 1.04-.168 1.45-.504.42-.336.63-.775.63-1.316 0-.523-.16-.957-.49-1.302-.26-.28-.66-.541-1.21-.784zm11.03-3.85.1.91c0 .121-.05.182-.16.182a3.936 3.936 0 0 0-.93-1.218c-.43-.383-1-.574-1.71-.574-1.11 0-1.99.42-2.63 1.26-.59.765-.89 1.717-.89 2.856 0 1.027.29 1.941.87 2.744.35.476.74.845 1.16 1.106.44.252.94.378 1.49.378.7 0 1.27-.229 1.71-.686.33-.504.67-1.008 1-1.512.13 0 .18.06.16.182l-.07 1.134c0 .224-.02.364-.06.42-.03.056-.17.14-.39.252-.83.392-1.67.588-2.53.588-1.27 0-2.36-.448-3.25-1.344-.89-.905-1.33-1.988-1.33-3.248 0-1.27.48-2.338 1.44-3.206a4.934 4.934 0 0 1 3.42-1.316c.3 0 .66.037 1.1.112.45.075.82.163 1.11.266.19.065.31.182.35.35 0 .019.01.14.04.364zm2.11 6.398V6.51c0-.355-.04-.579-.12-.672-.12-.121-.38-.182-.79-.182-.23 0-.35-.056-.35-.168 0-.14.09-.21.25-.21.15 0 .41.01.77.028.38.019.58.028.61.028.28 0 .73-.01 1.37-.028.64-.019.98-.028 1.02-.028.74 0 1.34.168 1.82.504.55.383.83.924.83 1.624a1.93 1.93 0 0 1-.68 1.498c-.41.364-.92.588-1.54.672.2.028.37.145.52.35.07.084.18.275.34.574l1.13 2.184c.21.401.34.635.39.7a.86.86 0 0 0 .69.322c.12 0 .21.01.27.028.06.019.09.075.09.168 0 .103-.08.154-.25.154h-1.48a.366.366 0 0 1-.3-.154 5.188 5.188 0 0 1-.18-.322l-1.37-2.73c-.27-.523-.46-.826-.56-.91-.16-.121-.49-.182-.99-.182-.17 0-.27.023-.31.07-.04.047-.06.145-.07.294v2.422c0 .513.03.817.08.91.1.168.38.252.83.252.11 0 .2.01.26.028.07.019.1.065.1.14 0 .121-.08.182-.24.182-.18 0-.49-.01-.91-.028-.41-.019-.63-.028-.65-.028-.18 0-.48.01-.91.028-.43.019-.66.028-.69.028-.16 0-.24-.06-.24-.182 0-.084.03-.13.09-.14a.939.939 0 0 1 .26-.028c.53 0 .83-.13.88-.392.02-.084.03-.34.03-.77zm1.11-5.852v2.506c0 .093.04.163.11.21.08.037.19.056.31.056.14-.01.24-.014.29-.014.39 0 .72-.028.98-.084.26-.056.51-.173.74-.35.24-.187.41-.401.51-.644.11-.252.17-.523.17-.812 0-.635-.18-1.125-.54-1.47-.35-.345-.85-.518-1.48-.518-.51 0-.83.06-.94.182-.1.112-.15.425-.15.938zm5.72 2.912c0-1.25.49-2.32 1.47-3.206.99-.896 2.13-1.344 3.42-1.344 1.35 0 2.5.43 3.44 1.288.95.85 1.43 1.937 1.43 3.262s-.47 2.417-1.41 3.276c-.95.859-2.1 1.288-3.46 1.288-1.29 0-2.42-.439-3.39-1.316-1-.905-1.5-1.988-1.5-3.248zm8.49 0c0-.57-.07-1.092-.21-1.568-.14-.476-.39-.92-.73-1.33-.34-.41-.73-.723-1.18-.938a3.2 3.2 0 0 0-1.45-.336c-.56 0-1.07.112-1.56.336a3.31 3.31 0 0 0-1.2.952c-.32.401-.55.845-.69 1.33a5.582 5.582 0 0 0-.21 1.554c0 .56.07 1.092.21 1.596.15.495.39.943.73 1.344.34.392.74.695 1.2.91.48.215.98.322 1.52.322.52 0 1.01-.117 1.48-.35.48-.243.87-.565 1.19-.966.33-.41.55-.854.69-1.33.14-.476.21-.985.21-1.526zm4.42-2.8v5.306c0 .607.06.999.17 1.176.17.261.54.392 1.12.392.3 0 .58-.033.84-.098.27-.075.5-.196.7-.364.14-.112.28-.29.42-.532.11-.187.21-.397.31-.63.04-.121.1-.182.16-.182.09 0 .13.065.13.196a7 7 0 0 1-.08.756c-.05.355-.07.588-.07.7 0 .233-.02.383-.05.448-.02.056-.13.084-.32.084-.47 0-1.24-.01-2.34-.028-1.08-.019-1.65-.028-1.72-.028-.16 0-.39.01-.7.028-.31.019-.54.028-.7.028-.16 0-.24-.065-.24-.196 0-.121.12-.182.37-.182.45 0 .72-.08.81-.238.06-.093.08-.397.08-.91V6.496c0-.345-.04-.565-.12-.658-.11-.121-.38-.182-.79-.182-.23 0-.35-.06-.35-.182 0-.13.08-.196.24-.196.19 0 .49.01.9.028.42.019.64.028.67.028.18 0 .48-.01.91-.028.43-.019.66-.028.69-.028.15 0 .23.065.23.196 0 .075-.03.126-.11.154a.91.91 0 0 1-.25.028c-.4 0-.65.056-.76.168-.1.112-.15.336-.15.672v.308zm6.53 0v5.306c0 .607.05.999.16 1.176.17.261.55.392 1.12.392.3 0 .58-.033.84-.098.27-.075.51-.196.7-.364.14-.112.28-.29.42-.532.12-.187.22-.397.31-.63.05-.121.1-.182.17-.182.08 0 .13.065.13.196 0 .14-.03.392-.09.756-.04.355-.07.588-.07.7 0 .233-.01.383-.04.448-.03.056-.14.084-.32.084-.47 0-1.25-.01-2.34-.028-1.08-.019-1.66-.028-1.72-.028-.16 0-.39.01-.7.028-.31.019-.54.028-.7.028-.16 0-.24-.065-.24-.196 0-.121.12-.182.36-.182.45 0 .72-.08.82-.238.05-.093.08-.397.08-.91V6.496c0-.345-.04-.565-.13-.658-.11-.121-.37-.182-.78-.182-.23 0-.35-.06-.35-.182 0-.13.08-.196.24-.196.18 0 .48.01.89.028.42.019.65.028.68.028.17 0 .48-.01.91-.028.43-.019.65-.028.68-.028.16 0 .24.065.24.196 0 .075-.04.126-.11.154a.961.961 0 0 1-.25.028c-.41 0-.66.056-.76.168-.1.112-.15.336-.15.672v.308zm9.76 5.698V6.384c0-.205-.03-.355-.07-.448-.08-.14-.21-.21-.4-.21-.1 0-.21.019-.33.056-.11.028-.23.06-.37.098-.1 0-.15-.051-.15-.154 0-.215.53-.378 1.58-.49 1.06-.121 1.87-.182 2.44-.182.67 0 1.31.089 1.92.266a4.89 4.89 0 0 1 1.69.84c.52.392.94.891 1.26 1.498.33.607.49 1.237.49 1.89 0 .644-.13 1.26-.39 1.848a4.454 4.454 0 0 1-1.12 1.526 4.23 4.23 0 0 1-1.63.882c-.59.168-1.26.252-2 .252-.35 0-.94-.01-1.78-.028-.83-.019-1.26-.028-1.3-.028-.1 0-.27.01-.52.028-.23.019-.35.028-.36.028-.16 0-.24-.065-.24-.196 0-.075.04-.117.1-.126.07-.019.15-.028.27-.028.52 0 .81-.14.88-.42.02-.084.03-.345.03-.784zm1.1-6.062v5.81c0 .625.1 1.04.28 1.246.2.196.6.294 1.22.294.66 0 1.2-.07 1.62-.21.53-.168.98-.457 1.38-.868.4-.42.7-.887.89-1.4.2-.523.3-1.069.3-1.638 0-1.297-.4-2.338-1.21-3.122-.8-.784-1.84-1.176-3.12-1.176-.28 0-.53.014-.74.042-.21.028-.36.089-.45.182a.58.58 0 0 0-.15.322c-.01.13-.02.303-.02.518zm7.93 3.164c0-1.25.49-2.32 1.47-3.206.99-.896 2.12-1.344 3.41-1.344 1.36 0 2.5.43 3.45 1.288.95.85 1.42 1.937 1.42 3.262s-.47 2.417-1.41 3.276-2.1 1.288-3.46 1.288c-1.29 0-2.42-.439-3.39-1.316-.99-.905-1.49-1.988-1.49-3.248zm8.48 0c0-.57-.07-1.092-.21-1.568-.14-.476-.38-.92-.73-1.33-.33-.41-.73-.723-1.17-.938a3.241 3.241 0 0 0-1.46-.336c-.55 0-1.07.112-1.55.336-.48.224-.88.541-1.21.952-.32.401-.54.845-.68 1.33a5.582 5.582 0 0 0-.21 1.554c0 .56.07 1.092.21 1.596.15.495.39.943.72 1.344.34.392.74.695 1.21.91.47.215.98.322 1.51.322.52 0 1.02-.117 1.48-.35.48-.243.88-.565 1.19-.966.33-.41.56-.854.69-1.33.14-.476.21-.985.21-1.526zm8.44.742-1.65 3.514c-.05.13-.08.205-.1.224a.192.192 0 0 1-.15.084c-.06 0-.11-.047-.16-.14-.04-.084-.07-.14-.08-.168l-3.3-7.112c-.07-.14-.13-.285-.2-.434-.1-.224-.19-.373-.27-.448a.49.49 0 0 0-.25-.168 1.008 1.008 0 0 0-.32-.042c-.22 0-.34-.07-.34-.21 0-.112.08-.168.23-.168.15 0 .37.01.67.028.3.019.53.028.7.028.16 0 .42-.01.77-.028.36-.019.56-.028.57-.028.17 0 .26.065.26.196 0 .084-.03.135-.09.154a.733.733 0 0 1-.25.028c-.16 0-.29.019-.39.056-.1.037-.16.121-.16.252 0 .103.03.224.09.364.06.14.11.238.14.294l2.78 6.006 1.03-2.184c.03-.084.07-.173.11-.266a.75.75 0 0 0 .05-.28c0-.112-.04-.28-.14-.504-.07-.15-.12-.252-.14-.308l-1.16-2.506c-.17-.355-.26-.55-.29-.588-.15-.224-.33-.336-.53-.336h-.17c-.17 0-.25-.06-.25-.182 0-.13.07-.196.21-.196.15 0 .4.01.77.028.37.019.57.028.6.028.16 0 .41-.01.77-.028.36-.019.55-.028.57-.028.16 0 .24.07.24.21 0 .084-.04.135-.13.154-.07.01-.17.014-.3.014-.14 0-.26.023-.34.07-.08.047-.13.13-.13.252 0 .065.03.163.07.294.06.13.11.252.16.364l.89 1.96.93-1.974c.03-.075.07-.191.14-.35.06-.159.1-.27.1-.336 0-.084-.05-.15-.14-.196a.508.508 0 0 0-.27-.084c-.26 0-.39-.056-.39-.168 0-.14.09-.21.26-.21.12 0 .28.01.51.028.22.019.39.028.5.028.11 0 .28-.01.51-.028.22-.019.39-.028.5-.028.12 0 .18.06.18.182 0 .093-.03.15-.1.168-.06.019-.16.028-.3.028-.3 0-.55.126-.75.378-.08.112-.22.373-.4.784l-.65 1.344c-.15.308-.23.495-.25.56-.04.13-.07.243-.07.336 0 .084.02.168.04.252.03.084.11.252.23.504l1.19 2.688 2.38-5.754c.04-.103.09-.229.14-.378.04-.15.07-.266.07-.35 0-.168-.07-.27-.2-.308a1.771 1.771 0 0 0-.5-.056c-.16 0-.24-.065-.24-.196 0-.121.08-.182.24-.182.11 0 .31.01.59.028.28.019.43.028.44.028.12 0 .28-.01.51-.028.22-.019.39-.028.52-.028.15 0 .23.07.23.21 0 .112-.12.168-.37.168-.11 0-.2.01-.27.028-.07.019-.14.08-.24.182-.09.103-.18.243-.26.42a6.23 6.23 0 0 0-.24.532l-2.91 7.028c-.02.056-.05.112-.07.168-.03.065-.08.098-.14.098-.07 0-.13-.06-.2-.182-.07-.13-.11-.215-.13-.252l-1.51-3.332zm13.91 1.848V6.51c0-.345-.05-.574-.15-.686-.1-.112-.36-.168-.77-.168-.23 0-.35-.051-.35-.154 0-.15.08-.224.25-.224.14 0 .37.01.7.028.33.019.5.028.53.028.15 0 .39-.01.7-.028.33-.019.5-.028.52-.028.16 0 .24.075.24.224 0 .056-.03.098-.09.126a.869.869 0 0 1-.28.028c-.43 0-.7.084-.81.252-.06.112-.1.415-.1.91v7.112c0 .177-.03.266-.09.266-.07 0-.14-.042-.21-.126-.02-.028-.07-.098-.14-.21l-5.88-7.644v6.328c0 .513.02.817.08.91.09.168.37.252.83.252.23 0 .35.047.35.14 0 .14-.08.21-.24.21-.14 0-.37-.01-.7-.028-.33-.019-.51-.028-.53-.028-.13 0-.33.01-.61.028-.27.019-.47.028-.61.028-.17 0-.25-.07-.25-.21 0-.093.07-.14.22-.14h.14c.53 0 .83-.13.88-.392.02-.084.03-.34.03-.77V6.51c0-.355-.04-.579-.13-.672-.11-.121-.37-.182-.78-.182-.23 0-.35-.051-.35-.154 0-.084.03-.14.1-.168a.502.502 0 0 1 .24-.056h1.73c.13.028.25.089.34.182.02.019.1.121.24.308l4.95 6.426z" fill="#fff"/></svg>