<svg width="393" height="15" viewBox="0 0 393 15" fill="none" xmlns="http://www.w3.org/2000/svg">
<path d="M24.743 7.34956L24.386 7.19556C24.064 7.05556 23.8307 6.9179 23.686 6.78256C23.476 6.58656 23.371 6.34623 23.371 6.06156C23.371 5.7069 23.504 5.42223 23.77 5.20756C24.0407 4.98823 24.358 4.87856 24.722 4.87856C24.876 4.87856 25.037 4.89256 25.205 4.92056C25.3777 4.9439 25.5293 4.98123 25.66 5.03256C25.7207 5.0559 25.7557 5.08623 25.765 5.12356C25.779 5.15623 25.786 5.21223 25.786 5.29156L25.814 5.83756C25.814 5.89356 25.7883 5.92156 25.737 5.92156C25.7043 5.92156 25.6787 5.89823 25.66 5.85156C25.6413 5.8049 25.6297 5.77456 25.625 5.76056C25.541 5.5039 25.4383 5.31956 25.317 5.20756C25.177 5.08156 24.9763 5.01856 24.715 5.01856C24.4677 5.01856 24.2553 5.0839 24.078 5.21456C23.9007 5.34056 23.812 5.5249 23.812 5.76756C23.812 6.02423 23.959 6.24823 24.253 6.43956C24.3557 6.5049 24.617 6.62856 25.037 6.81056C25.1817 6.8759 25.3053 6.9389 25.408 6.99956C25.548 7.0789 25.6553 7.16056 25.73 7.24456C25.8327 7.36123 25.9143 7.4919 25.975 7.63656C26.0357 7.77656 26.066 7.92356 26.066 8.07756C26.066 8.2689 26.0217 8.4509 25.933 8.62356C25.8443 8.79623 25.723 8.94556 25.569 9.07156C25.4197 9.19756 25.2493 9.2909 25.058 9.35156C24.8713 9.40756 24.6707 9.43556 24.456 9.43556C24.2787 9.43556 24.0943 9.4099 23.903 9.35856C23.7117 9.3119 23.5437 9.24656 23.399 9.16256C23.357 9.13456 23.329 9.09956 23.315 9.05756C23.3057 9.0109 23.301 8.95023 23.301 8.87556V8.77056C23.301 8.6819 23.301 8.59556 23.301 8.51156C23.301 8.42756 23.3057 8.34823 23.315 8.27356C23.3243 8.1989 23.3383 8.1499 23.357 8.12656C23.3757 8.10323 23.399 8.09156 23.427 8.09156C23.469 8.09156 23.4947 8.11723 23.504 8.16856C23.5133 8.2199 23.5203 8.27123 23.525 8.32256C23.5623 8.63056 23.665 8.8709 23.833 9.04356C24.001 9.21623 24.2413 9.30256 24.554 9.30256C24.834 9.30256 25.0767 9.21856 25.282 9.05056C25.492 8.88256 25.597 8.66323 25.597 8.39256C25.597 8.13123 25.5153 7.91423 25.352 7.74156C25.2213 7.60156 25.0183 7.4709 24.743 7.34956ZM30.1603 5.42456L30.2093 5.87956C30.2093 5.94023 30.1836 5.97056 30.1323 5.97056C30.0156 5.73723 29.8593 5.53423 29.6633 5.36156C29.4486 5.17023 29.1639 5.07456 28.8093 5.07456C28.2539 5.07456 27.8153 5.28456 27.4933 5.70456C27.1993 6.08723 27.0523 6.56323 27.0523 7.13256C27.0523 7.6459 27.1969 8.10323 27.4863 8.50456C27.6589 8.74256 27.8526 8.9269 28.0673 9.05756C28.2866 9.18356 28.5339 9.24656 28.8093 9.24656C29.1593 9.24656 29.4439 9.13223 29.6633 8.90356C29.8313 8.65156 29.9993 8.39956 30.1673 8.14756C30.2279 8.14756 30.2536 8.1779 30.2443 8.23856L30.2093 8.80556C30.2093 8.91756 30.1999 8.98756 30.1813 9.01556C30.1626 9.04356 30.0973 9.08556 29.9853 9.14156C29.5699 9.33756 29.1476 9.43556 28.7183 9.43556C28.0836 9.43556 27.5423 9.21156 27.0943 8.76356C26.6509 8.3109 26.4293 7.76956 26.4293 7.13956C26.4293 6.5049 26.6696 5.97056 27.1503 5.53656C27.6356 5.0979 28.2049 4.87856 28.8583 4.87856C29.0076 4.87856 29.1919 4.89723 29.4113 4.93456C29.6353 4.9719 29.8196 5.01623 29.9643 5.06756C30.0623 5.10023 30.1206 5.15856 30.1393 5.24256C30.1393 5.2519 30.1463 5.31256 30.1603 5.42456ZM31.1161 8.62356V5.76056V5.60656C31.1161 5.42923 31.0951 5.31723 31.0531 5.27056C30.9971 5.2099 30.8664 5.17956 30.6611 5.17956C30.5444 5.17956 30.4861 5.15156 30.4861 5.09556C30.4861 5.02556 30.5281 4.99056 30.6121 4.99056C30.6868 4.99056 30.8151 4.99523 30.9971 5.00456C31.1838 5.0139 31.2841 5.01856 31.2981 5.01856C31.4381 5.01856 31.6668 5.0139 31.9841 5.00456C32.3061 4.99523 32.4764 4.99056 32.4951 4.99056C32.8638 4.99056 33.1671 5.07456 33.4051 5.24256C33.6804 5.4339 33.8181 5.70456 33.8181 6.05456C33.8181 6.35323 33.7061 6.6029 33.4821 6.80356C33.2768 6.98556 33.0201 7.09756 32.7121 7.13956C32.8101 7.15356 32.8964 7.2119 32.9711 7.31456C33.0038 7.35656 33.0598 7.45223 33.1391 7.60156L33.7061 8.69356C33.8088 8.89423 33.8741 9.0109 33.9021 9.04356C33.9908 9.1509 34.1051 9.20456 34.2451 9.20456C34.3058 9.20456 34.3501 9.20923 34.3781 9.21856C34.4108 9.2279 34.4271 9.2559 34.4271 9.30256C34.4271 9.3539 34.3851 9.37956 34.3011 9.37956H33.5591C33.4984 9.37956 33.4494 9.3539 33.4121 9.30256C33.3981 9.28856 33.3678 9.2349 33.3211 9.14156L32.6351 7.77656C32.4998 7.51523 32.4064 7.36356 32.3551 7.32156C32.2758 7.2609 32.1101 7.23056 31.8581 7.23056C31.7741 7.23056 31.7228 7.24223 31.7041 7.26556C31.6854 7.2889 31.6738 7.3379 31.6691 7.41256C31.6691 7.48256 31.6691 7.5269 31.6691 7.54556V8.62356C31.6691 8.88023 31.6831 9.0319 31.7111 9.07856C31.7624 9.16256 31.9001 9.20456 32.1241 9.20456C32.1801 9.20456 32.2244 9.20923 32.2571 9.21856C32.2898 9.2279 32.3061 9.25123 32.3061 9.28856C32.3061 9.34923 32.2664 9.37956 32.1871 9.37956C32.0938 9.37956 31.9421 9.3749 31.7321 9.36556C31.5268 9.35623 31.4171 9.35156 31.4031 9.35156C31.3144 9.35156 31.1628 9.35623 30.9481 9.36556C30.7334 9.3749 30.6191 9.37956 30.6051 9.37956C30.5258 9.37956 30.4861 9.34923 30.4861 9.28856C30.4861 9.24656 30.5001 9.22323 30.5281 9.21856C30.5608 9.20923 30.6051 9.20456 30.6611 9.20456C30.9271 9.20456 31.0741 9.13923 31.1021 9.00856C31.1114 8.96656 31.1161 8.83823 31.1161 8.62356ZM31.6691 5.69756V6.95056C31.6691 6.99723 31.6878 7.03223 31.7251 7.05556C31.7671 7.07423 31.8184 7.08356 31.8791 7.08356C31.9491 7.0789 31.9981 7.07656 32.0261 7.07656C32.2221 7.07656 32.3854 7.06256 32.5161 7.03456C32.6468 7.00656 32.7704 6.94823 32.8871 6.85956C33.0038 6.76623 33.0878 6.6589 33.1391 6.53756C33.1951 6.41156 33.2231 6.27623 33.2231 6.13156C33.2231 5.81423 33.1344 5.56923 32.9571 5.39656C32.7798 5.2239 32.5324 5.13756 32.2151 5.13756C31.9584 5.13756 31.8021 5.1679 31.7461 5.22856C31.6948 5.28456 31.6691 5.4409 31.6691 5.69756ZM34.4306 7.15356C34.4306 6.52823 34.6756 5.9939 35.1656 5.55056C35.6603 5.10256 36.2296 4.87856 36.8736 4.87856C37.5503 4.87856 38.1243 5.09323 38.5956 5.52256C39.0716 5.94723 39.3096 6.4909 39.3096 7.15356C39.3096 7.81623 39.074 8.36223 38.6026 8.79156C38.1313 9.2209 37.555 9.43556 36.8736 9.43556C36.2296 9.43556 35.665 9.21623 35.1796 8.77756C34.6803 8.3249 34.4306 7.78356 34.4306 7.15356ZM38.6726 7.15356C38.6726 6.8689 38.6376 6.60756 38.5676 6.36956C38.4976 6.13156 38.3763 5.9099 38.2036 5.70456C38.0356 5.49923 37.8396 5.3429 37.6156 5.23556C37.3916 5.12356 37.149 5.06756 36.8876 5.06756C36.6123 5.06756 36.3533 5.12356 36.1106 5.23556C35.8726 5.34756 35.672 5.50623 35.5086 5.71156C35.35 5.91223 35.2356 6.1339 35.1656 6.37656C35.0956 6.61923 35.0606 6.87823 35.0606 7.15356C35.0606 7.43356 35.0956 7.69956 35.1656 7.95156C35.2403 8.1989 35.3616 8.4229 35.5296 8.62356C35.6976 8.81956 35.8983 8.97123 36.1316 9.07856C36.3696 9.1859 36.6216 9.23956 36.8876 9.23956C37.149 9.23956 37.3963 9.18123 37.6296 9.06456C37.8676 8.94323 38.066 8.78223 38.2246 8.58156C38.388 8.37623 38.5023 8.15456 38.5676 7.91656C38.6376 7.67856 38.6726 7.42423 38.6726 7.15356ZM40.7846 5.75356V8.40656C40.7846 8.7099 40.8126 8.9059 40.8686 8.99456C40.9526 9.12523 41.1392 9.19056 41.4286 9.19056C41.5779 9.19056 41.7179 9.17423 41.8486 9.14156C41.9839 9.10423 42.1006 9.04356 42.1986 8.95956C42.2686 8.90356 42.3386 8.8149 42.4086 8.69356C42.4646 8.60023 42.5159 8.49523 42.5626 8.37856C42.5859 8.3179 42.6139 8.28756 42.6466 8.28756C42.6886 8.28756 42.7096 8.32023 42.7096 8.38556C42.7096 8.45556 42.6956 8.58156 42.6676 8.76356C42.6442 8.9409 42.6326 9.05756 42.6326 9.11356C42.6326 9.23023 42.6256 9.3049 42.6116 9.33756C42.5976 9.36556 42.5439 9.37956 42.4506 9.37956C42.2172 9.37956 41.8276 9.3749 41.2816 9.36556C40.7402 9.35623 40.4532 9.35156 40.4206 9.35156C40.3412 9.35156 40.2246 9.35623 40.0706 9.36556C39.9166 9.3749 39.7999 9.37956 39.7206 9.37956C39.6412 9.37956 39.6016 9.3469 39.6016 9.28156C39.6016 9.2209 39.6622 9.19056 39.7836 9.19056C40.0076 9.19056 40.1429 9.1509 40.1896 9.07156C40.2176 9.0249 40.2316 8.87323 40.2316 8.61656V5.75356V5.59956C40.2316 5.4269 40.2106 5.31723 40.1686 5.27056C40.1126 5.2099 39.9819 5.17956 39.7766 5.17956C39.6599 5.17956 39.6016 5.14923 39.6016 5.08856C39.6016 5.02323 39.6412 4.99056 39.7206 4.99056C39.8139 4.99056 39.9632 4.99523 40.1686 5.00456C40.3786 5.0139 40.4906 5.01856 40.5046 5.01856C40.5932 5.01856 40.7449 5.0139 40.9596 5.00456C41.1742 4.99523 41.2886 4.99056 41.3026 4.99056C41.3819 4.99056 41.4216 5.02323 41.4216 5.08856C41.4216 5.1259 41.4029 5.15156 41.3656 5.16556C41.3329 5.1749 41.2909 5.17956 41.2396 5.17956C41.0389 5.17956 40.9129 5.20756 40.8616 5.26356C40.8102 5.31956 40.7846 5.43156 40.7846 5.59956V5.75356ZM43.9478 5.75356V8.40656C43.9478 8.7099 43.9758 8.9059 44.0318 8.99456C44.1158 9.12523 44.3025 9.19056 44.5918 9.19056C44.7412 9.19056 44.8812 9.17423 45.0118 9.14156C45.1472 9.10423 45.2638 9.04356 45.3618 8.95956C45.4318 8.90356 45.5018 8.8149 45.5718 8.69356C45.6278 8.60023 45.6792 8.49523 45.7258 8.37856C45.7492 8.3179 45.7772 8.28756 45.8098 8.28756C45.8518 8.28756 45.8728 8.32023 45.8728 8.38556C45.8728 8.45556 45.8588 8.58156 45.8308 8.76356C45.8075 8.9409 45.7958 9.05756 45.7958 9.11356C45.7958 9.23023 45.7888 9.3049 45.7748 9.33756C45.7608 9.36556 45.7072 9.37956 45.6138 9.37956C45.3805 9.37956 44.9908 9.3749 44.4448 9.36556C43.9035 9.35623 43.6165 9.35156 43.5838 9.35156C43.5045 9.35156 43.3878 9.35623 43.2338 9.36556C43.0798 9.3749 42.9632 9.37956 42.8838 9.37956C42.8045 9.37956 42.7648 9.3469 42.7648 9.28156C42.7648 9.2209 42.8255 9.19056 42.9468 9.19056C43.1708 9.19056 43.3062 9.1509 43.3528 9.07156C43.3808 9.0249 43.3948 8.87323 43.3948 8.61656V5.75356V5.59956C43.3948 5.4269 43.3738 5.31723 43.3318 5.27056C43.2758 5.2099 43.1452 5.17956 42.9398 5.17956C42.8232 5.17956 42.7648 5.14923 42.7648 5.08856C42.7648 5.02323 42.8045 4.99056 42.8838 4.99056C42.9772 4.99056 43.1265 4.99523 43.3318 5.00456C43.5418 5.0139 43.6538 5.01856 43.6678 5.01856C43.7565 5.01856 43.9082 5.0139 44.1228 5.00456C44.3375 4.99523 44.4518 4.99056 44.4658 4.99056C44.5452 4.99056 44.5848 5.02323 44.5848 5.08856C44.5848 5.1259 44.5662 5.15156 44.5288 5.16556C44.4962 5.1749 44.4542 5.17956 44.4028 5.17956C44.2022 5.17956 44.0762 5.20756 44.0248 5.26356C43.9735 5.31956 43.9478 5.43156 43.9478 5.59956V5.75356ZM48.6283 8.60256V5.71156V5.54356C48.6283 5.4409 48.6166 5.36623 48.5933 5.31956C48.556 5.24956 48.4906 5.21456 48.3973 5.21456C48.346 5.21456 48.29 5.2239 48.2293 5.24256C48.1733 5.25656 48.1126 5.2729 48.0473 5.29156C47.996 5.29156 47.9703 5.2659 47.9703 5.21456C47.9703 5.10723 48.234 5.02556 48.7613 4.96956C49.2886 4.9089 49.6946 4.87856 49.9793 4.87856C50.3153 4.87856 50.635 4.9229 50.9383 5.01156C51.2463 5.09556 51.5286 5.23556 51.7853 5.43156C52.0466 5.62756 52.2566 5.87723 52.4153 6.18056C52.5786 6.4839 52.6603 6.7989 52.6603 7.12556C52.6603 7.44756 52.595 7.75556 52.4643 8.04956C52.3336 8.34356 52.147 8.5979 51.9043 8.81256C51.6616 9.02256 51.391 9.16956 51.0923 9.25356C50.7936 9.33756 50.46 9.37956 50.0913 9.37956C49.914 9.37956 49.6176 9.3749 49.2023 9.36556C48.787 9.35623 48.57 9.35156 48.5513 9.35156C48.5 9.35156 48.4136 9.35623 48.2923 9.36556C48.1756 9.3749 48.115 9.37956 48.1103 9.37956C48.031 9.37956 47.9913 9.3469 47.9913 9.28156C47.9913 9.24423 48.0076 9.22323 48.0403 9.21856C48.073 9.20923 48.1173 9.20456 48.1733 9.20456C48.4346 9.20456 48.5816 9.13456 48.6143 8.99456C48.6236 8.95256 48.6283 8.8219 48.6283 8.60256ZM49.1813 5.57156V8.47656C49.1813 8.78923 49.228 8.9969 49.3213 9.09956C49.4193 9.19756 49.6223 9.24656 49.9303 9.24656C50.2616 9.24656 50.5323 9.21156 50.7423 9.14156C51.0036 9.05756 51.2323 8.9129 51.4283 8.70756C51.629 8.49756 51.7783 8.26423 51.8763 8.00756C51.9743 7.74623 52.0233 7.47323 52.0233 7.18856C52.0233 6.5399 51.8226 6.01956 51.4213 5.62756C51.02 5.23556 50.4996 5.03956 49.8603 5.03956C49.7203 5.03956 49.5966 5.04656 49.4893 5.06056C49.3866 5.07456 49.312 5.1049 49.2653 5.15156C49.2233 5.19356 49.1976 5.24723 49.1883 5.31256C49.1836 5.3779 49.1813 5.46423 49.1813 5.57156ZM53.043 7.15356C53.043 6.52823 53.288 5.9939 53.778 5.55056C54.2726 5.10256 54.842 4.87856 55.486 4.87856C56.1626 4.87856 56.7366 5.09323 57.208 5.52256C57.684 5.94723 57.922 6.4909 57.922 7.15356C57.922 7.81623 57.6863 8.36223 57.215 8.79156C56.7436 9.2209 56.1673 9.43556 55.486 9.43556C54.842 9.43556 54.2773 9.21623 53.792 8.77756C53.2926 8.3249 53.043 7.78356 53.043 7.15356ZM57.285 7.15356C57.285 6.8689 57.25 6.60756 57.18 6.36956C57.11 6.13156 56.9886 5.9099 56.816 5.70456C56.648 5.49923 56.452 5.3429 56.228 5.23556C56.004 5.12356 55.7613 5.06756 55.5 5.06756C55.2246 5.06756 54.9656 5.12356 54.723 5.23556C54.485 5.34756 54.2843 5.50623 54.121 5.71156C53.9623 5.91223 53.848 6.1339 53.778 6.37656C53.708 6.61923 53.673 6.87823 53.673 7.15356C53.673 7.43356 53.708 7.69956 53.778 7.95156C53.8526 8.1989 53.974 8.4229 54.142 8.62356C54.31 8.81956 54.5106 8.97123 54.744 9.07856C54.982 9.1859 55.234 9.23956 55.5 9.23956C55.7613 9.23956 56.0086 9.18123 56.242 9.06456C56.48 8.94323 56.6783 8.78223 56.837 8.58156C57.0003 8.37623 57.1146 8.15456 57.18 7.91656C57.25 7.67856 57.285 7.42423 57.285 7.15356ZM61.4059 7.52456L60.5799 9.28156C60.5565 9.3469 60.5402 9.38423 60.5309 9.39356C60.5075 9.42156 60.4819 9.43556 60.4539 9.43556C60.4259 9.43556 60.4002 9.41223 60.3769 9.36556C60.3535 9.32356 60.3395 9.29556 60.3349 9.28156L58.6829 5.72556C58.6502 5.65556 58.6175 5.58323 58.5849 5.50856C58.5335 5.39656 58.4892 5.3219 58.4519 5.28456C58.4145 5.24256 58.3725 5.21456 58.3259 5.20056C58.2839 5.18656 58.2302 5.17956 58.1649 5.17956C58.0529 5.17956 57.9969 5.14456 57.9969 5.07456C57.9969 5.01856 58.0342 4.99056 58.1089 4.99056C58.1835 4.99056 58.2955 4.99523 58.4449 5.00456C58.5942 5.0139 58.7109 5.01856 58.7949 5.01856C58.8742 5.01856 59.0025 5.0139 59.1799 5.00456C59.3619 4.99523 59.4575 4.99056 59.4669 4.99056C59.5509 4.99056 59.5929 5.02323 59.5929 5.08856C59.5929 5.13056 59.5789 5.15623 59.5509 5.16556C59.5275 5.1749 59.4855 5.17956 59.4249 5.17956C59.3455 5.17956 59.2802 5.1889 59.2289 5.20756C59.1775 5.22623 59.1519 5.26823 59.1519 5.33356C59.1519 5.3849 59.1659 5.44556 59.1939 5.51556C59.2265 5.58556 59.2499 5.63456 59.2639 5.66256L60.6569 8.66556L61.1679 7.57356C61.1865 7.53156 61.2052 7.48723 61.2239 7.44056C61.2425 7.38923 61.2519 7.34256 61.2519 7.30056C61.2519 7.24456 61.2285 7.16056 61.1819 7.04856C61.1445 6.9739 61.1212 6.92256 61.1119 6.89456L60.5309 5.64156C60.4469 5.46423 60.3979 5.36623 60.3839 5.34756C60.3092 5.23556 60.2205 5.17956 60.1179 5.17956H60.0339C59.9499 5.17956 59.9079 5.14923 59.9079 5.08856C59.9079 5.02323 59.9429 4.99056 60.0129 4.99056C60.0875 4.99056 60.2159 4.99523 60.3979 5.00456C60.5845 5.0139 60.6849 5.01856 60.6989 5.01856C60.7782 5.01856 60.9065 5.0139 61.0839 5.00456C61.2659 4.99523 61.3615 4.99056 61.3709 4.99056C61.4502 4.99056 61.4899 5.02556 61.4899 5.09556C61.4899 5.13756 61.4689 5.16323 61.4269 5.17256C61.3895 5.17723 61.3382 5.17956 61.2729 5.17956C61.2029 5.17956 61.1469 5.19123 61.1049 5.21456C61.0629 5.2379 61.0419 5.2799 61.0419 5.34056C61.0419 5.37323 61.0535 5.42223 61.0769 5.48756C61.1049 5.5529 61.1305 5.61356 61.1539 5.66956L61.6019 6.64956L62.0639 5.66256C62.0779 5.62523 62.1012 5.5669 62.1339 5.48756C62.1665 5.40823 62.1829 5.35223 62.1829 5.31956C62.1829 5.27756 62.1595 5.2449 62.1129 5.22156C62.0709 5.19356 62.0265 5.17956 61.9799 5.17956C61.8492 5.17956 61.7839 5.15156 61.7839 5.09556C61.7839 5.02556 61.8282 4.99056 61.9169 4.99056C61.9729 4.99056 62.0569 4.99523 62.1689 5.00456C62.2809 5.0139 62.3649 5.01856 62.4209 5.01856C62.4769 5.01856 62.5609 5.0139 62.6729 5.00456C62.7849 4.99523 62.8689 4.99056 62.9249 4.99056C62.9855 4.99056 63.0159 5.0209 63.0159 5.08156C63.0159 5.12823 62.9995 5.15623 62.9669 5.16556C62.9342 5.1749 62.8829 5.17956 62.8129 5.17956C62.6635 5.17956 62.5399 5.24256 62.4419 5.36856C62.3999 5.42456 62.3322 5.55523 62.2389 5.76056L61.9169 6.43256C61.8422 6.58656 61.8002 6.6799 61.7909 6.71256C61.7675 6.7779 61.7559 6.8339 61.7559 6.88056C61.7559 6.92256 61.7629 6.96456 61.7769 7.00656C61.7909 7.04856 61.8282 7.13256 61.8889 7.25856L62.4839 8.60256L63.6739 5.72556C63.6972 5.67423 63.7205 5.61123 63.7439 5.53656C63.7672 5.4619 63.7789 5.40356 63.7789 5.36156C63.7789 5.27756 63.7462 5.22623 63.6809 5.20756C63.6202 5.1889 63.5362 5.17956 63.4289 5.17956C63.3495 5.17956 63.3099 5.1469 63.3099 5.08156C63.3099 5.0209 63.3495 4.99056 63.4289 4.99056C63.4849 4.99056 63.5829 4.99523 63.7229 5.00456C63.8629 5.0139 63.9375 5.01856 63.9469 5.01856C64.0029 5.01856 64.0869 5.0139 64.1989 5.00456C64.3109 4.99523 64.3972 4.99056 64.4579 4.99056C64.5372 4.99056 64.5769 5.02556 64.5769 5.09556C64.5769 5.15156 64.5139 5.17956 64.3879 5.17956C64.3365 5.17956 64.2922 5.18423 64.2549 5.19356C64.2222 5.2029 64.1825 5.23323 64.1359 5.28456C64.0892 5.3359 64.0449 5.4059 64.0029 5.49456C63.9609 5.58323 63.9212 5.6719 63.8839 5.76056L62.4279 9.27456C62.4185 9.30256 62.4069 9.33056 62.3929 9.35856C62.3789 9.39123 62.3555 9.40756 62.3229 9.40756C62.2902 9.40756 62.2575 9.37723 62.2249 9.31656C62.1922 9.25123 62.1712 9.20923 62.1619 9.19056L61.4059 7.52456ZM68.2613 8.44856V5.76056V5.60656C68.2613 5.4339 68.2357 5.31956 68.1843 5.26356C68.133 5.20756 68.0047 5.17956 67.7993 5.17956C67.6827 5.17956 67.6243 5.1539 67.6243 5.10256C67.6243 5.0279 67.6663 4.99056 67.7503 4.99056C67.8203 4.99056 67.937 4.99523 68.1003 5.00456C68.2637 5.0139 68.3523 5.01856 68.3663 5.01856C68.441 5.01856 68.5577 5.0139 68.7163 5.00456C68.8797 4.99523 68.966 4.99056 68.9753 4.99056C69.0547 4.99056 69.0943 5.0279 69.0943 5.10256C69.0943 5.13056 69.0803 5.15156 69.0523 5.16556C69.029 5.1749 68.9823 5.17956 68.9123 5.17956C68.693 5.17956 68.5577 5.22156 68.5063 5.30556C68.4737 5.36156 68.4573 5.51323 68.4573 5.76056V9.31656C68.4573 9.40523 68.441 9.44956 68.4083 9.44956C68.3757 9.44956 68.3407 9.42856 68.3033 9.38656C68.294 9.37256 68.2707 9.33756 68.2333 9.28156L65.2933 5.45956V8.62356C65.2933 8.88023 65.3073 9.0319 65.3353 9.07856C65.382 9.16256 65.5197 9.20456 65.7483 9.20456C65.865 9.20456 65.9233 9.2279 65.9233 9.27456C65.9233 9.34456 65.8837 9.37956 65.8043 9.37956C65.7343 9.37956 65.6177 9.3749 65.4543 9.36556C65.291 9.35623 65.2023 9.35156 65.1883 9.35156C65.123 9.35156 65.0227 9.35623 64.8873 9.36556C64.752 9.3749 64.6493 9.37956 64.5793 9.37956C64.4953 9.37956 64.4533 9.34456 64.4533 9.27456C64.4533 9.2279 64.4907 9.20456 64.5653 9.20456H64.6353C64.9013 9.20456 65.0483 9.13923 65.0763 9.00856C65.0857 8.96656 65.0903 8.83823 65.0903 8.62356V5.76056V5.60656C65.0903 5.42923 65.0693 5.31723 65.0273 5.27056C64.9713 5.2099 64.8407 5.17956 64.6353 5.17956C64.5187 5.17956 64.4603 5.1539 64.4603 5.10256C64.4603 5.06056 64.4767 5.03256 64.5093 5.01856C64.5467 4.9999 64.5863 4.99056 64.6283 4.99056H65.4963C65.5617 5.00456 65.6177 5.0349 65.6643 5.08156C65.6737 5.0909 65.7133 5.14223 65.7833 5.23556L68.2613 8.44856Z" fill="white"/>
<circle cx="96.5" cy="7.35156" r="1.5" fill="#625876"/>
<path d="M124.743 7.34956L124.386 7.19556C124.064 7.05556 123.831 6.9179 123.686 6.78256C123.476 6.58656 123.371 6.34623 123.371 6.06156C123.371 5.7069 123.504 5.42223 123.77 5.20756C124.041 4.98823 124.358 4.87856 124.722 4.87856C124.876 4.87856 125.037 4.89256 125.205 4.92056C125.378 4.9439 125.529 4.98123 125.66 5.03256C125.721 5.0559 125.756 5.08623 125.765 5.12356C125.779 5.15623 125.786 5.21223 125.786 5.29156L125.814 5.83756C125.814 5.89356 125.788 5.92156 125.737 5.92156C125.704 5.92156 125.679 5.89823 125.66 5.85156C125.641 5.8049 125.63 5.77456 125.625 5.76056C125.541 5.5039 125.438 5.31956 125.317 5.20756C125.177 5.08156 124.976 5.01856 124.715 5.01856C124.468 5.01856 124.255 5.0839 124.078 5.21456C123.901 5.34056 123.812 5.5249 123.812 5.76756C123.812 6.02423 123.959 6.24823 124.253 6.43956C124.356 6.5049 124.617 6.62856 125.037 6.81056C125.182 6.8759 125.305 6.9389 125.408 6.99956C125.548 7.0789 125.655 7.16056 125.73 7.24456C125.833 7.36123 125.914 7.4919 125.975 7.63656C126.036 7.77656 126.066 7.92356 126.066 8.07756C126.066 8.2689 126.022 8.4509 125.933 8.62356C125.844 8.79623 125.723 8.94556 125.569 9.07156C125.42 9.19756 125.249 9.2909 125.058 9.35156C124.871 9.40756 124.671 9.43556 124.456 9.43556C124.279 9.43556 124.094 9.4099 123.903 9.35856C123.712 9.3119 123.544 9.24656 123.399 9.16256C123.357 9.13456 123.329 9.09956 123.315 9.05756C123.306 9.0109 123.301 8.95023 123.301 8.87556V8.77056C123.301 8.6819 123.301 8.59556 123.301 8.51156C123.301 8.42756 123.306 8.34823 123.315 8.27356C123.324 8.1989 123.338 8.1499 123.357 8.12656C123.376 8.10323 123.399 8.09156 123.427 8.09156C123.469 8.09156 123.495 8.11723 123.504 8.16856C123.513 8.2199 123.52 8.27123 123.525 8.32256C123.562 8.63056 123.665 8.8709 123.833 9.04356C124.001 9.21623 124.241 9.30256 124.554 9.30256C124.834 9.30256 125.077 9.21856 125.282 9.05056C125.492 8.88256 125.597 8.66323 125.597 8.39256C125.597 8.13123 125.515 7.91423 125.352 7.74156C125.221 7.60156 125.018 7.4709 124.743 7.34956ZM130.16 5.42456L130.209 5.87956C130.209 5.94023 130.184 5.97056 130.132 5.97056C130.016 5.73723 129.859 5.53423 129.663 5.36156C129.449 5.17023 129.164 5.07456 128.809 5.07456C128.254 5.07456 127.815 5.28456 127.493 5.70456C127.199 6.08723 127.052 6.56323 127.052 7.13256C127.052 7.6459 127.197 8.10323 127.486 8.50456C127.659 8.74256 127.853 8.9269 128.067 9.05756C128.287 9.18356 128.534 9.24656 128.809 9.24656C129.159 9.24656 129.444 9.13223 129.663 8.90356C129.831 8.65156 129.999 8.39956 130.167 8.14756C130.228 8.14756 130.254 8.1779 130.244 8.23856L130.209 8.80556C130.209 8.91756 130.2 8.98756 130.181 9.01556C130.163 9.04356 130.097 9.08556 129.985 9.14156C129.57 9.33756 129.148 9.43556 128.718 9.43556C128.084 9.43556 127.542 9.21156 127.094 8.76356C126.651 8.3109 126.429 7.76956 126.429 7.13956C126.429 6.5049 126.67 5.97056 127.15 5.53656C127.636 5.0979 128.205 4.87856 128.858 4.87856C129.008 4.87856 129.192 4.89723 129.411 4.93456C129.635 4.9719 129.82 5.01623 129.964 5.06756C130.062 5.10023 130.121 5.15856 130.139 5.24256C130.139 5.2519 130.146 5.31256 130.16 5.42456ZM131.116 8.62356V5.76056V5.60656C131.116 5.42923 131.095 5.31723 131.053 5.27056C130.997 5.2099 130.866 5.17956 130.661 5.17956C130.544 5.17956 130.486 5.15156 130.486 5.09556C130.486 5.02556 130.528 4.99056 130.612 4.99056C130.687 4.99056 130.815 4.99523 130.997 5.00456C131.184 5.0139 131.284 5.01856 131.298 5.01856C131.438 5.01856 131.667 5.0139 131.984 5.00456C132.306 4.99523 132.476 4.99056 132.495 4.99056C132.864 4.99056 133.167 5.07456 133.405 5.24256C133.68 5.4339 133.818 5.70456 133.818 6.05456C133.818 6.35323 133.706 6.6029 133.482 6.80356C133.277 6.98556 133.02 7.09756 132.712 7.13956C132.81 7.15356 132.896 7.2119 132.971 7.31456C133.004 7.35656 133.06 7.45223 133.139 7.60156L133.706 8.69356C133.809 8.89423 133.874 9.0109 133.902 9.04356C133.991 9.1509 134.105 9.20456 134.245 9.20456C134.306 9.20456 134.35 9.20923 134.378 9.21856C134.411 9.2279 134.427 9.2559 134.427 9.30256C134.427 9.3539 134.385 9.37956 134.301 9.37956H133.559C133.498 9.37956 133.449 9.3539 133.412 9.30256C133.398 9.28856 133.368 9.2349 133.321 9.14156L132.635 7.77656C132.5 7.51523 132.406 7.36356 132.355 7.32156C132.276 7.2609 132.11 7.23056 131.858 7.23056C131.774 7.23056 131.723 7.24223 131.704 7.26556C131.685 7.2889 131.674 7.3379 131.669 7.41256C131.669 7.48256 131.669 7.5269 131.669 7.54556V8.62356C131.669 8.88023 131.683 9.0319 131.711 9.07856C131.762 9.16256 131.9 9.20456 132.124 9.20456C132.18 9.20456 132.224 9.20923 132.257 9.21856C132.29 9.2279 132.306 9.25123 132.306 9.28856C132.306 9.34923 132.266 9.37956 132.187 9.37956C132.094 9.37956 131.942 9.3749 131.732 9.36556C131.527 9.35623 131.417 9.35156 131.403 9.35156C131.314 9.35156 131.163 9.35623 130.948 9.36556C130.733 9.3749 130.619 9.37956 130.605 9.37956C130.526 9.37956 130.486 9.34923 130.486 9.28856C130.486 9.24656 130.5 9.22323 130.528 9.21856C130.561 9.20923 130.605 9.20456 130.661 9.20456C130.927 9.20456 131.074 9.13923 131.102 9.00856C131.111 8.96656 131.116 8.83823 131.116 8.62356ZM131.669 5.69756V6.95056C131.669 6.99723 131.688 7.03223 131.725 7.05556C131.767 7.07423 131.818 7.08356 131.879 7.08356C131.949 7.0789 131.998 7.07656 132.026 7.07656C132.222 7.07656 132.385 7.06256 132.516 7.03456C132.647 7.00656 132.77 6.94823 132.887 6.85956C133.004 6.76623 133.088 6.6589 133.139 6.53756C133.195 6.41156 133.223 6.27623 133.223 6.13156C133.223 5.81423 133.134 5.56923 132.957 5.39656C132.78 5.2239 132.532 5.13756 132.215 5.13756C131.958 5.13756 131.802 5.1679 131.746 5.22856C131.695 5.28456 131.669 5.4409 131.669 5.69756ZM134.431 7.15356C134.431 6.52823 134.676 5.9939 135.166 5.55056C135.66 5.10256 136.23 4.87856 136.874 4.87856C137.55 4.87856 138.124 5.09323 138.596 5.52256C139.072 5.94723 139.31 6.4909 139.31 7.15356C139.31 7.81623 139.074 8.36223 138.603 8.79156C138.131 9.2209 137.555 9.43556 136.874 9.43556C136.23 9.43556 135.665 9.21623 135.18 8.77756C134.68 8.3249 134.431 7.78356 134.431 7.15356ZM138.673 7.15356C138.673 6.8689 138.638 6.60756 138.568 6.36956C138.498 6.13156 138.376 5.9099 138.204 5.70456C138.036 5.49923 137.84 5.3429 137.616 5.23556C137.392 5.12356 137.149 5.06756 136.888 5.06756C136.612 5.06756 136.353 5.12356 136.111 5.23556C135.873 5.34756 135.672 5.50623 135.509 5.71156C135.35 5.91223 135.236 6.1339 135.166 6.37656C135.096 6.61923 135.061 6.87823 135.061 7.15356C135.061 7.43356 135.096 7.69956 135.166 7.95156C135.24 8.1989 135.362 8.4229 135.53 8.62356C135.698 8.81956 135.898 8.97123 136.132 9.07856C136.37 9.1859 136.622 9.23956 136.888 9.23956C137.149 9.23956 137.396 9.18123 137.63 9.06456C137.868 8.94323 138.066 8.78223 138.225 8.58156C138.388 8.37623 138.502 8.15456 138.568 7.91656C138.638 7.67856 138.673 7.42423 138.673 7.15356ZM140.785 5.75356V8.40656C140.785 8.7099 140.813 8.9059 140.869 8.99456C140.953 9.12523 141.139 9.19056 141.429 9.19056C141.578 9.19056 141.718 9.17423 141.849 9.14156C141.984 9.10423 142.101 9.04356 142.199 8.95956C142.269 8.90356 142.339 8.8149 142.409 8.69356C142.465 8.60023 142.516 8.49523 142.563 8.37856C142.586 8.3179 142.614 8.28756 142.647 8.28756C142.689 8.28756 142.71 8.32023 142.71 8.38556C142.71 8.45556 142.696 8.58156 142.668 8.76356C142.644 8.9409 142.633 9.05756 142.633 9.11356C142.633 9.23023 142.626 9.3049 142.612 9.33756C142.598 9.36556 142.544 9.37956 142.451 9.37956C142.217 9.37956 141.828 9.3749 141.282 9.36556C140.74 9.35623 140.453 9.35156 140.421 9.35156C140.341 9.35156 140.225 9.35623 140.071 9.36556C139.917 9.3749 139.8 9.37956 139.721 9.37956C139.641 9.37956 139.602 9.3469 139.602 9.28156C139.602 9.2209 139.662 9.19056 139.784 9.19056C140.008 9.19056 140.143 9.1509 140.19 9.07156C140.218 9.0249 140.232 8.87323 140.232 8.61656V5.75356V5.59956C140.232 5.4269 140.211 5.31723 140.169 5.27056C140.113 5.2099 139.982 5.17956 139.777 5.17956C139.66 5.17956 139.602 5.14923 139.602 5.08856C139.602 5.02323 139.641 4.99056 139.721 4.99056C139.814 4.99056 139.963 4.99523 140.169 5.00456C140.379 5.0139 140.491 5.01856 140.505 5.01856C140.593 5.01856 140.745 5.0139 140.96 5.00456C141.174 4.99523 141.289 4.99056 141.303 4.99056C141.382 4.99056 141.422 5.02323 141.422 5.08856C141.422 5.1259 141.403 5.15156 141.366 5.16556C141.333 5.1749 141.291 5.17956 141.24 5.17956C141.039 5.17956 140.913 5.20756 140.862 5.26356C140.81 5.31956 140.785 5.43156 140.785 5.59956V5.75356ZM143.948 5.75356V8.40656C143.948 8.7099 143.976 8.9059 144.032 8.99456C144.116 9.12523 144.303 9.19056 144.592 9.19056C144.741 9.19056 144.881 9.17423 145.012 9.14156C145.147 9.10423 145.264 9.04356 145.362 8.95956C145.432 8.90356 145.502 8.8149 145.572 8.69356C145.628 8.60023 145.679 8.49523 145.726 8.37856C145.749 8.3179 145.777 8.28756 145.81 8.28756C145.852 8.28756 145.873 8.32023 145.873 8.38556C145.873 8.45556 145.859 8.58156 145.831 8.76356C145.808 8.9409 145.796 9.05756 145.796 9.11356C145.796 9.23023 145.789 9.3049 145.775 9.33756C145.761 9.36556 145.707 9.37956 145.614 9.37956C145.381 9.37956 144.991 9.3749 144.445 9.36556C143.904 9.35623 143.617 9.35156 143.584 9.35156C143.505 9.35156 143.388 9.35623 143.234 9.36556C143.08 9.3749 142.963 9.37956 142.884 9.37956C142.805 9.37956 142.765 9.3469 142.765 9.28156C142.765 9.2209 142.826 9.19056 142.947 9.19056C143.171 9.19056 143.306 9.1509 143.353 9.07156C143.381 9.0249 143.395 8.87323 143.395 8.61656V5.75356V5.59956C143.395 5.4269 143.374 5.31723 143.332 5.27056C143.276 5.2099 143.145 5.17956 142.94 5.17956C142.823 5.17956 142.765 5.14923 142.765 5.08856C142.765 5.02323 142.805 4.99056 142.884 4.99056C142.977 4.99056 143.127 4.99523 143.332 5.00456C143.542 5.0139 143.654 5.01856 143.668 5.01856C143.757 5.01856 143.908 5.0139 144.123 5.00456C144.338 4.99523 144.452 4.99056 144.466 4.99056C144.545 4.99056 144.585 5.02323 144.585 5.08856C144.585 5.1259 144.566 5.15156 144.529 5.16556C144.496 5.1749 144.454 5.17956 144.403 5.17956C144.202 5.17956 144.076 5.20756 144.025 5.26356C143.974 5.31956 143.948 5.43156 143.948 5.59956V5.75356ZM148.628 8.60256V5.71156V5.54356C148.628 5.4409 148.617 5.36623 148.593 5.31956C148.556 5.24956 148.491 5.21456 148.397 5.21456C148.346 5.21456 148.29 5.2239 148.229 5.24256C148.173 5.25656 148.113 5.2729 148.047 5.29156C147.996 5.29156 147.97 5.2659 147.97 5.21456C147.97 5.10723 148.234 5.02556 148.761 4.96956C149.289 4.9089 149.695 4.87856 149.979 4.87856C150.315 4.87856 150.635 4.9229 150.938 5.01156C151.246 5.09556 151.529 5.23556 151.785 5.43156C152.047 5.62756 152.257 5.87723 152.415 6.18056C152.579 6.4839 152.66 6.7989 152.66 7.12556C152.66 7.44756 152.595 7.75556 152.464 8.04956C152.334 8.34356 152.147 8.5979 151.904 8.81256C151.662 9.02256 151.391 9.16956 151.092 9.25356C150.794 9.33756 150.46 9.37956 150.091 9.37956C149.914 9.37956 149.618 9.3749 149.202 9.36556C148.787 9.35623 148.57 9.35156 148.551 9.35156C148.5 9.35156 148.414 9.35623 148.292 9.36556C148.176 9.3749 148.115 9.37956 148.11 9.37956C148.031 9.37956 147.991 9.3469 147.991 9.28156C147.991 9.24423 148.008 9.22323 148.04 9.21856C148.073 9.20923 148.117 9.20456 148.173 9.20456C148.435 9.20456 148.582 9.13456 148.614 8.99456C148.624 8.95256 148.628 8.8219 148.628 8.60256ZM149.181 5.57156V8.47656C149.181 8.78923 149.228 8.9969 149.321 9.09956C149.419 9.19756 149.622 9.24656 149.93 9.24656C150.262 9.24656 150.532 9.21156 150.742 9.14156C151.004 9.05756 151.232 8.9129 151.428 8.70756C151.629 8.49756 151.778 8.26423 151.876 8.00756C151.974 7.74623 152.023 7.47323 152.023 7.18856C152.023 6.5399 151.823 6.01956 151.421 5.62756C151.02 5.23556 150.5 5.03956 149.86 5.03956C149.72 5.03956 149.597 5.04656 149.489 5.06056C149.387 5.07456 149.312 5.1049 149.265 5.15156C149.223 5.19356 149.198 5.24723 149.188 5.31256C149.184 5.3779 149.181 5.46423 149.181 5.57156ZM153.043 7.15356C153.043 6.52823 153.288 5.9939 153.778 5.55056C154.273 5.10256 154.842 4.87856 155.486 4.87856C156.163 4.87856 156.737 5.09323 157.208 5.52256C157.684 5.94723 157.922 6.4909 157.922 7.15356C157.922 7.81623 157.686 8.36223 157.215 8.79156C156.744 9.2209 156.167 9.43556 155.486 9.43556C154.842 9.43556 154.277 9.21623 153.792 8.77756C153.293 8.3249 153.043 7.78356 153.043 7.15356ZM157.285 7.15356C157.285 6.8689 157.25 6.60756 157.18 6.36956C157.11 6.13156 156.989 5.9099 156.816 5.70456C156.648 5.49923 156.452 5.3429 156.228 5.23556C156.004 5.12356 155.761 5.06756 155.5 5.06756C155.225 5.06756 154.966 5.12356 154.723 5.23556C154.485 5.34756 154.284 5.50623 154.121 5.71156C153.962 5.91223 153.848 6.1339 153.778 6.37656C153.708 6.61923 153.673 6.87823 153.673 7.15356C153.673 7.43356 153.708 7.69956 153.778 7.95156C153.853 8.1989 153.974 8.4229 154.142 8.62356C154.31 8.81956 154.511 8.97123 154.744 9.07856C154.982 9.1859 155.234 9.23956 155.5 9.23956C155.761 9.23956 156.009 9.18123 156.242 9.06456C156.48 8.94323 156.678 8.78223 156.837 8.58156C157 8.37623 157.115 8.15456 157.18 7.91656C157.25 7.67856 157.285 7.42423 157.285 7.15356ZM161.406 7.52456L160.58 9.28156C160.557 9.3469 160.54 9.38423 160.531 9.39356C160.508 9.42156 160.482 9.43556 160.454 9.43556C160.426 9.43556 160.4 9.41223 160.377 9.36556C160.354 9.32356 160.34 9.29556 160.335 9.28156L158.683 5.72556C158.65 5.65556 158.618 5.58323 158.585 5.50856C158.534 5.39656 158.489 5.3219 158.452 5.28456C158.415 5.24256 158.373 5.21456 158.326 5.20056C158.284 5.18656 158.23 5.17956 158.165 5.17956C158.053 5.17956 157.997 5.14456 157.997 5.07456C157.997 5.01856 158.034 4.99056 158.109 4.99056C158.184 4.99056 158.296 4.99523 158.445 5.00456C158.594 5.0139 158.711 5.01856 158.795 5.01856C158.874 5.01856 159.003 5.0139 159.18 5.00456C159.362 4.99523 159.458 4.99056 159.467 4.99056C159.551 4.99056 159.593 5.02323 159.593 5.08856C159.593 5.13056 159.579 5.15623 159.551 5.16556C159.528 5.1749 159.486 5.17956 159.425 5.17956C159.346 5.17956 159.28 5.1889 159.229 5.20756C159.178 5.22623 159.152 5.26823 159.152 5.33356C159.152 5.3849 159.166 5.44556 159.194 5.51556C159.227 5.58556 159.25 5.63456 159.264 5.66256L160.657 8.66556L161.168 7.57356C161.187 7.53156 161.205 7.48723 161.224 7.44056C161.243 7.38923 161.252 7.34256 161.252 7.30056C161.252 7.24456 161.229 7.16056 161.182 7.04856C161.145 6.9739 161.121 6.92256 161.112 6.89456L160.531 5.64156C160.447 5.46423 160.398 5.36623 160.384 5.34756C160.309 5.23556 160.221 5.17956 160.118 5.17956H160.034C159.95 5.17956 159.908 5.14923 159.908 5.08856C159.908 5.02323 159.943 4.99056 160.013 4.99056C160.088 4.99056 160.216 4.99523 160.398 5.00456C160.585 5.0139 160.685 5.01856 160.699 5.01856C160.778 5.01856 160.907 5.0139 161.084 5.00456C161.266 4.99523 161.362 4.99056 161.371 4.99056C161.45 4.99056 161.49 5.02556 161.49 5.09556C161.49 5.13756 161.469 5.16323 161.427 5.17256C161.39 5.17723 161.338 5.17956 161.273 5.17956C161.203 5.17956 161.147 5.19123 161.105 5.21456C161.063 5.2379 161.042 5.2799 161.042 5.34056C161.042 5.37323 161.054 5.42223 161.077 5.48756C161.105 5.5529 161.131 5.61356 161.154 5.66956L161.602 6.64956L162.064 5.66256C162.078 5.62523 162.101 5.5669 162.134 5.48756C162.167 5.40823 162.183 5.35223 162.183 5.31956C162.183 5.27756 162.16 5.2449 162.113 5.22156C162.071 5.19356 162.027 5.17956 161.98 5.17956C161.849 5.17956 161.784 5.15156 161.784 5.09556C161.784 5.02556 161.828 4.99056 161.917 4.99056C161.973 4.99056 162.057 4.99523 162.169 5.00456C162.281 5.0139 162.365 5.01856 162.421 5.01856C162.477 5.01856 162.561 5.0139 162.673 5.00456C162.785 4.99523 162.869 4.99056 162.925 4.99056C162.986 4.99056 163.016 5.0209 163.016 5.08156C163.016 5.12823 163 5.15623 162.967 5.16556C162.934 5.1749 162.883 5.17956 162.813 5.17956C162.664 5.17956 162.54 5.24256 162.442 5.36856C162.4 5.42456 162.332 5.55523 162.239 5.76056L161.917 6.43256C161.842 6.58656 161.8 6.6799 161.791 6.71256C161.768 6.7779 161.756 6.8339 161.756 6.88056C161.756 6.92256 161.763 6.96456 161.777 7.00656C161.791 7.04856 161.828 7.13256 161.889 7.25856L162.484 8.60256L163.674 5.72556C163.697 5.67423 163.721 5.61123 163.744 5.53656C163.767 5.4619 163.779 5.40356 163.779 5.36156C163.779 5.27756 163.746 5.22623 163.681 5.20756C163.62 5.1889 163.536 5.17956 163.429 5.17956C163.35 5.17956 163.31 5.1469 163.31 5.08156C163.31 5.0209 163.35 4.99056 163.429 4.99056C163.485 4.99056 163.583 4.99523 163.723 5.00456C163.863 5.0139 163.938 5.01856 163.947 5.01856C164.003 5.01856 164.087 5.0139 164.199 5.00456C164.311 4.99523 164.397 4.99056 164.458 4.99056C164.537 4.99056 164.577 5.02556 164.577 5.09556C164.577 5.15156 164.514 5.17956 164.388 5.17956C164.337 5.17956 164.292 5.18423 164.255 5.19356C164.222 5.2029 164.183 5.23323 164.136 5.28456C164.089 5.3359 164.045 5.4059 164.003 5.49456C163.961 5.58323 163.921 5.6719 163.884 5.76056L162.428 9.27456C162.419 9.30256 162.407 9.33056 162.393 9.35856C162.379 9.39123 162.356 9.40756 162.323 9.40756C162.29 9.40756 162.258 9.37723 162.225 9.31656C162.192 9.25123 162.171 9.20923 162.162 9.19056L161.406 7.52456ZM168.261 8.44856V5.76056V5.60656C168.261 5.4339 168.236 5.31956 168.184 5.26356C168.133 5.20756 168.005 5.17956 167.799 5.17956C167.683 5.17956 167.624 5.1539 167.624 5.10256C167.624 5.0279 167.666 4.99056 167.75 4.99056C167.82 4.99056 167.937 4.99523 168.1 5.00456C168.264 5.0139 168.352 5.01856 168.366 5.01856C168.441 5.01856 168.558 5.0139 168.716 5.00456C168.88 4.99523 168.966 4.99056 168.975 4.99056C169.055 4.99056 169.094 5.0279 169.094 5.10256C169.094 5.13056 169.08 5.15156 169.052 5.16556C169.029 5.1749 168.982 5.17956 168.912 5.17956C168.693 5.17956 168.558 5.22156 168.506 5.30556C168.474 5.36156 168.457 5.51323 168.457 5.76056V9.31656C168.457 9.40523 168.441 9.44956 168.408 9.44956C168.376 9.44956 168.341 9.42856 168.303 9.38656C168.294 9.37256 168.271 9.33756 168.233 9.28156L165.293 5.45956V8.62356C165.293 8.88023 165.307 9.0319 165.335 9.07856C165.382 9.16256 165.52 9.20456 165.748 9.20456C165.865 9.20456 165.923 9.2279 165.923 9.27456C165.923 9.34456 165.884 9.37956 165.804 9.37956C165.734 9.37956 165.618 9.3749 165.454 9.36556C165.291 9.35623 165.202 9.35156 165.188 9.35156C165.123 9.35156 165.023 9.35623 164.887 9.36556C164.752 9.3749 164.649 9.37956 164.579 9.37956C164.495 9.37956 164.453 9.34456 164.453 9.27456C164.453 9.2279 164.491 9.20456 164.565 9.20456H164.635C164.901 9.20456 165.048 9.13923 165.076 9.00856C165.086 8.96656 165.09 8.83823 165.09 8.62356V5.76056V5.60656C165.09 5.42923 165.069 5.31723 165.027 5.27056C164.971 5.2099 164.841 5.17956 164.635 5.17956C164.519 5.17956 164.46 5.1539 164.46 5.10256C164.46 5.06056 164.477 5.03256 164.509 5.01856C164.547 4.9999 164.586 4.99056 164.628 4.99056H165.496C165.562 5.00456 165.618 5.0349 165.664 5.08156C165.674 5.0909 165.713 5.14223 165.783 5.23556L168.261 8.44856Z" fill="white"/>
<circle cx="196.5" cy="7.35156" r="1.5" fill="#625878"/>
<path d="M224.743 7.34956L224.386 7.19556C224.064 7.05556 223.831 6.9179 223.686 6.78256C223.476 6.58656 223.371 6.34623 223.371 6.06156C223.371 5.7069 223.504 5.42223 223.77 5.20756C224.041 4.98823 224.358 4.87856 224.722 4.87856C224.876 4.87856 225.037 4.89256 225.205 4.92056C225.378 4.9439 225.529 4.98123 225.66 5.03256C225.721 5.0559 225.756 5.08623 225.765 5.12356C225.779 5.15623 225.786 5.21223 225.786 5.29156L225.814 5.83756C225.814 5.89356 225.788 5.92156 225.737 5.92156C225.704 5.92156 225.679 5.89823 225.66 5.85156C225.641 5.8049 225.63 5.77456 225.625 5.76056C225.541 5.5039 225.438 5.31956 225.317 5.20756C225.177 5.08156 224.976 5.01856 224.715 5.01856C224.468 5.01856 224.255 5.0839 224.078 5.21456C223.901 5.34056 223.812 5.5249 223.812 5.76756C223.812 6.02423 223.959 6.24823 224.253 6.43956C224.356 6.5049 224.617 6.62856 225.037 6.81056C225.182 6.8759 225.305 6.9389 225.408 6.99956C225.548 7.0789 225.655 7.16056 225.73 7.24456C225.833 7.36123 225.914 7.4919 225.975 7.63656C226.036 7.77656 226.066 7.92356 226.066 8.07756C226.066 8.2689 226.022 8.4509 225.933 8.62356C225.844 8.79623 225.723 8.94556 225.569 9.07156C225.42 9.19756 225.249 9.2909 225.058 9.35156C224.871 9.40756 224.671 9.43556 224.456 9.43556C224.279 9.43556 224.094 9.4099 223.903 9.35856C223.712 9.3119 223.544 9.24656 223.399 9.16256C223.357 9.13456 223.329 9.09956 223.315 9.05756C223.306 9.0109 223.301 8.95023 223.301 8.87556V8.77056C223.301 8.6819 223.301 8.59556 223.301 8.51156C223.301 8.42756 223.306 8.34823 223.315 8.27356C223.324 8.1989 223.338 8.1499 223.357 8.12656C223.376 8.10323 223.399 8.09156 223.427 8.09156C223.469 8.09156 223.495 8.11723 223.504 8.16856C223.513 8.2199 223.52 8.27123 223.525 8.32256C223.562 8.63056 223.665 8.8709 223.833 9.04356C224.001 9.21623 224.241 9.30256 224.554 9.30256C224.834 9.30256 225.077 9.21856 225.282 9.05056C225.492 8.88256 225.597 8.66323 225.597 8.39256C225.597 8.13123 225.515 7.91423 225.352 7.74156C225.221 7.60156 225.018 7.4709 224.743 7.34956ZM230.16 5.42456L230.209 5.87956C230.209 5.94023 230.184 5.97056 230.132 5.97056C230.016 5.73723 229.859 5.53423 229.663 5.36156C229.449 5.17023 229.164 5.07456 228.809 5.07456C228.254 5.07456 227.815 5.28456 227.493 5.70456C227.199 6.08723 227.052 6.56323 227.052 7.13256C227.052 7.6459 227.197 8.10323 227.486 8.50456C227.659 8.74256 227.853 8.9269 228.067 9.05756C228.287 9.18356 228.534 9.24656 228.809 9.24656C229.159 9.24656 229.444 9.13223 229.663 8.90356C229.831 8.65156 229.999 8.39956 230.167 8.14756C230.228 8.14756 230.254 8.1779 230.244 8.23856L230.209 8.80556C230.209 8.91756 230.2 8.98756 230.181 9.01556C230.163 9.04356 230.097 9.08556 229.985 9.14156C229.57 9.33756 229.148 9.43556 228.718 9.43556C228.084 9.43556 227.542 9.21156 227.094 8.76356C226.651 8.3109 226.429 7.76956 226.429 7.13956C226.429 6.5049 226.67 5.97056 227.15 5.53656C227.636 5.0979 228.205 4.87856 228.858 4.87856C229.008 4.87856 229.192 4.89723 229.411 4.93456C229.635 4.9719 229.82 5.01623 229.964 5.06756C230.062 5.10023 230.121 5.15856 230.139 5.24256C230.139 5.2519 230.146 5.31256 230.16 5.42456ZM231.116 8.62356V5.76056V5.60656C231.116 5.42923 231.095 5.31723 231.053 5.27056C230.997 5.2099 230.866 5.17956 230.661 5.17956C230.544 5.17956 230.486 5.15156 230.486 5.09556C230.486 5.02556 230.528 4.99056 230.612 4.99056C230.687 4.99056 230.815 4.99523 230.997 5.00456C231.184 5.0139 231.284 5.01856 231.298 5.01856C231.438 5.01856 231.667 5.0139 231.984 5.00456C232.306 4.99523 232.476 4.99056 232.495 4.99056C232.864 4.99056 233.167 5.07456 233.405 5.24256C233.68 5.4339 233.818 5.70456 233.818 6.05456C233.818 6.35323 233.706 6.6029 233.482 6.80356C233.277 6.98556 233.02 7.09756 232.712 7.13956C232.81 7.15356 232.896 7.2119 232.971 7.31456C233.004 7.35656 233.06 7.45223 233.139 7.60156L233.706 8.69356C233.809 8.89423 233.874 9.0109 233.902 9.04356C233.991 9.1509 234.105 9.20456 234.245 9.20456C234.306 9.20456 234.35 9.20923 234.378 9.21856C234.411 9.2279 234.427 9.2559 234.427 9.30256C234.427 9.3539 234.385 9.37956 234.301 9.37956H233.559C233.498 9.37956 233.449 9.3539 233.412 9.30256C233.398 9.28856 233.368 9.2349 233.321 9.14156L232.635 7.77656C232.5 7.51523 232.406 7.36356 232.355 7.32156C232.276 7.2609 232.11 7.23056 231.858 7.23056C231.774 7.23056 231.723 7.24223 231.704 7.26556C231.685 7.2889 231.674 7.3379 231.669 7.41256C231.669 7.48256 231.669 7.5269 231.669 7.54556V8.62356C231.669 8.88023 231.683 9.0319 231.711 9.07856C231.762 9.16256 231.9 9.20456 232.124 9.20456C232.18 9.20456 232.224 9.20923 232.257 9.21856C232.29 9.2279 232.306 9.25123 232.306 9.28856C232.306 9.34923 232.266 9.37956 232.187 9.37956C232.094 9.37956 231.942 9.3749 231.732 9.36556C231.527 9.35623 231.417 9.35156 231.403 9.35156C231.314 9.35156 231.163 9.35623 230.948 9.36556C230.733 9.3749 230.619 9.37956 230.605 9.37956C230.526 9.37956 230.486 9.34923 230.486 9.28856C230.486 9.24656 230.5 9.22323 230.528 9.21856C230.561 9.20923 230.605 9.20456 230.661 9.20456C230.927 9.20456 231.074 9.13923 231.102 9.00856C231.111 8.96656 231.116 8.83823 231.116 8.62356ZM231.669 5.69756V6.95056C231.669 6.99723 231.688 7.03223 231.725 7.05556C231.767 7.07423 231.818 7.08356 231.879 7.08356C231.949 7.0789 231.998 7.07656 232.026 7.07656C232.222 7.07656 232.385 7.06256 232.516 7.03456C232.647 7.00656 232.77 6.94823 232.887 6.85956C233.004 6.76623 233.088 6.6589 233.139 6.53756C233.195 6.41156 233.223 6.27623 233.223 6.13156C233.223 5.81423 233.134 5.56923 232.957 5.39656C232.78 5.2239 232.532 5.13756 232.215 5.13756C231.958 5.13756 231.802 5.1679 231.746 5.22856C231.695 5.28456 231.669 5.4409 231.669 5.69756ZM234.431 7.15356C234.431 6.52823 234.676 5.9939 235.166 5.55056C235.66 5.10256 236.23 4.87856 236.874 4.87856C237.55 4.87856 238.124 5.09323 238.596 5.52256C239.072 5.94723 239.31 6.4909 239.31 7.15356C239.31 7.81623 239.074 8.36223 238.603 8.79156C238.131 9.2209 237.555 9.43556 236.874 9.43556C236.23 9.43556 235.665 9.21623 235.18 8.77756C234.68 8.3249 234.431 7.78356 234.431 7.15356ZM238.673 7.15356C238.673 6.8689 238.638 6.60756 238.568 6.36956C238.498 6.13156 238.376 5.9099 238.204 5.70456C238.036 5.49923 237.84 5.3429 237.616 5.23556C237.392 5.12356 237.149 5.06756 236.888 5.06756C236.612 5.06756 236.353 5.12356 236.111 5.23556C235.873 5.34756 235.672 5.50623 235.509 5.71156C235.35 5.91223 235.236 6.1339 235.166 6.37656C235.096 6.61923 235.061 6.87823 235.061 7.15356C235.061 7.43356 235.096 7.69956 235.166 7.95156C235.24 8.1989 235.362 8.4229 235.53 8.62356C235.698 8.81956 235.898 8.97123 236.132 9.07856C236.37 9.1859 236.622 9.23956 236.888 9.23956C237.149 9.23956 237.396 9.18123 237.63 9.06456C237.868 8.94323 238.066 8.78223 238.225 8.58156C238.388 8.37623 238.502 8.15456 238.568 7.91656C238.638 7.67856 238.673 7.42423 238.673 7.15356ZM240.785 5.75356V8.40656C240.785 8.7099 240.813 8.9059 240.869 8.99456C240.953 9.12523 241.139 9.19056 241.429 9.19056C241.578 9.19056 241.718 9.17423 241.849 9.14156C241.984 9.10423 242.101 9.04356 242.199 8.95956C242.269 8.90356 242.339 8.8149 242.409 8.69356C242.465 8.60023 242.516 8.49523 242.563 8.37856C242.586 8.3179 242.614 8.28756 242.647 8.28756C242.689 8.28756 242.71 8.32023 242.71 8.38556C242.71 8.45556 242.696 8.58156 242.668 8.76356C242.644 8.9409 242.633 9.05756 242.633 9.11356C242.633 9.23023 242.626 9.3049 242.612 9.33756C242.598 9.36556 242.544 9.37956 242.451 9.37956C242.217 9.37956 241.828 9.3749 241.282 9.36556C240.74 9.35623 240.453 9.35156 240.421 9.35156C240.341 9.35156 240.225 9.35623 240.071 9.36556C239.917 9.3749 239.8 9.37956 239.721 9.37956C239.641 9.37956 239.602 9.3469 239.602 9.28156C239.602 9.2209 239.662 9.19056 239.784 9.19056C240.008 9.19056 240.143 9.1509 240.19 9.07156C240.218 9.0249 240.232 8.87323 240.232 8.61656V5.75356V5.59956C240.232 5.4269 240.211 5.31723 240.169 5.27056C240.113 5.2099 239.982 5.17956 239.777 5.17956C239.66 5.17956 239.602 5.14923 239.602 5.08856C239.602 5.02323 239.641 4.99056 239.721 4.99056C239.814 4.99056 239.963 4.99523 240.169 5.00456C240.379 5.0139 240.491 5.01856 240.505 5.01856C240.593 5.01856 240.745 5.0139 240.96 5.00456C241.174 4.99523 241.289 4.99056 241.303 4.99056C241.382 4.99056 241.422 5.02323 241.422 5.08856C241.422 5.1259 241.403 5.15156 241.366 5.16556C241.333 5.1749 241.291 5.17956 241.24 5.17956C241.039 5.17956 240.913 5.20756 240.862 5.26356C240.81 5.31956 240.785 5.43156 240.785 5.59956V5.75356ZM243.948 5.75356V8.40656C243.948 8.7099 243.976 8.9059 244.032 8.99456C244.116 9.12523 244.303 9.19056 244.592 9.19056C244.741 9.19056 244.881 9.17423 245.012 9.14156C245.147 9.10423 245.264 9.04356 245.362 8.95956C245.432 8.90356 245.502 8.8149 245.572 8.69356C245.628 8.60023 245.679 8.49523 245.726 8.37856C245.749 8.3179 245.777 8.28756 245.81 8.28756C245.852 8.28756 245.873 8.32023 245.873 8.38556C245.873 8.45556 245.859 8.58156 245.831 8.76356C245.808 8.9409 245.796 9.05756 245.796 9.11356C245.796 9.23023 245.789 9.3049 245.775 9.33756C245.761 9.36556 245.707 9.37956 245.614 9.37956C245.381 9.37956 244.991 9.3749 244.445 9.36556C243.904 9.35623 243.617 9.35156 243.584 9.35156C243.505 9.35156 243.388 9.35623 243.234 9.36556C243.08 9.3749 242.963 9.37956 242.884 9.37956C242.805 9.37956 242.765 9.3469 242.765 9.28156C242.765 9.2209 242.826 9.19056 242.947 9.19056C243.171 9.19056 243.306 9.1509 243.353 9.07156C243.381 9.0249 243.395 8.87323 243.395 8.61656V5.75356V5.59956C243.395 5.4269 243.374 5.31723 243.332 5.27056C243.276 5.2099 243.145 5.17956 242.94 5.17956C242.823 5.17956 242.765 5.14923 242.765 5.08856C242.765 5.02323 242.805 4.99056 242.884 4.99056C242.977 4.99056 243.127 4.99523 243.332 5.00456C243.542 5.0139 243.654 5.01856 243.668 5.01856C243.757 5.01856 243.908 5.0139 244.123 5.00456C244.338 4.99523 244.452 4.99056 244.466 4.99056C244.545 4.99056 244.585 5.02323 244.585 5.08856C244.585 5.1259 244.566 5.15156 244.529 5.16556C244.496 5.1749 244.454 5.17956 244.403 5.17956C244.202 5.17956 244.076 5.20756 244.025 5.26356C243.974 5.31956 243.948 5.43156 243.948 5.59956V5.75356ZM248.628 8.60256V5.71156V5.54356C248.628 5.4409 248.617 5.36623 248.593 5.31956C248.556 5.24956 248.491 5.21456 248.397 5.21456C248.346 5.21456 248.29 5.2239 248.229 5.24256C248.173 5.25656 248.113 5.2729 248.047 5.29156C247.996 5.29156 247.97 5.2659 247.97 5.21456C247.97 5.10723 248.234 5.02556 248.761 4.96956C249.289 4.9089 249.695 4.87856 249.979 4.87856C250.315 4.87856 250.635 4.9229 250.938 5.01156C251.246 5.09556 251.529 5.23556 251.785 5.43156C252.047 5.62756 252.257 5.87723 252.415 6.18056C252.579 6.4839 252.66 6.7989 252.66 7.12556C252.66 7.44756 252.595 7.75556 252.464 8.04956C252.334 8.34356 252.147 8.5979 251.904 8.81256C251.662 9.02256 251.391 9.16956 251.092 9.25356C250.794 9.33756 250.46 9.37956 250.091 9.37956C249.914 9.37956 249.618 9.3749 249.202 9.36556C248.787 9.35623 248.57 9.35156 248.551 9.35156C248.5 9.35156 248.414 9.35623 248.292 9.36556C248.176 9.3749 248.115 9.37956 248.11 9.37956C248.031 9.37956 247.991 9.3469 247.991 9.28156C247.991 9.24423 248.008 9.22323 248.04 9.21856C248.073 9.20923 248.117 9.20456 248.173 9.20456C248.435 9.20456 248.582 9.13456 248.614 8.99456C248.624 8.95256 248.628 8.8219 248.628 8.60256ZM249.181 5.57156V8.47656C249.181 8.78923 249.228 8.9969 249.321 9.09956C249.419 9.19756 249.622 9.24656 249.93 9.24656C250.262 9.24656 250.532 9.21156 250.742 9.14156C251.004 9.05756 251.232 8.9129 251.428 8.70756C251.629 8.49756 251.778 8.26423 251.876 8.00756C251.974 7.74623 252.023 7.47323 252.023 7.18856C252.023 6.5399 251.823 6.01956 251.421 5.62756C251.02 5.23556 250.5 5.03956 249.86 5.03956C249.72 5.03956 249.597 5.04656 249.489 5.06056C249.387 5.07456 249.312 5.1049 249.265 5.15156C249.223 5.19356 249.198 5.24723 249.188 5.31256C249.184 5.3779 249.181 5.46423 249.181 5.57156ZM253.043 7.15356C253.043 6.52823 253.288 5.9939 253.778 5.55056C254.273 5.10256 254.842 4.87856 255.486 4.87856C256.163 4.87856 256.737 5.09323 257.208 5.52256C257.684 5.94723 257.922 6.4909 257.922 7.15356C257.922 7.81623 257.686 8.36223 257.215 8.79156C256.744 9.2209 256.167 9.43556 255.486 9.43556C254.842 9.43556 254.277 9.21623 253.792 8.77756C253.293 8.3249 253.043 7.78356 253.043 7.15356ZM257.285 7.15356C257.285 6.8689 257.25 6.60756 257.18 6.36956C257.11 6.13156 256.989 5.9099 256.816 5.70456C256.648 5.49923 256.452 5.3429 256.228 5.23556C256.004 5.12356 255.761 5.06756 255.5 5.06756C255.225 5.06756 254.966 5.12356 254.723 5.23556C254.485 5.34756 254.284 5.50623 254.121 5.71156C253.962 5.91223 253.848 6.1339 253.778 6.37656C253.708 6.61923 253.673 6.87823 253.673 7.15356C253.673 7.43356 253.708 7.69956 253.778 7.95156C253.853 8.1989 253.974 8.4229 254.142 8.62356C254.31 8.81956 254.511 8.97123 254.744 9.07856C254.982 9.1859 255.234 9.23956 255.5 9.23956C255.761 9.23956 256.009 9.18123 256.242 9.06456C256.48 8.94323 256.678 8.78223 256.837 8.58156C257 8.37623 257.115 8.15456 257.18 7.91656C257.25 7.67856 257.285 7.42423 257.285 7.15356ZM261.406 7.52456L260.58 9.28156C260.557 9.3469 260.54 9.38423 260.531 9.39356C260.508 9.42156 260.482 9.43556 260.454 9.43556C260.426 9.43556 260.4 9.41223 260.377 9.36556C260.354 9.32356 260.34 9.29556 260.335 9.28156L258.683 5.72556C258.65 5.65556 258.618 5.58323 258.585 5.50856C258.534 5.39656 258.489 5.3219 258.452 5.28456C258.415 5.24256 258.373 5.21456 258.326 5.20056C258.284 5.18656 258.23 5.17956 258.165 5.17956C258.053 5.17956 257.997 5.14456 257.997 5.07456C257.997 5.01856 258.034 4.99056 258.109 4.99056C258.184 4.99056 258.296 4.99523 258.445 5.00456C258.594 5.0139 258.711 5.01856 258.795 5.01856C258.874 5.01856 259.003 5.0139 259.18 5.00456C259.362 4.99523 259.458 4.99056 259.467 4.99056C259.551 4.99056 259.593 5.02323 259.593 5.08856C259.593 5.13056 259.579 5.15623 259.551 5.16556C259.528 5.1749 259.486 5.17956 259.425 5.17956C259.346 5.17956 259.28 5.1889 259.229 5.20756C259.178 5.22623 259.152 5.26823 259.152 5.33356C259.152 5.3849 259.166 5.44556 259.194 5.51556C259.227 5.58556 259.25 5.63456 259.264 5.66256L260.657 8.66556L261.168 7.57356C261.187 7.53156 261.205 7.48723 261.224 7.44056C261.243 7.38923 261.252 7.34256 261.252 7.30056C261.252 7.24456 261.229 7.16056 261.182 7.04856C261.145 6.9739 261.121 6.92256 261.112 6.89456L260.531 5.64156C260.447 5.46423 260.398 5.36623 260.384 5.34756C260.309 5.23556 260.221 5.17956 260.118 5.17956H260.034C259.95 5.17956 259.908 5.14923 259.908 5.08856C259.908 5.02323 259.943 4.99056 260.013 4.99056C260.088 4.99056 260.216 4.99523 260.398 5.00456C260.585 5.0139 260.685 5.01856 260.699 5.01856C260.778 5.01856 260.907 5.0139 261.084 5.00456C261.266 4.99523 261.362 4.99056 261.371 4.99056C261.45 4.99056 261.49 5.02556 261.49 5.09556C261.49 5.13756 261.469 5.16323 261.427 5.17256C261.39 5.17723 261.338 5.17956 261.273 5.17956C261.203 5.17956 261.147 5.19123 261.105 5.21456C261.063 5.2379 261.042 5.2799 261.042 5.34056C261.042 5.37323 261.054 5.42223 261.077 5.48756C261.105 5.5529 261.131 5.61356 261.154 5.66956L261.602 6.64956L262.064 5.66256C262.078 5.62523 262.101 5.5669 262.134 5.48756C262.167 5.40823 262.183 5.35223 262.183 5.31956C262.183 5.27756 262.16 5.2449 262.113 5.22156C262.071 5.19356 262.027 5.17956 261.98 5.17956C261.849 5.17956 261.784 5.15156 261.784 5.09556C261.784 5.02556 261.828 4.99056 261.917 4.99056C261.973 4.99056 262.057 4.99523 262.169 5.00456C262.281 5.0139 262.365 5.01856 262.421 5.01856C262.477 5.01856 262.561 5.0139 262.673 5.00456C262.785 4.99523 262.869 4.99056 262.925 4.99056C262.986 4.99056 263.016 5.0209 263.016 5.08156C263.016 5.12823 263 5.15623 262.967 5.16556C262.934 5.1749 262.883 5.17956 262.813 5.17956C262.664 5.17956 262.54 5.24256 262.442 5.36856C262.4 5.42456 262.332 5.55523 262.239 5.76056L261.917 6.43256C261.842 6.58656 261.8 6.6799 261.791 6.71256C261.768 6.7779 261.756 6.8339 261.756 6.88056C261.756 6.92256 261.763 6.96456 261.777 7.00656C261.791 7.04856 261.828 7.13256 261.889 7.25856L262.484 8.60256L263.674 5.72556C263.697 5.67423 263.721 5.61123 263.744 5.53656C263.767 5.4619 263.779 5.40356 263.779 5.36156C263.779 5.27756 263.746 5.22623 263.681 5.20756C263.62 5.1889 263.536 5.17956 263.429 5.17956C263.35 5.17956 263.31 5.1469 263.31 5.08156C263.31 5.0209 263.35 4.99056 263.429 4.99056C263.485 4.99056 263.583 4.99523 263.723 5.00456C263.863 5.0139 263.938 5.01856 263.947 5.01856C264.003 5.01856 264.087 5.0139 264.199 5.00456C264.311 4.99523 264.397 4.99056 264.458 4.99056C264.537 4.99056 264.577 5.02556 264.577 5.09556C264.577 5.15156 264.514 5.17956 264.388 5.17956C264.337 5.17956 264.292 5.18423 264.255 5.19356C264.222 5.2029 264.183 5.23323 264.136 5.28456C264.089 5.3359 264.045 5.4059 264.003 5.49456C263.961 5.58323 263.921 5.6719 263.884 5.76056L262.428 9.27456C262.419 9.30256 262.407 9.33056 262.393 9.35856C262.379 9.39123 262.356 9.40756 262.323 9.40756C262.29 9.40756 262.258 9.37723 262.225 9.31656C262.192 9.25123 262.171 9.20923 262.162 9.19056L261.406 7.52456ZM268.261 8.44856V5.76056V5.60656C268.261 5.4339 268.236 5.31956 268.184 5.26356C268.133 5.20756 268.005 5.17956 267.799 5.17956C267.683 5.17956 267.624 5.1539 267.624 5.10256C267.624 5.0279 267.666 4.99056 267.75 4.99056C267.82 4.99056 267.937 4.99523 268.1 5.00456C268.264 5.0139 268.352 5.01856 268.366 5.01856C268.441 5.01856 268.558 5.0139 268.716 5.00456C268.88 4.99523 268.966 4.99056 268.975 4.99056C269.055 4.99056 269.094 5.0279 269.094 5.10256C269.094 5.13056 269.08 5.15156 269.052 5.16556C269.029 5.1749 268.982 5.17956 268.912 5.17956C268.693 5.17956 268.558 5.22156 268.506 5.30556C268.474 5.36156 268.457 5.51323 268.457 5.76056V9.31656C268.457 9.40523 268.441 9.44956 268.408 9.44956C268.376 9.44956 268.341 9.42856 268.303 9.38656C268.294 9.37256 268.271 9.33756 268.233 9.28156L265.293 5.45956V8.62356C265.293 8.88023 265.307 9.0319 265.335 9.07856C265.382 9.16256 265.52 9.20456 265.748 9.20456C265.865 9.20456 265.923 9.2279 265.923 9.27456C265.923 9.34456 265.884 9.37956 265.804 9.37956C265.734 9.37956 265.618 9.3749 265.454 9.36556C265.291 9.35623 265.202 9.35156 265.188 9.35156C265.123 9.35156 265.023 9.35623 264.887 9.36556C264.752 9.3749 264.649 9.37956 264.579 9.37956C264.495 9.37956 264.453 9.34456 264.453 9.27456C264.453 9.2279 264.491 9.20456 264.565 9.20456H264.635C264.901 9.20456 265.048 9.13923 265.076 9.00856C265.086 8.96656 265.09 8.83823 265.09 8.62356V5.76056V5.60656C265.09 5.42923 265.069 5.31723 265.027 5.27056C264.971 5.2099 264.841 5.17956 264.635 5.17956C264.519 5.17956 264.46 5.1539 264.46 5.10256C264.46 5.06056 264.477 5.03256 264.509 5.01856C264.547 4.9999 264.586 4.99056 264.628 4.99056H265.496C265.562 5.00456 265.618 5.0349 265.664 5.08156C265.674 5.0909 265.713 5.14223 265.783 5.23556L268.261 8.44856Z" fill="white"/>
<circle cx="296.5" cy="7.35156" r="1.5" fill="#625876"/>
<path d="M324.743 7.34956L324.386 7.19556C324.064 7.05556 323.831 6.9179 323.686 6.78256C323.476 6.58656 323.371 6.34623 323.371 6.06156C323.371 5.7069 323.504 5.42223 323.77 5.20756C324.041 4.98823 324.358 4.87856 324.722 4.87856C324.876 4.87856 325.037 4.89256 325.205 4.92056C325.378 4.9439 325.529 4.98123 325.66 5.03256C325.721 5.0559 325.756 5.08623 325.765 5.12356C325.779 5.15623 325.786 5.21223 325.786 5.29156L325.814 5.83756C325.814 5.89356 325.788 5.92156 325.737 5.92156C325.704 5.92156 325.679 5.89823 325.66 5.85156C325.641 5.8049 325.63 5.77456 325.625 5.76056C325.541 5.5039 325.438 5.31956 325.317 5.20756C325.177 5.08156 324.976 5.01856 324.715 5.01856C324.468 5.01856 324.255 5.0839 324.078 5.21456C323.901 5.34056 323.812 5.5249 323.812 5.76756C323.812 6.02423 323.959 6.24823 324.253 6.43956C324.356 6.5049 324.617 6.62856 325.037 6.81056C325.182 6.8759 325.305 6.9389 325.408 6.99956C325.548 7.0789 325.655 7.16056 325.73 7.24456C325.833 7.36123 325.914 7.4919 325.975 7.63656C326.036 7.77656 326.066 7.92356 326.066 8.07756C326.066 8.2689 326.022 8.4509 325.933 8.62356C325.844 8.79623 325.723 8.94556 325.569 9.07156C325.42 9.19756 325.249 9.2909 325.058 9.35156C324.871 9.40756 324.671 9.43556 324.456 9.43556C324.279 9.43556 324.094 9.4099 323.903 9.35856C323.712 9.3119 323.544 9.24656 323.399 9.16256C323.357 9.13456 323.329 9.09956 323.315 9.05756C323.306 9.0109 323.301 8.95023 323.301 8.87556V8.77056C323.301 8.6819 323.301 8.59556 323.301 8.51156C323.301 8.42756 323.306 8.34823 323.315 8.27356C323.324 8.1989 323.338 8.1499 323.357 8.12656C323.376 8.10323 323.399 8.09156 323.427 8.09156C323.469 8.09156 323.495 8.11723 323.504 8.16856C323.513 8.2199 323.52 8.27123 323.525 8.32256C323.562 8.63056 323.665 8.8709 323.833 9.04356C324.001 9.21623 324.241 9.30256 324.554 9.30256C324.834 9.30256 325.077 9.21856 325.282 9.05056C325.492 8.88256 325.597 8.66323 325.597 8.39256C325.597 8.13123 325.515 7.91423 325.352 7.74156C325.221 7.60156 325.018 7.4709 324.743 7.34956ZM330.16 5.42456L330.209 5.87956C330.209 5.94023 330.184 5.97056 330.132 5.97056C330.016 5.73723 329.859 5.53423 329.663 5.36156C329.449 5.17023 329.164 5.07456 328.809 5.07456C328.254 5.07456 327.815 5.28456 327.493 5.70456C327.199 6.08723 327.052 6.56323 327.052 7.13256C327.052 7.6459 327.197 8.10323 327.486 8.50456C327.659 8.74256 327.853 8.9269 328.067 9.05756C328.287 9.18356 328.534 9.24656 328.809 9.24656C329.159 9.24656 329.444 9.13223 329.663 8.90356C329.831 8.65156 329.999 8.39956 330.167 8.14756C330.228 8.14756 330.254 8.1779 330.244 8.23856L330.209 8.80556C330.209 8.91756 330.2 8.98756 330.181 9.01556C330.163 9.04356 330.097 9.08556 329.985 9.14156C329.57 9.33756 329.148 9.43556 328.718 9.43556C328.084 9.43556 327.542 9.21156 327.094 8.76356C326.651 8.3109 326.429 7.76956 326.429 7.13956C326.429 6.5049 326.67 5.97056 327.15 5.53656C327.636 5.0979 328.205 4.87856 328.858 4.87856C329.008 4.87856 329.192 4.89723 329.411 4.93456C329.635 4.9719 329.82 5.01623 329.964 5.06756C330.062 5.10023 330.121 5.15856 330.139 5.24256C330.139 5.2519 330.146 5.31256 330.16 5.42456ZM331.116 8.62356V5.76056V5.60656C331.116 5.42923 331.095 5.31723 331.053 5.27056C330.997 5.2099 330.866 5.17956 330.661 5.17956C330.544 5.17956 330.486 5.15156 330.486 5.09556C330.486 5.02556 330.528 4.99056 330.612 4.99056C330.687 4.99056 330.815 4.99523 330.997 5.00456C331.184 5.0139 331.284 5.01856 331.298 5.01856C331.438 5.01856 331.667 5.0139 331.984 5.00456C332.306 4.99523 332.476 4.99056 332.495 4.99056C332.864 4.99056 333.167 5.07456 333.405 5.24256C333.68 5.4339 333.818 5.70456 333.818 6.05456C333.818 6.35323 333.706 6.6029 333.482 6.80356C333.277 6.98556 333.02 7.09756 332.712 7.13956C332.81 7.15356 332.896 7.2119 332.971 7.31456C333.004 7.35656 333.06 7.45223 333.139 7.60156L333.706 8.69356C333.809 8.89423 333.874 9.0109 333.902 9.04356C333.991 9.1509 334.105 9.20456 334.245 9.20456C334.306 9.20456 334.35 9.20923 334.378 9.21856C334.411 9.2279 334.427 9.2559 334.427 9.30256C334.427 9.3539 334.385 9.37956 334.301 9.37956H333.559C333.498 9.37956 333.449 9.3539 333.412 9.30256C333.398 9.28856 333.368 9.2349 333.321 9.14156L332.635 7.77656C332.5 7.51523 332.406 7.36356 332.355 7.32156C332.276 7.2609 332.11 7.23056 331.858 7.23056C331.774 7.23056 331.723 7.24223 331.704 7.26556C331.685 7.2889 331.674 7.3379 331.669 7.41256C331.669 7.48256 331.669 7.5269 331.669 7.54556V8.62356C331.669 8.88023 331.683 9.0319 331.711 9.07856C331.762 9.16256 331.9 9.20456 332.124 9.20456C332.18 9.20456 332.224 9.20923 332.257 9.21856C332.29 9.2279 332.306 9.25123 332.306 9.28856C332.306 9.34923 332.266 9.37956 332.187 9.37956C332.094 9.37956 331.942 9.3749 331.732 9.36556C331.527 9.35623 331.417 9.35156 331.403 9.35156C331.314 9.35156 331.163 9.35623 330.948 9.36556C330.733 9.3749 330.619 9.37956 330.605 9.37956C330.526 9.37956 330.486 9.34923 330.486 9.28856C330.486 9.24656 330.5 9.22323 330.528 9.21856C330.561 9.20923 330.605 9.20456 330.661 9.20456C330.927 9.20456 331.074 9.13923 331.102 9.00856C331.111 8.96656 331.116 8.83823 331.116 8.62356ZM331.669 5.69756V6.95056C331.669 6.99723 331.688 7.03223 331.725 7.05556C331.767 7.07423 331.818 7.08356 331.879 7.08356C331.949 7.0789 331.998 7.07656 332.026 7.07656C332.222 7.07656 332.385 7.06256 332.516 7.03456C332.647 7.00656 332.77 6.94823 332.887 6.85956C333.004 6.76623 333.088 6.6589 333.139 6.53756C333.195 6.41156 333.223 6.27623 333.223 6.13156C333.223 5.81423 333.134 5.56923 332.957 5.39656C332.78 5.2239 332.532 5.13756 332.215 5.13756C331.958 5.13756 331.802 5.1679 331.746 5.22856C331.695 5.28456 331.669 5.4409 331.669 5.69756ZM334.431 7.15356C334.431 6.52823 334.676 5.9939 335.166 5.55056C335.66 5.10256 336.23 4.87856 336.874 4.87856C337.55 4.87856 338.124 5.09323 338.596 5.52256C339.072 5.94723 339.31 6.4909 339.31 7.15356C339.31 7.81623 339.074 8.36223 338.603 8.79156C338.131 9.2209 337.555 9.43556 336.874 9.43556C336.23 9.43556 335.665 9.21623 335.18 8.77756C334.68 8.3249 334.431 7.78356 334.431 7.15356ZM338.673 7.15356C338.673 6.8689 338.638 6.60756 338.568 6.36956C338.498 6.13156 338.376 5.9099 338.204 5.70456C338.036 5.49923 337.84 5.3429 337.616 5.23556C337.392 5.12356 337.149 5.06756 336.888 5.06756C336.612 5.06756 336.353 5.12356 336.111 5.23556C335.873 5.34756 335.672 5.50623 335.509 5.71156C335.35 5.91223 335.236 6.1339 335.166 6.37656C335.096 6.61923 335.061 6.87823 335.061 7.15356C335.061 7.43356 335.096 7.69956 335.166 7.95156C335.24 8.1989 335.362 8.4229 335.53 8.62356C335.698 8.81956 335.898 8.97123 336.132 9.07856C336.37 9.1859 336.622 9.23956 336.888 9.23956C337.149 9.23956 337.396 9.18123 337.63 9.06456C337.868 8.94323 338.066 8.78223 338.225 8.58156C338.388 8.37623 338.502 8.15456 338.568 7.91656C338.638 7.67856 338.673 7.42423 338.673 7.15356ZM340.785 5.75356V8.40656C340.785 8.7099 340.813 8.9059 340.869 8.99456C340.953 9.12523 341.139 9.19056 341.429 9.19056C341.578 9.19056 341.718 9.17423 341.849 9.14156C341.984 9.10423 342.101 9.04356 342.199 8.95956C342.269 8.90356 342.339 8.8149 342.409 8.69356C342.465 8.60023 342.516 8.49523 342.563 8.37856C342.586 8.3179 342.614 8.28756 342.647 8.28756C342.689 8.28756 342.71 8.32023 342.71 8.38556C342.71 8.45556 342.696 8.58156 342.668 8.76356C342.644 8.9409 342.633 9.05756 342.633 9.11356C342.633 9.23023 342.626 9.3049 342.612 9.33756C342.598 9.36556 342.544 9.37956 342.451 9.37956C342.217 9.37956 341.828 9.3749 341.282 9.36556C340.74 9.35623 340.453 9.35156 340.421 9.35156C340.341 9.35156 340.225 9.35623 340.071 9.36556C339.917 9.3749 339.8 9.37956 339.721 9.37956C339.641 9.37956 339.602 9.3469 339.602 9.28156C339.602 9.2209 339.662 9.19056 339.784 9.19056C340.008 9.19056 340.143 9.1509 340.19 9.07156C340.218 9.0249 340.232 8.87323 340.232 8.61656V5.75356V5.59956C340.232 5.4269 340.211 5.31723 340.169 5.27056C340.113 5.2099 339.982 5.17956 339.777 5.17956C339.66 5.17956 339.602 5.14923 339.602 5.08856C339.602 5.02323 339.641 4.99056 339.721 4.99056C339.814 4.99056 339.963 4.99523 340.169 5.00456C340.379 5.0139 340.491 5.01856 340.505 5.01856C340.593 5.01856 340.745 5.0139 340.96 5.00456C341.174 4.99523 341.289 4.99056 341.303 4.99056C341.382 4.99056 341.422 5.02323 341.422 5.08856C341.422 5.1259 341.403 5.15156 341.366 5.16556C341.333 5.1749 341.291 5.17956 341.24 5.17956C341.039 5.17956 340.913 5.20756 340.862 5.26356C340.81 5.31956 340.785 5.43156 340.785 5.59956V5.75356ZM343.948 5.75356V8.40656C343.948 8.7099 343.976 8.9059 344.032 8.99456C344.116 9.12523 344.303 9.19056 344.592 9.19056C344.741 9.19056 344.881 9.17423 345.012 9.14156C345.147 9.10423 345.264 9.04356 345.362 8.95956C345.432 8.90356 345.502 8.8149 345.572 8.69356C345.628 8.60023 345.679 8.49523 345.726 8.37856C345.749 8.3179 345.777 8.28756 345.81 8.28756C345.852 8.28756 345.873 8.32023 345.873 8.38556C345.873 8.45556 345.859 8.58156 345.831 8.76356C345.808 8.9409 345.796 9.05756 345.796 9.11356C345.796 9.23023 345.789 9.3049 345.775 9.33756C345.761 9.36556 345.707 9.37956 345.614 9.37956C345.381 9.37956 344.991 9.3749 344.445 9.36556C343.904 9.35623 343.617 9.35156 343.584 9.35156C343.505 9.35156 343.388 9.35623 343.234 9.36556C343.08 9.3749 342.963 9.37956 342.884 9.37956C342.805 9.37956 342.765 9.3469 342.765 9.28156C342.765 9.2209 342.826 9.19056 342.947 9.19056C343.171 9.19056 343.306 9.1509 343.353 9.07156C343.381 9.0249 343.395 8.87323 343.395 8.61656V5.75356V5.59956C343.395 5.4269 343.374 5.31723 343.332 5.27056C343.276 5.2099 343.145 5.17956 342.94 5.17956C342.823 5.17956 342.765 5.14923 342.765 5.08856C342.765 5.02323 342.805 4.99056 342.884 4.99056C342.977 4.99056 343.127 4.99523 343.332 5.00456C343.542 5.0139 343.654 5.01856 343.668 5.01856C343.757 5.01856 343.908 5.0139 344.123 5.00456C344.338 4.99523 344.452 4.99056 344.466 4.99056C344.545 4.99056 344.585 5.02323 344.585 5.08856C344.585 5.1259 344.566 5.15156 344.529 5.16556C344.496 5.1749 344.454 5.17956 344.403 5.17956C344.202 5.17956 344.076 5.20756 344.025 5.26356C343.974 5.31956 343.948 5.43156 343.948 5.59956V5.75356ZM348.628 8.60256V5.71156V5.54356C348.628 5.4409 348.617 5.36623 348.593 5.31956C348.556 5.24956 348.491 5.21456 348.397 5.21456C348.346 5.21456 348.29 5.2239 348.229 5.24256C348.173 5.25656 348.113 5.2729 348.047 5.29156C347.996 5.29156 347.97 5.2659 347.97 5.21456C347.97 5.10723 348.234 5.02556 348.761 4.96956C349.289 4.9089 349.695 4.87856 349.979 4.87856C350.315 4.87856 350.635 4.9229 350.938 5.01156C351.246 5.09556 351.529 5.23556 351.785 5.43156C352.047 5.62756 352.257 5.87723 352.415 6.18056C352.579 6.4839 352.66 6.7989 352.66 7.12556C352.66 7.44756 352.595 7.75556 352.464 8.04956C352.334 8.34356 352.147 8.5979 351.904 8.81256C351.662 9.02256 351.391 9.16956 351.092 9.25356C350.794 9.33756 350.46 9.37956 350.091 9.37956C349.914 9.37956 349.618 9.3749 349.202 9.36556C348.787 9.35623 348.57 9.35156 348.551 9.35156C348.5 9.35156 348.414 9.35623 348.292 9.36556C348.176 9.3749 348.115 9.37956 348.11 9.37956C348.031 9.37956 347.991 9.3469 347.991 9.28156C347.991 9.24423 348.008 9.22323 348.04 9.21856C348.073 9.20923 348.117 9.20456 348.173 9.20456C348.435 9.20456 348.582 9.13456 348.614 8.99456C348.624 8.95256 348.628 8.8219 348.628 8.60256ZM349.181 5.57156V8.47656C349.181 8.78923 349.228 8.9969 349.321 9.09956C349.419 9.19756 349.622 9.24656 349.93 9.24656C350.262 9.24656 350.532 9.21156 350.742 9.14156C351.004 9.05756 351.232 8.9129 351.428 8.70756C351.629 8.49756 351.778 8.26423 351.876 8.00756C351.974 7.74623 352.023 7.47323 352.023 7.18856C352.023 6.5399 351.823 6.01956 351.421 5.62756C351.02 5.23556 350.5 5.03956 349.86 5.03956C349.72 5.03956 349.597 5.04656 349.489 5.06056C349.387 5.07456 349.312 5.1049 349.265 5.15156C349.223 5.19356 349.198 5.24723 349.188 5.31256C349.184 5.3779 349.181 5.46423 349.181 5.57156ZM353.043 7.15356C353.043 6.52823 353.288 5.9939 353.778 5.55056C354.273 5.10256 354.842 4.87856 355.486 4.87856C356.163 4.87856 356.737 5.09323 357.208 5.52256C357.684 5.94723 357.922 6.4909 357.922 7.15356C357.922 7.81623 357.686 8.36223 357.215 8.79156C356.744 9.2209 356.167 9.43556 355.486 9.43556C354.842 9.43556 354.277 9.21623 353.792 8.77756C353.293 8.3249 353.043 7.78356 353.043 7.15356ZM357.285 7.15356C357.285 6.8689 357.25 6.60756 357.18 6.36956C357.11 6.13156 356.989 5.9099 356.816 5.70456C356.648 5.49923 356.452 5.3429 356.228 5.23556C356.004 5.12356 355.761 5.06756 355.5 5.06756C355.225 5.06756 354.966 5.12356 354.723 5.23556C354.485 5.34756 354.284 5.50623 354.121 5.71156C353.962 5.91223 353.848 6.1339 353.778 6.37656C353.708 6.61923 353.673 6.87823 353.673 7.15356C353.673 7.43356 353.708 7.69956 353.778 7.95156C353.853 8.1989 353.974 8.4229 354.142 8.62356C354.31 8.81956 354.511 8.97123 354.744 9.07856C354.982 9.1859 355.234 9.23956 355.5 9.23956C355.761 9.23956 356.009 9.18123 356.242 9.06456C356.48 8.94323 356.678 8.78223 356.837 8.58156C357 8.37623 357.115 8.15456 357.18 7.91656C357.25 7.67856 357.285 7.42423 357.285 7.15356ZM361.406 7.52456L360.58 9.28156C360.557 9.3469 360.54 9.38423 360.531 9.39356C360.508 9.42156 360.482 9.43556 360.454 9.43556C360.426 9.43556 360.4 9.41223 360.377 9.36556C360.354 9.32356 360.34 9.29556 360.335 9.28156L358.683 5.72556C358.65 5.65556 358.618 5.58323 358.585 5.50856C358.534 5.39656 358.489 5.3219 358.452 5.28456C358.415 5.24256 358.373 5.21456 358.326 5.20056C358.284 5.18656 358.23 5.17956 358.165 5.17956C358.053 5.17956 357.997 5.14456 357.997 5.07456C357.997 5.01856 358.034 4.99056 358.109 4.99056C358.184 4.99056 358.296 4.99523 358.445 5.00456C358.594 5.0139 358.711 5.01856 358.795 5.01856C358.874 5.01856 359.003 5.0139 359.18 5.00456C359.362 4.99523 359.458 4.99056 359.467 4.99056C359.551 4.99056 359.593 5.02323 359.593 5.08856C359.593 5.13056 359.579 5.15623 359.551 5.16556C359.528 5.1749 359.486 5.17956 359.425 5.17956C359.346 5.17956 359.28 5.1889 359.229 5.20756C359.178 5.22623 359.152 5.26823 359.152 5.33356C359.152 5.3849 359.166 5.44556 359.194 5.51556C359.227 5.58556 359.25 5.63456 359.264 5.66256L360.657 8.66556L361.168 7.57356C361.187 7.53156 361.205 7.48723 361.224 7.44056C361.243 7.38923 361.252 7.34256 361.252 7.30056C361.252 7.24456 361.229 7.16056 361.182 7.04856C361.145 6.9739 361.121 6.92256 361.112 6.89456L360.531 5.64156C360.447 5.46423 360.398 5.36623 360.384 5.34756C360.309 5.23556 360.221 5.17956 360.118 5.17956H360.034C359.95 5.17956 359.908 5.14923 359.908 5.08856C359.908 5.02323 359.943 4.99056 360.013 4.99056C360.088 4.99056 360.216 4.99523 360.398 5.00456C360.585 5.0139 360.685 5.01856 360.699 5.01856C360.778 5.01856 360.907 5.0139 361.084 5.00456C361.266 4.99523 361.362 4.99056 361.371 4.99056C361.45 4.99056 361.49 5.02556 361.49 5.09556C361.49 5.13756 361.469 5.16323 361.427 5.17256C361.39 5.17723 361.338 5.17956 361.273 5.17956C361.203 5.17956 361.147 5.19123 361.105 5.21456C361.063 5.2379 361.042 5.2799 361.042 5.34056C361.042 5.37323 361.054 5.42223 361.077 5.48756C361.105 5.5529 361.131 5.61356 361.154 5.66956L361.602 6.64956L362.064 5.66256C362.078 5.62523 362.101 5.5669 362.134 5.48756C362.167 5.40823 362.183 5.35223 362.183 5.31956C362.183 5.27756 362.16 5.2449 362.113 5.22156C362.071 5.19356 362.027 5.17956 361.98 5.17956C361.849 5.17956 361.784 5.15156 361.784 5.09556C361.784 5.02556 361.828 4.99056 361.917 4.99056C361.973 4.99056 362.057 4.99523 362.169 5.00456C362.281 5.0139 362.365 5.01856 362.421 5.01856C362.477 5.01856 362.561 5.0139 362.673 5.00456C362.785 4.99523 362.869 4.99056 362.925 4.99056C362.986 4.99056 363.016 5.0209 363.016 5.08156C363.016 5.12823 363 5.15623 362.967 5.16556C362.934 5.1749 362.883 5.17956 362.813 5.17956C362.664 5.17956 362.54 5.24256 362.442 5.36856C362.4 5.42456 362.332 5.55523 362.239 5.76056L361.917 6.43256C361.842 6.58656 361.8 6.6799 361.791 6.71256C361.768 6.7779 361.756 6.8339 361.756 6.88056C361.756 6.92256 361.763 6.96456 361.777 7.00656C361.791 7.04856 361.828 7.13256 361.889 7.25856L362.484 8.60256L363.674 5.72556C363.697 5.67423 363.721 5.61123 363.744 5.53656C363.767 5.4619 363.779 5.40356 363.779 5.36156C363.779 5.27756 363.746 5.22623 363.681 5.20756C363.62 5.1889 363.536 5.17956 363.429 5.17956C363.35 5.17956 363.31 5.1469 363.31 5.08156C363.31 5.0209 363.35 4.99056 363.429 4.99056C363.485 4.99056 363.583 4.99523 363.723 5.00456C363.863 5.0139 363.938 5.01856 363.947 5.01856C364.003 5.01856 364.087 5.0139 364.199 5.00456C364.311 4.99523 364.397 4.99056 364.458 4.99056C364.537 4.99056 364.577 5.02556 364.577 5.09556C364.577 5.15156 364.514 5.17956 364.388 5.17956C364.337 5.17956 364.292 5.18423 364.255 5.19356C364.222 5.2029 364.183 5.23323 364.136 5.28456C364.089 5.3359 364.045 5.4059 364.003 5.49456C363.961 5.58323 363.921 5.6719 363.884 5.76056L362.428 9.27456C362.419 9.30256 362.407 9.33056 362.393 9.35856C362.379 9.39123 362.356 9.40756 362.323 9.40756C362.29 9.40756 362.258 9.37723 362.225 9.31656C362.192 9.25123 362.171 9.20923 362.162 9.19056L361.406 7.52456ZM368.261 8.44856V5.76056V5.60656C368.261 5.4339 368.236 5.31956 368.184 5.26356C368.133 5.20756 368.005 5.17956 367.799 5.17956C367.683 5.17956 367.624 5.1539 367.624 5.10256C367.624 5.0279 367.666 4.99056 367.75 4.99056C367.82 4.99056 367.937 4.99523 368.1 5.00456C368.264 5.0139 368.352 5.01856 368.366 5.01856C368.441 5.01856 368.558 5.0139 368.716 5.00456C368.88 4.99523 368.966 4.99056 368.975 4.99056C369.055 4.99056 369.094 5.0279 369.094 5.10256C369.094 5.13056 369.08 5.15156 369.052 5.16556C369.029 5.1749 368.982 5.17956 368.912 5.17956C368.693 5.17956 368.558 5.22156 368.506 5.30556C368.474 5.36156 368.457 5.51323 368.457 5.76056V9.31656C368.457 9.40523 368.441 9.44956 368.408 9.44956C368.376 9.44956 368.341 9.42856 368.303 9.38656C368.294 9.37256 368.271 9.33756 368.233 9.28156L365.293 5.45956V8.62356C365.293 8.88023 365.307 9.0319 365.335 9.07856C365.382 9.16256 365.52 9.20456 365.748 9.20456C365.865 9.20456 365.923 9.2279 365.923 9.27456C365.923 9.34456 365.884 9.37956 365.804 9.37956C365.734 9.37956 365.618 9.3749 365.454 9.36556C365.291 9.35623 365.202 9.35156 365.188 9.35156C365.123 9.35156 365.023 9.35623 364.887 9.36556C364.752 9.3749 364.649 9.37956 364.579 9.37956C364.495 9.37956 364.453 9.34456 364.453 9.27456C364.453 9.2279 364.491 9.20456 364.565 9.20456H364.635C364.901 9.20456 365.048 9.13923 365.076 9.00856C365.086 8.96656 365.09 8.83823 365.09 8.62356V5.76056V5.60656C365.09 5.42923 365.069 5.31723 365.027 5.27056C364.971 5.2099 364.841 5.17956 364.635 5.17956C364.519 5.17956 364.46 5.1539 364.46 5.10256C364.46 5.06056 364.477 5.03256 364.509 5.01856C364.547 4.9999 364.586 4.99056 364.628 4.99056H365.496C365.562 5.00456 365.618 5.0349 365.664 5.08156C365.674 5.0909 365.713 5.14223 365.783 5.23556L368.261 8.44856Z" fill="white"/>
<line opacity="0.5" y1="0.75" x2="393" y2="0.75" stroke="#8A7BAE" stroke-width="0.5"/>
<line opacity="0.5" y1="14.75" x2="393" y2="14.75" stroke="#8A7BAE" stroke-width="0.5"/>
</svg>
