<svg width="24" height="24" viewBox="0 0 24 24" fill="none" xmlns="http://www.w3.org/2000/svg">
<path fill-rule="evenodd" clip-rule="evenodd" d="M0.511611 12.5174C-0.199646 12.0683 -0.11296 11.513 0.426207 11.1226C3.57632 8.84314 15.7382 2.92171 21.3122 0.350636C22.3584 -0.132023 23.3766 -0.145068 23.7933 0.491645C24.0469 0.879263 24.024 1.42808 23.9504 2.13995C23.2706 8.7332 22.3561 15.528 21.3796 22.0685C21.1371 23.6916 19.6266 24.4904 18.6028 23.6801C15.8707 21.5171 13.3145 19.3312 10.9093 17.3788C10.1968 16.8005 10.275 15.4451 11.2769 14.2931C13.5905 11.6329 15.6137 9.6013 17.563 7.15104C17.8285 6.81747 17.9931 6.3258 17.8503 6.15808C17.7202 6.00496 17.3145 6.14348 16.877 6.48358C14.0975 8.64499 10.844 11.7264 7.58354 13.9549C6.54225 14.6664 5.60129 14.613 4.64257 14.3353C3.26327 13.9356 1.82326 13.3461 0.511611 12.5174Z" fill="#8A7BAE"/>
</svg>
