<svg width="320" height="136" fill="none" xmlns="http://www.w3.org/2000/svg"><path d="M62.92 63.22c.133 0 .2.1.2.3-.013.133-.02.22-.02.26l-.12 2.44c0 .227-.08.34-.24.34-.093 0-.153-.027-.18-.08a.445.445 0 0 1-.04-.2c-.12-.52-.227-.933-.32-1.24-.08-.307-.167-.52-.26-.64-.173-.2-.413-.36-.72-.48a2.612 2.612 0 0 0-.96-.18h-1.72c-.187 0-.293.053-.32.16a1.34 1.34 0 0 0-.04.36v5.7c-.013.28-.02.48-.02.6 0 .32.06.567.18.74.12.16.367.26.74.3.373 0 .56.087.56.26 0 .147-.08.22-.24.22-.227 0-.5-.013-.82-.04-.32-.013-.673-.027-1.06-.04-.227 0-.6.013-1.12.04l-.78.04c-.187 0-.28-.067-.28-.2 0-.12.053-.193.16-.22.12-.04.253-.06.4-.06.373-.04.62-.14.74-.3.12-.173.18-.42.18-.74-.013-.253-.02-.453-.02-.6v-4.7c.013-.28.02-.48.02-.6 0-.333-.047-.567-.14-.7-.133-.187-.393-.3-.78-.34-.187 0-.327-.013-.42-.04-.093-.027-.14-.107-.14-.24s.093-.2.28-.2c.213 0 .567.013 1.06.04.507.027.787.04.84.04h5.4Zm3.294 9.02c-.28 0-.5-.093-.66-.28-.16-.187-.24-.42-.24-.7 0-.293.08-.527.24-.7.173-.187.406-.28.7-.28.28 0 .48.093.6.28.133.187.2.42.2.7 0 .307-.067.547-.2.72-.134.173-.347.26-.64.26Zm17.001-3 4.12-9.44c.08-.173.26-.26.54-.26h2.22c.12-.013.214-.02.28-.02.2 0 .3.08.3.24 0 .107-.033.187-.1.24-.066.053-.193.08-.38.08h-.34c-.213 0-.34.007-.38.02-.04.013-.093.06-.16.14-.066.08-.113.207-.14.38-.026.16-.04.327-.04.5.014.267.02.447.02.54v8.26c0 .507.007.84.02 1 .027.147.087.28.18.4.107.107.22.18.34.22.12.027.274.04.46.04h.38c.16.027.24.113.24.26 0 .16-.126.24-.38.24-.226 0-.6-.013-1.12-.04a63.24 63.24 0 0 0-.8-.04c-.28 0-.74.013-1.38.04-.64.027-.973.04-1 .04-.253 0-.38-.08-.38-.24 0-.133.054-.207.16-.22.107-.027.26-.04.46-.04.187 0 .36-.02.52-.06.16-.053.307-.133.44-.24.134-.107.214-.267.24-.48a7.49 7.49 0 0 0 .04-.88v-9.06h-.14l-4.44 10.4c-.053.12-.086.193-.1.22-.053.093-.12.14-.2.14-.133 0-.233-.127-.3-.38l-3.94-10.14h-.14l-.58 8.24c0 .84.04 1.367.12 1.58.16.44.56.66 1.2.66.2 0 .354.013.46.04.107.027.16.1.16.22 0 .16-.146.24-.44.24-.2 0-.5-.013-.9-.04-.4-.027-.7-.04-.9-.04-.2 0-.54.013-1.02.04-.48.027-.733.04-.76.04-.213 0-.32-.08-.32-.24 0-.107.047-.173.14-.2.107-.04.234-.06.38-.06.52 0 .867-.127 1.04-.38.134-.2.2-.573.2-1.12l.62-8.86c0-.533-.04-.847-.12-.94-.12-.133-.44-.2-.96-.2a.862.862 0 0 1-.34-.06c-.093-.04-.14-.127-.14-.26 0-.16.1-.24.3-.24.134.013.227.02.28.02h2.32c.174 0 .294.053.36.16.054.147.107.287.16.42l3.64 9.12Zm8.616-1.72c0-1.28.454-2.353 1.36-3.22a4.349 4.349 0 0 1 1.62-1 5.776 5.776 0 0 1 1.98-.34c.667 0 1.28.093 1.84.28.56.173 1.08.467 1.56.88.48.4.86.907 1.14 1.52.28.613.42 1.24.42 1.88 0 1.347-.486 2.473-1.46 3.38-.96.893-2.126 1.34-3.5 1.34-1.386 0-2.56-.447-3.52-1.34s-1.44-2.02-1.44-3.38Zm8.4.14c0-1.12-.286-2.093-.86-2.92-.64-.933-1.506-1.4-2.6-1.4-1.053 0-1.893.407-2.52 1.22-.613.813-.92 1.767-.92 2.86 0 1.107.3 2.093.9 2.96.68.987 1.554 1.48 2.62 1.48 1.014 0 1.847-.46 2.5-1.38.587-.827.88-1.767.88-2.82Zm10.432-2.14c-.134 0-.447-.367-.94-1.1-.494-.733-1.054-1.1-1.68-1.1-.347 0-.7.08-1.06.24-.36.147-.68.34-.96.58a3.924 3.924 0 0 0-1.06 1.46 4.349 4.349 0 0 0-.38 1.78c0 1.067.34 2.007 1.02 2.82.733.867 1.64 1.3 2.72 1.3.466 0 .886-.067 1.26-.2.373-.147.72-.373 1.04-.68.16-.16.26-.24.3-.24.093 0 .14.053.14.16 0 .08-.08.207-.24.38-.107.12-.227.233-.36.34-.814.653-1.78.98-2.9.98-1.227 0-2.28-.44-3.16-1.32-.88-.88-1.32-1.927-1.32-3.14 0-1.333.52-2.467 1.56-3.4 1.053-.947 2.266-1.42 3.64-1.42.413 0 .846.06 1.3.18.466.107.853.267 1.16.48.12.08.18.247.18.5-.014.187-.02.313-.02.38.013.16.02.3.02.42 0 .2-.02.353-.06.46-.027.093-.094.14-.2.14Zm4.099 1.6v.28c.013.093.053.14.12.14l.22-.14 2.96-2.42c.173-.147.333-.293.48-.44.227-.24.34-.42.34-.54 0-.133-.073-.227-.22-.28a.925.925 0 0 0-.42-.1 3.22 3.22 0 0 1-.56-.04c-.133-.027-.2-.113-.2-.26 0-.12.147-.18.44-.18.28 0 .633.013 1.06.04.427.027.773.04 1.04.04.187 0 .46-.013.82-.04.373-.027.573-.04.6-.04.227 0 .34.073.34.22 0 .173-.133.26-.4.26-.453 0-.867.113-1.24.34-.453.347-.807.62-1.06.82l-1.52 1.28c-.12.107-.24.207-.36.3-.093.107-.14.187-.14.24 0 .08.047.167.14.26l3.02 3.72c.333.413.54.653.62.72.227.2.507.3.84.3.28 0 .42.1.42.3 0 .12-.107.18-.32.18-.213 0-.587-.013-1.12-.04-.52-.027-.8-.04-.84-.04-.2 0-.553.013-1.06.04-.493.027-.76.04-.8.04h-.2c-.08-.027-.12-.08-.12-.16 0-.107.033-.187.1-.24a.374.374 0 0 1 .24-.08c.32 0 .527-.027.62-.08.107-.053.16-.153.16-.3 0-.107-.06-.253-.18-.44-.04-.067-.14-.2-.3-.4l-1.86-2.32-.24-.32c-.133-.16-.247-.24-.34-.24-.08 0-.173.047-.28.14-.107.08-.167.127-.18.14-.333.253-.52.42-.56.5-.04.067-.06.287-.06.66v1.02c-.013.28-.02.48-.02.6 0 .32.06.567.18.74.12.16.367.26.74.3.373 0 .56.087.56.26 0 .147-.08.22-.24.22-.227 0-.5-.013-.82-.04-.32-.013-.673-.027-1.06-.04-.227 0-.6.013-1.12.04l-.78.04c-.187 0-.28-.067-.28-.2 0-.12.04-.193.12-.22.08-.027.267-.053.56-.08.307-.027.513-.12.62-.28.107-.173.16-.453.16-.84v-5.2c.013-.28.02-.48.02-.6 0-.333-.047-.567-.14-.7-.133-.187-.393-.3-.78-.34-.187 0-.327-.013-.42-.04-.093-.027-.14-.107-.14-.24s.093-.2.28-.2c.213 0 .567.013 1.06.04.507.027.787.04.84.04.2 0 .547-.013 1.04-.04.507-.027.787-.04.84-.04.16 0 .24.073.24.22 0 .107-.06.18-.18.22a1.58 1.58 0 0 1-.38.04c-.373.04-.62.147-.74.32-.12.16-.18.4-.18.72.013.253.02.453.02.6v1.86Zm9.421-1.86v-.5c0-.44-.06-.74-.18-.9-.107-.16-.267-.24-.48-.24h-.56c-.16 0-.24-.08-.24-.24 0-.08.053-.133.16-.16a1.89 1.89 0 0 1 .44-.04l3.08.04c.666 0 1.226.02 1.68.06.453.04.873.14 1.26.3.4.16.733.407 1 .74.28.333.42.7.42 1.1 0 .52-.22.947-.66 1.28-.36.267-.834.46-1.42.58.746.093 1.36.327 1.84.7.56.44.84 1 .84 1.68 0 .387-.107.733-.32 1.04-.2.293-.487.553-.86.78-.334.227-.694.38-1.08.46-.387.067-.827.1-1.32.1H125.723c-.294 0-.58-.007-.86-.02h-.84l-.94.06c-.24 0-.36-.067-.36-.2 0-.187.133-.28.4-.28.453 0 .753-.093.9-.28.106-.133.16-.4.16-.8v-5.26Zm1.38 1.2c0 .333.026.533.08.6.053.067.246.1.58.1h.8c.346 0 .646-.027.9-.08.266-.067.506-.187.72-.36.373-.293.56-.7.56-1.22 0-.653-.214-1.127-.64-1.42-.427-.307-.994-.46-1.7-.46-.307 0-.547.013-.72.04a.76.76 0 0 0-.42.22c-.067.067-.114.18-.14.34-.014.147-.02.3-.02.46v1.78Zm0 3.86c0 .307.02.533.06.68.04.147.166.28.38.4.133.08.326.14.58.18.266.027.526.04.78.04.4 0 .72-.033.96-.1s.486-.213.74-.44c.266-.227.46-.44.58-.64.12-.2.18-.447.18-.74 0-.4-.087-.747-.26-1.04a1.774 1.774 0 0 0-.7-.7 2.363 2.363 0 0 0-.84-.32 4.736 4.736 0 0 0-.92-.08h-.6c-.44 0-.707.027-.8.08-.094.053-.14.227-.14.52v2.16Zm11.969-3.18c.36-.173.574-.307.64-.4.067-.093.1-.333.1-.72v-.88c0-.627-.053-1.047-.16-1.26-.173-.36-.546-.54-1.12-.54-.573 0-1.053.153-1.44.46-.32.253-.606.66-.86 1.22-.12.267-.186.407-.2.42a.766.766 0 0 1-.32.3 13.57 13.57 0 0 1-.48.18c-.173.053-.313.08-.42.08-.173 0-.26-.08-.26-.24 0-.24.087-.493.26-.76.174-.267.367-.487.58-.66a5.57 5.57 0 0 1 1.66-1 5.295 5.295 0 0 1 1.92-.38c.36 0 .7.04 1.02.12.32.067.587.2.8.4.174.147.28.293.32.44.054.147.08.353.08.62v5.12c0 .587.054 1 .16 1.24.107.24.287.36.54.36.187 0 .374-.08.56-.24.2-.173.314-.26.34-.26.094 0 .14.053.14.16 0 .093-.06.207-.18.34-.066.067-.166.16-.3.28a5.048 5.048 0 0 1-.74.44c-.213.093-.44.14-.68.14-.386 0-.7-.233-.94-.7-.24-.467-.38-.7-.42-.7-.426.387-.933.74-1.52 1.06-.573.307-1.14.46-1.7.46-.52 0-.966-.14-1.34-.42-.36-.28-.54-.667-.54-1.16 0-.613.354-1.187 1.06-1.72.374-.28 1.007-.64 1.9-1.08l1.54-.72Zm-1.44 1.12c-.506.253-.866.493-1.08.72-.32.333-.48.72-.48 1.16 0 .373.127.667.38.88.267.2.6.3 1 .3.347 0 .68-.067 1-.2.32-.147.594-.34.82-.58.24-.24.387-.46.44-.66.067-.213.1-.5.1-.86v-1.2c0-.093-.006-.207-.02-.34 0-.147-.04-.22-.12-.22l-.22.08-1.82.92Zm7.579 2.2c.387 0 .687.173.9.52.214.333.32.7.32 1.1 0 .48-.12.987-.36 1.52a4.626 4.626 0 0 1-.86 1.36c-.106.12-.233.247-.38.38-.213.187-.366.28-.46.28-.106 0-.16-.053-.16-.16.387-.427.734-.88 1.04-1.36.32-.467.48-.9.48-1.3 0-.373-.213-.56-.64-.56-.533 0-.8-.273-.8-.82 0-.28.08-.507.24-.68.174-.187.4-.28.68-.28ZM62.52 89.18c.12-.253.18-.387.18-.4.067-.187.1-.333.1-.44 0-.267-.107-.453-.32-.56a1.633 1.633 0 0 0-.74-.16c-.307 0-.46-.047-.46-.14 0-.173.093-.26.28-.26h3.18c.2 0 .3.093.3.28 0 .04-.06.073-.18.1l-.32.04c-.093 0-.227.04-.4.12a.931.931 0 0 0-.4.32c-.16.2-.36.547-.6 1.04-.16.32-.327.687-.5 1.1l-4.02 9.48c-.107.347-.207.567-.3.66-.093.093-.32.14-.68.14-.373 0-.62-.02-.74-.06-.253-.093-.38-.287-.38-.58 0-.267.04-.467.12-.6.08-.12.253-.18.52-.18h.44c.2 0 .353-.013.46-.04.12-.027.227-.12.32-.28.027-.053.093-.2.2-.44l.68-1.58c.04-.093.08-.193.12-.3a.753.753 0 0 0 .06-.3.978.978 0 0 0-.1-.4 10.65 10.65 0 0 1-.18-.46l-2.64-6.24c-.227-.56-.367-.873-.42-.94-.213-.32-.493-.48-.84-.48-.32 0-.48-.047-.48-.14 0-.173.127-.26.38-.26h3.86c.187 0 .28.087.28.26 0 .053-.067.093-.2.12-.133.013-.227.02-.28.02-.333 0-.587.06-.76.18-.173.107-.26.247-.26.42 0 .12.027.26.08.42.013.053.067.187.16.4l2.24 5.36 2.24-5.22Zm5.05.06v3.3c0 1.293-.26 2.273-.78 2.94-.427.547-.947.82-1.56.82-.294 0-.54-.06-.74-.18-.254-.16-.38-.38-.38-.66 0-.56.24-.84.72-.84.173 0 .313.04.42.12a.96.96 0 0 1 .3.34c.053.107.113.22.18.34.08.12.166.18.26.18.213 0 .42-.247.62-.74.253-.627.38-1.393.38-2.3V88.82c0-.427-.04-.713-.12-.86-.134-.227-.394-.34-.78-.34h-.26c-.12-.027-.18-.093-.18-.2 0-.173.106-.26.32-.26l1.64.06h4.44l1.52-.06c.2 0 .3.08.3.24 0 .107-.06.173-.18.2a2.68 2.68 0 0 1-.26.02c-.44.053-.72.16-.84.32s-.18.413-.18.76v5.68c0 .427.053.74.16.94.12.187.406.28.86.28.053 0 .14.007.26.02.12 0 .18.073.18.22 0 .16-.107.24-.32.24l-1.9-.06-1.76.06c-.214 0-.32-.08-.32-.24 0-.12.04-.187.12-.2.093-.027.2-.04.32-.04.44 0 .72-.073.84-.22.12-.16.18-.433.18-.82v-6.18a.891.891 0 0 0-.08-.4c-.094-.173-.26-.26-.5-.26h-1.92c-.307 0-.547.073-.72.22-.16.133-.24.46-.24.98v.32Zm9.269 7c-.28 0-.5-.093-.66-.28-.16-.187-.24-.42-.24-.7 0-.293.08-.527.24-.7.173-.187.406-.28.7-.28.28 0 .48.093.6.28.133.187.2.42.2.7 0 .307-.067.547-.2.72-.134.173-.347.26-.64.26ZM88.14 85.68v-.42c0-.467-.073-.78-.22-.94-.146-.16-.506-.24-1.08-.24-.346 0-.52-.093-.52-.28 0-.173.114-.26.34-.26.214 0 .567.013 1.06.04.507.027.78.04.82.04.8 0 2.107-.013 3.92-.04 1.827-.027 2.807-.04 2.94-.04.214 0 .32.153.32.46v1.64c.014.12.02.227.02.32 0 .307-.073.46-.22.46-.08 0-.146-.04-.2-.12a.884.884 0 0 1-.12-.3c-.24-.853-.666-1.407-1.28-1.66-.426-.173-1.173-.26-2.24-.26-.293 0-.606.007-.94.02-.333 0-.586.04-.76.12-.093.04-.16.133-.2.28-.04.147-.06.293-.06.44v8.98c0 .627.014 1 .04 1.12.08.36.5.54 1.26.54.16 0 .287.013.38.04.094.027.14.093.14.2 0 .173-.113.26-.34.26-.266 0-.7-.013-1.3-.04-.586-.027-.9-.04-.94-.04-.253 0-.686.013-1.3.04-.613.027-.94.04-.98.04-.226 0-.34-.087-.34-.26 0-.12.04-.187.12-.2.094-.027.22-.04.38-.04.76 0 1.18-.187 1.26-.56.027-.12.04-.487.04-1.1v-8.24Zm11.07 4.88c-.36 0-.586.027-.68.08-.092.053-.14.233-.14.54 0 1.16.34 2.133 1.02 2.92.734.84 1.688 1.26 2.861 1.26.64 0 1.213-.133 1.72-.4a72.16 72.16 0 0 0 1.24-.9c.107 0 .16.053.16.16 0 .093-.113.253-.34.48-.173.173-.32.313-.44.42-.467.4-.953.687-1.46.86-.493.173-1.06.26-1.7.26-1.293 0-2.38-.447-3.26-1.34-.867-.907-1.3-1.993-1.3-3.26 0-.707.107-1.327.32-1.86.227-.533.6-1.027 1.12-1.48 1.013-.893 2.213-1.34 3.6-1.34.587 0 1.12.1 1.6.3.493.187.92.5 1.28.94.467.587.7 1.26.7 2.02 0 .227-.08.34-.24.34h-6.06Zm1.641-.48h.26c.507 0 .9-.007 1.18-.02a8 8 0 0 0 .84-.12c.28-.067.48-.16.6-.28.12-.12.18-.3.18-.54 0-.2-.047-.4-.14-.6a2.07 2.07 0 0 0-.38-.58 1.747 1.747 0 0 0-.78-.48 3.15 3.15 0 0 0-.96-.14c-.533 0-1.027.113-1.48.34-.44.227-.813.56-1.12 1-.107.133-.22.32-.34.56-.107.24-.16.44-.16.6 0 .133.06.213.18.24.12.013.287.02.5.02h1.62Zm7.26.12v-.28c0-.213-.02-.413-.06-.6-.027-.2-.08-.34-.16-.42-.08-.093-.267-.14-.56-.14h-.26c-.16 0-.24-.053-.24-.16 0-.12.14-.227.42-.32.28-.093.593-.247.94-.46.347-.213.6-.413.76-.6a1.54 1.54 0 0 1 .14-.16c.067-.067.14-.1.22-.1.12 0 .18.107.18.32v1.1c.56-.453 1.113-.8 1.66-1.04a4.045 4.045 0 0 1 1.72-.38c.547 0 1.087.133 1.62.4.533.253.993.587 1.38 1 .4.4.707.887.92 1.46.213.56.32 1.127.32 1.7 0 1.373-.48 2.507-1.44 3.4-.947.88-2.133 1.32-3.56 1.32-.333 0-.64-.033-.92-.1s-.64-.173-1.08-.32a4.69 4.69 0 0 1-.46-.1c-.12 0-.18.12-.18.36.013.133.02.213.02.24v2.14c-.013.28-.02.48-.02.6 0 .32.06.56.18.72.12.173.367.28.74.32.373.04.56.127.56.26 0 .147-.08.22-.24.22-.227 0-.5-.013-.82-.04-.32-.013-.673-.027-1.06-.04-.227 0-.6.013-1.12.04l-.78.04c-.187 0-.28-.067-.28-.2 0-.12.04-.193.12-.22.08-.027.267-.053.56-.08.293-.027.5-.127.62-.3.12-.16.18-.4.18-.72-.013-.253-.02-.453-.02-.6V90.2Zm6.42-1.34a3.257 3.257 0 0 0-2.44-1.04c-.44 0-.867.087-1.28.26-.413.173-.74.433-.98.78-.147.173-.24.367-.28.58-.04.2-.06.467-.06.8v3.1c0 .453.04.833.12 1.14.08.307.253.58.52.82.213.173.48.313.8.42.32.107.633.16.94.16 1.107 0 2.013-.42 2.72-1.26.667-.787 1-1.733 1-2.84 0-.573-.087-1.107-.26-1.6a3.39 3.39 0 0 0-.8-1.32Zm3.922 2.66c0-1.28.453-2.353 1.36-3.22a4.338 4.338 0 0 1 1.62-1 5.77 5.77 0 0 1 1.98-.34c.666 0 1.28.093 1.84.28a4.35 4.35 0 0 1 1.56.88c.48.4.86.907 1.14 1.52.28.613.419 1.24.419 1.88 0 1.347-.486 2.473-1.459 3.38-.96.893-2.127 1.34-3.5 1.34-1.387 0-2.56-.447-3.52-1.34s-1.44-2.02-1.44-3.38Zm8.4.14c0-1.12-.287-2.093-.86-2.92-.64-.933-1.507-1.4-2.6-1.4-1.054 0-1.894.407-2.52 1.22-.614.813-.92 1.767-.92 2.86 0 1.107.3 2.093.9 2.96.68.987 1.553 1.48 2.62 1.48 1.013 0 1.846-.46 2.5-1.38.586-.827.88-1.767.88-2.82Zm5.151-1.1c-.36 0-.587.027-.68.08-.093.053-.14.233-.14.54 0 1.16.34 2.133 1.02 2.92.733.84 1.687 1.26 2.86 1.26.64 0 1.213-.133 1.72-.4a72.16 72.16 0 0 0 1.24-.9c.107 0 .16.053.16.16 0 .093-.113.253-.34.48-.173.173-.32.313-.44.42-.467.4-.953.687-1.46.86-.493.173-1.06.26-1.7.26-1.293 0-2.38-.447-3.26-1.34-.867-.907-1.3-1.993-1.3-3.26 0-.707.107-1.327.32-1.86.227-.533.6-1.027 1.12-1.48 1.013-.893 2.213-1.34 3.6-1.34.587 0 1.12.1 1.6.3.493.187.92.5 1.28.94.467.587.7 1.26.7 2.02 0 .227-.08.34-.24.34h-6.06Zm1.64-.48h.26c.507 0 .9-.007 1.18-.02a8 8 0 0 0 .84-.12c.28-.067.48-.16.6-.28.12-.12.18-.3.18-.54 0-.2-.047-.4-.14-.6a2.07 2.07 0 0 0-.38-.58 1.747 1.747 0 0 0-.78-.48 3.15 3.15 0 0 0-.96-.14c-.533 0-1.027.113-1.48.34-.44.227-.813.56-1.12 1a3.2 3.2 0 0 0-.34.56c-.107.24-.16.44-.16.6 0 .133.06.213.18.24.12.013.287.02.5.02h1.62Zm7.16-.82v-.5c0-.44-.06-.74-.18-.9-.107-.16-.267-.24-.48-.24h-.56c-.16 0-.24-.08-.24-.24 0-.08.053-.133.16-.16.107-.027.253-.04.44-.04l3.08.04c.667 0 1.227.02 1.68.06.453.04.873.14 1.26.3.4.16.733.407 1 .74.28.333.42.7.42 1.1 0 .52-.22.947-.66 1.28-.36.267-.833.46-1.42.58.747.093 1.36.327 1.84.7.56.44.84 1 .84 1.68 0 .387-.107.733-.32 1.04-.2.293-.487.553-.86.78-.333.227-.693.38-1.08.46-.387.067-.827.1-1.32.1H142.344c-.293 0-.58-.007-.86-.02h-.84l-.94.06c-.24 0-.36-.067-.36-.2 0-.187.133-.28.4-.28.453 0 .753-.093.9-.28.107-.133.16-.4.16-.8v-5.26Zm1.38 1.2c0 .333.027.533.08.6.053.067.247.1.58.1h.8c.347 0 .647-.027.9-.08a1.83 1.83 0 0 0 .72-.36c.373-.293.56-.7.56-1.22 0-.653-.213-1.127-.64-1.42-.427-.307-.993-.46-1.7-.46-.307 0-.547.013-.72.04a.76.76 0 0 0-.42.22c-.067.067-.113.18-.14.34-.013.147-.02.3-.02.46v1.78Zm0 3.86c0 .307.02.533.06.68.04.147.167.28.38.4.133.08.327.14.58.18.267.027.527.04.78.04.4 0 .72-.033.96-.1s.487-.213.74-.44c.267-.227.46-.44.58-.64.12-.2.18-.447.18-.74 0-.4-.087-.747-.26-1.04a1.767 1.767 0 0 0-.7-.7 2.35 2.35 0 0 0-.84-.32 4.73 4.73 0 0 0-.92-.08h-.6c-.44 0-.707.027-.8.08-.093.053-.14.227-.14.52v2.16Zm16.716-.4c0 .733.04 1.167.12 1.3.146.24.54.36 1.18.36.16 0 .286.013.38.04.093.027.14.093.14.2 0 .173-.114.26-.34.26-.267 0-.7-.013-1.3-.04-.587-.027-.9-.04-.94-.04-.254 0-.687.013-1.3.04-.614.027-.94.04-.98.04-.227 0-.34-.087-.34-.26 0-.12.04-.187.12-.2.093-.027.22-.04.38-.04.76 0 1.18-.187 1.26-.56.026-.12.04-.487.04-1.1V85.28c0-.493-.06-.807-.18-.94-.16-.173-.534-.26-1.12-.26-.334 0-.5-.087-.5-.26 0-.187.113-.28.34-.28l3.74.08h5.6l3.76-.08c.226 0 .34.093.34.28 0 .107-.054.18-.16.22-.094.027-.214.04-.36.04-.574 0-.934.08-1.08.24-.147.16-.22.48-.22.96V93.92c0 .733.04 1.167.12 1.3.146.24.54.36 1.18.36.16 0 .286.013.38.04.093.027.14.093.14.2 0 .173-.114.26-.34.26-.267 0-.7-.013-1.3-.04-.587-.027-.9-.04-.94-.04-.254 0-.687.013-1.3.04-.614.027-.94.04-.98.04-.227 0-.34-.087-.34-.26 0-.12.04-.187.12-.2.093-.027.22-.04.38-.04.76 0 1.18-.187 1.26-.56.026-.12.04-.487.04-1.1v-9c0-.373-.034-.587-.1-.64-.054-.067-.254-.1-.6-.1h-5.54c-.36 0-.58.04-.66.12-.067.067-.1.273-.1.62v9Zm16.464-2.78c.36-.173.574-.307.64-.4.067-.093.1-.333.1-.72v-.88c0-.627-.053-1.047-.16-1.26-.173-.36-.546-.54-1.12-.54-.573 0-1.053.153-1.44.46-.32.253-.606.66-.86 1.22-.12.267-.186.407-.2.42a.766.766 0 0 1-.32.3 13.57 13.57 0 0 1-.48.18c-.173.053-.313.08-.42.08-.173 0-.26-.08-.26-.24 0-.24.087-.493.26-.76.174-.267.367-.487.58-.66a5.57 5.57 0 0 1 1.66-1 5.295 5.295 0 0 1 1.92-.38c.36 0 .7.04 1.02.12.32.067.587.2.8.4.174.147.28.293.32.44.054.147.08.353.08.62v5.12c0 .587.054 1 .16 1.24.107.24.287.36.54.36.187 0 .374-.08.56-.24.2-.173.314-.26.34-.26.094 0 .14.053.14.16 0 .093-.06.207-.18.34-.066.067-.166.16-.3.28a5.048 5.048 0 0 1-.74.44c-.213.093-.44.14-.68.14-.386 0-.7-.233-.94-.7-.24-.467-.38-.7-.42-.7-.426.387-.933.74-1.52 1.06-.573.307-1.14.46-1.7.46-.52 0-.966-.14-1.34-.42-.36-.28-.54-.667-.54-1.16 0-.613.354-1.187 1.06-1.72.374-.28 1.007-.64 1.9-1.08l1.54-.72Zm-1.44 1.12c-.506.253-.866.493-1.08.72-.32.333-.48.72-.48 1.16 0 .373.127.667.38.88.267.2.6.3 1 .3.347 0 .68-.067 1-.2.32-.147.594-.34.82-.58.24-.24.387-.46.44-.66.067-.213.1-.5.1-.86v-1.2c0-.093-.006-.207-.02-.34 0-.147-.04-.22-.12-.22l-.22.08-1.82.92Zm6.899-3c.014-.28.02-.48.02-.6 0-.333-.046-.567-.14-.7-.133-.187-.393-.3-.78-.34-.186 0-.326-.013-.42-.04-.093-.027-.14-.107-.14-.24s.094-.2.28-.2c.214 0 .567.013 1.06.04.507.027.787.04.84.04.2 0 .547-.013 1.04-.04.507-.027.787-.04.84-.04.16 0 .24.073.24.22 0 .107-.06.18-.18.22-.106.027-.233.04-.38.04-.373.04-.62.147-.74.32-.12.16-.18.4-.18.72.014.253.02.453.02.6v1.42c0 .16.014.253.04.28.027.027.134.04.32.04h3.7c.2 0 .314-.013.34-.04.04-.04.06-.16.06-.36v-1.34c.014-.28.02-.48.02-.6 0-.333-.046-.567-.14-.7-.133-.187-.393-.3-.78-.34-.186 0-.326-.013-.42-.04-.093-.027-.14-.107-.14-.24s.094-.2.28-.2c.214 0 .567.013 1.06.04.507.027.787.04.84.04.2 0 .547-.013 1.04-.04.507-.027.787-.04.84-.04.16 0 .24.073.24.22 0 .107-.06.18-.18.22-.106.027-.233.04-.38.04-.373.04-.62.147-.74.32-.12.16-.18.4-.18.72.014.253.02.453.02.6v4.7c-.013.28-.02.48-.02.6 0 .32.06.567.18.74.12.16.367.26.74.3.374 0 .56.087.56.26 0 .147-.08.22-.24.22-.226 0-.5-.013-.82-.04-.32-.013-.673-.027-1.06-.04-.226 0-.6.013-1.12.04-.506.027-.766.04-.78.04-.186 0-.28-.067-.28-.2 0-.12.054-.193.16-.22.12-.04.254-.06.4-.06.374-.04.62-.14.74-.3.12-.173.18-.42.18-.74-.013-.253-.02-.453-.02-.6v-2.1c0-.173-.013-.273-.04-.3-.026-.027-.146-.04-.36-.04h-3.7c-.186 0-.293.013-.32.04-.026.027-.04.12-.04.28v2.12c-.013.28-.02.48-.02.6 0 .32.06.567.18.74.12.16.367.26.74.3.374 0 .56.087.56.26 0 .147-.08.22-.24.22-.226 0-.5-.013-.82-.04-.32-.013-.673-.027-1.06-.04-.226 0-.6.013-1.12.04-.506.027-.766.04-.78.04-.186 0-.28-.067-.28-.2 0-.12.054-.193.16-.22.12-.04.254-.06.4-.06.374-.04.62-.14.74-.3.12-.173.18-.42.18-.74-.013-.253-.02-.453-.02-.6v-4.7Zm16.121 7.06c.014-.093.02-.18.02-.26 0-.227-.06-.34-.18-.34s-.306.053-.56.16c-.24.093-.46.173-.66.24-.2.08-.413.12-.64.12-1.373 0-2.453-.433-3.24-1.3-.773-.867-1.16-2.007-1.16-3.42 0-.653.074-1.253.22-1.8a3.458 3.458 0 0 1 .78-1.44c.387-.427.787-.753 1.2-.98.414-.227.894-.34 1.44-.34.614 0 1.107.1 1.48.3.387.187.82.56 1.3 1.12v-4.02c0-.253-.013-.42-.04-.5-.013-.08-.066-.16-.16-.24a.536.536 0 0 0-.28-.18 1.23 1.23 0 0 0-.3-.04l-.26.02c-.173 0-.26-.06-.26-.18 0-.107.034-.173.1-.2.08-.027.247-.067.5-.12.267-.053.534-.127.8-.22.28-.093.52-.207.72-.34.2-.147.327-.22.38-.22.12 0 .18.107.18.32v5.92c.454-.52.88-.887 1.28-1.1.414-.213.914-.32 1.5-.32.534 0 1.014.12 1.44.36.427.227.827.547 1.2.96.374.413.634.893.78 1.44.147.533.22 1.133.22 1.8 0 1.413-.386 2.553-1.16 3.42-.773.867-1.853 1.3-3.24 1.3-.226 0-.4-.013-.52-.04-.106-.027-.4-.147-.88-.36a1.42 1.42 0 0 1-.16-.04 1.995 1.995 0 0 0-.3-.08c-.066 0-.113.033-.14.1a.66.66 0 0 0-.04.24c.014.133.02.22.02.26v2.14c-.013.28-.02.48-.02.6 0 .32.06.56.18.72.12.173.367.28.74.32.374 0 .56.087.56.26 0 .147-.08.22-.24.22-.226 0-.5-.013-.82-.04-.32-.013-.673-.027-1.06-.04-.226 0-.6.013-1.12.04-.506.027-.766.04-.78.04-.186 0-.28-.067-.28-.2 0-.12.054-.2.16-.24.12-.027.254-.04.4-.04.374-.04.62-.147.74-.32.12-.16.18-.4.18-.72-.013-.253-.02-.453-.02-.6v-2.14Zm-4.9-4.54c0 1.173.227 2.113.68 2.82.547.853 1.36 1.28 2.44 1.28.227 0 .434-.053.62-.16.094-.053.267-.193.52-.42a1.55 1.55 0 0 0 .52-.8c.08-.32.12-.707.12-1.16v-3.1c0-.333-.02-.593-.06-.78-.04-.2-.133-.4-.28-.6-.493-.693-1.046-1.04-1.66-1.04-.466 0-.853.073-1.16.22-.306.147-.613.4-.92.76-.306.36-.52.8-.64 1.32s-.18 1.073-.18 1.66Zm10.36-2.98c-.56-.653-1.253-.98-2.08-.98-.613 0-1.166.347-1.66 1.04-.106.147-.193.32-.26.52-.053.187-.08.473-.08.86v3.1c0 .44.04.82.12 1.14.08.32.254.593.52.82.214.187.4.333.56.44.174.093.367.14.58.14 1.067 0 1.874-.42 2.42-1.26.467-.72.7-1.667.7-2.84 0-.827-.073-1.453-.22-1.88a3.02 3.02 0 0 0-.6-1.1Zm4.826.46c.013-.28.02-.48.02-.6 0-.333-.047-.567-.14-.7-.134-.187-.394-.3-.78-.34-.187 0-.327-.013-.42-.04-.094-.027-.14-.107-.14-.24s.093-.2.28-.2c.213 0 .566.013 1.06.04.506.027.786.04.84.04.2 0 .546-.013 1.04-.04.506-.027.786-.04.84-.04.16 0 .24.073.24.22 0 .107-.06.18-.18.22-.107.027-.234.04-.38.04-.374.04-.62.147-.74.32-.12.16-.18.4-.18.72.013.253.02.453.02.6V93c0 .347.026.52.08.52.026 0 .12-.067.28-.2l4.1-4.66c.013-.107.02-.193.02-.26 0-.2-.047-.353-.14-.46-.147-.173-.407-.28-.78-.32-.187 0-.327-.013-.42-.04-.094-.027-.14-.107-.14-.24s.093-.2.28-.2c.213 0 .566.013 1.06.04.506.027.786.04.84.04.2 0 .546-.013 1.04-.04.506-.027.786-.04.84-.04.16 0 .24.073.24.22 0 .107-.06.18-.18.22-.107.027-.234.04-.38.04-.374.04-.62.147-.74.32-.12.16-.18.4-.18.72.013.253.02.453.02.6v4.7c-.014.28-.02.48-.02.6 0 .32.06.567.18.74.12.16.366.26.74.3.373 0 .56.087.56.26 0 .147-.08.22-.24.22-.227 0-.5-.013-.82-.04-.32-.013-.674-.027-1.06-.04-.227 0-.6.013-1.12.04l-.78.04c-.187 0-.28-.067-.28-.2 0-.12.053-.193.16-.22.12-.04.253-.06.4-.06.373-.04.62-.14.74-.3.12-.173.18-.42.18-.74-.014-.253-.02-.453-.02-.6v-3.74c0-.4-.034-.6-.1-.6-.054 0-.154.087-.3.26l-4.06 4.58c-.014.16-.02.28-.02.36 0 .213.06.387.18.52s.366.22.74.26c.373 0 .56.087.56.26 0 .147-.08.22-.24.22-.227 0-.5-.013-.82-.04-.32-.013-.674-.027-1.06-.04-.227 0-.6.013-1.12.04l-.78.04c-.187 0-.28-.067-.28-.2 0-.12.053-.193.16-.22.12-.04.253-.06.4-.06.373-.04.62-.14.74-.3.12-.173.18-.42.18-.74-.014-.253-.02-.453-.02-.6v-4.7Zm11.96-.02v3.3c0 1.293-.26 2.273-.78 2.94-.426.547-.946.82-1.56.82-.293 0-.54-.06-.74-.18-.253-.16-.38-.38-.38-.66 0-.56.24-.84.72-.84a.68.68 0 0 1 .42.12c.107.067.207.18.3.34.054.107.114.22.18.34.08.12.167.18.26.18.214 0 .42-.247.62-.74.254-.627.38-1.393.38-2.3V88.82c0-.427-.04-.713-.12-.86-.133-.227-.393-.34-.78-.34h-.26c-.12-.027-.18-.093-.18-.2 0-.173.107-.26.32-.26l1.64.06h4.44l1.52-.06c.2 0 .3.08.3.24 0 .107-.06.173-.18.2-.12.013-.206.02-.26.02-.44.053-.72.16-.84.32s-.18.413-.18.76v5.68c0 .427.054.74.16.94.12.187.407.28.86.28.054 0 .14.007.26.02.12 0 .18.073.18.22 0 .16-.106.24-.32.24l-1.9-.06-1.76.06c-.213 0-.32-.08-.32-.24 0-.12.04-.187.12-.2.094-.027.2-.04.32-.04.44 0 .72-.073.84-.22.12-.16.18-.433.18-.82v-6.18a.882.882 0 0 0-.08-.4c-.093-.173-.26-.26-.5-.26h-1.92c-.306 0-.546.073-.72.22-.16.133-.24.46-.24.98v.32Zm7.29 2.28c0-1.28.453-2.353 1.36-3.22a4.353 4.353 0 0 1 1.62-1 5.778 5.778 0 0 1 1.98-.34c.667 0 1.28.093 1.84.28a4.35 4.35 0 0 1 1.56.88c.48.4.86.907 1.14 1.52.28.613.42 1.24.42 1.88 0 1.347-.487 2.473-1.46 3.38-.96.893-2.127 1.34-3.5 1.34-1.387 0-2.56-.447-3.52-1.34s-1.44-2.02-1.44-3.38Zm8.4.14c0-1.12-.287-2.093-.86-2.92-.64-.933-1.507-1.4-2.6-1.4-1.053 0-1.893.407-2.52 1.22-.613.813-.92 1.767-.92 2.86 0 1.107.3 2.093.9 2.96.68.987 1.553 1.48 2.62 1.48 1.013 0 1.847-.46 2.5-1.38.587-.827.88-1.767.88-2.82Zm3.951-2.4v-.5c0-.44-.06-.74-.18-.9-.106-.16-.266-.24-.48-.24h-.56c-.16 0-.24-.08-.24-.24 0-.08.054-.133.16-.16.107-.027.254-.04.44-.04l3.08.04c.667 0 1.227.02 1.68.06.454.04.874.14 1.26.3.4.16.734.407 1 .74.28.333.42.7.42 1.1 0 .52-.22.947-.66 1.28-.36.267-.833.46-1.42.58.747.093 1.36.327 1.84.7.56.44.84 1 .84 1.68 0 .387-.106.733-.32 1.04-.2.293-.486.553-.86.78-.333.227-.693.38-1.08.46a7.81 7.81 0 0 1-1.32.1H240.371c-.293 0-.58-.007-.86-.02h-.84l-.94.06c-.24 0-.36-.067-.36-.2 0-.187.134-.28.4-.28.454 0 .754-.093.9-.28.107-.133.16-.4.16-.8v-5.26Zm1.38 1.2c0 .333.027.533.08.6.054.067.247.1.58.1h.8c.347 0 .647-.027.9-.08a1.83 1.83 0 0 0 .72-.36c.374-.293.56-.7.56-1.22 0-.653-.213-1.127-.64-1.42-.426-.307-.993-.46-1.7-.46-.306 0-.546.013-.72.04a.76.76 0 0 0-.42.22c-.066.067-.113.18-.14.34-.013.147-.02.3-.02.46v1.78Zm0 3.86c0 .307.02.533.06.68.04.147.167.28.38.4.134.08.327.14.58.18.267.027.527.04.78.04.4 0 .72-.033.96-.1s.487-.213.74-.44c.267-.227.46-.44.58-.64.12-.2.18-.447.18-.74 0-.4-.086-.747-.26-1.04a1.76 1.76 0 0 0-.7-.7 2.35 2.35 0 0 0-.84-.32 4.722 4.722 0 0 0-.92-.08h-.6c-.44 0-.706.027-.8.08-.093.053-.14.227-.14.52v2.16Zm14.11 1.68h-5.16c-.227 0-.6.013-1.12.04l-.78.04c-.187 0-.28-.067-.28-.2 0-.12.053-.193.16-.22.12-.04.253-.06.4-.06.373-.04.62-.14.74-.3.12-.173.18-.42.18-.74-.014-.253-.02-.453-.02-.6v-4.7c.013-.28.02-.48.02-.6 0-.333-.047-.567-.14-.7-.134-.187-.394-.3-.78-.34-.187 0-.327-.013-.42-.04-.094-.027-.14-.107-.14-.24s.093-.2.28-.2c.213 0 .566.013 1.06.04.506.027.786.04.84.04.2 0 .546-.013 1.04-.04.506-.027.786-.04.84-.04.16 0 .24.073.24.22 0 .107-.06.18-.18.22-.107.027-.234.04-.38.04-.374.04-.62.147-.74.32-.12.16-.18.4-.18.72.013.253.02.453.02.6v5.7c0 .2.013.34.04.42.04.067.146.1.32.1h3.7c.173 0 .28-.04.32-.12.053-.093.08-.233.08-.42v-5.68c.013-.28.02-.48.02-.6 0-.333-.047-.567-.14-.7-.134-.187-.394-.3-.78-.34-.187 0-.327-.013-.42-.04-.094-.027-.14-.107-.14-.24s.093-.2.28-.2c.213 0 .566.013 1.06.04.506.027.786.04.84.04.2 0 .546-.013 1.04-.04.506-.027.786-.04.84-.04.16 0 .24.073.24.22 0 .107-.06.18-.18.22-.107.027-.234.04-.38.04-.374.04-.62.147-.74.32-.12.16-.18.4-.18.72.013.253.02.453.02.6v4.7c0 .667.093 1.093.28 1.28.2.173.526.26.98.26.133 0 .2.1.2.3a3.09 3.09 0 0 0-.02.26l-.12 2.44c0 .227-.08.34-.24.34-.094 0-.154-.027-.18-.08a.44.44 0 0 1-.04-.2c-.12-.52-.227-.933-.32-1.24-.08-.307-.167-.52-.26-.64-.387-.453-.927-.68-1.62-.68Zm6.12-5.44c-.36 0-.586.027-.68.08-.093.053-.14.233-.14.54 0 1.16.34 2.133 1.02 2.92.734.84 1.687 1.26 2.86 1.26.64 0 1.214-.133 1.72-.4.414-.293.827-.593 1.24-.9.107 0 .16.053.16.16 0 .093-.113.253-.34.48-.173.173-.32.313-.44.42-.466.4-.953.687-1.46.86-.493.173-1.06.26-1.7.26-1.293 0-2.38-.447-3.26-1.34-.866-.907-1.3-1.993-1.3-3.26 0-.707.107-1.327.32-1.86.227-.533.6-1.027 1.12-1.48 1.014-.893 2.214-1.34 3.6-1.34.587 0 1.12.1 1.6.3.494.187.92.5 1.28.94.467.587.7 1.26.7 2.02 0 .227-.08.34-.24.34h-6.06Zm1.64-.48h.26c.507 0 .9-.007 1.18-.02.294-.027.574-.067.84-.12.28-.067.48-.16.6-.28.12-.12.18-.3.18-.54 0-.2-.046-.4-.14-.6a2.07 2.07 0 0 0-.38-.58 1.747 1.747 0 0 0-.78-.48 3.15 3.15 0 0 0-.96-.14c-.533 0-1.026.113-1.48.34-.44.227-.813.56-1.12 1-.106.133-.22.32-.34.56-.106.24-.16.44-.16.6 0 .133.06.213.18.24.12.013.287.02.5.02h1.62Zm7.16-.82v-.5c0-.44-.06-.74-.18-.9-.106-.16-.266-.24-.48-.24h-.56c-.16 0-.24-.08-.24-.24 0-.08.054-.133.16-.16.107-.027.254-.04.44-.04l3.08.04c.667 0 1.227.02 1.68.06.454.04.874.14 1.26.3.4.16.734.407 1 .74.28.333.42.7.42 1.1 0 .52-.22.947-.66 1.28-.36.267-.833.46-1.42.58.747.093 1.36.327 1.84.7.56.44.84 1 .84 1.68 0 .387-.106.733-.32 1.04-.2.293-.486.553-.86.78-.333.227-.693.38-1.08.46a7.81 7.81 0 0 1-1.32.1H270.781c-.293 0-.58-.007-.86-.02h-.84l-.94.06c-.24 0-.36-.067-.36-.2 0-.187.134-.28.4-.28.454 0 .754-.093.9-.28.107-.133.16-.4.16-.8v-5.26Zm1.38 1.2c0 .333.027.533.08.6.054.067.247.1.58.1h.8c.347 0 .647-.027.9-.08a1.83 1.83 0 0 0 .72-.36c.374-.293.56-.7.56-1.22 0-.653-.213-1.127-.64-1.42-.426-.307-.993-.46-1.7-.46-.306 0-.546.013-.72.04a.76.76 0 0 0-.42.22c-.066.067-.113.18-.14.34-.013.147-.02.3-.02.46v1.78Zm0 3.86c0 .307.02.533.06.68.04.147.167.28.38.4.134.08.327.14.58.18.267.027.527.04.78.04.4 0 .72-.033.96-.1s.487-.213.74-.44c.267-.227.46-.44.58-.64.12-.2.18-.447.18-.74 0-.4-.086-.747-.26-1.04a1.76 1.76 0 0 0-.7-.7 2.35 2.35 0 0 0-.84-.32 4.722 4.722 0 0 0-.92-.08h-.6c-.44 0-.706.027-.8.08-.093.053-.14.227-.14.52v2.16Zm8.91.14c.386 0 .686.173.9.52.213.333.32.7.32 1.1 0 .48-.12.987-.36 1.52a4.668 4.668 0 0 1-.86 1.36c-.107.12-.234.247-.38.38-.214.187-.367.28-.46.28-.107 0-.16-.053-.16-.16.386-.427.733-.88 1.04-1.36.32-.467.48-.9.48-1.3 0-.373-.214-.56-.64-.56-.534 0-.8-.273-.8-.82 0-.28.08-.507.24-.68.173-.187.4-.28.68-.28Zm11.101-1.92V88.84c0-.44-.04-.733-.12-.88-.12-.227-.38-.34-.78-.34h-.26c-.12-.027-.18-.093-.18-.2 0-.173.107-.26.32-.26l1.64.06h4.44l1.52-.06c.2 0 .3.08.3.24 0 .107-.04.173-.12.2a2.03 2.03 0 0 1-.32.02c-.44 0-.733.16-.88.48-.093.213-.14.6-.14 1.16v4.7c0 .453.04.833.12 1.14.08.293.234.46.46.5h.66c.147 0 .22.08.22.24-.013.107-.02.173-.02.2l-.12 2.54c0 .2-.073.3-.22.3-.133 0-.213-.08-.24-.24-.186-1.053-.44-1.76-.76-2.12-.32-.347-.82-.52-1.5-.52h-3.22c-.733 0-1.353.293-1.86.88l-1.1 1.74c-.04.08-.073.14-.1.18-.093.12-.186.18-.28.18-.146 0-.22-.073-.22-.22 0-.053.007-.107.02-.16a.704.704 0 0 1 .08-.18l.82-2.64c.027-.147.127-.233.3-.26l.56.08c.28-.28.514-.7.7-1.26.187-.56.28-1.16.28-1.8Zm4.04 1.42v-5.58a.882.882 0 0 0-.08-.4c-.093-.173-.26-.26-.5-.26h-1.92c-.413 0-.68.093-.8.28-.106.187-.16.493-.16.92V92.54c0 .68-.073 1.24-.22 1.68-.146.44-.373.867-.68 1.28h3.9c.2-.04.327-.18.38-.42.054-.253.08-.627.08-1.12Zm5.8 2.28c-.28 0-.5-.093-.66-.28-.16-.187-.24-.42-.24-.7 0-.293.08-.527.24-.7.173-.187.406-.28.7-.28.28 0 .48.093.6.28.133.187.2.42.2.7 0 .307-.067.547-.2.72-.134.173-.347.26-.64.26Zm13.361-7.64 1.06-.1c1.053 0 1.927.333 2.62 1 .707.653 1.06 1.493 1.06 2.52 0 .747-.167 1.453-.5 2.12a5.834 5.834 0 0 1-1.34 1.76 8.737 8.737 0 0 1-2.04 1.38c-.827.4-1.613.6-2.36.6-.507 0-.94-.087-1.3-.26-.493-.24-.74-.58-.74-1.02 0-.227.067-.413.2-.56a.693.693 0 0 1 .54-.22c.213 0 .407.08.58.24.12.107.24.267.36.48.133.227.227.373.28.44.16.187.393.28.7.28.4 0 .853-.12 1.36-.36.507-.227.92-.48 1.24-.76.48-.4.86-.893 1.14-1.48.293-.6.44-1.213.44-1.84 0-.973-.293-1.787-.88-2.44s-1.373-.98-2.36-.98a3.7 3.7 0 0 0-1.14.18 5.506 5.506 0 0 0-1.14.48 3.42 3.42 0 0 0-.24.1.632.632 0 0 1-.22.08c-.147 0-.22-.073-.22-.22 0-.12.107-.24.32-.36l.64-.44 2.44-1.56c1.027-.773 1.54-1.513 1.54-2.22 0-.507-.193-.907-.58-1.2-.373-.293-.82-.44-1.34-.44-.453 0-.9.133-1.34.4-.427.253-.76.58-1 .98-.04.067-.087.14-.14.22-.053.08-.113.12-.18.12-.133 0-.2-.08-.2-.24 0-.133.073-.307.22-.52.107-.16.233-.313.38-.46.347-.36.76-.627 1.24-.8a4.315 4.315 0 0 1 1.54-.28c.773 0 1.433.18 1.98.54.64.427.96 1 .96 1.72 0 .613-.34 1.167-1.02 1.66-.16.12-.507.327-1.04.62l-1.52.84ZM55.918 123.1c0-1.107.18-2.113.54-3.02.373-.92.94-1.793 1.7-2.62.773-.827 1.62-1.473 2.54-1.94.333-.147.626-.273.88-.38.266-.107.426-.16.48-.16.12 0 .18.047.18.14 0 .067-.04.113-.12.14-1.64.613-2.854 1.64-3.64 3.08-.694 1.28-1.04 2.86-1.04 4.74 0 1.907.34 3.493 1.02 4.76.773 1.427 1.993 2.453 3.66 3.08.08.027.12.067.12.12 0 .107-.06.16-.18.16-.2 0-.574-.14-1.12-.42a9 9 0 0 1-1.04-.6 9.32 9.32 0 0 1-2.86-2.96 7.1 7.1 0 0 1-.86-1.94 8.65 8.65 0 0 1-.26-2.18Zm15.687-2.66c.066-.147.233-.22.5-.22l1.88-.04a2.26 2.26 0 0 1 .26-.02c.173 0 .26.08.26.24 0 .16-.147.24-.44.24-.387 0-.64.167-.76.5-.067.187-.1.56-.1 1.12v4.7c0 .533.04.933.12 1.2.093.253.266.393.52.42.253.027.453.04.6.04.093.04.14.113.14.22 0 .093-.034.153-.1.18a.5.5 0 0 1-.26.06l-1.66-.06-1.96.06c-.24 0-.36-.08-.36-.24 0-.12.08-.187.24-.2.16-.027.26-.04.3-.04.466-.04.766-.213.9-.52.08-.173.12-.547.12-1.12v-5.68l-3.46 7.32c0 .2-.1.3-.3.3-.187 0-.28-.113-.28-.34l-3.1-7.12-.42 5.2a14.68 14.68 0 0 0-.04.36v.26c0 .427.08.747.24.96.16.213.373.333.64.36.266.027.453.04.56.04.146.027.22.1.22.22s-.034.187-.1.2a.845.845 0 0 1-.3.04l-1.52-.06-1.48.06c-.214 0-.32-.08-.32-.24 0-.107.073-.173.22-.2.133-.027.22-.04.26-.04.426-.053.686-.16.78-.32.093-.16.166-.533.22-1.12l.46-4.92v-.48c0-.507-.047-.813-.14-.92-.08-.12-.32-.18-.72-.18-.294 0-.44-.087-.44-.26 0-.16.086-.24.26-.24.133.013.22.02.26.02l1.92.04c.093 0 .18.047.26.14.093.08.16.18.2.3l2.78 6.34 3.14-6.56Zm5.802 8.8c-.28 0-.5-.093-.66-.28-.16-.187-.24-.42-.24-.7 0-.293.08-.527.24-.7.173-.187.407-.28.7-.28.28 0 .48.093.6.28.133.187.2.42.2.7 0 .307-.067.547-.2.72-.133.173-.347.26-.64.26Zm20.542-10.16c0 .173-.074.26-.22.26a5.681 5.681 0 0 0-1.34-1.74c-.614-.547-1.427-.82-2.44-.82-1.587 0-2.84.6-3.76 1.8-.84 1.093-1.26 2.453-1.26 4.08 0 1.467.413 2.773 1.24 3.92.493.68 1.046 1.207 1.66 1.58.626.36 1.333.54 2.12.54 1 0 1.813-.327 2.44-.98l1.44-2.16c.173 0 .246.087.22.26l-.1 1.62c0 .32-.027.52-.08.6-.054.08-.24.2-.56.36-1.187.56-2.394.84-3.62.84-1.814 0-3.36-.64-4.64-1.92-1.267-1.293-1.9-2.84-1.9-4.64 0-1.813.686-3.34 2.06-4.58 1.386-1.253 3.013-1.88 4.88-1.88.426 0 .953.053 1.58.16.64.107 1.166.233 1.58.38.28.093.446.26.5.5 0 .027.02.2.06.52l.14 1.3Zm4.362 7.7c-.253.32-.42.54-.5.66-.213.333-.32.587-.32.76 0 .16.08.267.24.32.173.053.367.08.58.08.347 0 .52.093.52.28 0 .133-.107.2-.32.2-.187 0-.507-.013-.96-.04-.44-.027-.68-.04-.72-.04-.2 0-.5.013-.9.04-.4.027-.7.04-.9.04-.16 0-.24-.06-.24-.18 0-.133.067-.213.2-.24.147-.04.247-.06.3-.06.413 0 .827-.173 1.24-.52.24-.2.56-.553.96-1.06l1.38-1.72a7.7 7.7 0 0 1 .24-.34c.08-.12.12-.207.12-.26 0-.067-.06-.18-.18-.34l-1.98-2.58a67.293 67.293 0 0 0-.66-.84c-.24-.213-.573-.32-1-.32-.32 0-.48-.06-.48-.18 0-.147.047-.22.14-.22h4.54c.067.027.1.087.1.18 0 .147-.127.22-.38.22-.307 0-.54.02-.7.06-.16.027-.24.133-.24.32 0 .133.067.3.2.5.04.053.153.2.34.44l1.26 1.7 1.1-1.38c.147-.173.28-.353.4-.54.187-.28.28-.48.28-.6 0-.173-.08-.3-.24-.38a1.027 1.027 0 0 0-.5-.12c-.333 0-.5-.067-.5-.2s.093-.2.28-.2h3.62c.227 0 .34.073.34.22 0 .053-.047.1-.14.14-.093.027-.227.04-.4.04-.547 0-1 .133-1.36.4-.213.16-.553.527-1.02 1.1l-1.02 1.24a4.342 4.342 0 0 0-.28.36c-.093.12-.14.227-.14.32 0 .08.047.187.14.32.053.08.133.18.24.3l2.06 2.76c.16.213.307.4.44.56.213.253.387.42.52.5.133.08.353.12.66.12.307 0 .46.087.46.26 0 .147-.127.22-.38.22s-.693-.013-1.32-.04c-.627-.027-.96-.04-1-.04-.2 0-.54.013-1.02.04-.48.027-.733.04-.76.04-.173 0-.26-.073-.26-.22 0-.173.147-.26.44-.26h.26c.2 0 .373-.02.52-.06.147-.053.22-.153.22-.3 0-.12-.067-.28-.2-.48-.04-.053-.153-.2-.34-.44l-1.68-2.18-1.3 1.64Zm7.511-2.26c0-1.28.453-2.353 1.36-3.22a4.338 4.338 0 0 1 1.62-1 5.763 5.763 0 0 1 1.98-.34c.666 0 1.28.093 1.84.28a4.35 4.35 0 0 1 1.56.88c.48.4.86.907 1.14 1.52.28.613.42 1.24.42 1.88 0 1.347-.487 2.473-1.46 3.38-.96.893-2.127 1.34-3.5 1.34-1.387 0-2.56-.447-3.52-1.34s-1.44-2.02-1.44-3.38Zm8.4.14c0-1.12-.287-2.093-.86-2.92-.64-.933-1.507-1.4-2.6-1.4-1.054 0-1.894.407-2.52 1.22-.614.813-.92 1.767-.92 2.86 0 1.107.3 2.093.9 2.96.68.987 1.553 1.48 2.62 1.48 1.013 0 1.846-.46 2.5-1.38.586-.827.88-1.767.88-2.82Zm4.131.88V121.84c0-.44-.04-.733-.12-.88-.12-.227-.38-.34-.78-.34h-.26c-.12-.027-.18-.093-.18-.2 0-.173.107-.26.32-.26l1.64.06h4.44l1.52-.06c.2 0 .3.08.3.24 0 .107-.04.173-.12.2-.08.013-.187.02-.32.02-.44 0-.733.16-.88.48-.093.213-.14.6-.14 1.16v4.7c0 .453.04.833.12 1.14.08.293.233.46.46.5h.66c.147 0 .22.08.22.24-.013.107-.02.173-.02.2l-.12 2.54c0 .2-.073.3-.22.3-.133 0-.213-.08-.24-.24-.187-1.053-.44-1.76-.76-2.12-.32-.347-.82-.52-1.5-.52h-3.22c-.733 0-1.353.293-1.86.88-.027.04-.393.62-1.1 1.74-.04.08-.073.14-.1.18-.093.12-.187.18-.28.18-.147 0-.22-.073-.22-.22 0-.053.007-.107.02-.16a.68.68 0 0 1 .08-.18l.82-2.64c.027-.147.127-.233.3-.26l.56.08c.28-.28.513-.7.7-1.26.187-.56.28-1.16.28-1.8Zm4.04 1.42v-5.58a.896.896 0 0 0-.08-.4c-.093-.173-.26-.26-.5-.26h-1.92c-.413 0-.68.093-.8.28-.107.187-.16.493-.16.92V125.54c0 .68-.073 1.24-.22 1.68-.147.44-.373.867-.68 1.28h3.9c.2-.04.327-.18.38-.42.053-.253.08-.627.08-1.12Zm4.979-4.7c.014-.28.02-.48.02-.6 0-.333-.046-.567-.14-.7-.133-.187-.393-.3-.78-.34-.186 0-.326-.013-.42-.04-.093-.027-.14-.107-.14-.24s.094-.2.28-.2c.214 0 .567.013 1.06.04.507.027.787.04.84.04.2 0 .547-.013 1.04-.04.507-.027.787-.04.84-.04.16 0 .24.073.24.22 0 .107-.06.18-.18.22a1.56 1.56 0 0 1-.38.04c-.373.04-.62.147-.74.32-.12.16-.18.4-.18.72.014.253.02.453.02.6v1.42c0 .16.014.253.04.28.027.027.134.04.32.04h3.7c.2 0 .314-.013.34-.04.04-.04.06-.16.06-.36v-1.34c.014-.28.02-.48.02-.6 0-.333-.046-.567-.14-.7-.133-.187-.393-.3-.78-.34-.186 0-.326-.013-.42-.04-.093-.027-.14-.107-.14-.24s.094-.2.28-.2c.214 0 .567.013 1.06.04.507.027.787.04.84.04.2 0 .547-.013 1.04-.04.507-.027.787-.04.84-.04.16 0 .24.073.24.22 0 .107-.06.18-.18.22a1.56 1.56 0 0 1-.38.04c-.373.04-.62.147-.74.32-.12.16-.18.4-.18.72.014.253.02.453.02.6v4.7c-.013.28-.02.48-.02.6 0 .32.06.567.18.74.12.16.367.26.74.3.374 0 .56.087.56.26 0 .147-.08.22-.24.22-.226 0-.5-.013-.82-.04-.32-.013-.673-.027-1.06-.04-.226 0-.6.013-1.12.04-.506.027-.766.04-.78.04-.186 0-.28-.067-.28-.2 0-.12.054-.193.16-.22.12-.04.254-.06.4-.06.374-.04.62-.14.74-.3.12-.173.18-.42.18-.74-.013-.253-.02-.453-.02-.6v-2.1c0-.173-.013-.273-.04-.3-.026-.027-.146-.04-.36-.04h-3.7c-.186 0-.293.013-.32.04-.026.027-.04.12-.04.28v2.12c-.013.28-.02.48-.02.6 0 .32.06.567.18.74.12.16.367.26.74.3.374 0 .56.087.56.26 0 .147-.08.22-.24.22-.226 0-.5-.013-.82-.04-.32-.013-.673-.027-1.06-.04-.226 0-.6.013-1.12.04-.506.027-.766.04-.78.04-.186 0-.28-.067-.28-.2 0-.12.054-.193.16-.22.12-.04.254-.06.4-.06.374-.04.62-.14.74-.3.12-.173.18-.42.18-.74-.013-.253-.02-.453-.02-.6v-4.7Zm12.001 1.3c-.36 0-.587.027-.68.08-.093.053-.14.233-.14.54 0 1.16.34 2.133 1.02 2.92.733.84 1.687 1.26 2.86 1.26.64 0 1.213-.133 1.72-.4.413-.293.827-.593 1.24-.9.107 0 .16.053.16.16 0 .093-.113.253-.34.48-.173.173-.32.313-.44.42-.467.4-.953.687-1.46.86-.493.173-1.06.26-1.7.26-1.293 0-2.38-.447-3.26-1.34-.867-.907-1.3-1.993-1.3-3.26 0-.707.107-1.327.32-1.86.227-.533.6-1.027 1.12-1.48 1.013-.893 2.213-1.34 3.6-1.34.587 0 1.12.1 1.6.3.493.187.92.5 1.28.94.467.587.7 1.26.7 2.02 0 .227-.08.34-.24.34h-6.06Zm1.64-.48h.26c.507 0 .9-.007 1.18-.02.293-.027.573-.067.84-.12.28-.067.48-.16.6-.28.12-.12.18-.3.18-.54 0-.2-.047-.4-.14-.6a2.07 2.07 0 0 0-.38-.58 1.742 1.742 0 0 0-.78-.48 3.159 3.159 0 0 0-.96-.14c-.533 0-1.027.113-1.48.34-.44.227-.813.56-1.12 1-.107.133-.22.32-.34.56-.107.24-.16.44-.16.6 0 .133.06.213.18.24.12.013.287.02.5.02h1.62Zm7.16-.82c.013-.28.02-.48.02-.6 0-.333-.047-.567-.14-.7-.133-.187-.393-.3-.78-.34-.187 0-.327-.013-.42-.04-.093-.027-.14-.107-.14-.24s.093-.2.28-.2c.213 0 .567.013 1.06.04.507.027.787.04.84.04.2 0 .547-.013 1.04-.04.507-.027.787-.04.84-.04.16 0 .24.073.24.22 0 .107-.06.18-.18.22-.107.027-.233.04-.38.04-.373.04-.62.147-.74.32-.12.16-.18.4-.18.72.013.253.02.453.02.6v1.42c0 .16.013.253.04.28.027.027.133.04.32.04h3.7c.2 0 .313-.013.34-.04.04-.04.06-.16.06-.36v-1.34c.013-.28.02-.48.02-.6 0-.333-.047-.567-.14-.7-.133-.187-.393-.3-.78-.34-.187 0-.327-.013-.42-.04-.093-.027-.14-.107-.14-.24s.093-.2.28-.2c.213 0 .567.013 1.06.04.507.027.787.04.84.04.2 0 .547-.013 1.04-.04.507-.027.787-.04.84-.04.16 0 .24.073.24.22 0 .107-.06.18-.18.22-.107.027-.233.04-.38.04-.373.04-.62.147-.74.32-.12.16-.18.4-.18.72.013.253.02.453.02.6v4.7c-.013.28-.02.48-.02.6 0 .32.06.567.18.74.12.16.367.26.74.3.373 0 .56.087.56.26 0 .147-.08.22-.24.22-.227 0-.5-.013-.82-.04-.32-.013-.673-.027-1.06-.04-.227 0-.6.013-1.12.04l-.78.04c-.187 0-.28-.067-.28-.2 0-.12.053-.193.16-.22.12-.04.253-.06.4-.06.373-.04.62-.14.74-.3.12-.173.18-.42.18-.74-.013-.253-.02-.453-.02-.6v-2.1c0-.173-.013-.273-.04-.3-.027-.027-.147-.04-.36-.04h-3.7c-.187 0-.293.013-.32.04-.027.027-.04.12-.04.28v2.12c-.013.28-.02.48-.02.6 0 .32.06.567.18.74.12.16.367.26.74.3.373 0 .56.087.56.26 0 .147-.08.22-.24.22-.227 0-.5-.013-.82-.04-.32-.013-.673-.027-1.06-.04-.227 0-.6.013-1.12.04l-.78.04c-.187 0-.28-.067-.28-.2 0-.12.053-.193.16-.22.12-.04.253-.06.4-.06.373-.04.62-.14.74-.3.12-.173.18-.42.18-.74-.013-.253-.02-.453-.02-.6v-4.7Zm17.281.26c-.134 0-.447-.367-.94-1.1-.494-.733-1.054-1.1-1.68-1.1-.347 0-.7.08-1.06.24-.36.147-.68.34-.96.58a3.924 3.924 0 0 0-1.06 1.46 4.349 4.349 0 0 0-.38 1.78c0 1.067.34 2.007 1.02 2.82.733.867 1.64 1.3 2.72 1.3.466 0 .886-.067 1.26-.2.373-.147.72-.373 1.04-.68.16-.16.26-.24.3-.24.093 0 .14.053.14.16 0 .08-.08.207-.24.38-.107.12-.227.233-.36.34-.814.653-1.78.98-2.9.98-1.227 0-2.28-.44-3.16-1.32-.88-.88-1.32-1.927-1.32-3.14 0-1.333.52-2.467 1.56-3.4 1.053-.947 2.266-1.42 3.64-1.42.413 0 .846.06 1.3.18.466.107.853.267 1.16.48.12.08.18.247.18.5-.014.187-.02.313-.02.38.013.16.02.3.02.42 0 .2-.02.353-.06.46-.027.093-.094.14-.2.14Zm4.099 1.6v.28c.013.093.053.14.12.14l.22-.14 2.96-2.42c.173-.147.333-.293.48-.44.227-.24.34-.42.34-.54 0-.133-.073-.227-.22-.28a.92.92 0 0 0-.42-.1c-.227 0-.413-.013-.56-.04-.133-.027-.2-.113-.2-.26 0-.12.147-.18.44-.18.28 0 .633.013 1.06.04.427.027.773.04 1.04.04.187 0 .46-.013.82-.04.373-.027.573-.04.6-.04.227 0 .34.073.34.22 0 .173-.133.26-.4.26a2.34 2.34 0 0 0-1.24.34c-.453.347-.807.62-1.06.82l-1.52 1.28c-.12.107-.24.207-.36.3-.093.107-.14.187-.14.24 0 .08.047.167.14.26l3.02 3.72c.333.413.54.653.62.72.227.2.507.3.84.3.28 0 .42.1.42.3 0 .12-.107.18-.32.18-.213 0-.587-.013-1.12-.04-.52-.027-.8-.04-.84-.04-.2 0-.553.013-1.06.04-.493.027-.76.04-.8.04h-.2c-.08-.027-.12-.08-.12-.16 0-.107.033-.187.1-.24a.375.375 0 0 1 .24-.08c.32 0 .527-.027.62-.08.107-.053.16-.153.16-.3 0-.107-.06-.253-.18-.44a4.78 4.78 0 0 0-.3-.4l-1.86-2.32-.24-.32c-.133-.16-.247-.24-.34-.24-.08 0-.173.047-.28.14-.107.08-.167.127-.18.14-.333.253-.52.42-.56.5-.04.067-.06.287-.06.66v1.02c-.013.28-.02.48-.02.6 0 .32.06.567.18.74.12.16.367.26.74.3.373 0 .56.087.56.26 0 .147-.08.22-.24.22-.227 0-.5-.013-.82-.04-.32-.013-.673-.027-1.06-.04-.227 0-.6.013-1.12.04l-.78.04c-.187 0-.28-.067-.28-.2 0-.12.04-.193.12-.22.08-.027.267-.053.56-.08.307-.027.513-.12.62-.28.107-.173.16-.453.16-.84v-5.2c.013-.28.02-.48.02-.6 0-.333-.047-.567-.14-.7-.133-.187-.393-.3-.78-.34-.187 0-.327-.013-.42-.04-.093-.027-.14-.107-.14-.24s.093-.2.28-.2c.213 0 .567.013 1.06.04.507.027.787.04.84.04.2 0 .547-.013 1.04-.04.507-.027.787-.04.84-.04.16 0 .24.073.24.22 0 .107-.06.18-.18.22-.107.027-.233.04-.38.04-.373.04-.62.147-.74.32-.12.16-.18.4-.18.72.013.253.02.453.02.6v1.86Zm13.161.02c.36-.173.573-.307.64-.4.066-.093.1-.333.1-.72v-.88c0-.627-.054-1.047-.16-1.26-.174-.36-.547-.54-1.12-.54-.574 0-1.054.153-1.44.46-.32.253-.607.66-.86 1.22-.12.267-.187.407-.2.42a.776.776 0 0 1-.32.3c-.134.053-.294.113-.48.18-.174.053-.314.08-.42.08-.174 0-.26-.08-.26-.24 0-.24.086-.493.26-.76.173-.267.366-.487.58-.66a5.558 5.558 0 0 1 1.66-1 5.293 5.293 0 0 1 1.92-.38c.36 0 .7.04 1.02.12.32.067.586.2.8.4.173.147.28.293.32.44.053.147.08.353.08.62v5.12c0 .587.053 1 .16 1.24.106.24.286.36.54.36.186 0 .373-.08.56-.24.2-.173.313-.26.34-.26.093 0 .14.053.14.16 0 .093-.06.207-.18.34-.067.067-.167.16-.3.28a5.154 5.154 0 0 1-.74.44c-.214.093-.44.14-.68.14-.387 0-.7-.233-.94-.7-.24-.467-.38-.7-.42-.7-.427.387-.934.74-1.52 1.06-.574.307-1.14.46-1.7.46-.52 0-.967-.14-1.34-.42-.36-.28-.54-.667-.54-1.16 0-.613.353-1.187 1.06-1.72.373-.28 1.006-.64 1.9-1.08l1.54-.72Zm-1.44 1.12c-.507.253-.867.493-1.08.72-.32.333-.48.72-.48 1.16 0 .373.126.667.38.88.266.2.6.3 1 .3.346 0 .68-.067 1-.2.32-.147.593-.34.82-.58.24-.24.386-.46.44-.66.066-.213.1-.5.1-.86v-1.2a3.61 3.61 0 0 0-.02-.34c0-.147-.04-.22-.12-.22l-.22.08-1.82.92Zm12.899 1.7c0 .653.027 1.047.08 1.18.12.307.433.46.94.46h.26c.12.027.18.1.18.22 0 .16-.107.24-.32.24l-1.86-.06-1.8.06c-.227 0-.34-.08-.34-.24 0-.12.067-.187.2-.2.147-.013.24-.02.28-.02.427-.04.7-.147.82-.32.12-.187.18-.473.18-.86v-2.1c0-.08-.007-.173-.02-.28 0-.12-.02-.2-.06-.24-.04-.04-.147-.06-.32-.06-.627 0-1.047.06-1.26.18-.213.107-.447.407-.7.9l-1.36 2.72-.12.24c-.12.187-.28.28-.48.28l-.72-.06-1 .06c-.227 0-.34-.073-.34-.22 0-.12.067-.193.2-.22.147-.027.24-.04.28-.04.333-.067.647-.4.94-1l1.22-2.12c.08-.173.2-.327.36-.46.173-.147.4-.287.68-.42-.72-.12-1.327-.36-1.82-.72-.573-.427-.86-.927-.86-1.5 0-.733.32-1.3.96-1.7.56-.347 1.273-.52 2.14-.52l3.18.08 1.6-.06c.227 0 .34.087.34.26 0 .107-.067.167-.2.18l-.56.06a.644.644 0 0 0-.54.3c-.107.173-.16.467-.16.88v5.12Zm-1.38-5.34c0-.48-.1-.773-.3-.88-.2-.12-.64-.18-1.32-.18-.707 0-1.26.167-1.66.5-.4.333-.6.813-.6 1.44 0 .573.24 1.033.72 1.38.267.16.613.273 1.04.34.427.067.873.1 1.34.1h.32c.307 0 .46-.067.46-.2v-2.5Zm3.229 8.38 7.04-14.56c.04-.107.087-.207.14-.3.054-.107.147-.16.28-.16.067 0 .14.007.22.02.08 0 .12.027.12.08 0 .067-.02.14-.06.22a3.02 3.02 0 0 0-.08.14l-6.92 14.38c-.04.093-.066.16-.08.2-.053.133-.146.2-.28.2h-.2c-.146.04-.22.007-.22-.1l.04-.12Zm11.848-3.08c0 .733.04 1.167.12 1.3.147.24.54.36 1.18.36.16 0 .287.013.38.04.094.027.14.093.14.2 0 .173-.113.26-.34.26-.266 0-.7-.013-1.3-.04-.586-.027-.9-.04-.94-.04-.253 0-.686.013-1.3.04-.613.027-.94.04-.98.04-.226 0-.34-.087-.34-.26 0-.12.04-.187.12-.2.094-.027.22-.04.38-.04.76 0 1.18-.187 1.26-.56.027-.12.04-.487.04-1.1V118.28c0-.493-.06-.807-.18-.94-.16-.173-.533-.26-1.12-.26-.333 0-.5-.087-.5-.26 0-.187.114-.28.34-.28l3.74.08h5.6l3.76-.08c.227 0 .34.093.34.28 0 .107-.053.18-.16.22-.093.027-.213.04-.36.04-.573 0-.933.08-1.08.24-.146.16-.22.48-.22.96V126.92c0 .733.04 1.167.12 1.3.147.24.54.36 1.18.36.16 0 .287.013.38.04.094.027.14.093.14.2 0 .173-.113.26-.34.26-.266 0-.7-.013-1.3-.04-.586-.027-.9-.04-.94-.04-.253 0-.686.013-1.3.04-.613.027-.94.04-.98.04-.226 0-.34-.087-.34-.26 0-.12.04-.187.12-.2.094-.027.22-.04.38-.04.76 0 1.18-.187 1.26-.56.027-.12.04-.487.04-1.1v-9c0-.373-.033-.587-.1-.64-.053-.067-.253-.1-.6-.1h-5.54c-.36 0-.58.04-.66.12-.066.067-.1.273-.1.62v9Zm13.885-4.68v3.3c0 1.293-.26 2.273-.78 2.94-.427.547-.947.82-1.56.82-.293 0-.54-.06-.74-.18-.253-.16-.38-.38-.38-.66 0-.56.24-.84.72-.84.173 0 .313.04.42.12.107.067.207.18.3.34.053.107.113.22.18.34.08.12.167.18.26.18.213 0 .42-.247.62-.74.253-.627.38-1.393.38-2.3V121.82c0-.427-.04-.713-.12-.86-.133-.227-.393-.34-.78-.34h-.26c-.12-.027-.18-.093-.18-.2 0-.173.107-.26.32-.26l1.64.06h4.44l1.52-.06c.2 0 .3.08.3.24 0 .107-.06.173-.18.2-.12.013-.207.02-.26.02-.44.053-.72.16-.84.32s-.18.413-.18.76v5.68c0 .427.053.74.16.94.12.187.407.28.86.28.053 0 .14.007.26.02.12 0 .18.073.18.22 0 .16-.107.24-.32.24l-1.9-.06-1.76.06c-.213 0-.32-.08-.32-.24 0-.12.04-.187.12-.2.093-.027.2-.04.32-.04.44 0 .72-.073.84-.22.12-.16.18-.433.18-.82v-6.18a.896.896 0 0 0-.08-.4c-.093-.173-.26-.26-.5-.26h-1.92c-.307 0-.547.073-.72.22-.16.133-.24.46-.24.98v.32Zm12.189 1.9c.36-.173.574-.307.64-.4.067-.093.1-.333.1-.72v-.88c0-.627-.053-1.047-.16-1.26-.173-.36-.546-.54-1.12-.54-.573 0-1.053.153-1.44.46-.32.253-.606.66-.86 1.22-.12.267-.186.407-.2.42a.77.77 0 0 1-.32.3c-.133.053-.293.113-.48.18-.173.053-.313.08-.42.08-.173 0-.26-.08-.26-.24 0-.24.087-.493.26-.76a2.83 2.83 0 0 1 .58-.66 5.57 5.57 0 0 1 1.66-1 5.301 5.301 0 0 1 1.92-.38c.36 0 .7.04 1.02.12.32.067.587.2.8.4.174.147.28.293.32.44.054.147.08.353.08.62v5.12c0 .587.054 1 .16 1.24.107.24.287.36.54.36.187 0 .374-.08.56-.24.2-.173.314-.26.34-.26.094 0 .14.053.14.16 0 .093-.06.207-.18.34-.066.067-.166.16-.3.28a5.048 5.048 0 0 1-.74.44c-.213.093-.44.14-.68.14-.386 0-.7-.233-.94-.7-.24-.467-.38-.7-.42-.7a7.8 7.8 0 0 1-1.52 1.06c-.573.307-1.14.46-1.7.46-.52 0-.966-.14-1.34-.42-.36-.28-.54-.667-.54-1.16 0-.613.354-1.187 1.06-1.72.374-.28 1.007-.64 1.9-1.08l1.54-.72Zm-1.44 1.12c-.506.253-.866.493-1.08.72-.32.333-.48.72-.48 1.16 0 .373.127.667.38.88.267.2.6.3 1 .3.347 0 .68-.067 1-.2.32-.147.594-.34.82-.58.24-.24.387-.46.44-.66.067-.213.1-.5.1-.86v-1.2c0-.093-.006-.207-.02-.34 0-.147-.04-.22-.12-.22l-.22.08-1.82.92Zm6.9-3c.013-.28.02-.48.02-.6 0-.333-.047-.567-.14-.7-.134-.187-.394-.3-.78-.34-.187 0-.327-.013-.42-.04-.094-.027-.14-.107-.14-.24s.093-.2.28-.2c.213 0 .566.013 1.06.04.506.027.786.04.84.04.2 0 .546-.013 1.04-.04.506-.027.786-.04.84-.04.16 0 .24.073.24.22 0 .107-.06.18-.18.22-.107.027-.234.04-.38.04-.374.04-.62.147-.74.32-.12.16-.18.4-.18.72.013.253.02.453.02.6v1.42c0 .16.013.253.04.28.026.027.133.04.32.04h3.7c.2 0 .313-.013.34-.04.04-.04.06-.16.06-.36v-1.34c.013-.28.02-.48.02-.6 0-.333-.047-.567-.14-.7-.134-.187-.394-.3-.78-.34-.187 0-.327-.013-.42-.04-.094-.027-.14-.107-.14-.24s.093-.2.28-.2c.213 0 .566.013 1.06.04.506.027.786.04.84.04.2 0 .546-.013 1.04-.04.506-.027.786-.04.84-.04.16 0 .24.073.24.22 0 .107-.06.18-.18.22-.107.027-.234.04-.38.04-.374.04-.62.147-.74.32-.12.16-.18.4-.18.72.013.253.02.453.02.6v4.7c-.014.28-.02.48-.02.6 0 .32.06.567.18.74.12.16.366.26.74.3.373 0 .56.087.56.26 0 .147-.08.22-.24.22-.227 0-.5-.013-.82-.04-.32-.013-.674-.027-1.06-.04-.227 0-.6.013-1.12.04l-.78.04c-.187 0-.28-.067-.28-.2 0-.12.053-.193.16-.22.12-.04.253-.06.4-.06.373-.04.62-.14.74-.3.12-.173.18-.42.18-.74-.014-.253-.02-.453-.02-.6v-2.1c0-.173-.014-.273-.04-.3-.027-.027-.147-.04-.36-.04h-3.7c-.187 0-.294.013-.32.04-.027.027-.04.12-.04.28v2.12c-.014.28-.02.48-.02.6 0 .32.06.567.18.74.12.16.366.26.74.3.373 0 .56.087.56.26 0 .147-.08.22-.24.22-.227 0-.5-.013-.82-.04-.32-.013-.674-.027-1.06-.04-.227 0-.6.013-1.12.04l-.78.04c-.187 0-.28-.067-.28-.2 0-.12.053-.193.16-.22.12-.04.253-.06.4-.06.373-.04.62-.14.74-.3.12-.173.18-.42.18-.74-.014-.253-.02-.453-.02-.6v-4.7Zm12 1.3c-.36 0-.586.027-.68.08-.093.053-.14.233-.14.54 0 1.16.34 2.133 1.02 2.92.734.84 1.687 1.26 2.86 1.26.64 0 1.214-.133 1.72-.4.414-.293.827-.593 1.24-.9.107 0 .16.053.16.16 0 .093-.113.253-.34.48-.173.173-.32.313-.44.42-.466.4-.953.687-1.46.86-.493.173-1.06.26-1.7.26-1.293 0-2.38-.447-3.26-1.34-.866-.907-1.3-1.993-1.3-3.26 0-.707.107-1.327.32-1.86.227-.533.6-1.027 1.12-1.48 1.014-.893 2.214-1.34 3.6-1.34.587 0 1.12.1 1.6.3.494.187.92.5 1.28.94.467.587.7 1.26.7 2.02 0 .227-.08.34-.24.34h-6.06Zm1.64-.48h.26c.507 0 .9-.007 1.18-.02.294-.027.574-.067.84-.12.28-.067.48-.16.6-.28.12-.12.18-.3.18-.54 0-.2-.046-.4-.14-.6a2.07 2.07 0 0 0-.38-.58 1.742 1.742 0 0 0-.78-.48 3.159 3.159 0 0 0-.96-.14c-.533 0-1.026.113-1.48.34-.44.227-.813.56-1.12 1a3.25 3.25 0 0 0-.34.56c-.106.24-.16.44-.16.6 0 .133.06.213.18.24.12.013.287.02.5.02h1.62Zm7.26.12v-.28c0-.213-.02-.413-.06-.6-.026-.2-.08-.34-.16-.42-.08-.093-.266-.14-.56-.14h-.26c-.16 0-.24-.053-.24-.16 0-.12.14-.227.42-.32a4.62 4.62 0 0 0 .94-.46c.347-.213.6-.413.76-.6a1.54 1.54 0 0 1 .14-.16c.067-.067.14-.1.22-.1.12 0 .18.107.18.32v1.1c.56-.453 1.114-.8 1.66-1.04a4.05 4.05 0 0 1 1.72-.38c.547 0 1.087.133 1.62.4.534.253.994.587 1.38 1 .4.4.707.887.92 1.46.214.56.32 1.127.32 1.7 0 1.373-.48 2.507-1.44 3.4-.946.88-2.133 1.32-3.56 1.32-.333 0-.64-.033-.92-.1s-.64-.173-1.08-.32a4.778 4.778 0 0 1-.46-.1c-.12 0-.18.12-.18.36.014.133.02.213.02.24v2.14c-.013.28-.02.48-.02.6 0 .32.06.56.18.72.12.173.367.28.74.32.374.04.56.127.56.26 0 .147-.08.22-.24.22-.226 0-.5-.013-.82-.04-.32-.013-.673-.027-1.06-.04-.226 0-.6.013-1.12.04-.506.027-.766.04-.78.04-.186 0-.28-.067-.28-.2 0-.12.04-.193.12-.22.08-.027.267-.053.56-.08.294-.027.5-.127.62-.3.12-.16.18-.4.18-.72-.013-.253-.02-.453-.02-.6v-8.26Zm6.42-1.34a3.256 3.256 0 0 0-2.44-1.04c-.44 0-.866.087-1.28.26a2.19 2.19 0 0 0-.98.78c-.146.173-.24.367-.28.58-.04.2-.06.467-.06.8v3.1c0 .453.04.833.12 1.14.08.307.254.58.52.82.214.173.48.313.8.42.32.107.634.16.94.16 1.107 0 2.014-.42 2.72-1.26.667-.787 1-1.733 1-2.84 0-.573-.086-1.107-.26-1.6a3.382 3.382 0 0 0-.8-1.32Zm5.082.4c.013-.28.02-.48.02-.6 0-.333-.047-.567-.14-.7-.133-.187-.393-.3-.78-.34-.187 0-.327-.013-.42-.04-.093-.027-.14-.107-.14-.24s.093-.2.28-.2c.213 0 .567.013 1.06.04.507.027.787.04.84.04.2 0 .547-.013 1.04-.04.507-.027.787-.04.84-.04.16 0 .24.073.24.22 0 .107-.06.18-.18.22-.107.027-.233.04-.38.04-.373.04-.62.147-.74.32-.12.16-.18.4-.18.72.013.253.02.453.02.6v1.42c0 .16.013.253.04.28.027.027.133.04.32.04h3.7c.2 0 .313-.013.34-.04.04-.04.06-.16.06-.36v-1.34c.013-.28.02-.48.02-.6 0-.333-.047-.567-.14-.7-.133-.187-.393-.3-.78-.34-.187 0-.327-.013-.42-.04-.093-.027-.14-.107-.14-.24s.093-.2.28-.2c.213 0 .567.013 1.06.04.507.027.787.04.84.04.2 0 .547-.013 1.04-.04.507-.027.787-.04.84-.04.16 0 .24.073.24.22 0 .107-.06.18-.18.22-.107.027-.233.04-.38.04-.373.04-.62.147-.74.32-.12.16-.18.4-.18.72.013.253.02.453.02.6v4.7c-.013.28-.02.48-.02.6 0 .32.06.567.18.74.12.16.367.26.74.3.373 0 .56.087.56.26 0 .147-.08.22-.24.22-.227 0-.5-.013-.82-.04-.32-.013-.673-.027-1.06-.04-.227 0-.6.013-1.12.04l-.78.04c-.187 0-.28-.067-.28-.2 0-.12.053-.193.16-.22.12-.04.253-.06.4-.06.373-.04.62-.14.74-.3.12-.173.18-.42.18-.74-.013-.253-.02-.453-.02-.6v-2.1c0-.173-.013-.273-.04-.3-.027-.027-.147-.04-.36-.04h-3.7c-.187 0-.293.013-.32.04-.027.027-.04.12-.04.28v2.12c-.013.28-.02.48-.02.6 0 .32.06.567.18.74.12.16.367.26.74.3.373 0 .56.087.56.26 0 .147-.08.22-.24.22-.227 0-.5-.013-.82-.04-.32-.013-.673-.027-1.06-.04-.227 0-.6.013-1.12.04l-.78.04c-.187 0-.28-.067-.28-.2 0-.12.053-.193.16-.22.12-.04.253-.06.4-.06.373-.04.62-.14.74-.3.12-.173.18-.42.18-.74-.013-.253-.02-.453-.02-.6v-4.7Zm14.541 1.88c.36-.173.573-.307.64-.4.066-.093.1-.333.1-.72v-.88c0-.627-.054-1.047-.16-1.26-.174-.36-.547-.54-1.12-.54-.574 0-1.054.153-1.44.46-.32.253-.607.66-.86 1.22-.12.267-.187.407-.2.42a.776.776 0 0 1-.32.3c-.134.053-.294.113-.48.18-.174.053-.314.08-.42.08-.174 0-.26-.08-.26-.24 0-.24.086-.493.26-.76.173-.267.366-.487.58-.66a5.558 5.558 0 0 1 1.66-1 5.293 5.293 0 0 1 1.92-.38c.36 0 .7.04 1.02.12.32.067.586.2.8.4.173.147.28.293.32.44.053.147.08.353.08.62v5.12c0 .587.053 1 .16 1.24.106.24.286.36.54.36.186 0 .373-.08.56-.24.2-.173.313-.26.34-.26.093 0 .14.053.14.16 0 .093-.06.207-.18.34-.067.067-.167.16-.3.28a5.154 5.154 0 0 1-.74.44c-.214.093-.44.14-.68.14-.387 0-.7-.233-.94-.7-.24-.467-.38-.7-.42-.7-.427.387-.934.74-1.52 1.06-.574.307-1.14.46-1.7.46-.52 0-.967-.14-1.34-.42-.36-.28-.54-.667-.54-1.16 0-.613.353-1.187 1.06-1.72.373-.28 1.006-.64 1.9-1.08l1.54-.72Zm-1.44 1.12c-.507.253-.867.493-1.08.72-.32.333-.48.72-.48 1.16 0 .373.126.667.38.88.266.2.6.3 1 .3.346 0 .68-.067 1-.2.32-.147.593-.34.82-.58.24-.24.386-.46.44-.66.066-.213.1-.5.1-.86v-1.2a3.61 3.61 0 0 0-.02-.34c0-.147-.04-.22-.12-.22l-.22.08-1.82.92Zm12.899 1.7c0 .653.027 1.047.08 1.18.12.307.433.46.94.46h.26c.12.027.18.1.18.22 0 .16-.107.24-.32.24l-1.86-.06-1.8.06c-.227 0-.34-.08-.34-.24 0-.12.067-.187.2-.2.147-.013.24-.02.28-.02.427-.04.7-.147.82-.32.12-.187.18-.473.18-.86v-2.1c0-.08-.007-.173-.02-.28 0-.12-.02-.2-.06-.24-.04-.04-.147-.06-.32-.06-.627 0-1.047.06-1.26.18-.213.107-.447.407-.7.9l-1.36 2.72-.12.24c-.12.187-.28.28-.48.28l-.72-.06-1 .06c-.227 0-.34-.073-.34-.22 0-.12.067-.193.2-.22.147-.027.24-.04.28-.04.333-.067.647-.4.94-1l1.22-2.12c.08-.173.2-.327.36-.46.173-.147.4-.287.68-.42-.72-.12-1.327-.36-1.82-.72-.573-.427-.86-.927-.86-1.5 0-.733.32-1.3.96-1.7.56-.347 1.273-.52 2.14-.52l3.18.08 1.6-.06c.227 0 .34.087.34.26 0 .107-.067.167-.2.18l-.56.06a.644.644 0 0 0-.54.3c-.107.173-.16.467-.16.88v5.12Zm-1.38-5.34c0-.48-.1-.773-.3-.88-.2-.12-.64-.18-1.32-.18-.707 0-1.26.167-1.66.5-.4.333-.6.813-.6 1.44 0 .573.24 1.033.72 1.38.267.16.613.273 1.04.34.427.067.873.1 1.34.1h.32c.307 0 .46-.067.46-.2v-2.5Zm9.509 1.48c0 .773-.093 1.493-.28 2.16a7.346 7.346 0 0 1-.84 1.96 9.315 9.315 0 0 1-2.86 2.96c-.24.16-.58.353-1.02.58-.573.293-.946.44-1.12.44-.133 0-.2-.053-.2-.16 0-.053.047-.093.14-.12 1.64-.613 2.854-1.64 3.64-3.08.694-1.28 1.04-2.867 1.04-4.76 0-1.907-.34-3.487-1.02-4.74-.773-1.427-1.993-2.453-3.66-3.08-.093-.027-.14-.073-.14-.14 0-.093.06-.14.18-.14s.36.087.72.26c.36.16.574.253.64.28.44.227.88.513 1.32.86.44.333.84.693 1.2 1.08.774.827 1.34 1.693 1.7 2.6.374.893.56 1.907.56 3.04Z" fill="#fff"/><path d="M4.6 87.744C2.378 88.724 1 90.089 1 91.6 1 94.582 6.373 97 13 97s12-2.418 12-5.4c0-1.51-1.378-2.876-3.6-3.856M20.2 80.2c0 4.876-5.4 7.2-7.2 10.8-1.8-3.6-7.2-5.924-7.2-10.8a7.2 7.2 0 1 1 14.4 0Zm-6 0a1.2 1.2 0 1 1-2.4 0 1.2 1.2 0 0 1 2.4 0Z" stroke="#8A7BAE" stroke-width="2" stroke-linecap="round" stroke-linejoin="round"/><path d="M13 24.5C6.657 24.5 1.5 19.343 1.5 13S6.657 1.5 13 1.5 24.5 6.657 24.5 13 19.343 24.5 13 24.5Zm0-22.326C7.03 2.174 2.174 7.031 2.174 13c0 5.97 4.857 10.826 10.826 10.826 5.97 0 10.826-4.857 10.826-10.826 0-5.97-4.857-10.826-10.826-10.826Z" fill="#8A7BAE" stroke="#8A7BAE"/><path d="m16.993 16.85-.01-.007-.01-.006-3.461-2.066c-.708-.423-1.252-1.387-1.252-2.205V7.99c0-.182.155-.338.337-.338.181 0 .337.156.337.338v4.576c0 .32.125.655.276.92.15.264.374.543.651.705l3.458 2.064.005.003c.15.087.21.286.114.46a.36.36 0 0 1-.298.17.25.25 0 0 1-.147-.038Z" fill="#8A7BAE" stroke="#8A7BAE"/><path d="M58.88 16.92c0 .733.04 1.167.12 1.3.147.24.54.36 1.18.36.16 0 .287.013.38.04.093.027.14.093.14.2 0 .173-.113.26-.34.26-.267 0-.7-.013-1.3-.04-.587-.027-.9-.04-.94-.04-.253 0-.687.013-1.3.04-.613.027-.94.04-.98.04-.227 0-.34-.087-.34-.26 0-.12.04-.187.12-.2.093-.027.22-.04.38-.04.76 0 1.18-.187 1.26-.56.027-.12.04-.487.04-1.1V8.28c0-.493-.06-.807-.18-.94-.16-.173-.533-.26-1.12-.26-.333 0-.5-.087-.5-.26 0-.187.113-.28.34-.28l3.74.08h5.6l3.76-.08c.227 0 .34.093.34.28 0 .107-.053.18-.16.22-.093.027-.213.04-.36.04-.573 0-.933.08-1.08.24-.147.16-.22.48-.22.96V16.92c0 .733.04 1.167.12 1.3.147.24.54.36 1.18.36.16 0 .287.013.38.04.093.027.14.093.14.2 0 .173-.113.26-.34.26-.267 0-.7-.013-1.3-.04-.587-.027-.9-.04-.94-.04-.253 0-.687.013-1.3.04-.613.027-.94.04-.98.04-.227 0-.34-.087-.34-.26 0-.12.04-.187.12-.2.093-.027.22-.04.38-.04.76 0 1.18-.187 1.26-.56.027-.12.04-.487.04-1.1v-9c0-.373-.033-.587-.1-.64-.053-.067-.253-.1-.6-.1h-5.54c-.36 0-.58.04-.66.12-.067.067-.1.273-.1.62v9Zm12.725-4.66c.013-.28.02-.48.02-.6 0-.333-.047-.567-.14-.7-.134-.187-.394-.3-.78-.34-.187 0-.327-.013-.42-.04-.094-.027-.14-.107-.14-.24s.093-.2.28-.2c.213 0 .566.013 1.06.04.506.027.786.04.84.04.2 0 .546-.013 1.04-.04.506-.027.786-.04.84-.04.16 0 .24.073.24.22 0 .107-.06.18-.18.22a1.58 1.58 0 0 1-.38.04c-.374.04-.62.147-.74.32-.12.16-.18.4-.18.72.013.253.02.453.02.6v1.42c0 .16.013.253.04.28.026.027.133.04.32.04h3.7c.2 0 .313-.013.34-.04.04-.04.06-.16.06-.36v-1.34c.013-.28.02-.48.02-.6 0-.333-.047-.567-.14-.7-.134-.187-.394-.3-.78-.34-.187 0-.327-.013-.42-.04-.094-.027-.14-.107-.14-.24s.093-.2.28-.2c.213 0 .566.013 1.06.04.506.027.786.04.84.04.2 0 .546-.013 1.04-.04.506-.027.786-.04.84-.04.16 0 .24.073.24.22 0 .107-.06.18-.18.22a1.58 1.58 0 0 1-.38.04c-.374.04-.62.147-.74.32-.12.16-.18.4-.18.72.013.253.02.453.02.6v4.7c-.014.28-.02.48-.02.6 0 .32.06.567.18.74.12.16.366.26.74.3.373 0 .56.087.56.26 0 .147-.08.22-.24.22-.227 0-.5-.013-.82-.04-.32-.013-.674-.027-1.06-.04-.227 0-.6.013-1.12.04l-.78.04c-.187 0-.28-.067-.28-.2 0-.12.053-.193.16-.22.12-.04.253-.06.4-.06.373-.04.62-.14.74-.3.12-.173.18-.42.18-.74-.014-.253-.02-.453-.02-.6v-2.1c0-.173-.014-.273-.04-.3-.027-.027-.147-.04-.36-.04h-3.7c-.187 0-.294.013-.32.04-.027.027-.04.12-.04.28v2.12c-.014.28-.02.48-.02.6 0 .32.06.567.18.74.12.16.366.26.74.3.373 0 .56.087.56.26 0 .147-.08.22-.24.22-.227 0-.5-.013-.82-.04-.32-.013-.674-.027-1.06-.04-.227 0-.6.013-1.12.04l-.78.04c-.187 0-.28-.067-.28-.2 0-.12.053-.193.16-.22.12-.04.253-.06.4-.06.373-.04.62-.14.74-.3.12-.173.18-.42.18-.74-.014-.253-.02-.453-.02-.6v-4.7ZM86.185 15h-5.06l.32-1.02h5.06l-.32 1.02Zm3.407-6.36v-.5c0-.373-.047-.647-.14-.82-.134-.24-.387-.36-.76-.36-.147 0-.327.027-.54.08-.214.053-.354.08-.42.08-.147 0-.22-.06-.22-.18 0-.133.1-.233.3-.3.213-.08.42-.14.62-.18.52-.093 1.1-.153 1.74-.18.653-.04 1.393-.06 2.22-.06.866 0 1.613.027 2.24.08.626.053 1.206.2 1.74.44.546.227.98.54 1.3.94.373.467.56.98.56 1.54 0 .733-.294 1.353-.88 1.86-.494.427-1.127.72-1.9.88.973.12 1.793.48 2.46 1.08.746.667 1.12 1.487 1.12 2.46 0 .573-.14 1.107-.42 1.6-.267.48-.634.88-1.1 1.2a4.214 4.214 0 0 1-1.5.62c-.52.107-1.107.16-1.76.16-.56 0-1.494-.013-2.8-.04-1.294-.027-1.987-.04-2.08-.04-.134 0-.34.013-.62.04-.28.027-.494.04-.64.04-.227 0-.34-.1-.34-.3 0-.12.066-.18.2-.18.146-.013.246-.02.3-.02.64 0 1.033-.127 1.18-.38.093-.16.14-.607.14-1.34V8.64Zm1.58 2.28c0 .44.046.713.14.82.106.093.386.14.84.14h1.08c.52 0 .98-.047 1.38-.14a2.25 2.25 0 0 0 1.06-.58c.493-.453.74-1.067.74-1.84 0-.933-.347-1.633-1.04-2.1-.614-.413-1.4-.62-2.36-.62-.534 0-.907.027-1.12.08a.906.906 0 0 0-.52.28c-.08.08-.134.2-.16.36-.027.16-.04.327-.04.5V10.92Zm0 5.5c0 .56.013.913.04 1.06.08.413.26.707.54.88.12.08.353.153.7.22.36.053.766.08 1.22.08.56 0 1.04-.053 1.44-.16a2.698 2.698 0 0 0 1.12-.6c.333-.307.586-.66.76-1.06.173-.413.26-.84.26-1.28 0-1.24-.514-2.14-1.54-2.7a3.628 3.628 0 0 0-1.38-.48c-.494-.067-1.094-.1-1.8-.1h-.38c-.12 0-.234-.007-.34-.02-.267 0-.44.053-.52.16-.08.107-.12.367-.12.78v3.22Zm16.913-3.9c-.134 0-.447-.367-.94-1.1-.494-.733-1.054-1.1-1.68-1.1-.347 0-.7.08-1.06.24-.36.147-.68.34-.96.58a3.924 3.924 0 0 0-1.06 1.46 4.349 4.349 0 0 0-.38 1.78c0 1.067.34 2.007 1.02 2.82.733.867 1.64 1.3 2.72 1.3.466 0 .886-.067 1.26-.2.373-.147.72-.373 1.04-.68.16-.16.26-.24.3-.24.093 0 .14.053.14.16 0 .08-.08.207-.24.38-.107.12-.227.233-.36.34-.814.653-1.78.98-2.9.98-1.227 0-2.28-.44-3.16-1.32-.88-.88-1.32-1.927-1.32-3.14 0-1.333.52-2.467 1.56-3.4 1.053-.947 2.266-1.42 3.64-1.42.413 0 .846.06 1.3.18.466.107.853.267 1.16.48.12.08.18.247.18.5-.014.187-.02.313-.02.38.013.16.02.3.02.42 0 .2-.02.353-.06.46-.027.093-.094.14-.2.14Zm3.539 1c-.28 0-.5-.093-.66-.28-.16-.187-.24-.42-.24-.7 0-.293.08-.527.24-.7.173-.187.407-.28.7-.28.28 0 .48.093.6.28.133.187.2.42.2.7 0 .307-.067.547-.2.72-.133.173-.347.26-.64.26Zm0 5.72c-.28 0-.5-.093-.66-.28-.16-.187-.24-.42-.24-.7 0-.293.08-.527.24-.7.173-.187.407-.28.7-.28.28 0 .48.093.6.28.133.187.2.42.2.7 0 .307-.067.547-.2.72-.133.173-.347.26-.64.26Zm17.261-6.72c-.133 0-.446-.367-.94-1.1-.493-.733-1.053-1.1-1.68-1.1-.346 0-.7.08-1.06.24-.36.147-.68.34-.96.58a3.947 3.947 0 0 0-1.06 1.46 4.365 4.365 0 0 0-.38 1.78c0 1.067.34 2.007 1.02 2.82.734.867 1.64 1.3 2.72 1.3.467 0 .887-.067 1.26-.2.374-.147.72-.373 1.04-.68.16-.16.26-.24.3-.24.094 0 .14.053.14.16 0 .08-.08.207-.24.38-.106.12-.226.233-.36.34-.813.653-1.78.98-2.9.98-1.226 0-2.28-.44-3.16-1.32-.88-.88-1.32-1.927-1.32-3.14 0-1.333.52-2.467 1.56-3.4 1.054-.947 2.267-1.42 3.64-1.42.414 0 .847.06 1.3.18.467.107.854.267 1.16.48.12.08.18.247.18.5-.013.187-.02.313-.02.38.014.16.02.3.02.42 0 .2-.02.353-.06.46-.026.093-.093.14-.2.14Zm13.426-6.04v10.28c0 .56.013.9.04 1.02.107.453.507.68 1.2.68h.6c.213 0 .32.093.32.28 0 .173-.107.26-.32.26h-5.46c-.227 0-.34-.1-.34-.3 0-.107.06-.173.18-.2.12-.027.407-.04.86-.04.68 0 1.087-.093 1.22-.28.133-.2.2-.66.2-1.38V7.9c0-.253-.1-.38-.3-.38-.093 0-.2.027-.32.08-.12.053-.207.093-.26.12l-1.16.52c-.133.053-.26.107-.38.16a.954.954 0 0 1-.26.06c-.147 0-.22-.087-.22-.26 0-.093.04-.173.12-.24.08-.067.24-.133.48-.2l3.34-1.46c.133-.067.227-.093.28-.08.12.04.18.127.18.26Zm8.96 12.9c-1.36 0-2.467-.793-3.32-2.38a8.794 8.794 0 0 1-1.08-4.24c0-1.48.353-2.88 1.06-4.2.853-1.6 1.96-2.4 3.32-2.4.693 0 1.353.247 1.98.74.56.44 1.02 1 1.38 1.68.32.6.553 1.26.7 1.98.16.72.24 1.453.24 2.2 0 .747-.073 1.467-.22 2.16a6.933 6.933 0 0 1-.66 1.92 5.58 5.58 0 0 1-1.38 1.74c-.64.533-1.313.8-2.02.8Zm0-.5c.64 0 1.173-.267 1.6-.8.333-.413.6-.98.8-1.7.12-.44.207-1 .26-1.68.067-.693.1-1.34.1-1.94 0-1.013-.04-1.793-.12-2.34a8.482 8.482 0 0 0-.32-1.54c-.2-.64-.467-1.147-.8-1.52-.427-.48-.933-.72-1.52-.72-1.147 0-1.953.78-2.42 2.34-.307 1.013-.46 2.273-.46 3.78 0 1.533.147 2.787.44 3.76.48 1.573 1.293 2.36 2.44 2.36Zm7.56-5.36c-.28 0-.5-.093-.66-.28-.16-.187-.24-.42-.24-.7 0-.293.08-.527.24-.7.173-.187.407-.28.7-.28.28 0 .48.093.6.28.133.187.2.42.2.7 0 .307-.067.547-.2.72-.133.173-.347.26-.64.26Zm0 5.72c-.28 0-.5-.093-.66-.28-.16-.187-.24-.42-.24-.7 0-.293.08-.527.24-.7.173-.187.407-.28.7-.28.28 0 .48.093.6.28.133.187.2.42.2.7 0 .307-.067.547-.2.72-.133.173-.347.26-.64.26Zm7.635.14c-1.36 0-2.466-.793-3.32-2.38a8.794 8.794 0 0 1-1.08-4.24c0-1.48.354-2.88 1.06-4.2.854-1.6 1.96-2.4 3.32-2.4.694 0 1.354.247 1.98.74.56.44 1.02 1 1.38 1.68.32.6.554 1.26.7 1.98.16.72.24 1.453.24 2.2 0 .747-.073 1.467-.22 2.16a6.933 6.933 0 0 1-.66 1.92 5.58 5.58 0 0 1-1.38 1.74c-.64.533-1.313.8-2.02.8Zm0-.5c.64 0 1.174-.267 1.6-.8.334-.413.6-.98.8-1.7.12-.44.207-1 .26-1.68.067-.693.1-1.34.1-1.94 0-1.013-.04-1.793-.12-2.34a8.398 8.398 0 0 0-.32-1.54c-.2-.64-.466-1.147-.8-1.52-.426-.48-.933-.72-1.52-.72-1.146 0-1.953.78-2.42 2.34-.306 1.013-.46 2.273-.46 3.78 0 1.533.147 2.787.44 3.76.48 1.573 1.294 2.36 2.44 2.36Zm10 .5c-1.36 0-2.466-.793-3.32-2.38a8.794 8.794 0 0 1-1.08-4.24c0-1.48.354-2.88 1.06-4.2.854-1.6 1.96-2.4 3.32-2.4.694 0 1.354.247 1.98.74.56.44 1.02 1 1.38 1.68.32.6.554 1.26.7 1.98.16.72.24 1.453.24 2.2 0 .747-.073 1.467-.22 2.16a6.933 6.933 0 0 1-.66 1.92 5.58 5.58 0 0 1-1.38 1.74c-.64.533-1.313.8-2.02.8Zm0-.5c.64 0 1.174-.267 1.6-.8.334-.413.6-.98.8-1.7.12-.44.207-1 .26-1.68.067-.693.1-1.34.1-1.94 0-1.013-.04-1.793-.12-2.34a8.398 8.398 0 0 0-.32-1.54c-.2-.64-.466-1.147-.8-1.52-.426-.48-.933-.72-1.52-.72-1.146 0-1.953.78-2.42 2.34-.306 1.013-.46 2.273-.46 3.78 0 1.533.147 2.787.44 3.76.48 1.573 1.294 2.36 2.44 2.36Zm13.327-3.34V11.84c0-.44-.04-.733-.12-.88-.12-.227-.38-.34-.78-.34h-.26c-.12-.027-.18-.093-.18-.2 0-.173.106-.26.32-.26l1.64.06h4.44l1.52-.06c.2 0 .3.08.3.24 0 .107-.04.173-.12.2a2.04 2.04 0 0 1-.32.02c-.44 0-.734.16-.88.48-.094.213-.14.6-.14 1.16v4.7c0 .453.04.833.12 1.14.08.293.233.46.46.5h.66c.146 0 .22.08.22.24a2.05 2.05 0 0 0-.02.2l-.12 2.54c0 .2-.074.3-.22.3-.134 0-.214-.08-.24-.24-.187-1.053-.44-1.76-.76-2.12-.32-.347-.82-.52-1.5-.52h-3.22c-.734 0-1.354.293-1.86.88-.027.04-.394.62-1.101 1.74-.04.08-.073.14-.1.18-.093.12-.186.18-.28.18-.146 0-.22-.073-.22-.22 0-.053.007-.107.02-.16a.704.704 0 0 1 .08-.18l.821-2.64c.026-.147.126-.233.3-.26l.56.08c.28-.28.513-.7.7-1.26.186-.56.28-1.16.28-1.8Zm4.04 1.42v-5.58a.895.895 0 0 0-.08-.4c-.094-.173-.26-.26-.5-.26h-1.92c-.414 0-.68.093-.8.28-.107.187-.16.493-.16.92V15.54c0 .68-.074 1.24-.22 1.68-.147.44-.374.867-.68 1.28h3.9c.2-.04.326-.18.38-.42.053-.253.08-.627.08-1.12Zm3.819-2.44c0-1.28.453-2.353 1.36-3.22a4.338 4.338 0 0 1 1.62-1 5.77 5.77 0 0 1 1.98-.34c.666 0 1.28.093 1.84.28a4.35 4.35 0 0 1 1.56.88c.48.4.86.907 1.14 1.52.28.613.42 1.24.42 1.88 0 1.347-.487 2.473-1.46 3.38-.96.893-2.127 1.34-3.5 1.34-1.387 0-2.56-.447-3.52-1.34s-1.44-2.02-1.44-3.38Zm8.4.14c0-1.12-.287-2.093-.86-2.92-.64-.933-1.507-1.4-2.6-1.4-1.054 0-1.894.407-2.52 1.22-.614.813-.92 1.767-.92 2.86 0 1.107.3 2.093.9 2.96.68.987 1.553 1.48 2.62 1.48 1.013 0 1.846-.46 2.5-1.38.586-.827.88-1.767.88-2.82Zm11.857 2.8h3.74c.52 0 .88-.067 1.08-.2.214-.133.347-.393.4-.78.054-.4.14-.6.26-.6s.18.053.18.16c.014.093.02.187.02.28v2.34c0 .227-.14.34-.42.34h-6.96c-.12.013-.213.02-.28.02-.24 0-.36-.073-.36-.22 0-.053.034-.127.1-.22.067-.107.127-.207.18-.3l2.66-3.22c1.067-1.2 1.774-2.053 2.12-2.56.8-1.147 1.2-2.14 1.2-2.98 0-.773-.253-1.4-.76-1.88-.493-.493-1.126-.74-1.9-.74a2.9 2.9 0 0 0-1.66.5c-.493.333-.886.78-1.18 1.34-.08.133-.146.227-.2.28a.248.248 0 0 1-.18.08c-.12 0-.18-.06-.18-.18 0-.133.094-.353.28-.66.147-.24.287-.433.42-.58.414-.507.887-.873 1.42-1.1.547-.24 1.167-.36 1.86-.36 1 0 1.854.273 2.56.82.774.6 1.16 1.38 1.16 2.34 0 .773-.253 1.527-.76 2.26-.333.48-.893 1.073-1.68 1.78l-3.36 3.28c-.053.053-.14.16-.26.32-.106.16-.16.273-.16.34 0 .08.127.12.38.12.16-.013.254-.02.28-.02Zm12.8-10.98v10.28c0 .56.014.9.04 1.02.107.453.507.68 1.2.68h.6c.214 0 .32.093.32.28 0 .173-.106.26-.32.26h-5.46c-.226 0-.34-.1-.34-.3 0-.107.06-.173.18-.2.12-.027.407-.04.86-.04.68 0 1.087-.093 1.22-.28.134-.2.2-.66.2-1.38V7.9c0-.253-.1-.38-.3-.38-.093 0-.2.027-.32.08-.12.053-.206.093-.26.12l-1.16.52c-.133.053-.26.107-.38.16a.947.947 0 0 1-.26.06c-.146 0-.22-.087-.22-.26 0-.093.04-.173.12-.24.08-.067.24-.133.48-.2l3.34-1.46c.134-.067.227-.093.28-.08.12.04.18.127.18.26Zm6.52 7.04c-.28 0-.5-.093-.66-.28-.16-.187-.24-.42-.24-.7 0-.293.08-.527.24-.7.174-.187.407-.28.7-.28.28 0 .48.093.6.28.134.187.2.42.2.7 0 .307-.066.547-.2.72-.133.173-.346.26-.64.26Zm0 5.72c-.28 0-.5-.093-.66-.28-.16-.187-.24-.42-.24-.7 0-.293.08-.527.24-.7.174-.187.407-.28.7-.28.28 0 .48.093.6.28.134.187.2.42.2.7 0 .307-.066.547-.2.72-.133.173-.346.26-.64.26Zm7.636.14c-1.36 0-2.467-.793-3.32-2.38a8.794 8.794 0 0 1-1.08-4.24c0-1.48.353-2.88 1.06-4.2.853-1.6 1.96-2.4 3.32-2.4.693 0 1.353.247 1.98.74.56.44 1.02 1 1.38 1.68.32.6.553 1.26.7 1.98a10.456 10.456 0 0 1 .02 4.36 6.999 6.999 0 0 1-.66 1.92 5.58 5.58 0 0 1-1.38 1.74c-.64.533-1.314.8-2.02.8Zm0-.5c.64 0 1.173-.267 1.6-.8.333-.413.6-.98.8-1.7.12-.44.206-1 .26-1.68.066-.693.1-1.34.1-1.94 0-1.013-.04-1.793-.12-2.34a8.567 8.567 0 0 0-.32-1.54c-.2-.64-.467-1.147-.8-1.52-.427-.48-.934-.72-1.52-.72-1.147 0-1.954.78-2.42 2.34-.307 1.013-.46 2.273-.46 3.78 0 1.533.146 2.787.44 3.76.48 1.573 1.293 2.36 2.44 2.36Zm10 .5c-1.36 0-2.467-.793-3.32-2.38a8.794 8.794 0 0 1-1.08-4.24c0-1.48.353-2.88 1.06-4.2.853-1.6 1.96-2.4 3.32-2.4.693 0 1.353.247 1.98.74.56.44 1.02 1 1.38 1.68.32.6.553 1.26.7 1.98a10.456 10.456 0 0 1 .02 4.36 6.999 6.999 0 0 1-.66 1.92 5.58 5.58 0 0 1-1.38 1.74c-.64.533-1.314.8-2.02.8Zm0-.5c.64 0 1.173-.267 1.6-.8.333-.413.6-.98.8-1.7.12-.44.206-1 .26-1.68.066-.693.1-1.34.1-1.94 0-1.013-.04-1.793-.12-2.34a8.567 8.567 0 0 0-.32-1.54c-.2-.64-.467-1.147-.8-1.52-.427-.48-.934-.72-1.52-.72-1.147 0-1.954.78-2.42 2.34-.307 1.013-.46 2.273-.46 3.78 0 1.533.146 2.787.44 3.76.48 1.573 1.293 2.36 2.44 2.36Z" fill="#fff"/></svg>