<svg width="176" height="41" viewBox="0 0 176 41" fill="none" xmlns="http://www.w3.org/2000/svg">
<circle cx="20.251" cy="20.251" r="19.8828" stroke="white" stroke-width="0.736402"/>
<path d="M20.0719 13.0176C20.178 13.0176 20.2487 13.1059 20.4607 13.6538C20.7258 14.3254 23.5006 21.6246 24.5787 24.311C25.215 25.884 25.7275 26.1667 26.0986 26.2728C26.3637 26.3612 26.6288 26.3788 26.8056 26.3788C26.9116 26.3788 26.9823 26.3965 26.9823 26.4849C26.9823 26.5909 26.8233 26.6263 26.6288 26.6263C26.3637 26.6263 25.0736 26.6263 23.8541 26.5909C23.5183 26.5732 23.3239 26.5732 23.3239 26.4672C23.3239 26.3965 23.3946 26.3435 23.4476 26.3435C23.4829 26.3435 23.589 26.2551 23.589 26.0961C23.589 26.043 23.589 25.937 23.5536 25.8663L21.91 21.5186C21.8746 21.4479 21.8393 21.4125 21.7509 21.4125H17.9511C17.8627 21.4125 17.8097 21.4656 17.7743 21.5539L16.7139 24.6822C16.5549 25.124 16.4665 25.5482 16.4665 25.8663C16.4665 26.2198 16.8376 26.3788 17.1381 26.3788H17.3148C17.4385 26.3788 17.4916 26.4142 17.4916 26.4849C17.4916 26.5909 17.3855 26.6263 17.2265 26.6263C16.8023 26.6263 16.0423 26.5732 15.8479 26.5732C15.6535 26.5732 14.6815 26.6263 13.8508 26.6263C13.621 26.6263 13.515 26.5909 13.515 26.4849C13.515 26.4142 13.5857 26.3788 13.6741 26.3788C13.7978 26.3788 14.0452 26.3612 14.1866 26.3435C14.9996 26.2374 15.3531 25.5658 15.6712 24.6822L19.6831 13.7068C19.8952 13.1236 19.9659 13.0176 20.0719 13.0176ZM18.1455 20.7763H21.5212C21.6095 20.7763 21.6095 20.7233 21.5919 20.6526L19.9129 15.8807C19.8598 15.7393 19.8245 15.6863 19.7715 15.6863C19.7361 15.6863 19.6831 15.757 19.6478 15.8807L18.0925 20.6526C18.0571 20.7409 18.0925 20.7763 18.1455 20.7763Z" fill="white"/>
<path d="M55.4649 4.0554C55.5975 4.0554 55.6858 4.16586 55.9509 4.85071C56.2823 5.69021 59.7508 14.8142 61.0984 18.1722C61.8937 20.1384 62.5344 20.4919 62.9983 20.6244C63.3297 20.7349 63.6611 20.757 63.882 20.757C64.0145 20.757 64.1029 20.7791 64.1029 20.8895C64.1029 21.0221 63.9041 21.0663 63.6611 21.0663C63.3297 21.0663 61.717 21.0663 60.1926 21.0221C59.7729 21 59.5298 21 59.5298 20.8674C59.5298 20.7791 59.6182 20.7128 59.6845 20.7128C59.7287 20.7128 59.8612 20.6023 59.8612 20.4035C59.8612 20.3372 59.8612 20.2047 59.817 20.1163L57.7625 14.6817C57.7183 14.5933 57.6741 14.5491 57.5636 14.5491H52.8139C52.7034 14.5491 52.6371 14.6154 52.5929 14.7259L51.2674 18.6362C51.0686 19.1885 50.9581 19.7187 50.9581 20.1163C50.9581 20.5582 51.4221 20.757 51.7976 20.757H52.0185C52.1732 20.757 52.2395 20.8012 52.2395 20.8895C52.2395 21.0221 52.1069 21.0663 51.9081 21.0663C51.3779 21.0663 50.4279 21 50.1849 21C49.9419 21 48.7268 21.0663 47.6885 21.0663C47.4013 21.0663 47.2687 21.0221 47.2687 20.8895C47.2687 20.8012 47.3571 20.757 47.4676 20.757C47.6222 20.757 47.9315 20.7349 48.1082 20.7128C49.1245 20.5803 49.5663 19.7408 49.964 18.6362L54.9789 4.91699C55.244 4.18795 55.3323 4.0554 55.4649 4.0554ZM53.0569 13.7538H57.2764C57.3869 13.7538 57.3869 13.6875 57.3648 13.5992L55.2661 7.63431C55.1998 7.45757 55.1556 7.3913 55.0893 7.3913C55.0452 7.3913 54.9789 7.47966 54.9347 7.63431L52.9906 13.5992C52.9464 13.7096 52.9906 13.7538 53.0569 13.7538ZM68.4593 13.5992L66.7362 18.6362C66.5373 19.1885 66.4269 19.7187 66.4269 20.1163C66.4269 20.5582 66.8908 20.757 67.2664 20.757H67.4873C67.6419 20.757 67.7082 20.8012 67.7082 20.8895C67.7082 21.0221 67.5757 21.0663 67.3768 21.0663C66.8466 21.0663 65.8967 21 65.6536 21C65.4106 21 64.1956 21.0663 63.1572 21.0663C62.8701 21.0663 62.7375 21.0221 62.7375 20.8895C62.7375 20.8012 62.8259 20.757 62.9363 20.757C63.091 20.757 63.4003 20.7349 63.577 20.7128C64.5932 20.5803 65.0351 19.7408 65.4327 18.6362L70.4476 4.91699C70.7127 4.18795 70.8011 4.0554 70.9337 4.0554C71.0662 4.0554 71.1546 4.16586 71.4197 4.85071C71.7511 5.69021 75.2195 14.8142 76.5671 18.1722C77.3624 20.1384 78.0031 20.4919 78.467 20.6244C78.7984 20.7349 79.1298 20.757 79.3507 20.757C79.4833 20.757 79.5716 20.7791 79.5716 20.8895C79.5716 21.0221 79.3728 21.0663 79.1298 21.0663C78.7984 21.0663 77.1857 21.0663 75.6613 21.0221C75.2416 21 74.9986 21 74.9986 20.8674C74.9986 20.7791 75.0649 20.7349 75.1532 20.7128C75.2858 20.6686 75.4183 20.4698 75.2858 20.1163L73.2312 14.6817L72.8336 13.5992L70.7348 7.63431C70.6244 7.30293 70.5139 7.30293 70.4034 7.63431L68.4593 13.5992ZM84.5909 5.4472V11.5446C84.5909 11.6992 84.6129 11.7655 84.7234 11.7655C85.0106 11.7655 87.7279 11.7655 88.236 11.7213C88.7662 11.6772 89.0755 11.633 89.2744 11.412C89.429 11.2353 89.5174 11.1249 89.6057 11.1249C89.672 11.1249 89.7162 11.169 89.7162 11.3016C89.7162 11.39 89.4511 12.8701 89.4511 13.9526C89.4511 14.1956 89.429 14.3724 89.2965 14.3724C89.186 14.3724 89.1418 14.284 89.1418 14.1736C89.1418 13.9526 89.1418 13.7317 89.0534 13.4445C88.9651 13.1352 88.7662 12.7597 87.9047 12.6713C87.3082 12.605 85.1211 12.5608 84.7455 12.5608C84.635 12.5608 84.5909 12.6271 84.5909 12.7155V18.4373C84.5909 19.8954 84.9885 20.2489 87.1535 20.2489C87.7279 20.2489 88.7 20.2489 89.2744 20.0059C89.8488 19.7628 90.1139 19.321 90.2685 18.4152C90.3127 18.1722 90.3569 18.0838 90.4673 18.0838C90.5999 18.0838 90.5999 18.2606 90.5999 18.4152C90.5999 18.592 90.4232 20.0942 90.3127 20.5582C90.158 21.1326 89.9813 21.1326 89.1197 21.1326C85.7838 21.1326 84.3037 21 83.663 21C83.0886 21 81.984 21.0663 81.498 21.0663C81.255 21.0663 81.1445 21.0221 81.1445 20.8895C81.1445 20.8233 81.1887 20.757 81.3212 20.757C81.5201 20.757 81.7852 20.7349 81.984 20.6686C82.3375 20.5582 82.4479 20.3593 82.5805 19.7187C82.6909 19.1443 82.7351 17.3548 82.7351 14.6596V10.7714C82.7351 7.05992 82.713 6.13205 82.6688 5.75648C82.6026 5.22627 82.47 4.89489 81.741 4.74025C81.5642 4.69607 81.1887 4.67397 80.9898 4.67397C80.9015 4.67397 80.8131 4.62979 80.8131 4.54142C80.8131 4.40887 80.9236 4.36469 81.1666 4.36469C82.1607 4.36469 83.5525 4.43096 83.663 4.43096C86.0489 4.43096 88.3023 4.40887 88.6558 4.38678C89.0093 4.36469 89.5395 4.3205 89.6278 4.29841C89.7604 4.25423 89.8488 4.16586 89.9371 4.16586C90.0255 4.16586 90.0697 4.29841 90.0697 4.40887C90.0697 4.56351 89.9592 4.82862 89.8929 5.4472C89.8709 5.66812 89.8267 6.64017 89.7825 6.90527C89.7604 7.01573 89.7162 7.12619 89.6057 7.12619C89.4953 7.12619 89.4511 7.03782 89.4511 6.88318C89.4511 6.70644 89.3848 6.33088 89.2523 6.04368C89.1197 5.75648 88.5895 5.31464 87.2861 5.31464C87.1535 5.31464 85.1652 5.24837 84.7234 5.24837C84.635 5.24837 84.5909 5.29255 84.5909 5.4472ZM98.1852 5.24837C98.0527 5.24837 97.9864 5.31464 97.9864 5.49138V14.6596C97.9864 16.7804 98.0085 18.9454 98.119 19.6745C98.2073 20.2931 98.4724 20.6023 98.9585 20.6686C99.2677 20.7128 99.7538 20.757 99.9526 20.757C100.085 20.757 100.129 20.8233 100.129 20.8895C100.129 21 100.019 21.0663 99.7759 21.0663C98.5608 21.0663 97.169 21 97.0585 21C96.9481 21 95.6446 21.0663 94.9819 21.0663C94.7389 21.0663 94.6284 21.0221 94.6284 20.8895C94.6284 20.8233 94.6726 20.757 94.8051 20.757C95.004 20.757 95.2691 20.7349 95.4679 20.6686C95.8214 20.5582 95.9318 20.3593 96.0644 19.7187C96.1749 19.1443 96.219 17.3548 96.219 14.6596V10.7714C96.219 7.05992 96.1969 6.13205 96.1528 5.75648C96.0865 5.22627 95.9539 4.89489 95.2249 4.74025C95.0482 4.69607 94.6726 4.67397 94.4738 4.67397C94.3854 4.67397 94.297 4.62979 94.297 4.54142C94.297 4.40887 94.4075 4.36469 94.6505 4.36469C95.6446 4.36469 97.0364 4.43096 97.1469 4.43096C97.5887 4.43096 102.272 4.40887 102.582 4.38678C102.935 4.36469 103.465 4.3205 103.554 4.29841C103.686 4.25423 103.775 4.16586 103.863 4.16586C103.951 4.16586 103.995 4.29841 103.995 4.40887C103.995 4.56351 103.885 4.82862 103.819 5.4472C103.797 5.66812 103.752 6.64017 103.708 6.90527C103.686 7.01573 103.642 7.12619 103.532 7.12619C103.421 7.12619 103.377 7.03782 103.377 6.88318C103.377 6.70644 103.311 6.33088 103.178 6.04368C103.045 5.75648 102.515 5.31464 101.212 5.31464L98.1852 5.24837ZM109.293 14.6596V10.7714C109.293 7.32502 109.293 6.70644 109.249 5.9995C109.205 5.24837 109.028 4.89489 108.299 4.74025C108.122 4.69607 107.747 4.67397 107.548 4.67397C107.459 4.67397 107.371 4.62979 107.371 4.54142C107.371 4.40887 107.481 4.36469 107.725 4.36469C108.719 4.36469 110.044 4.43096 110.221 4.43096C110.707 4.43096 111.988 4.36469 113.005 4.36469C115.766 4.36469 116.76 5.29255 117.114 5.62393C117.6 6.08787 118.218 7.08201 118.218 8.25289C118.218 11.39 115.921 13.5108 112.784 13.5108C112.673 13.5108 112.43 13.5108 112.32 13.4887C112.209 13.4887 112.077 13.4445 112.077 13.3341C112.077 13.1573 112.209 13.1352 112.673 13.1352C114.816 13.1352 116.495 11.5667 116.495 9.53422C116.495 8.80519 116.429 7.32502 115.258 6.13205C114.087 4.93908 112.739 5.02745 112.231 5.02745C111.856 5.02745 111.48 5.07163 111.281 5.16C111.149 5.20418 111.105 5.35883 111.105 5.57975V14.6596C111.105 16.7804 111.105 18.5257 111.215 19.4536C111.281 20.0942 111.414 20.5803 112.077 20.6686C112.386 20.7128 112.872 20.757 113.071 20.757C113.203 20.757 113.248 20.8233 113.248 20.8895C113.248 21 113.137 21.0663 112.894 21.0663C111.679 21.0663 110.287 21 110.177 21C110.11 21 108.719 21.0663 108.056 21.0663C107.813 21.0663 107.702 21.0221 107.702 20.8895C107.702 20.8233 107.747 20.757 107.879 20.757C108.078 20.757 108.343 20.7128 108.542 20.6686C108.984 20.5803 109.094 20.0942 109.183 19.4536C109.293 18.5257 109.293 16.7804 109.293 14.6596ZM127.135 4.0554C127.267 4.0554 127.356 4.16586 127.621 4.85071C127.952 5.69021 131.42 14.8142 132.768 18.1722C133.563 20.1384 134.204 20.4919 134.668 20.6244C134.999 20.7349 135.331 20.757 135.552 20.757C135.684 20.757 135.773 20.7791 135.773 20.8895C135.773 21.0221 135.574 21.0663 135.331 21.0663C134.999 21.0663 133.387 21.0663 131.862 21.0221C131.443 21 131.2 21 131.2 20.8674C131.2 20.7791 131.288 20.7128 131.354 20.7128C131.398 20.7128 131.531 20.6023 131.531 20.4035C131.531 20.3372 131.531 20.2047 131.487 20.1163L129.432 14.6817C129.388 14.5933 129.344 14.5491 129.233 14.5491H124.484C124.373 14.5491 124.307 14.6154 124.263 14.7259L122.937 18.6362C122.738 19.1885 122.628 19.7187 122.628 20.1163C122.628 20.5582 123.092 20.757 123.467 20.757H123.688C123.843 20.757 123.909 20.8012 123.909 20.8895C123.909 21.0221 123.777 21.0663 123.578 21.0663C123.048 21.0663 122.098 21 121.855 21C121.612 21 120.397 21.0663 119.358 21.0663C119.071 21.0663 118.938 21.0221 118.938 20.8895C118.938 20.8012 119.027 20.757 119.137 20.757C119.292 20.757 119.601 20.7349 119.778 20.7128C120.794 20.5803 121.236 19.7408 121.634 18.6362L126.649 4.91699C126.914 4.18795 127.002 4.0554 127.135 4.0554ZM124.727 13.7538H128.946C129.057 13.7538 129.057 13.6875 129.035 13.5992L126.936 7.63431C126.87 7.45757 126.825 7.3913 126.759 7.3913C126.715 7.3913 126.649 7.47966 126.604 7.63431L124.66 13.5992C124.616 13.7096 124.66 13.7538 124.727 13.7538ZM152.28 10.7714V14.6596C152.28 16.7804 152.28 18.5257 152.39 19.4536C152.456 20.0942 152.589 20.5803 153.252 20.6686C153.561 20.7128 154.047 20.757 154.246 20.757C154.378 20.757 154.423 20.8233 154.423 20.8895C154.423 21 154.312 21.0663 154.069 21.0663C152.854 21.0663 151.462 21 151.352 21C151.241 21 149.85 21.0663 149.187 21.0663C148.944 21.0663 148.833 21.0221 148.833 20.8895C148.833 20.8233 148.878 20.757 149.01 20.757C149.209 20.757 149.474 20.7128 149.673 20.6686C150.115 20.5803 150.225 20.0942 150.313 19.4536C150.424 18.5257 150.424 16.7804 150.424 14.6596V12.5829C150.424 12.4946 150.358 12.4504 150.291 12.4504H140.924C140.858 12.4504 140.792 12.4725 140.792 12.5829V14.6596C140.792 16.7804 140.792 18.5257 140.902 19.4536C140.969 20.0942 141.101 20.5803 141.764 20.6686C142.073 20.7128 142.559 20.757 142.758 20.757C142.891 20.757 142.935 20.8233 142.935 20.8895C142.935 21 142.824 21.0663 142.581 21.0663C141.366 21.0663 139.974 21 139.864 21C139.753 21 138.362 21.0663 137.699 21.0663C137.456 21.0663 137.345 21.0221 137.345 20.8895C137.345 20.8233 137.39 20.757 137.522 20.757C137.721 20.757 137.986 20.7128 138.185 20.6686C138.627 20.5803 138.737 20.0942 138.826 19.4536C138.936 18.5257 138.936 16.7804 138.936 14.6596V10.7714C138.936 7.32502 138.936 6.70644 138.892 5.9995C138.848 5.24837 138.671 4.89489 137.942 4.74025C137.765 4.69607 137.39 4.67397 137.191 4.67397C137.102 4.67397 137.014 4.62979 137.014 4.54142C137.014 4.40887 137.125 4.36469 137.368 4.36469C138.362 4.36469 139.753 4.43096 139.864 4.43096C139.974 4.43096 141.366 4.36469 142.029 4.36469C142.272 4.36469 142.382 4.40887 142.382 4.54142C142.382 4.62979 142.294 4.67397 142.206 4.67397C142.051 4.67397 141.919 4.69607 141.653 4.74025C141.057 4.85071 140.88 5.22627 140.836 5.9995C140.792 6.70644 140.792 7.56803 140.792 11.0144V11.4783C140.792 11.5888 140.858 11.6109 140.924 11.6109H150.291C150.358 11.6109 150.424 11.5888 150.424 11.4783V11.0144C150.424 7.56803 150.424 6.70644 150.38 5.9995C150.336 5.24837 150.159 4.89489 149.43 4.74025C149.253 4.69607 148.878 4.67397 148.679 4.67397C148.59 4.67397 148.502 4.62979 148.502 4.54142C148.502 4.40887 148.612 4.36469 148.855 4.36469C149.85 4.36469 151.241 4.43096 151.352 4.43096C151.462 4.43096 152.854 4.36469 153.517 4.36469C153.76 4.36469 153.87 4.40887 153.87 4.54142C153.87 4.62979 153.782 4.67397 153.694 4.67397C153.539 4.67397 153.406 4.69607 153.141 4.74025C152.545 4.85071 152.368 5.22627 152.324 5.9995C152.28 6.70644 152.28 7.32502 152.28 10.7714ZM161.16 20.0279C162.397 20.1163 164.209 20.1384 165.49 20.1384C167.081 20.1384 169.025 20.0942 170.704 20.0279L165.777 7.43548C165.711 7.25874 165.645 7.19247 165.578 7.19247C165.468 7.19247 165.379 7.28084 165.313 7.45757L161.469 18.4815C161.248 19.1001 161.16 19.5861 161.16 20.0279ZM165.998 3.83448C166.131 3.83448 166.241 3.94494 166.528 4.62979L171.919 18.0176C172.405 19.2547 173.112 20.0059 174.062 20.0059C174.68 20.0059 175.232 19.8291 175.365 19.8291C175.431 19.8291 175.453 19.8733 175.453 19.9617C175.453 20.05 174.967 22.4139 174.923 22.6569C174.879 22.8557 174.835 22.9441 174.702 22.9441C174.592 22.9441 174.548 22.8778 174.548 22.5685V22.3255C174.548 21.6407 174.459 20.9337 172.626 20.9337H159.569C158.531 20.9337 157.934 21.0884 157.802 21.6186C157.713 21.9721 157.713 22.1709 157.713 22.7232C157.713 22.8999 157.669 22.9441 157.581 22.9441C157.515 22.9441 157.448 22.8778 157.404 22.7453C157.272 22.2813 156.94 20.2489 156.94 20.0942C156.94 19.8512 156.962 19.7628 157.007 19.7628C157.183 19.7628 157.515 20.0279 158.133 20.0279C159.26 20.0279 159.702 19.4536 160.077 18.4815L165.49 4.69607C165.777 3.98912 165.865 3.83448 165.998 3.83448Z" fill="white"/>
<line x1="47.8652" y1="32.0332" x2="66.2753" y2="32.0332" stroke="white" stroke-width="0.736402"/>
<line x1="157.59" y1="32.0332" x2="176" y2="32.0332" stroke="white" stroke-width="0.736402"/>
<path d="M78.9058 35.1086C76.6597 35.1086 75.5846 33.8346 75.5846 32.1335C75.5846 30.9553 76.3136 29.3352 78.6554 29.3352C79.5317 29.3352 80.1945 29.534 80.4743 29.534C80.5553 29.534 80.57 29.5708 80.57 29.615C80.57 29.696 80.5185 30.0495 80.5185 30.4766C80.5185 30.8301 80.5037 30.9406 80.4448 30.9406C80.3933 30.9406 80.3859 30.889 80.3859 30.7859C80.3859 29.9243 79.5243 29.615 78.6038 29.615C76.7113 29.615 76.2473 30.7712 76.2473 32.0746C76.2473 33.4811 77.3299 34.7698 78.9058 34.7698C79.4581 34.7698 79.8925 34.7036 80.1871 34.4016C80.3417 34.2396 80.4375 33.9156 80.4596 33.7831C80.4743 33.7021 80.489 33.6726 80.5332 33.6726C80.57 33.6726 80.5847 33.7242 80.5847 33.7831C80.5847 33.8346 80.4964 34.4753 80.4227 34.7257C80.3786 34.8656 80.3638 34.8803 80.2313 34.9392C79.9367 35.057 79.377 35.1086 78.9058 35.1086ZM83.5722 29.3352C83.6164 29.3352 83.6459 29.372 83.7342 29.6003C83.8447 29.8801 85.0009 32.9215 85.4501 34.0408C85.7152 34.6962 85.9287 34.814 86.0834 34.8582C86.1938 34.895 86.3043 34.9024 86.3779 34.9024C86.4221 34.9024 86.4516 34.9098 86.4516 34.9466C86.4516 34.9908 86.3853 35.0055 86.3043 35.0055C86.1938 35.0055 85.6563 35.0055 85.1481 34.9908C85.0082 34.9834 84.9272 34.9834 84.9272 34.9392C84.9272 34.9098 84.9567 34.8877 84.9788 34.8877C84.9935 34.8877 85.0377 34.8508 85.0377 34.7846C85.0377 34.7625 85.0377 34.7183 85.0229 34.6888L84.3381 32.8773C84.3234 32.8478 84.3086 32.8331 84.2718 32.8331H82.6886C82.6517 32.8331 82.6296 32.8552 82.6149 32.892L82.1731 34.1954C82.1068 34.3795 82.07 34.5563 82.07 34.6888C82.07 34.8361 82.2246 34.9024 82.3498 34.9024H82.4234C82.475 34.9024 82.4971 34.9171 82.4971 34.9466C82.4971 34.9908 82.4529 35.0055 82.3866 35.0055C82.2099 35.0055 81.8932 34.9834 81.8122 34.9834C81.7312 34.9834 81.3262 35.0055 80.9801 35.0055C80.8844 35.0055 80.8402 34.9908 80.8402 34.9466C80.8402 34.9171 80.8696 34.9024 80.9065 34.9024C80.958 34.9024 81.0611 34.895 81.12 34.8877C81.4588 34.8435 81.606 34.5636 81.7386 34.1954L83.4102 29.6224C83.4986 29.3794 83.5281 29.3352 83.5722 29.3352ZM82.7696 32.568H84.1761C84.2129 32.568 84.2129 32.5459 84.2055 32.5165L83.506 30.5282C83.4839 30.4693 83.4691 30.4472 83.447 30.4472C83.4323 30.4472 83.4102 30.4766 83.3955 30.5282L82.7475 32.5165C82.7327 32.5533 82.7475 32.568 82.7696 32.568ZM87.9037 32.5165L87.3293 34.1954C87.263 34.3795 87.2262 34.5563 87.2262 34.6888C87.2262 34.8361 87.3809 34.9024 87.5061 34.9024H87.5797C87.6312 34.9024 87.6533 34.9171 87.6533 34.9466C87.6533 34.9908 87.6092 35.0055 87.5429 35.0055C87.3661 35.0055 87.0495 34.9834 86.9685 34.9834C86.8875 34.9834 86.4825 35.0055 86.1364 35.0055C86.0406 35.0055 85.9964 34.9908 85.9964 34.9466C85.9964 34.9171 86.0259 34.9024 86.0627 34.9024C86.1143 34.9024 86.2174 34.895 86.2763 34.8877C86.615 34.8435 86.7623 34.5636 86.8948 34.1954L88.5665 29.6224C88.6548 29.3794 88.6843 29.3352 88.7285 29.3352C88.7727 29.3352 88.8021 29.372 88.8905 29.6003C89.001 29.8801 90.1571 32.9215 90.6063 34.0408C90.8714 34.6962 91.085 34.814 91.2396 34.8582C91.3501 34.895 91.4605 34.9024 91.5342 34.9024C91.5784 34.9024 91.6078 34.9098 91.6078 34.9466C91.6078 34.9908 91.5415 35.0055 91.4605 35.0055C91.3501 35.0055 90.8125 35.0055 90.3044 34.9908C90.1645 34.9834 90.0835 34.9834 90.0835 34.9392C90.0835 34.9098 90.1056 34.895 90.135 34.8877C90.1792 34.8729 90.2234 34.8067 90.1792 34.6888L89.4943 32.8773L89.3618 32.5165L88.6622 30.5282C88.6254 30.4177 88.5886 30.4177 88.5517 30.5282L87.9037 32.5165ZM91.8228 32.2145C91.8228 31.0216 92.6918 29.3352 94.7242 29.3352C96.3811 29.3352 97.6183 30.3809 97.6183 32.0967C97.6183 33.7462 96.4548 35.1086 94.68 35.1086C92.6623 35.1086 91.8228 33.5401 91.8228 32.2145ZM92.5224 32.0083C92.5224 33.7242 93.5534 34.8288 94.8789 34.8288C95.5416 34.8288 96.9113 34.4458 96.9113 32.3029C96.9113 30.5355 95.8362 29.5856 94.6727 29.5856C93.4429 29.5856 92.5224 30.3956 92.5224 32.0083ZM103.849 31.5739V32.8699C103.849 33.5769 103.849 34.1586 103.885 34.4679C103.907 34.6815 103.952 34.8435 104.173 34.8729C104.276 34.8877 104.438 34.9024 104.504 34.9024C104.548 34.9024 104.563 34.9245 104.563 34.9466C104.563 34.9834 104.526 35.0055 104.445 35.0055C104.04 35.0055 103.576 34.9834 103.539 34.9834C103.502 34.9834 103.038 35.0055 102.818 35.0055C102.737 35.0055 102.7 34.9908 102.7 34.9466C102.7 34.9245 102.714 34.9024 102.759 34.9024C102.825 34.9024 102.913 34.8877 102.98 34.8729C103.127 34.8435 103.164 34.6815 103.193 34.4679C103.23 34.1586 103.23 33.5769 103.23 32.8699V32.1777C103.23 32.1483 103.208 32.1335 103.186 32.1335H100.063C100.041 32.1335 100.019 32.1409 100.019 32.1777V32.8699C100.019 33.5769 100.019 34.1586 100.056 34.4679C100.078 34.6815 100.122 34.8435 100.343 34.8729C100.446 34.8877 100.608 34.9024 100.675 34.9024C100.719 34.9024 100.734 34.9245 100.734 34.9466C100.734 34.9834 100.697 35.0055 100.616 35.0055C100.211 35.0055 99.7468 34.9834 99.71 34.9834C99.6731 34.9834 99.2092 35.0055 98.9883 35.0055C98.9073 35.0055 98.8705 34.9908 98.8705 34.9466C98.8705 34.9245 98.8852 34.9024 98.9294 34.9024C98.9957 34.9024 99.084 34.8877 99.1503 34.8729C99.2976 34.8435 99.3344 34.6815 99.3639 34.4679C99.4007 34.1586 99.4007 33.5769 99.4007 32.8699V31.5739C99.4007 30.4251 99.4007 30.2189 99.3859 29.9832C99.3712 29.7329 99.3123 29.615 99.0693 29.5635C99.0104 29.5488 98.8852 29.5414 98.8189 29.5414C98.7895 29.5414 98.76 29.5267 98.76 29.4972C98.76 29.453 98.7968 29.4383 98.8778 29.4383C99.2092 29.4383 99.6731 29.4604 99.71 29.4604C99.7468 29.4604 100.211 29.4383 100.432 29.4383C100.513 29.4383 100.549 29.453 100.549 29.4972C100.549 29.5267 100.52 29.5414 100.491 29.5414C100.439 29.5414 100.395 29.5488 100.306 29.5635C100.108 29.6003 100.049 29.7255 100.034 29.9832C100.019 30.2189 100.019 30.5061 100.019 31.6549V31.8095C100.019 31.8463 100.041 31.8537 100.063 31.8537H103.186C103.208 31.8537 103.23 31.8463 103.23 31.8095V31.6549C103.23 30.5061 103.23 30.2189 103.215 29.9832C103.201 29.7329 103.142 29.615 102.899 29.5635C102.84 29.5488 102.714 29.5414 102.648 29.5414C102.619 29.5414 102.589 29.5267 102.589 29.4972C102.589 29.453 102.626 29.4383 102.707 29.4383C103.038 29.4383 103.502 29.4604 103.539 29.4604C103.576 29.4604 104.04 29.4383 104.261 29.4383C104.342 29.4383 104.379 29.453 104.379 29.4972C104.379 29.5267 104.349 29.5414 104.32 29.5414C104.268 29.5414 104.224 29.5488 104.136 29.5635C103.937 29.6003 103.878 29.7255 103.863 29.9832C103.849 30.2189 103.849 30.4251 103.849 31.5739ZM108.865 32.8699V31.5739C108.865 30.4251 108.865 30.2189 108.85 29.9832C108.835 29.7329 108.776 29.615 108.533 29.5635C108.474 29.5488 108.349 29.5414 108.283 29.5414C108.253 29.5414 108.224 29.5267 108.224 29.4972C108.224 29.453 108.261 29.4383 108.342 29.4383C108.673 29.4383 109.108 29.4604 109.152 29.4604C109.218 29.4604 109.645 29.4383 109.866 29.4383C109.947 29.4383 109.984 29.453 109.984 29.4972C109.984 29.5267 109.954 29.5414 109.925 29.5414C109.873 29.5414 109.829 29.5488 109.741 29.5635C109.542 29.6003 109.483 29.7255 109.468 29.9832C109.454 30.2189 109.454 30.4251 109.454 31.5739V32.0157H109.483C109.608 31.8758 110.941 30.5208 111.206 30.2336C111.413 30.0201 111.604 29.8286 111.604 29.7034C111.604 29.615 111.567 29.5708 111.508 29.5488C111.471 29.534 111.442 29.5193 111.442 29.4898C111.442 29.453 111.479 29.4383 111.53 29.4383C111.678 29.4383 111.906 29.4604 112.083 29.4604C112.119 29.4604 112.606 29.4383 112.79 29.4383C112.871 29.4383 112.9 29.453 112.9 29.4898C112.9 29.5267 112.885 29.5414 112.826 29.5414C112.716 29.5414 112.561 29.5782 112.414 29.6445C112.112 29.777 111.95 29.9611 111.619 30.2778C111.435 30.4545 110.153 31.7064 109.999 31.8905C110.19 32.1041 111.722 33.6873 112.024 33.9672C112.642 34.5416 112.768 34.6594 113.121 34.8067C113.312 34.8877 113.526 34.9024 113.578 34.9024C113.629 34.9024 113.673 34.9171 113.673 34.9466C113.673 34.9834 113.636 35.0055 113.511 35.0055H113.136C112.93 35.0055 112.79 35.0055 112.628 34.9908C112.237 34.9539 112.053 34.7919 111.737 34.5416C111.405 34.2691 109.844 32.5827 109.491 32.1483H109.454V32.8699C109.454 33.5769 109.454 34.1586 109.491 34.4679C109.513 34.6815 109.557 34.8435 109.778 34.8729C109.881 34.8877 109.999 34.9024 110.065 34.9024C110.109 34.9024 110.124 34.9245 110.124 34.9466C110.124 34.9834 110.087 35.0055 110.006 35.0055C109.645 35.0055 109.218 34.9834 109.159 34.9834C109.1 34.9834 108.673 35.0055 108.452 35.0055C108.371 35.0055 108.334 34.9908 108.334 34.9466C108.334 34.9245 108.349 34.9024 108.393 34.9024C108.46 34.9024 108.548 34.8877 108.614 34.8729C108.761 34.8435 108.798 34.6815 108.828 34.4679C108.865 34.1586 108.865 33.5769 108.865 32.8699ZM114.402 32.8699V31.5739C114.402 30.4251 114.402 30.2189 114.387 29.9832C114.373 29.7329 114.314 29.615 114.071 29.5635C114.012 29.5488 113.886 29.5414 113.82 29.5414C113.791 29.5414 113.761 29.5267 113.761 29.4972C113.761 29.453 113.798 29.4383 113.879 29.4383C114.211 29.4383 114.652 29.4604 114.711 29.4604C114.873 29.4604 115.3 29.4383 115.639 29.4383C116.56 29.4383 116.891 29.7476 117.009 29.858C117.171 30.0127 117.377 30.3441 117.377 30.7344C117.377 31.7801 116.611 32.487 115.565 32.487C115.529 32.487 115.448 32.487 115.411 32.4796C115.374 32.4796 115.33 32.4649 115.33 32.4281C115.33 32.3692 115.374 32.3618 115.529 32.3618C116.243 32.3618 116.803 31.839 116.803 31.1615C116.803 30.9185 116.781 30.4251 116.39 30.0274C116 29.6298 115.551 29.6592 115.381 29.6592C115.256 29.6592 115.131 29.6739 115.065 29.7034C115.021 29.7181 115.006 29.7697 115.006 29.8433V32.8699C115.006 33.5769 115.006 34.1586 115.043 34.4679C115.065 34.6815 115.109 34.8435 115.33 34.8729C115.433 34.8877 115.595 34.9024 115.661 34.9024C115.705 34.9024 115.72 34.9245 115.72 34.9466C115.72 34.9834 115.683 35.0055 115.602 35.0055C115.197 35.0055 114.733 34.9834 114.697 34.9834C114.674 34.9834 114.211 35.0055 113.99 35.0055C113.909 35.0055 113.872 34.9908 113.872 34.9466C113.872 34.9245 113.886 34.9024 113.931 34.9024C113.997 34.9024 114.085 34.8877 114.152 34.8729C114.299 34.8435 114.336 34.6815 114.365 34.4679C114.402 34.1586 114.402 33.5769 114.402 32.8699ZM120.349 29.3352C120.393 29.3352 120.423 29.372 120.511 29.6003C120.622 29.8801 121.778 32.9215 122.227 34.0408C122.492 34.6962 122.706 34.814 122.86 34.8582C122.971 34.895 123.081 34.9024 123.155 34.9024C123.199 34.9024 123.229 34.9098 123.229 34.9466C123.229 34.9908 123.162 35.0055 123.081 35.0055C122.971 35.0055 122.433 35.0055 121.925 34.9908C121.785 34.9834 121.704 34.9834 121.704 34.9392C121.704 34.9098 121.734 34.8877 121.756 34.8877C121.77 34.8877 121.815 34.8508 121.815 34.7846C121.815 34.7625 121.815 34.7183 121.8 34.6888L121.115 32.8773C121.1 32.8478 121.086 32.8331 121.049 32.8331H119.465C119.429 32.8331 119.407 32.8552 119.392 32.892L118.95 34.1954C118.884 34.3795 118.847 34.5563 118.847 34.6888C118.847 34.8361 119.002 34.9024 119.127 34.9024H119.2C119.252 34.9024 119.274 34.9171 119.274 34.9466C119.274 34.9908 119.23 35.0055 119.164 35.0055C118.987 35.0055 118.67 34.9834 118.589 34.9834C118.508 34.9834 118.103 35.0055 117.757 35.0055C117.661 35.0055 117.617 34.9908 117.617 34.9466C117.617 34.9171 117.647 34.9024 117.683 34.9024C117.735 34.9024 117.838 34.895 117.897 34.8877C118.236 34.8435 118.383 34.5636 118.516 34.1954L120.187 29.6224C120.276 29.3794 120.305 29.3352 120.349 29.3352ZM119.546 32.568H120.953C120.99 32.568 120.99 32.5459 120.982 32.5165L120.283 30.5282C120.261 30.4693 120.246 30.4472 120.224 30.4472C120.209 30.4472 120.187 30.4766 120.172 30.5282L119.524 32.5165C119.51 32.5533 119.524 32.568 119.546 32.568ZM126.765 35.1086C124.519 35.1086 123.443 33.8346 123.443 32.1335C123.443 30.9553 124.173 29.3352 126.514 29.3352C127.391 29.3352 128.053 29.534 128.333 29.534C128.414 29.534 128.429 29.5708 128.429 29.615C128.429 29.696 128.377 30.0495 128.377 30.4766C128.377 30.8301 128.363 30.9406 128.304 30.9406C128.252 30.9406 128.245 30.889 128.245 30.7859C128.245 29.9243 127.383 29.615 126.463 29.615C124.57 29.615 124.106 30.7712 124.106 32.0746C124.106 33.4811 125.189 34.7698 126.765 34.7698C127.317 34.7698 127.751 34.7036 128.046 34.4016C128.201 34.2396 128.296 33.9156 128.318 33.7831C128.333 33.7021 128.348 33.6726 128.392 33.6726C128.429 33.6726 128.444 33.7242 128.444 33.7831C128.444 33.8346 128.355 34.4753 128.282 34.7257C128.237 34.8656 128.223 34.8803 128.09 34.9392C127.796 35.057 127.236 35.1086 126.765 35.1086ZM129.369 32.2145C129.369 31.0216 130.238 29.3352 132.271 29.3352C133.928 29.3352 135.165 30.3809 135.165 32.0967C135.165 33.7462 134.001 35.1086 132.226 35.1086C130.209 35.1086 129.369 33.5401 129.369 32.2145ZM130.069 32.0083C130.069 33.7242 131.1 34.8288 132.425 34.8288C133.088 34.8288 134.458 34.4458 134.458 32.3029C134.458 30.5355 133.383 29.5856 132.219 29.5856C130.989 29.5856 130.069 30.3956 130.069 32.0083ZM138.516 29.7549V32.8699C138.516 33.5769 138.516 34.1586 138.552 34.4679C138.575 34.6815 138.619 34.8435 138.84 34.8729C138.943 34.8877 139.105 34.9024 139.171 34.9024C139.215 34.9024 139.23 34.9245 139.23 34.9466C139.23 34.9834 139.193 35.0055 139.112 35.0055C138.707 35.0055 138.243 34.9834 138.206 34.9834C138.17 34.9834 137.706 35.0055 137.485 35.0055C137.404 35.0055 137.367 34.9908 137.367 34.9466C137.367 34.9245 137.382 34.9024 137.426 34.9024C137.492 34.9024 137.58 34.8877 137.647 34.8729C137.794 34.8435 137.831 34.6815 137.86 34.4679C137.897 34.1586 137.897 33.5769 137.897 32.8699V29.7549L136.807 29.7697C136.351 29.777 136.174 29.8286 136.056 30.0053C135.975 30.1305 135.953 30.1821 135.931 30.2336C135.909 30.2925 135.887 30.3072 135.857 30.3072C135.835 30.3072 135.82 30.2852 135.82 30.241C135.82 30.1673 135.968 29.534 135.982 29.4751C135.997 29.4309 136.027 29.3352 136.056 29.3352C136.108 29.3352 136.181 29.4088 136.38 29.4236C136.594 29.4457 136.873 29.4604 136.962 29.4604H139.723C140.195 29.4604 140.393 29.3867 140.452 29.3867C140.489 29.3867 140.489 29.4309 140.489 29.4751C140.489 29.696 140.467 30.2042 140.467 30.2852C140.467 30.3514 140.445 30.3809 140.416 30.3809C140.379 30.3809 140.364 30.3588 140.357 30.2557L140.349 30.1747C140.32 29.9538 140.15 29.7844 139.443 29.7697L138.516 29.7549ZM142.635 29.9832L142.628 31.7359C142.628 31.7874 142.642 31.8021 142.679 31.8169C142.723 31.8242 142.856 31.8463 143.128 31.8463H143.364C144.366 31.8463 145.205 32.4207 145.205 33.4222C145.205 34.2102 144.587 35.0276 143.327 35.0276C143.158 35.0276 142.407 34.9834 142.348 34.9834C142.311 34.9834 141.847 35.0055 141.626 35.0055C141.545 35.0055 141.508 34.9908 141.508 34.9466C141.508 34.9245 141.523 34.9024 141.567 34.9024C141.634 34.9024 141.722 34.8877 141.788 34.8729C141.936 34.8435 141.972 34.6815 142.002 34.4679C142.039 34.1586 142.039 33.5769 142.039 32.8699V31.5739C142.039 30.4251 142.039 30.4472 142.024 29.9832C142.017 29.7329 141.899 29.6077 141.737 29.5708C141.656 29.5488 141.56 29.5414 141.508 29.5414C141.479 29.5414 141.449 29.5267 141.449 29.4972C141.449 29.453 141.486 29.4383 141.567 29.4383C141.81 29.4383 142.274 29.4604 142.311 29.4604C142.348 29.4604 142.812 29.4383 143.033 29.4383C143.114 29.4383 143.151 29.453 143.151 29.4972C143.151 29.5267 143.121 29.5414 143.092 29.5414C143.04 29.5414 142.996 29.5488 142.908 29.5635C142.709 29.6003 142.65 29.7255 142.635 29.9832ZM142.628 32.3471V32.5165C142.628 33.0835 142.628 33.9966 142.635 34.1071C142.657 34.4679 142.657 34.571 142.885 34.6815C143.084 34.7772 143.401 34.7919 143.534 34.7919C143.931 34.7919 144.572 34.5784 144.572 33.7462C144.572 33.0761 144.196 32.0893 143.047 32.0893C142.672 32.0893 142.62 32.1556 142.628 32.3471ZM146.987 31.5739V32.8699C146.987 33.5769 146.987 34.1586 147.024 34.4679C147.046 34.6815 147.09 34.8435 147.311 34.8729C147.414 34.8877 147.576 34.9024 147.643 34.9024C147.687 34.9024 147.702 34.9245 147.702 34.9466C147.702 34.9834 147.665 35.0055 147.584 35.0055C147.179 35.0055 146.715 34.9834 146.678 34.9834C146.641 34.9834 146.177 35.0055 145.956 35.0055C145.875 35.0055 145.838 34.9908 145.838 34.9466C145.838 34.9245 145.853 34.9024 145.897 34.9024C145.964 34.9024 146.052 34.8877 146.118 34.8729C146.266 34.8435 146.302 34.6815 146.332 34.4679C146.369 34.1586 146.369 33.5769 146.369 32.8699V31.5739C146.369 30.4251 146.369 30.2189 146.354 29.9832C146.339 29.7329 146.266 29.6077 146.104 29.5708C146.023 29.5488 145.927 29.5414 145.875 29.5414C145.846 29.5414 145.816 29.5267 145.816 29.4972C145.816 29.453 145.853 29.4383 145.934 29.4383C146.177 29.4383 146.641 29.4604 146.678 29.4604C146.715 29.4604 147.179 29.4383 147.4 29.4383C147.481 29.4383 147.517 29.453 147.517 29.4972C147.517 29.5267 147.488 29.5414 147.459 29.5414C147.407 29.5414 147.363 29.5488 147.274 29.5635C147.076 29.6003 147.017 29.7255 147.002 29.9832C146.987 30.2189 146.987 30.4251 146.987 31.5739Z" fill="white"/>
</svg>
