<svg width="500" height="456" viewBox="0 0 500 456" fill="none" xmlns="http://www.w3.org/2000/svg">
<path d="M209.041 179.315C210.467 179.413 211.473 179.94 212.059 180.897C212.645 181.835 212.957 182.948 212.996 184.237C213.035 185.526 212.967 186.718 212.791 187.812C212.068 192.167 211.072 196.444 209.803 200.644C209.725 200.917 209.646 201.2 209.568 201.493C208.826 204.091 208.074 206.688 207.312 209.286C205.809 214.325 204.373 219.374 203.006 224.433C203.377 224.472 203.738 224.511 204.09 224.55C204.383 224.628 204.559 224.784 204.617 225.019C204.695 225.233 204.666 225.438 204.529 225.634C204.393 225.829 204.178 225.907 203.885 225.868C203.475 225.79 203.074 225.722 202.684 225.663C201.98 228.28 201.326 230.917 200.721 233.573C199.607 238.456 198.738 243.397 198.113 248.397C197.488 253.417 197.625 258.407 198.523 263.368C198.719 264.228 198.963 265.058 199.256 265.858C199.393 266.269 199.383 266.649 199.227 267.001C199.07 267.353 198.797 267.606 198.406 267.763C197.996 267.899 197.605 267.87 197.234 267.675C196.863 267.499 196.609 267.196 196.473 266.767C196.219 265.81 196.014 264.843 195.857 263.866C195.408 260.585 195.32 257.284 195.594 253.964C195.867 250.663 196.297 247.392 196.883 244.149C198.055 237.841 199.48 231.591 201.16 225.399C194.305 224.306 187.391 223.827 180.418 223.964C176.551 229.452 172.859 234.677 169.344 239.638C165.848 244.599 162.957 248.69 160.672 251.913C158.406 255.155 157.273 256.776 157.273 256.776C156.863 257.265 156.404 257.46 155.896 257.362C155.408 257.284 155.037 257.021 154.783 256.571C154.529 256.142 154.568 255.644 154.9 255.077C155.076 254.804 157.273 251.679 161.492 245.702C165.711 239.726 170.799 232.509 176.756 224.052C175.408 224.11 174.061 224.188 172.713 224.286C168.338 224.599 164.041 225.39 159.822 226.659C159.119 226.815 158.592 226.679 158.24 226.249C157.908 225.819 157.801 225.341 157.918 224.813C158.055 224.267 158.484 223.925 159.207 223.788C165.34 223.163 171.482 222.841 177.635 222.821C179.998 219.442 182.371 216.063 184.754 212.685C190.984 203.856 196.336 196.269 200.809 189.921C205.301 183.554 207.654 180.214 207.869 179.901C208.182 179.511 208.572 179.315 209.041 179.315ZM207.811 200.995C207.85 200.858 207.898 200.673 207.957 200.438C208.289 199.149 208.738 197.206 209.305 194.608C209.871 192.011 210.252 189.511 210.447 187.108C210.662 184.706 210.408 183.153 209.686 182.45C209.1 183.251 206.033 187.587 200.486 195.458C194.939 203.329 188.514 212.46 181.209 222.851C187.986 222.948 194.744 223.407 201.482 224.228C202.322 221.122 203.172 218.026 204.031 214.94C205.34 210.312 206.6 205.663 207.811 200.995ZM212.85 220.185C212.869 220.185 212.879 220.175 212.879 220.155C212.879 220.175 212.869 220.185 212.85 220.185ZM219.324 220.36C217.996 222.431 216.756 224.306 215.604 225.985C214.627 227.235 213.543 228.329 212.352 229.267C211.18 229.97 210.252 230.106 209.568 229.677C208.885 229.247 208.455 228.534 208.279 227.538C208.104 226.542 208.211 225.312 208.602 223.847C209.305 221.874 209.9 220.702 210.389 220.331C210.857 219.96 211.287 219.853 211.678 220.009C212.088 220.165 212.342 220.458 212.439 220.888C212.518 221.298 212.312 221.708 211.824 222.118H211.883L211.854 222.147C211.15 223.554 210.604 224.794 210.213 225.868C209.979 226.884 210.008 227.733 210.301 228.417C210.75 228.612 211.268 228.456 211.854 227.948C212.439 227.46 213.016 226.835 213.582 226.073C214.148 225.292 214.637 224.589 215.047 223.964C215.281 223.612 215.467 223.339 215.604 223.144C215.76 222.929 215.916 222.685 216.072 222.411C217.4 220.419 218.67 218.827 219.881 217.636C220.115 217.44 220.33 217.411 220.525 217.548C220.74 217.685 220.916 217.909 221.053 218.222C221.17 218.612 221.023 219.501 220.613 220.888C220.398 221.786 220.252 222.636 220.174 223.437C220.096 224.218 220.223 224.911 220.555 225.517C221.414 226.317 222.42 226.679 223.572 226.601C224.744 226.522 225.916 226.229 227.088 225.722C228.279 225.214 229.314 224.706 230.193 224.198C230.33 224.12 230.477 224.032 230.633 223.935C232.312 223.017 233.797 221.884 235.086 220.536C235.184 220.419 235.291 220.38 235.408 220.419C235.525 220.438 235.613 220.497 235.672 220.595C235.73 220.692 235.721 220.8 235.643 220.917C235.447 221.151 235.242 221.356 235.027 221.532C233.836 222.45 232.303 223.485 230.428 224.638C228.572 225.79 226.678 226.61 224.744 227.099C222.83 227.567 221.189 227.245 219.822 226.132C219.314 225.604 219.021 224.755 218.943 223.583C218.865 222.626 218.992 221.552 219.324 220.36ZM254.246 220.419C254.441 220.653 254.412 220.917 254.158 221.21C253.924 221.503 253.641 221.786 253.309 222.06C253.074 222.255 252.908 222.411 252.811 222.528C252.068 223.192 250.838 224.071 249.119 225.165C247.4 226.259 245.516 227.274 243.465 228.212C241.414 229.149 239.539 229.716 237.84 229.911C236.141 230.106 234.949 229.647 234.266 228.534C233.621 226.894 233.484 225.185 233.855 223.407C234.207 221.61 234.91 220.019 235.965 218.632C236.59 217.89 237.342 217.479 238.221 217.401C239.1 217.323 239.646 217.851 239.861 218.983C239.998 219.55 239.832 220.175 239.363 220.858C238.895 221.522 238.309 222.138 237.605 222.704C236.922 223.271 236.326 223.661 235.818 223.876C235.584 225.106 235.516 226.151 235.613 227.011C235.77 228.261 236.512 228.866 237.84 228.827C239.188 228.788 240.75 228.407 242.527 227.685C244.324 226.942 245.994 226.132 247.537 225.253C249.08 224.374 250.145 223.71 250.73 223.261C251.844 222.479 252.83 221.562 253.689 220.507C253.768 220.409 253.855 220.36 253.953 220.36C254.07 220.341 254.168 220.36 254.246 220.419ZM238.045 219.599C237.166 220.204 236.531 221.2 236.141 222.587C236.629 222.138 237.078 221.64 237.488 221.093C237.898 220.526 238.084 220.028 238.045 219.599ZM253.895 220.507C254.305 220.077 254.91 219.501 255.711 218.778C256.57 218.017 257.312 217.45 257.938 217.079C258.309 216.923 258.66 216.903 258.992 217.021C259.344 217.138 259.588 217.362 259.725 217.694C259.861 218.007 259.812 218.349 259.578 218.72C258.738 219.677 258.064 220.751 257.557 221.942C257.049 223.134 256.902 224.335 257.117 225.546C257.508 226.894 258.279 227.655 259.432 227.831C260.604 228.007 261.785 227.733 262.977 227.011C264.871 225.917 266.6 224.589 268.162 223.026C268.943 222.265 269.676 221.464 270.359 220.624C270.516 220.468 270.672 220.409 270.828 220.448C270.984 220.487 271.092 220.585 271.15 220.741C271.209 220.878 271.16 221.024 271.004 221.181C270.574 221.591 270.145 222.001 269.715 222.411C268.309 223.817 266.814 225.116 265.232 226.308C263.65 227.499 261.922 228.28 260.047 228.651C258.016 228.554 256.727 227.704 256.18 226.103C255.633 224.501 256.17 222.089 257.791 218.866C257.889 218.651 257.869 218.534 257.732 218.515C257.615 218.495 257.244 218.651 256.619 218.983C256.014 219.315 255.223 220.028 254.246 221.122L253.748 221.562L253.455 221.854C253.24 221.991 253.055 222.021 252.898 221.942C252.723 221.845 252.752 221.688 252.986 221.474L253.689 220.741L253.895 220.507ZM231.922 226.396V226.454C231.922 226.435 231.912 226.425 231.893 226.425L231.922 226.396ZM271.648 226.396V226.454C271.648 226.435 271.639 226.425 271.619 226.425C271.639 226.405 271.648 226.396 271.648 226.396ZM292.742 220.507C292.859 220.39 292.977 220.351 293.094 220.39C293.211 220.429 293.289 220.507 293.328 220.624C293.387 220.741 293.357 220.858 293.24 220.976C291.775 222.382 290.164 223.583 288.406 224.579C286.648 225.575 284.812 226.415 282.898 227.099C278.934 228.505 274.842 228.974 270.623 228.505L270.652 228.476C270.652 228.476 270.643 228.476 270.623 228.476C270.623 228.476 270.623 228.466 270.623 228.446C269.998 231.435 269.246 234.364 268.367 237.235C267.469 240.126 266.199 242.86 264.559 245.438C264.48 245.575 264.363 245.663 264.207 245.702C264.031 245.741 263.875 245.722 263.738 245.644C263.562 245.546 263.465 245.253 263.445 244.765C263.426 244.276 263.455 243.729 263.533 243.124C263.592 242.519 263.65 241.991 263.709 241.542C263.748 241.308 263.777 241.132 263.797 241.015C264.637 236.229 266.287 231.737 268.748 227.538C269.158 225.292 269.607 223.056 270.096 220.829C270.252 220.341 270.535 220.058 270.945 219.979C271.355 219.901 271.717 219.989 272.029 220.243C272.361 220.497 272.479 220.888 272.381 221.415C272.244 221.884 272.107 222.353 271.971 222.821C273.084 221.415 274.314 220.263 275.662 219.364C277.029 218.446 278.377 218.3 279.705 218.925C281.365 220.214 282.029 221.444 281.697 222.616C281.385 223.788 280.555 224.813 279.207 225.692C277.859 226.552 276.492 227.187 275.105 227.597C277.84 227.714 280.564 227.294 283.279 226.337C285.994 225.38 288.436 224.101 290.604 222.499C291.385 221.894 292.098 221.229 292.742 220.507ZM264.881 242.187C266.15 239.315 267.078 236.327 267.664 233.222C267.742 232.812 267.82 232.401 267.898 231.991C266.375 235.253 265.369 238.651 264.881 242.187ZM271.619 226.425C271.58 226.464 271.57 226.503 271.59 226.542L271.648 226.454C271.824 226.591 272.02 226.728 272.234 226.864C272.84 226.923 273.465 226.845 274.109 226.63C274.305 226.571 274.51 226.522 274.725 226.483C275.682 226.229 276.736 225.771 277.889 225.106C279.061 224.442 279.852 223.671 280.262 222.792C280.672 221.913 280.232 221.005 278.943 220.067C278.279 219.813 277.576 219.882 276.834 220.272C276.111 220.663 275.428 221.181 274.783 221.825C274.139 222.45 273.611 222.997 273.201 223.466C272.518 224.325 271.863 225.214 271.238 226.132C271.297 226.151 271.355 226.181 271.414 226.22C271.473 226.298 271.541 226.366 271.619 226.425ZM313.309 220.565C313.387 220.429 313.494 220.37 313.631 220.39C313.768 220.409 313.875 220.478 313.953 220.595C314.031 220.692 314.031 220.81 313.953 220.946C313.387 221.747 312.732 222.46 311.99 223.085C311.248 223.69 310.477 224.267 309.676 224.813C309.539 224.911 309.412 224.999 309.295 225.077C307.361 226.405 305.496 227.431 303.699 228.153C301.902 228.856 300.34 228.993 299.012 228.563C297.703 228.114 296.785 226.806 296.258 224.638C294.969 226.552 293.582 228.397 292.098 230.175C291.316 230.956 290.516 231.181 289.695 230.849C288.855 230.497 288.523 229.755 288.699 228.622C289.5 225.067 291.17 221.981 293.709 219.364C294.529 218.524 295.535 217.851 296.727 217.343C297.195 217.167 297.576 217.226 297.869 217.519C298.182 217.812 298.328 218.173 298.309 218.603C298.289 219.013 298.045 219.315 297.576 219.511C296.111 220.253 294.881 221.308 293.885 222.675C292.908 224.022 292.146 225.487 291.6 227.069C293.201 224.999 294.695 222.851 296.082 220.624C296.297 220.292 296.58 220.116 296.932 220.097C297.303 220.077 297.615 220.185 297.869 220.419C298.143 220.653 298.27 220.966 298.25 221.356C297.859 222.548 297.752 223.778 297.928 225.048C298.123 226.298 298.865 227.177 300.154 227.685C302.088 227.665 304.041 227.118 306.014 226.044C307.986 224.97 309.744 223.837 311.287 222.646C312.088 222.06 312.762 221.366 313.309 220.565ZM316.648 221.767C316.668 221.767 316.678 221.757 316.678 221.737C316.678 221.757 316.668 221.767 316.648 221.767ZM311.844 230.116L311.814 230.087C311.814 230.106 311.824 230.116 311.844 230.116ZM319.139 222.177C319.783 221.571 320.408 221.044 321.014 220.595C321.561 219.11 322.098 218.056 322.625 217.431C322.977 217.021 323.318 216.874 323.65 216.991C324.002 217.108 324.246 217.323 324.383 217.636C324.402 217.675 324.412 217.714 324.412 217.753C324.686 218.554 324.539 219.247 323.973 219.833C323.641 220.087 323.25 220.39 322.801 220.741C322.586 221.112 322.391 221.503 322.215 221.913C321.707 223.104 321.561 224.306 321.775 225.517C322.166 226.864 322.938 227.626 324.09 227.802C325.262 227.978 326.443 227.704 327.635 226.981C329.529 225.888 331.258 224.56 332.82 222.997C333.602 222.235 334.334 221.435 335.018 220.595C335.174 220.438 335.33 220.38 335.486 220.419C335.643 220.458 335.75 220.546 335.809 220.683C335.867 220.839 335.818 220.995 335.662 221.151L334.373 222.382C332.967 223.788 331.473 225.087 329.891 226.278C328.309 227.47 326.58 228.251 324.705 228.622C322.674 228.524 321.395 227.724 320.867 226.22C320.457 225.028 320.359 223.729 320.574 222.323C320.086 222.655 319.559 223.017 318.992 223.407C317.312 224.911 315.721 226.571 314.217 228.388C313.396 229.384 312.83 230.058 312.518 230.409C312.244 230.683 311.932 230.8 311.58 230.761C311.229 230.722 310.945 230.556 310.73 230.263C310.516 229.989 310.467 229.657 310.584 229.267C311.053 227.724 311.609 226.19 312.254 224.667L312.928 222.851V222.821C313.201 222.157 313.445 221.474 313.66 220.771C313.836 220.302 314.129 220.038 314.539 219.979C314.949 219.921 315.311 220.028 315.623 220.302C315.936 220.575 316.023 220.956 315.887 221.444C315.457 222.831 314.969 224.208 314.422 225.575C314.227 226.2 313.914 227.04 313.484 228.095C314.07 227.392 314.676 226.708 315.301 226.044C315.711 225.614 316.102 225.185 316.473 224.755C316.57 224.657 316.873 224.364 317.381 223.876C317.869 223.368 318.455 222.802 319.139 222.177ZM341.316 218.251C341.551 217.88 341.854 217.685 342.225 217.665C342.615 217.626 342.938 217.733 343.191 217.987C343.465 218.222 343.553 218.554 343.455 218.983C342.088 224.921 340.477 230.81 338.621 236.649C338.934 236.61 339.197 236.62 339.412 236.679C339.646 236.737 339.773 236.913 339.793 237.206C339.754 237.323 339.686 237.421 339.588 237.499C339.49 237.577 339.383 237.606 339.266 237.587C338.953 237.528 338.641 237.509 338.328 237.528C337.156 241.063 335.75 244.53 334.109 247.929C332.586 251.034 330.809 254.022 328.777 256.894C328.543 257.206 328.25 257.372 327.898 257.392C327.527 257.431 327.205 257.323 326.932 257.069C326.482 256.562 326.209 255.634 326.111 254.286C325.994 252.958 326.121 251.64 326.492 250.331C327.176 247.909 328.338 245.497 329.979 243.095C331.6 240.692 333.572 238.847 335.896 237.558C337.322 233.378 338.562 229.149 339.617 224.872C338.895 226.024 338.074 227.099 337.156 228.095C335.887 229.442 334.656 230.019 333.465 229.823C332.254 229.628 331.678 228.573 331.736 226.659C331.971 225.155 332.469 223.729 333.23 222.382C333.992 221.034 334.939 219.813 336.072 218.72C337.264 217.665 338.27 217.06 339.09 216.903C339.91 216.747 340.506 216.835 340.877 217.167C341.248 217.499 341.355 217.89 341.199 218.339C341.043 218.769 340.594 219.052 339.852 219.188C338.953 219.384 337.996 220.058 336.98 221.21C335.984 222.343 335.193 223.593 334.607 224.96C334.002 226.308 333.865 227.392 334.197 228.212L334.051 228.153C334.793 228.466 335.506 228.29 336.189 227.626C336.893 226.962 337.527 226.112 338.094 225.077C338.68 224.042 339.158 223.114 339.529 222.294C339.666 222.001 339.793 221.747 339.91 221.532C340.164 220.946 340.418 220.351 340.672 219.745C340.887 219.257 341.102 218.759 341.316 218.251ZM327.635 254.608C330.975 249.569 333.611 244.237 335.545 238.612C333.494 239.901 331.775 241.649 330.389 243.856C328.982 246.083 328.025 248.29 327.518 250.478C327.498 250.497 327.488 250.526 327.488 250.565C327.391 251.171 327.322 251.854 327.283 252.616C327.244 253.378 327.361 254.042 327.635 254.608Z" fill="white"/>
<path d="M423.722 125.193C412.027 100.784 381.441 88.1166 341.186 87.5519C300.966 86.9878 251.262 98.519 201.624 122.303C151.986 146.088 111.856 177.601 87.0953 209.301C62.3135 241.028 53.0227 272.803 64.7183 297.212C76.414 321.621 107 334.289 147.255 334.853C187.475 335.418 237.179 323.886 286.817 300.102C336.455 276.318 376.585 244.805 401.345 213.104C426.127 181.377 435.418 149.602 423.722 125.193Z" stroke="#8A7BAE"/>
<path d="M438.456 210.952C431.39 187.297 403.507 167.843 363.793 155.615C324.125 143.401 272.855 138.467 219.396 143.735C165.938 149.002 120.462 163.469 90.1499 182.578C59.8023 201.71 44.8024 225.389 51.868 249.045C58.9337 272.701 86.8165 292.154 126.531 304.383C166.199 316.597 217.469 321.53 270.928 316.263C324.386 310.995 369.862 296.529 400.174 277.419C430.522 258.287 445.521 234.608 438.456 210.952Z" stroke="#8A7BAE"/>
</svg>
