<svg width="24" height="24" viewBox="0 0 24 24" fill="none" xmlns="http://www.w3.org/2000/svg">
<path d="M12.0482 7.14834e-05C5.46332 7.14834e-05 0.0964826 5.34005 0.0964826 11.892C0.0964826 13.992 0.651256 16.032 1.68844 17.832L0 24L6.33166 22.344C8.0804 23.292 10.0462 23.796 12.0482 23.796C18.6332 23.796 24 18.456 24 11.904C24 8.72404 22.7578 5.73605 20.5025 3.49206C19.3968 2.38078 18.0798 1.49967 16.6283 0.90013C15.1768 0.300592 13.6198 -0.00537612 12.0482 7.14834e-05ZM12.0603 2.00407C14.7136 2.00407 17.198 3.03606 19.0794 4.90806C20.0027 5.82648 20.7348 6.91723 21.2336 8.11776C21.7323 9.31829 21.988 10.605 21.9859 11.904C21.9859 17.352 17.5236 21.78 12.0482 21.78C10.2633 21.78 8.51457 21.312 6.99497 20.4L6.63316 20.196L2.87035 21.18L3.87136 17.532L3.63015 17.148C2.6339 15.5744 2.10695 13.7518 2.11055 11.892C2.12261 6.44405 6.57286 2.00407 12.0603 2.00407ZM7.81507 6.39605C7.62211 6.39605 7.29648 6.46805 7.01909 6.76805C6.75377 7.06805 5.96985 7.80005 5.96985 9.25204C5.96985 10.716 7.04322 12.12 7.17588 12.324C7.34472 12.528 9.29849 15.528 12.3015 16.8C13.0131 17.124 13.5678 17.304 14.002 17.436C14.7136 17.664 15.3648 17.628 15.8834 17.556C16.4623 17.472 17.6442 16.836 17.8975 16.14C18.1507 15.444 18.1508 14.856 18.0784 14.724C17.994 14.604 17.801 14.532 17.4995 14.4C17.198 14.232 15.7266 13.512 15.4613 13.416C15.1839 13.32 15.0151 13.272 14.7859 13.56C14.593 13.86 14.0141 14.532 13.8452 14.724C13.6643 14.928 13.4955 14.952 13.206 14.808C12.8925 14.652 11.9276 14.34 10.794 13.332C9.90151 12.54 9.31055 11.568 9.12965 11.268C8.98492 10.98 9.11759 10.8 9.26231 10.668C9.39497 10.536 9.58794 10.32 9.70854 10.14C9.86533 9.97204 9.91357 9.84004 10.01 9.64804C10.1065 9.44404 10.0583 9.27604 9.98593 9.13204C9.91357 9.00004 9.31055 7.51205 9.05729 6.92405C8.81608 6.34805 8.57487 6.42005 8.38191 6.40805C8.21306 6.40805 8.0201 6.39605 7.81507 6.39605Z" fill="#8A7BAE"/>
</svg>
