<svg width="42" height="42" viewBox="0 0 42 42" fill="none" xmlns="http://www.w3.org/2000/svg">
<path d="M21.0704 3.5001C11.5154 3.5001 3.72789 11.2876 3.72789 20.8426C3.72789 23.9051 4.53289 26.8801 6.03789 29.5051L3.58789 38.5001L12.7754 36.0851C15.3129 37.4676 18.1654 38.2026 21.0704 38.2026C30.6254 38.2026 38.4129 30.4151 38.4129 20.8601C38.4129 16.2226 36.6104 11.8651 33.3379 8.5926C31.7335 6.97197 29.8225 5.68702 27.7163 4.81269C25.6101 3.93836 23.3508 3.49216 21.0704 3.5001ZM21.0879 6.4226C24.9379 6.4226 28.5429 7.9276 31.2729 10.6576C32.6127 11.997 33.6749 13.5877 34.3987 15.3384C35.1224 17.0892 35.4934 18.9656 35.4904 20.8601C35.4904 28.8051 29.0154 35.2626 21.0704 35.2626C18.4804 35.2626 15.9429 34.5801 13.7379 33.2501L13.2129 32.9526L7.75289 34.3876L9.20539 29.0676L8.85539 28.5076C7.40979 26.2128 6.64516 23.5548 6.65039 20.8426C6.66789 12.8976 13.1254 6.4226 21.0879 6.4226ZM14.9279 12.8276C14.6479 12.8276 14.1754 12.9326 13.7729 13.3701C13.3879 13.8076 12.2504 14.8751 12.2504 16.9926C12.2504 19.1276 13.8079 21.1751 14.0004 21.4726C14.2454 21.7701 17.0804 26.1451 21.4379 28.0001C22.4704 28.4726 23.2754 28.7351 23.9054 28.9276C24.9379 29.2601 25.8829 29.2076 26.6354 29.1026C27.4754 28.9801 29.1904 28.0526 29.5579 27.0376C29.9254 26.0226 29.9254 25.1651 29.8204 24.9726C29.6979 24.7976 29.4179 24.6926 28.9804 24.5001C28.5429 24.2551 26.4079 23.2051 26.0229 23.0651C25.6204 22.9251 25.3754 22.8551 25.0429 23.2751C24.7629 23.7126 23.9229 24.6926 23.6779 24.9726C23.4154 25.2701 23.1704 25.3051 22.7504 25.0951C22.2954 24.8676 20.8954 24.4126 19.2504 22.9426C17.9554 21.7876 17.0979 20.3701 16.8354 19.9326C16.6254 19.5126 16.8179 19.2501 17.0279 19.0576C17.2204 18.8651 17.5004 18.5501 17.6754 18.2876C17.9029 18.0426 17.9729 17.8501 18.1129 17.5701C18.2529 17.2726 18.1829 17.0276 18.0779 16.8176C17.9729 16.6251 17.0979 14.4551 16.7304 13.5976C16.3804 12.7576 16.0304 12.8626 15.7504 12.8451C15.5054 12.8451 15.2254 12.8276 14.9279 12.8276Z" fill="#8A7BAE"/>
</svg>
