<svg width="24" height="24" viewBox="0 0 24 24" fill="none" xmlns="http://www.w3.org/2000/svg">
<path fill-rule="evenodd" clip-rule="evenodd" d="M10.6337 7.60588C11.2554 6.76812 11.4783 5.88518 10.7752 5.10582C9.19724 2.89807 8.13603 1.53281 7.47039 0.875328C6.20492 -0.374625 4.1232 -0.20555 3.02721 0.87426C2.43854 1.45424 2.23925 1.6534 1.63482 2.26727C-1.73196 5.63552 0.321275 12.7559 5.77953 18.2189C11.2365 23.6808 18.3569 25.7349 21.7308 22.3595C22.2885 21.8219 22.7608 21.3494 23.1332 20.9558C24.2073 19.8207 24.3703 17.831 23.1262 16.5384C22.4883 15.8757 21.1863 14.8658 18.8854 13.2202C18.1807 12.5901 17.3451 12.7266 16.5791 13.2292C16.2106 13.4709 15.9425 13.7154 15.4361 14.2222L14.5166 15.1421C14.3955 15.2633 12.751 14.4398 11.1547 12.8421C9.55752 11.2435 8.73454 9.59907 8.85508 9.47855C9.10365 9.23002 9.41035 8.92318 9.7752 8.55801C9.93585 8.39722 10.0127 8.31937 10.1112 8.21586C10.3164 8.00021 10.4863 7.8045 10.6337 7.60588ZM16.2135 16.8393L17.1332 15.9192C17.4119 15.6403 17.5925 15.4688 17.7394 15.3505C19.755 16.7978 20.9223 17.7079 21.3991 18.2033C21.6854 18.5007 21.6409 19.0434 21.3921 19.3064C21.0477 19.6703 20.6002 20.118 20.0511 20.6475C17.8695 22.8299 12.1217 21.1717 7.4768 16.5227C2.83042 11.8722 1.1729 6.12419 3.33808 3.95804C3.94008 3.34669 4.13081 3.15608 4.71107 2.58438C4.92864 2.37003 5.52127 2.3219 5.78594 2.58332C6.29842 3.08951 7.24905 4.30661 8.6475 6.25442C8.5751 6.34429 8.48468 6.44585 8.37464 6.56149C8.29388 6.64636 8.2266 6.71456 8.0795 6.86178C7.71493 7.22668 7.40852 7.53323 7.16028 7.78142C5.5965 9.34491 6.92827 12.0059 9.45901 14.5389C11.988 17.0701 14.6503 18.4032 16.2135 16.8393Z" fill="#8A7BAE"/>
</svg>
