<svg width="160" height="156" viewBox="0 0 160 156" fill="none" xmlns="http://www.w3.org/2000/svg">
<g filter="url(#filter0_f_659_1072)">
<ellipse cx="78.3203" cy="77.7933" rx="27.5371" ry="27.6039" fill="#8A7BAE"/>
</g>
<path d="M41.1546 104.231C40.3309 103.596 39.683 102.932 39.211 102.238C38.7184 101.515 38.4461 100.795 38.3943 100.079C38.3398 99.3599 38.5871 98.8124 39.136 98.4369C39.4368 98.2311 39.7872 98.1184 40.1872 98.0988C40.5873 98.0793 41.1244 98.3056 41.7986 98.7779C41.5291 98.1392 41.4474 97.5295 41.5536 96.9487C41.6534 96.3667 41.9589 95.9008 42.4703 95.551C43.1358 95.0957 43.871 95.018 44.6759 95.318C45.4746 95.6168 46.2766 96.3579 47.0822 97.5412C47.6697 98.4042 48.0082 99.1199 48.0976 99.6885C48.1845 100.253 48.07 100.644 47.7542 100.86C47.5512 100.999 47.3257 101.048 47.0778 101.008C46.8274 100.963 46.6149 100.813 46.4404 100.557C46.3122 100.369 46.2438 100.175 46.2354 99.9765C46.2243 99.7741 46.286 99.464 46.4204 99.0462C46.61 98.4746 46.5816 98.008 46.3353 97.6462C46.0351 97.2052 45.6219 96.9383 45.0957 96.8454C44.5695 96.7524 44.0695 96.868 43.5958 97.1921C43.31 97.3876 43.0941 97.6209 42.9481 97.8921C42.7957 98.162 42.7223 98.4469 42.7281 98.7468C42.7313 99.0429 42.7838 99.286 42.8855 99.476C42.9836 99.6685 43.2465 100.107 43.6742 100.792L43.2174 101.105C42.8044 100.498 42.4692 100.087 42.2118 99.8706C41.9481 99.6533 41.6497 99.5509 41.3165 99.5634C40.9796 99.5784 40.6551 99.6927 40.343 99.9062C39.9633 100.166 39.7312 100.485 39.6469 100.863C39.5588 101.244 39.6444 101.624 39.9035 102.005C40.1729 102.401 40.5243 102.682 40.9579 102.849C41.3877 103.019 42.0048 103.047 42.8091 102.934L43.1593 103.448C42.3669 103.847 41.6987 104.108 41.1546 104.231Z" fill="white"/>
<path d="M39.9197 86.3898L39.9752 86.2103C39.9947 86.1621 40.0251 86.1274 40.0663 86.1061L40.0973 86.0902C40.5169 86.0844 40.8253 86.1459 41.0227 86.2746C41.2158 86.4046 41.3484 86.5969 41.4206 86.8514C41.494 87.1103 41.4874 87.3541 41.4008 87.5828C41.3086 87.8083 41.1048 88.049 40.7893 88.305C41.1756 88.3988 41.5026 88.5926 41.7704 88.8862C42.0339 89.1811 42.2359 89.5765 42.3766 90.0725C42.506 90.5289 42.5071 90.8915 42.3798 91.1602C42.2481 91.4301 42.0269 91.6094 41.716 91.698C41.5715 91.7392 41.4161 91.7503 41.2498 91.7313C41.0823 91.7079 40.9064 91.6466 40.7221 91.5473C40.5321 91.4449 40.3048 91.2607 40.04 90.9946C40.0001 90.9538 39.8784 90.8083 39.6749 90.558L38.5533 89.106C38.3831 89.1402 38.2127 89.1817 38.042 89.2304C37.4509 89.3989 37.0686 89.5861 36.8951 89.7921C36.7887 89.9173 36.7665 90.0896 36.8288 90.309C36.891 90.5285 36.9898 90.7185 37.1253 90.8791C37.2608 91.0397 37.406 91.143 37.561 91.189C37.6747 91.2229 37.8714 91.2238 38.1509 91.1916C38.3523 91.1674 38.472 91.1641 38.5101 91.1817C38.612 91.2238 38.7228 91.3226 38.8427 91.4782C38.9569 91.6307 39.038 91.7332 39.0861 91.7859C39.2671 91.9905 39.3776 92.163 39.4174 92.3034C39.3823 92.3798 39.3166 92.4318 39.2202 92.4592C38.9707 92.5304 38.7412 92.5389 38.5318 92.4847C38.2331 92.3991 37.9207 92.232 37.5946 91.9834C37.263 91.7317 37.0098 91.4813 36.835 91.2322C36.6054 90.8898 36.4134 90.4464 36.2591 89.9022C36.1595 89.5511 36.14 89.2318 36.2004 88.9442C36.2552 88.6534 36.3958 88.4236 36.6224 88.2547C36.8477 88.0813 37.291 87.9004 37.9521 87.712L39.0414 87.4229L39.8323 87.1832L40.0359 87.1251C40.2198 87.0727 40.3399 87.0124 40.3963 86.9441C40.447 86.8728 40.4612 86.7976 40.4388 86.7186C40.4251 86.6703 40.4001 86.6323 40.3639 86.6047L39.9992 86.4952L39.9197 86.3898ZM39.0083 88.9834C39.1624 89.2098 39.3828 89.453 39.6694 89.7128C39.9505 89.9695 40.2069 90.1312 40.4388 90.1979C40.6082 90.2445 40.7979 90.2378 41.0081 90.1779C41.1964 90.1243 41.3356 90.0229 41.4259 89.8739C41.5161 89.7248 41.5401 89.5757 41.4977 89.4265C41.428 89.1807 41.2989 88.9922 41.1102 88.861C40.856 88.682 40.6685 88.5884 40.5479 88.5801C40.4228 88.5731 40.0998 88.6438 39.5788 88.7923C39.3861 88.8472 39.196 88.9109 39.0083 88.9834Z" fill="white"/>
<path d="M34.2507 72.538L34.7256 72.642C34.7484 72.9303 34.7591 73.0973 34.7577 73.1429C34.7558 73.3483 34.7951 73.4727 34.8757 73.5164C34.9519 73.5553 35.2903 73.5842 35.8908 73.6031L36.4781 73.6079L37.093 73.6067L37.9044 73.6528C38.1043 73.6682 38.3112 73.6793 38.525 73.686C38.8617 73.6966 39.1219 73.6751 39.3058 73.6216C39.3829 73.341 39.4329 73.128 39.4557 72.9826C39.4671 72.9099 39.4829 72.8397 39.5033 72.7718L39.9198 72.7781L39.8532 73.5909C39.8315 73.8458 39.817 74.0896 39.8097 74.3222L39.8124 75.322L39.813 76.1711L39.3969 76.1512C39.3808 76.0868 39.3693 76.0156 39.3627 75.9378C39.3389 75.6814 39.3024 75.4657 39.2532 75.2907C38.724 75.1782 37.7655 75.1001 36.3779 75.0564L34.7254 75.0386C34.73 75.3264 34.7275 75.623 34.7179 75.9286C34.7062 76.298 34.6928 76.5806 34.6775 76.7764L34.6456 77.3575C34.6418 77.476 34.6447 77.6017 34.6542 77.7344L35.3505 77.7494L38.4892 77.8619C38.7531 77.8702 38.9815 77.8477 39.1745 77.7945C39.2516 77.5138 39.3016 77.3009 39.3244 77.1555C39.3358 77.0828 39.3516 77.0148 39.3718 76.9516L39.7885 76.951L39.7219 77.7637C39.7002 78.0187 39.6857 78.2625 39.6784 78.4951L39.6811 79.4949L39.6817 80.344L39.2656 80.3241C39.2495 80.2597 39.238 80.1885 39.2314 80.1107C39.2074 79.8589 39.1709 79.6432 39.1219 79.4636C38.792 79.3847 38.2812 79.3344 37.5897 79.3127L36.2376 79.2975L35.391 79.2846C34.9677 79.2758 34.7238 79.2841 34.6593 79.3095C34.5947 79.3348 34.5568 79.4546 34.5455 79.6688C34.5422 79.7737 34.5235 79.9352 34.4893 80.1532L34.0088 80.2271L34.0775 79.3459L34.1184 78.9158L34.1193 78.4502C34.1225 78.3499 34.1316 78.2041 34.1468 78.0128L34.2152 76.488L34.254 74.387L34.2781 73.8399C34.2974 73.2243 34.2883 72.7903 34.2507 72.538Z" fill="white"/>
<path d="M36.216 64.2394L35.7461 64.1885C35.9609 63.6245 36.1082 63.2116 36.188 62.9498L36.2853 62.6074L36.4515 62.0858C36.6311 61.4966 36.7379 61.0761 36.7719 60.8241L37.1899 61.0452L37.09 61.537C37.0261 61.7465 37.0257 61.8728 37.0886 61.9159C37.1486 61.9534 37.5037 62.0765 38.154 62.2852L38.581 62.4303L39.1169 62.6159C40.5185 63.0452 41.2751 63.2412 41.3864 63.2037C41.5259 62.9649 41.6276 62.7718 41.6916 62.6244C41.7202 62.5616 41.7539 62.498 41.7926 62.4335L42.1798 62.545L42.0225 62.9906C41.8554 63.4452 41.7379 63.7837 41.67 64.0063L41.1899 65.7916L40.8067 65.667C40.8092 65.5962 40.8168 65.5246 40.8294 65.4521C40.8731 65.184 40.8964 64.9669 40.8995 64.8008C40.6412 64.6645 40.1007 64.4703 39.278 64.2183L38.8124 64.0828L38.0907 63.8976C38.0255 63.8776 37.9106 63.8329 37.7461 63.7634C38.8133 65.555 39.4434 66.6808 39.6363 67.1407C39.8549 67.1886 40.0325 67.2072 40.169 67.1965C40.3084 66.9577 40.4102 66.7646 40.4741 66.6172C40.5028 66.5544 40.5358 66.493 40.5732 66.4329L40.9624 66.5378L40.8051 66.9834C40.6366 67.4423 40.5191 67.7809 40.4526 67.9991L39.9725 69.7844L39.5893 69.6598C39.5918 69.589 39.5994 69.5174 39.612 69.4449C39.6543 69.1812 39.6777 68.9641 39.682 68.7936C39.4238 68.6573 39.1445 68.5431 38.8441 68.4511L37.7974 68.1376L36.8441 67.8457L36.4895 67.7442L36.0631 67.6207C35.6744 67.5064 35.4456 67.4531 35.3766 67.4606C35.3077 67.4681 35.2398 67.5737 35.1729 67.7775C35.1477 67.8604 35.0895 68.012 34.9986 68.2322L34.5286 68.1813C34.7434 67.6173 34.8908 67.2044 34.9706 66.9426L35.0678 66.6002L35.234 66.0786C35.4137 65.4895 35.5198 65.0711 35.5525 64.8234L35.9725 65.038L35.8725 65.5298C35.8073 65.7436 35.8062 65.8721 35.8692 65.9153C35.9292 65.9527 36.285 66.0736 36.9366 66.278L37.3289 66.4196L37.793 66.5833L39.0421 66.9587L38.104 65.376C37.813 64.9099 37.5837 64.5224 37.4162 64.2134C37.2516 63.9101 37.1254 63.6997 37.0375 63.5821C36.9227 63.5374 36.8456 63.509 36.8065 63.497C36.6193 63.4397 36.4806 63.5356 36.3903 63.7847C36.3461 63.9143 36.288 64.0658 36.216 64.2394Z" fill="white"/>
<path d="M44.3933 53.88C44.4664 53.8395 44.5184 53.8074 44.5492 53.7836C44.643 53.7184 44.7358 53.6767 44.8274 53.6584C45.1495 54.0034 45.3272 54.4654 45.3603 55.0442C45.3934 55.623 45.2193 56.2208 44.8381 56.8375C44.5984 57.2254 44.2798 57.559 43.8823 57.8382C43.4848 58.1174 43.0831 58.2866 42.6771 58.3458C42.3641 58.393 42.0311 58.3687 41.6781 58.2729C41.3274 58.1732 41.0476 58.0584 40.8387 57.9287C40.5872 57.7725 40.3364 57.5416 40.0862 57.2359C39.8322 56.9279 39.6431 56.5581 39.5189 56.1267C39.3947 55.6953 39.3693 55.234 39.4427 54.7428C39.5185 54.2477 39.7074 53.7558 40.0095 53.267C40.4243 52.596 40.8176 52.1934 41.1896 52.0594C41.5615 51.9254 41.852 51.9233 42.0609 52.053C42.266 52.1804 42.3949 52.3356 42.4477 52.5187C42.4991 52.6955 42.4672 52.877 42.3521 53.0632C42.2538 53.2223 42.1105 53.3372 41.9221 53.4081C41.7361 53.4751 41.4917 53.4763 41.189 53.4118C40.9679 53.371 40.7831 53.3798 40.6347 53.4379C40.4902 53.4985 40.3712 53.6044 40.2777 53.7557C40.0523 54.1203 40.0076 54.5434 40.1436 55.0251C40.2757 55.5044 40.6107 55.911 41.1485 56.245C41.7946 56.6463 42.4171 56.7913 43.0159 56.6801C43.6132 56.5626 44.0498 56.2808 44.3255 55.8348C44.4621 55.6137 44.5533 55.4099 44.5989 55.2235C44.624 55.1049 44.6301 54.9262 44.6171 54.6873C44.6125 54.6254 44.5785 54.4942 44.515 54.2938C44.4539 54.0894 44.4133 53.9515 44.3933 53.88Z" fill="white"/>
<path d="M52.1073 45.2732L52.292 45.2412C52.3437 45.2366 52.3884 45.2479 52.4261 45.2751L52.4543 45.2955C52.6501 45.6674 52.7357 45.9708 52.7111 46.2056C52.6834 46.437 52.5729 46.6429 52.3795 46.8231C52.1828 47.0064 51.9632 47.1115 51.7207 47.1382C51.4784 47.1584 51.1719 47.0859 50.801 46.9207C50.8933 47.3083 50.8698 47.6884 50.7306 48.0611C50.5884 48.4304 50.3289 48.7906 49.9523 49.1418C49.6056 49.465 49.2839 49.6308 48.9873 49.6394C48.6876 49.6447 48.4277 49.5287 48.2076 49.2915C48.1054 49.1812 48.0249 49.0476 47.9662 48.8905C47.9108 48.7302 47.8853 48.5453 47.8897 48.3356C47.8943 48.1195 47.9546 47.8327 48.0707 47.4753C48.0887 47.4211 48.1627 47.2462 48.2926 46.9507L49.0728 45.2889C48.965 45.1526 48.8507 45.0193 48.7298 44.889C48.3114 44.438 47.9712 44.1818 47.7094 44.1207C47.5497 44.0826 47.3866 44.1412 47.2199 44.2966C47.0532 44.452 46.9293 44.6267 46.8482 44.8207C46.7671 45.0146 46.7413 45.1913 46.771 45.3506C46.7925 45.4676 46.8811 45.6435 47.0368 45.8784C47.1499 46.0472 47.2072 46.1525 47.2089 46.1946C47.2178 46.3047 47.1804 46.4486 47.0966 46.6264C47.0131 46.7977 46.9589 46.9168 46.9339 46.9836C46.8345 47.2383 46.7314 47.4154 46.6248 47.5148C46.5409 47.5182 46.4649 47.4832 46.3967 47.4097C46.22 47.2192 46.1081 47.0182 46.0611 46.8067C46.0013 46.501 46.0078 46.1461 46.0804 45.742C46.1533 45.3313 46.2606 44.9914 46.4025 44.7221C46.6024 44.3613 46.909 43.9883 47.3224 43.603C47.589 43.3544 47.8639 43.1916 48.1469 43.1147C48.4301 43.0314 48.6983 43.0524 48.9514 43.1779C49.2078 43.3002 49.57 43.6136 50.038 44.1181L50.7901 44.959L51.3627 45.5561L51.5068 45.7115C51.637 45.8518 51.7452 45.9316 51.8315 45.9509C51.9179 45.9637 51.9912 45.9421 52.0512 45.8862C52.0879 45.852 52.1102 45.8125 52.1183 45.7676L52.0498 45.3922L52.1073 45.2732ZM49.3886 45.6394C49.2575 45.88 49.1416 46.1873 49.0411 46.5614C48.9408 46.929 48.9137 47.2315 48.9598 47.4689C48.9954 47.6413 49.0876 47.8077 49.2364 47.968C49.3697 48.1117 49.523 48.1899 49.6965 48.2027C49.8699 48.2154 50.0133 48.169 50.1267 48.0633C50.3134 47.8893 50.4221 47.6883 50.4529 47.4602C50.4963 47.1518 50.4943 46.9419 50.4468 46.8304C50.3962 46.7155 50.1865 46.4593 49.8177 46.0617C49.6813 45.9147 49.5383 45.7739 49.3886 45.6394Z" fill="white"/>
<path d="M55.3052 38.7599C55.303 38.6824 55.2863 38.5791 55.2549 38.45L55.2112 38.2071C55.1547 37.9139 55.0776 37.5799 54.98 37.2051L54.9312 36.9809L55.2101 36.8217C55.2479 36.8422 55.2772 36.8569 55.2981 36.866C55.4916 36.9761 55.6078 37.0331 55.6467 37.0372C55.693 37.0265 55.9001 36.9161 56.268 36.7062L57.4921 35.9839L57.9642 35.7223L59.3409 34.9365C59.3527 34.9298 59.394 34.901 59.4646 34.8501C59.5353 34.7993 59.5777 34.7541 59.5919 34.7145C59.6061 34.6749 59.6025 34.5903 59.5813 34.4607L59.5739 34.3231C59.6468 34.2763 59.7545 34.2122 59.8969 34.1309L60.4298 35.0553L60.662 35.4504C60.8016 35.6962 60.8748 35.8435 60.8815 35.8922C60.7797 36.008 60.6844 36.0939 60.5957 36.1498C60.4783 36.0908 60.2931 35.9629 60.0399 35.7661C59.8188 35.5983 59.6725 35.5112 59.6008 35.5048C59.533 35.4962 59.3568 35.5732 59.0719 35.7358L58.749 35.928C58.6343 35.9935 58.5043 36.0598 58.3591 36.1269L58.6513 36.6138L59.0009 37.2569L59.5717 38.3172C60.1369 39.3124 60.4787 39.8497 60.5972 39.9291C60.8801 39.8463 61.0875 39.7779 61.2191 39.7238C61.2869 39.6956 61.355 39.6725 61.4233 39.6545L61.6353 40.0139L60.9089 40.3812C60.6806 40.4957 60.4676 40.6095 60.2698 40.7224L59.4145 41.2499L58.6922 41.6937L58.498 41.3241C58.5404 41.2789 58.593 41.2332 58.6557 41.1868C58.8615 41.0326 59.026 40.8889 59.1493 40.7555C59.037 40.4101 58.831 39.9737 58.5315 39.4464L57.7782 38.1753C57.4156 37.537 57.1648 37.1184 57.0256 36.9195C56.8431 37.0132 56.7004 37.0894 56.5976 37.1481C56.2455 37.349 56.0367 37.5024 55.971 37.6081C55.9053 37.7138 55.8431 37.9594 55.7843 38.3447L55.7493 38.5458C55.7282 38.6839 55.6998 38.7631 55.6642 38.7834C55.593 38.824 55.4733 38.8162 55.3052 38.7599Z" fill="white"/>
<path d="M65.7083 34.4644L66.4279 34.2041L66.6634 34.1116C67.7438 33.7532 68.5084 33.6438 68.9572 33.7832C69.4103 33.9213 69.7112 34.2156 69.8598 34.6661C70.0385 35.2075 69.9539 35.6922 69.6061 36.1199C69.2625 36.5463 68.6953 36.8906 67.9045 37.1529L67.0315 37.4281L64.4449 38.3726L64.3292 37.9784L64.7291 37.7737C64.8862 37.6975 65.0044 37.6271 65.0837 37.5623C65.1099 37.4239 64.9501 36.8305 64.6041 35.7823L64.2201 34.6841L63.9476 33.9239C63.8204 33.5383 63.7345 33.3217 63.69 33.274C63.6484 33.2205 63.5253 33.2253 63.3208 33.2884L62.8326 33.3998L62.652 33.0488L63.4407 32.78L63.6762 32.6875C63.8635 32.6157 64.1236 32.5247 64.4563 32.4143L65.191 32.1562L65.6664 32.0057C65.7485 31.9785 65.8818 31.9174 66.0662 31.8226L66.1343 32.2902C65.859 32.4152 65.6912 32.4877 65.6307 32.5077C65.3757 32.5923 65.2345 32.6728 65.2069 32.7492C65.178 32.8213 65.2035 32.9786 65.2836 33.2212L65.4938 33.8363L65.6074 34.1807C65.636 34.2673 65.6696 34.3619 65.7083 34.4644ZM66.5663 36.9552C66.7332 36.9527 66.968 36.9013 67.2705 36.8009C68.2515 36.4755 68.6262 35.962 68.3946 35.2602C68.2945 34.957 68.0892 34.7488 67.7785 34.6356C67.4678 34.5224 67.0662 34.5475 66.5735 34.7109C66.3704 34.7783 66.1471 34.8716 65.9036 34.9908C65.9164 35.0442 65.9242 35.0752 65.9271 35.0839L66.0665 35.4846C66.1907 35.9336 66.3222 36.3682 66.4608 36.7884C66.4794 36.8447 66.5146 36.9003 66.5663 36.9552Z" fill="white"/>
<path d="M77.8767 33.2032C77.9525 33.2385 78.009 33.2615 78.0464 33.2723C78.1543 33.3096 78.2427 33.3599 78.3116 33.4231C78.2245 33.8876 77.9579 34.3044 77.5119 34.6735C77.0658 35.0426 76.482 35.2555 75.7605 35.3121C75.3067 35.3477 74.85 35.2874 74.3904 35.1312C73.9307 34.9751 73.5571 34.7504 73.2694 34.4572C73.0464 34.2321 72.8691 33.9485 72.7374 33.6065C72.6103 33.264 72.5371 32.97 72.518 32.7244C72.4949 32.4287 72.5324 32.0894 72.6304 31.7064C72.728 31.3189 72.9136 30.9473 73.1873 30.5918C73.4609 30.2362 73.817 29.9428 74.2555 29.7116C74.6986 29.48 75.206 29.3418 75.7778 29.297C76.5629 29.2354 77.1193 29.3153 77.447 29.5367C77.7747 29.7581 77.9482 29.9917 77.9673 30.2373C77.9861 30.4784 77.9375 30.6744 77.8214 30.8254C77.7095 30.9715 77.5447 31.0531 77.3268 31.0702C77.1408 31.0848 76.9636 31.0369 76.7952 30.9265C76.6313 30.8158 76.4858 30.619 76.3588 30.336C76.2608 30.1332 76.1445 29.989 76.01 29.9035C75.8758 29.8224 75.7203 29.7889 75.5433 29.8028C75.1167 29.8362 74.7499 30.0504 74.4428 30.4452C74.1354 30.8354 74.0063 31.3467 74.0556 31.979C74.1148 32.7387 74.3662 33.3276 74.8097 33.7459C75.2574 34.1593 75.7422 34.3455 76.2641 34.3046C76.5227 34.2843 76.7405 34.2375 76.9174 34.1641C77.0277 34.1142 77.1751 34.0134 77.3595 33.8617C77.4066 33.8214 77.492 33.7163 77.6158 33.5464C77.744 33.3761 77.831 33.2617 77.8767 33.2032Z" fill="white"/>
<path d="M89.3531 35.5129C89.3497 35.5818 89.3447 35.6343 89.3381 35.6702C89.3307 35.7105 89.311 35.7672 89.2791 35.8402C88.9881 35.7866 88.7063 35.7207 88.4337 35.6426L88.2469 35.6013L87.8826 35.5062L87.4376 35.3964L86.3404 35.2846L86.1671 35.2457L86.0462 35.2234C86.0455 35.1769 86.0483 35.1241 86.0545 35.0649C86.066 35.0021 86.0708 34.938 86.0689 34.8727C86.1357 34.8618 86.2455 34.8565 86.3981 34.8568C86.7311 34.8579 86.9343 34.835 87.0077 34.7883C87.0341 34.6447 87.0842 34.4219 87.1581 34.1201C87.2062 33.9341 87.2924 33.5023 87.4167 32.8246L87.1372 32.7592C86.9312 32.7212 86.7441 32.7447 86.5758 32.8297C86.4075 32.9146 86.1929 33.1256 85.932 33.4626L85.1507 34.4668C84.971 34.7399 84.8406 34.9084 84.7594 34.9723L84.1533 34.8328C83.6877 34.7469 83.3937 34.6974 83.2712 34.6841L82.8487 34.641L82.6283 34.5934C82.6337 34.5387 82.6406 34.489 82.6488 34.4441C82.6603 34.3813 82.6812 34.3178 82.7115 34.2538C83.0261 34.2793 83.2631 34.2488 83.4225 34.1622C83.5827 34.0711 83.7969 33.8624 84.065 33.536C84.5156 32.9974 84.8522 32.6512 85.0748 32.4973C85.3027 32.3399 85.5468 32.2457 85.807 32.2148C85.2619 32.0076 84.8754 31.7809 84.6475 31.5348C84.4197 31.2886 84.3378 30.9905 84.4021 30.6405C84.4803 30.2142 84.7363 29.9041 85.1698 29.7103C85.6079 29.5173 86.1962 29.4889 86.9349 29.6251L87.8004 29.8264L88.7423 30.0278C89.0389 30.1011 89.3059 30.1596 89.5431 30.2033C89.8117 30.2528 90.038 30.3061 90.2219 30.3632C90.2251 30.3963 90.2262 30.415 90.2254 30.4195L90.1673 30.7359C90.1112 30.7395 90.0106 30.7325 89.8657 30.7151L89.7503 30.7008L89.6685 30.6927L89.5091 30.6911C89.4635 30.6874 89.4238 30.6893 89.39 30.697C89.3687 30.7627 89.3552 30.8112 89.3494 30.8426L89.3277 30.9987L89.3005 31.1468L89.2345 31.4686L89.1457 31.8768L88.8284 33.7947L88.7211 34.3038C88.6511 34.6852 88.6183 34.9645 88.6229 35.1417C88.7269 35.2304 88.8656 35.307 89.0389 35.3714C89.1772 35.4248 89.2819 35.4719 89.3531 35.5129ZM87.5302 32.2819L87.6038 31.8431L87.6354 31.6332L87.8574 30.3101C87.7704 30.2801 87.653 30.2515 87.5052 30.2243C87.0397 30.1385 86.6823 30.1817 86.4332 30.3538C86.1886 30.5267 86.0403 30.7546 85.9884 31.0373C85.8739 31.6611 86.28 32.0584 87.2067 32.2292L87.5302 32.2819Z" fill="white"/>
<path d="M118.569 47.4521C119.399 48.08 120.052 48.7385 120.531 49.4277C121.03 50.1469 121.308 50.8641 121.366 51.5794C121.427 52.2984 121.185 52.8481 120.639 53.2285C120.34 53.4369 119.991 53.5527 119.591 53.5758C119.191 53.5989 118.652 53.3773 117.974 52.911C118.249 53.5473 118.336 54.1563 118.235 54.738C118.14 55.3208 117.839 55.7894 117.331 56.1437C116.669 56.6049 115.935 56.689 115.127 56.3962C114.326 56.1045 113.517 55.3705 112.701 54.1944C112.106 53.3366 111.761 52.6239 111.667 52.0562C111.575 51.4922 111.686 51.1008 112 50.8819C112.202 50.7412 112.427 50.69 112.675 50.7281C112.926 50.7699 113.14 50.9182 113.316 51.1729C113.446 51.3602 113.516 51.5531 113.527 51.7516C113.539 51.9539 113.48 52.2645 113.35 52.6836C113.165 53.2568 113.198 53.7232 113.447 54.0828C113.751 54.521 114.167 54.7843 114.694 54.8726C115.221 54.9609 115.72 54.8409 116.191 54.5126C116.475 54.3146 116.688 54.0794 116.832 53.8069C116.982 53.5356 117.053 53.2501 117.045 52.9503C117.039 52.6542 116.984 52.4116 116.881 52.2226C116.781 52.0309 116.514 51.5944 116.08 50.9132L116.534 50.5966C116.953 51.1997 117.292 51.6081 117.551 51.822C117.816 52.037 118.116 52.1367 118.449 52.1213C118.786 52.1032 119.109 51.9861 119.419 51.7698C119.797 51.5067 120.026 51.1857 120.107 50.8069C120.192 50.4255 120.103 50.0456 119.84 49.6673C119.567 49.274 119.213 48.9956 118.778 48.8321C118.347 48.6659 117.73 48.6434 116.927 48.7643L116.572 48.253C117.361 47.8476 118.026 47.5806 118.569 47.4521Z" fill="white"/>
<path d="M119.962 65.2805L119.908 65.4605C119.889 65.5089 119.859 65.5439 119.818 65.5656L119.787 65.5818C119.367 65.5912 119.058 65.5325 118.86 65.4055C118.666 65.2772 118.531 65.0862 118.457 64.8323C118.381 64.574 118.386 64.3301 118.47 64.1007C118.56 63.8744 118.762 63.6319 119.075 63.3732C118.688 63.2827 118.359 63.0919 118.089 62.8006C117.823 62.5081 117.617 62.1144 117.472 61.6198C117.339 61.1645 117.335 60.802 117.46 60.5321C117.589 60.261 117.808 60.0798 118.119 59.9884C118.263 59.946 118.418 59.9335 118.584 59.951C118.752 59.973 118.929 60.0327 119.114 60.1303C119.305 60.231 119.534 60.4133 119.801 60.677C119.841 60.7174 119.964 60.8619 120.17 61.1104L121.304 62.5524C121.474 62.5166 121.644 62.4737 121.814 62.4235C122.404 62.2498 122.784 62.0592 122.956 61.8517C123.061 61.7255 123.082 61.553 123.018 61.3341C122.954 61.1152 122.853 60.9261 122.716 60.7667C122.579 60.6073 122.433 60.5053 122.278 60.4607C122.164 60.4277 121.967 60.4286 121.688 60.4633C121.487 60.4893 121.367 60.4936 121.329 60.4764C121.227 60.4352 121.115 60.3373 120.994 60.1828C120.878 60.0314 120.796 59.9295 120.748 59.8772C120.565 59.6743 120.453 59.5028 120.412 59.3627C120.446 59.286 120.511 59.2335 120.607 59.2052C120.856 59.1318 121.086 59.1213 121.296 59.1736C121.595 59.2566 121.909 59.4209 122.237 59.6666C122.571 59.9154 122.827 60.1635 123.003 60.411C123.236 60.7514 123.432 61.1931 123.591 61.7359C123.694 62.0861 123.716 62.4053 123.658 62.6934C123.606 62.9846 123.467 63.2157 123.242 63.3866C123.019 63.5619 122.577 63.7467 121.918 63.941L120.831 64.2398L120.042 64.4865L119.839 64.5463C119.656 64.6003 119.536 64.6617 119.48 64.7305C119.43 64.8023 119.417 64.8776 119.44 64.9564C119.454 65.0046 119.479 65.0423 119.516 65.0696L119.881 65.1759L119.962 65.2805ZM120.85 62.679C120.694 62.4539 120.472 62.2128 120.183 61.9555C119.899 61.7013 119.641 61.5419 119.409 61.4772C119.239 61.4321 119.05 61.4404 118.84 61.5022C118.652 61.5575 118.514 61.6601 118.425 61.81C118.336 61.9598 118.313 62.1092 118.357 62.258C118.429 62.5031 118.56 62.6905 118.749 62.82C119.005 62.9967 119.193 63.0887 119.314 63.0959C119.439 63.1018 119.762 63.0282 120.281 62.8751C120.474 62.8185 120.663 62.7531 120.85 62.679Z" fill="white"/>
<path d="M125.752 79.0819L125.276 78.9821C125.251 78.694 125.239 78.5271 125.24 78.4815C125.24 78.2761 125.199 78.152 125.118 78.1091C125.042 78.0709 124.703 78.0449 124.103 78.0314L123.515 78.0318L122.9 78.0384L122.089 77.9995C121.889 77.9858 121.682 77.9766 121.468 77.9718C121.131 77.9641 120.871 77.9879 120.688 78.0431C120.613 78.3244 120.565 78.5378 120.543 78.6834C120.533 78.7561 120.517 78.8265 120.498 78.8946L120.081 78.892L120.14 78.0787C120.16 77.8235 120.172 77.5796 120.177 77.347L120.166 76.3472L120.158 75.4981L120.574 75.5144C120.591 75.5787 120.603 75.6497 120.61 75.7274C120.636 75.9836 120.675 76.199 120.725 76.3735C121.256 76.4814 122.215 76.551 123.603 76.5824L125.255 76.5855C125.248 76.2979 125.248 76.0012 125.255 75.6956C125.263 75.3261 125.274 75.0433 125.288 74.8474L125.315 74.2661C125.317 74.1475 125.313 74.0219 125.303 73.8893L124.606 73.8804L121.467 73.7957C121.203 73.7897 120.974 73.8142 120.782 73.8692C120.707 74.1505 120.659 74.3639 120.638 74.5095C120.627 74.5822 120.612 74.6504 120.592 74.7138L120.175 74.7181L120.235 73.9048C120.254 73.6496 120.267 73.4057 120.272 73.1731L120.26 72.1733L120.252 71.3242L120.668 71.3405C120.685 71.4048 120.697 71.4758 120.705 71.5535C120.731 71.8051 120.769 72.0205 120.82 72.1997C121.15 72.2756 121.662 72.3214 122.353 72.337L123.705 72.3402L124.552 72.3457C124.975 72.3507 125.219 72.3402 125.284 72.3143C125.348 72.2884 125.385 72.1683 125.394 71.954C125.397 71.8491 125.414 71.6874 125.446 71.4691L125.926 71.3909L125.865 72.2727L125.828 72.7031L125.831 73.1687C125.829 73.2691 125.821 73.415 125.808 73.6064L125.753 75.1318L125.732 77.233L125.713 77.7802C125.699 78.3961 125.712 78.8299 125.752 79.0819Z" fill="white"/>
<path d="M123.86 87.3995L124.33 87.4462C124.121 88.0121 123.977 88.4263 123.899 88.6888L123.805 89.0321L123.644 89.5552C123.469 90.1458 123.366 90.5673 123.334 90.8196L122.914 90.6022L123.01 90.1095C123.072 89.8995 123.071 89.7732 123.008 89.7306C122.948 89.6937 122.591 89.5738 121.939 89.3708L121.511 89.2295L120.974 89.0486C119.568 88.6317 118.81 88.4425 118.699 88.4809C118.562 88.7209 118.462 88.9149 118.399 89.0629C118.371 89.1259 118.338 89.1899 118.3 89.2547L117.911 89.1467L118.065 88.6997C118.228 88.2436 118.342 87.9041 118.408 87.6809L118.873 85.8914L119.257 86.0126C119.255 86.0834 119.248 86.1551 119.236 86.2277C119.195 86.4962 119.173 86.7135 119.172 86.8796C119.431 87.0136 119.973 87.203 120.798 87.4477L121.265 87.579L121.988 87.7579C122.054 87.7773 122.169 87.821 122.334 87.889C121.251 86.1069 120.611 84.9868 120.414 84.5286C120.195 84.4827 120.017 84.4656 119.881 84.4775C119.744 84.7175 119.644 84.9115 119.581 85.0595C119.553 85.1225 119.52 85.1843 119.484 85.2447L119.093 85.1433L119.247 84.6962C119.411 84.2359 119.526 83.8963 119.59 83.6775L120.055 81.888L120.439 82.0092C120.437 82.08 120.43 82.1517 120.418 82.2243C120.378 82.4884 120.357 82.7057 120.354 82.8762C120.613 83.0102 120.894 83.1219 121.195 83.2113L122.244 83.5154L123.2 83.799L123.556 83.8973L123.983 84.017C124.373 84.1278 124.602 84.1792 124.671 84.171C124.74 84.1629 124.807 84.0567 124.872 83.8523C124.896 83.7692 124.953 83.6171 125.042 83.3961L125.513 83.4428C125.303 84.0087 125.159 84.4229 125.082 84.6854L124.987 85.0286L124.826 85.5517C124.651 86.1424 124.549 86.5617 124.518 86.8096L124.096 86.5988L124.192 86.1061C124.255 85.8917 124.255 85.7632 124.192 85.7206C124.132 85.6837 123.775 85.566 123.121 85.3674L122.728 85.2292L122.262 85.0697L121.01 84.7053L121.962 86.2797C122.257 86.7432 122.49 87.1287 122.66 87.4361C122.827 87.7379 122.955 87.9472 123.044 88.064C123.16 88.1077 123.237 88.1354 123.276 88.1471C123.464 88.2027 123.602 88.1056 123.69 87.8557C123.733 87.7258 123.79 87.5737 123.86 87.3995Z" fill="white"/>
<path d="M115.774 97.8298C115.701 97.8708 115.649 97.9034 115.619 97.9275C115.526 97.9935 115.433 98.0361 115.342 98.0551C115.017 97.713 114.835 97.2527 114.797 96.6742C114.758 96.0957 114.927 95.4964 115.303 94.8763C115.539 94.4863 115.855 94.1499 116.25 93.8672C116.645 93.5845 117.045 93.4117 117.451 93.349C117.763 93.299 118.096 93.3204 118.45 93.413C118.802 93.5096 119.083 93.6219 119.293 93.7498C119.545 93.9037 119.798 94.1324 120.051 94.4358C120.308 94.7416 120.5 95.1097 120.628 95.54C120.756 95.9703 120.786 96.4313 120.717 96.9232C120.645 97.4189 120.461 97.9125 120.163 98.4039C119.754 99.0786 119.364 99.4846 118.994 99.6219C118.623 99.7592 118.332 99.7639 118.122 99.636C117.916 99.5104 117.786 99.3564 117.731 99.1737C117.679 98.9974 117.709 98.8156 117.822 98.6284C117.919 98.4685 118.061 98.3523 118.249 98.2797C118.435 98.2111 118.679 98.2077 118.982 98.2696C119.204 98.3083 119.388 98.298 119.536 98.2385C119.68 98.1767 119.798 98.0697 119.89 97.9176C120.113 97.5511 120.154 97.1275 120.013 96.6471C119.877 96.169 119.538 95.7653 118.998 95.4361C118.348 95.0406 117.724 94.901 117.126 95.0176C116.53 95.1403 116.096 95.426 115.824 95.8745C115.69 96.0968 115.6 96.3013 115.556 96.4881C115.532 96.6069 115.528 96.7857 115.543 97.0244C115.548 97.0863 115.583 97.2172 115.649 97.4171C115.711 97.6209 115.753 97.7584 115.774 97.8298Z" fill="white"/>
<path d="M108.136 106.505L107.952 106.539C107.9 106.544 107.856 106.533 107.818 106.506L107.789 106.486C107.59 106.115 107.502 105.813 107.524 105.578C107.55 105.346 107.659 105.139 107.851 104.957C108.046 104.772 108.264 104.665 108.507 104.637C108.749 104.614 109.056 104.684 109.428 104.846C109.332 104.459 109.353 104.079 109.488 103.705C109.627 103.334 109.884 102.972 110.257 102.617C110.601 102.291 110.921 102.122 111.218 102.111C111.517 102.103 111.778 102.217 112 102.452C112.104 102.562 112.185 102.695 112.245 102.851C112.302 103.011 112.329 103.196 112.327 103.405C112.324 103.621 112.266 103.909 112.153 104.267C112.136 104.322 112.063 104.497 111.936 104.794L111.171 106.462C111.28 106.598 111.395 106.73 111.517 106.859C111.94 107.306 112.282 107.56 112.544 107.618C112.704 107.655 112.867 107.595 113.032 107.438C113.198 107.281 113.32 107.106 113.399 106.911C113.479 106.716 113.503 106.539 113.472 106.38C113.449 106.263 113.359 106.088 113.201 105.855C113.087 105.687 113.029 105.582 113.026 105.54C113.017 105.43 113.053 105.286 113.135 105.107C113.217 104.935 113.27 104.816 113.295 104.749C113.392 104.493 113.493 104.315 113.599 104.215C113.683 104.211 113.759 104.245 113.828 104.318C114.006 104.507 114.12 104.707 114.169 104.918C114.231 105.223 114.228 105.578 114.159 105.983C114.09 106.394 113.985 106.735 113.846 107.005C113.649 107.368 113.346 107.744 112.936 108.133C112.671 108.384 112.398 108.549 112.116 108.628C111.833 108.714 111.565 108.695 111.311 108.572C111.053 108.452 110.688 108.142 110.216 107.642L109.456 106.807L108.879 106.215L108.733 106.061C108.602 105.922 108.493 105.843 108.406 105.825C108.32 105.813 108.247 105.835 108.187 105.891C108.151 105.926 108.129 105.966 108.121 106.011L108.193 106.385L108.136 106.505ZM110.852 106.115C110.981 105.873 111.094 105.565 111.191 105.19C111.288 104.821 111.313 104.518 111.264 104.281C111.227 104.109 111.134 103.944 110.983 103.785C110.849 103.642 110.695 103.565 110.521 103.554C110.348 103.543 110.205 103.591 110.092 103.697C109.907 103.873 109.8 104.075 109.771 104.303C109.731 104.612 109.735 104.822 109.783 104.933C109.835 105.047 110.047 105.302 110.419 105.696C110.557 105.842 110.701 105.981 110.852 106.115Z" fill="white"/>
<path d="M104.997 113.047C105 113.124 105.017 113.227 105.05 113.356L105.096 113.598C105.155 113.891 105.235 114.224 105.336 114.598L105.387 114.822L105.109 114.984C105.071 114.964 105.042 114.949 105.021 114.94C104.826 114.832 104.71 114.776 104.671 114.772C104.624 114.783 104.418 114.895 104.052 115.109L102.835 115.842L102.365 116.108L100.995 116.905C100.983 116.912 100.942 116.942 100.872 116.993C100.802 117.044 100.76 117.09 100.746 117.13C100.732 117.169 100.737 117.254 100.759 117.383L100.768 117.521C100.695 117.568 100.588 117.633 100.446 117.716L99.9052 116.796L99.6695 116.403C99.5277 116.159 99.4533 116.012 99.4461 115.964C99.5469 115.847 99.6414 115.76 99.7297 115.703C99.8475 115.761 100.034 115.888 100.289 116.082C100.511 116.248 100.658 116.334 100.73 116.339C100.798 116.347 100.974 116.269 101.257 116.104L101.578 115.909C101.692 115.842 101.822 115.775 101.966 115.706L101.67 115.222L101.315 114.582L100.734 113.527C100.16 112.537 99.8139 112.003 99.6948 111.924C99.4125 112.009 99.2058 112.08 99.0747 112.135C99.0071 112.164 98.9393 112.188 98.8711 112.206L98.6559 111.849L99.379 111.475C99.6063 111.358 99.8183 111.243 100.015 111.128L100.866 110.593L101.584 110.143L101.781 110.511C101.739 110.556 101.687 110.602 101.625 110.649C101.421 110.805 101.257 110.951 101.135 111.085C101.251 111.429 101.46 111.864 101.765 112.389L102.529 113.653C102.897 114.288 103.152 114.704 103.293 114.902C103.474 114.807 103.616 114.729 103.719 114.67C104.069 114.466 104.277 114.31 104.341 114.204C104.406 114.098 104.466 113.852 104.521 113.466L104.555 113.265C104.575 113.126 104.602 113.047 104.638 113.026C104.708 112.985 104.828 112.992 104.997 113.047Z" fill="white"/>
<path d="M94.6311 117.433L93.9139 117.699L93.6791 117.794C92.602 118.162 91.8384 118.278 91.3884 118.142C90.9341 118.008 90.6306 117.717 90.4779 117.268C90.2945 116.728 90.3748 116.242 90.7189 115.812C91.0586 115.382 91.6228 115.033 92.4112 114.764L93.2817 114.481L95.8599 113.513L95.9791 113.906L95.581 114.115C95.4246 114.192 95.307 114.264 95.2283 114.329C95.2033 114.468 95.3684 115.06 95.7236 116.105L96.1173 117.2L96.3965 117.958C96.5271 118.342 96.6149 118.558 96.6598 118.605C96.7019 118.658 96.8249 118.652 97.0289 118.587L97.5161 118.472L97.6998 118.821L96.9135 119.097L96.6788 119.191C96.4921 119.265 96.2329 119.358 95.9011 119.472L95.1688 119.736L94.6948 119.891C94.6129 119.919 94.4801 119.981 94.2965 120.077L94.2244 119.61C94.4985 119.483 94.6657 119.409 94.726 119.388C94.9802 119.302 95.1207 119.22 95.1476 119.143C95.1759 119.071 95.149 118.914 95.0668 118.672L94.8511 118.059L94.7345 117.715C94.7051 117.629 94.6707 117.535 94.6311 117.433ZM93.7512 114.949C93.5842 114.953 93.3499 115.007 93.0483 115.11C92.0702 115.444 91.7001 115.961 91.9379 116.661C92.0406 116.963 92.2478 117.169 92.5595 117.28C92.8711 117.39 93.2725 117.362 93.7637 117.194C93.9662 117.125 94.1887 117.029 94.4312 116.908C94.4179 116.855 94.4098 116.824 94.4068 116.815L94.2639 116.416C94.1357 115.968 94.0004 115.534 93.858 115.115C93.839 115.059 93.8033 115.004 93.7512 114.949Z" fill="white"/>
<path d="M82.4762 118.803C82.4001 118.768 82.3433 118.746 82.3058 118.735C82.1976 118.699 82.1087 118.649 82.0393 118.587C82.1223 118.121 82.3852 117.702 82.8279 117.329C83.2707 116.956 83.8526 116.738 84.5736 116.675C85.0271 116.636 85.4843 116.692 85.9453 116.844C86.4063 116.996 86.7819 117.217 87.0721 117.508C87.2971 117.731 87.4769 118.013 87.6116 118.354C87.7418 118.695 87.8175 118.989 87.8389 119.234C87.8645 119.53 87.8301 119.869 87.7355 120.253C87.6413 120.641 87.4589 121.015 87.1885 121.373C86.918 121.731 86.5645 122.027 86.128 122.262C85.687 122.498 85.1808 122.64 84.6095 122.69C83.825 122.759 83.2679 122.684 82.9382 122.465C82.6085 122.247 82.433 122.015 82.4117 121.769C82.3908 121.528 82.4377 121.332 82.5524 121.18C82.663 121.033 82.8271 120.95 83.0448 120.931C83.2307 120.915 83.4084 120.961 83.5777 121.07C83.7426 121.179 83.8898 121.375 84.0194 121.656C84.1191 121.858 84.2367 122.001 84.3719 122.086C84.5068 122.166 84.6626 122.198 84.8395 122.182C85.2658 122.145 85.6307 121.928 85.9343 121.53C86.2382 121.137 86.3628 120.625 86.3079 119.993C86.242 119.234 85.9854 118.647 85.5382 118.233C85.0869 117.823 84.6004 117.642 84.079 117.687C83.8205 117.71 83.6031 117.758 83.4269 117.833C83.3171 117.884 83.1706 117.986 82.9874 118.14C82.9407 118.18 82.8562 118.286 82.734 118.457C82.6073 118.629 82.5213 118.744 82.4762 118.803Z" fill="white"/>
<path d="M70.9794 116.595C70.9822 116.526 70.9867 116.474 70.993 116.438C71 116.398 71.0192 116.341 71.0505 116.267C71.3419 116.319 71.6243 116.382 71.8976 116.458L72.0847 116.497L72.4499 116.589L72.8958 116.695L73.9939 116.797L74.1676 116.834L74.2887 116.856C74.2898 116.902 74.2875 116.955 74.2818 117.014C74.2708 117.077 74.2666 117.141 74.2691 117.207C74.2024 117.218 74.0927 117.224 73.94 117.225C73.607 117.227 73.404 117.252 73.331 117.299C73.306 117.443 73.2578 117.666 73.1865 117.969C73.1402 118.155 73.0578 118.588 72.9394 119.266L73.2195 119.329C73.4258 119.366 73.6127 119.34 73.7803 119.254C73.9478 119.167 74.1605 118.955 74.4184 118.615L75.1908 117.604C75.3681 117.33 75.4971 117.16 75.5776 117.095L76.185 117.23C76.6513 117.311 76.9457 117.358 77.0684 117.37L77.4912 117.41L77.712 117.455C77.7071 117.51 77.7007 117.56 77.6929 117.605C77.6819 117.668 77.6616 117.731 77.6319 117.796C77.317 117.773 77.0803 117.806 76.9217 117.894C76.7623 117.986 76.55 118.197 76.2847 118.525C75.8389 119.068 75.5054 119.417 75.2841 119.573C75.0576 119.732 74.8144 119.829 74.5544 119.862C75.1014 120.064 75.4898 120.288 75.7199 120.532C75.9499 120.776 76.0344 121.073 75.9732 121.424C75.8988 121.851 75.6456 122.163 75.2137 122.361C74.7774 122.558 74.1893 122.591 73.4495 122.462L72.5822 122.268L71.6386 122.075C71.3414 122.004 71.0739 121.948 70.8363 121.907C70.5672 121.859 70.3405 121.808 70.1561 121.753C70.1527 121.72 70.1513 121.701 70.1521 121.696L70.2074 121.379C70.2635 121.375 70.3641 121.381 70.5092 121.398L70.6247 121.411L70.7066 121.418L70.866 121.418C70.9116 121.422 70.9513 121.419 70.985 121.411C71.0057 121.346 71.0188 121.297 71.0243 121.265L71.0446 121.109L71.0705 120.961L71.1337 120.638L71.2189 120.23L71.5192 118.309L71.622 117.799C71.6887 117.417 71.7189 117.137 71.7129 116.96C71.608 116.872 71.4687 116.797 71.2948 116.734C71.1561 116.682 71.0509 116.636 70.9794 116.595ZM72.8307 119.81L72.761 120.25L72.7313 120.46L72.521 121.785C72.6083 121.814 72.7259 121.842 72.8739 121.867C73.3402 121.949 73.6971 121.903 73.9447 121.728C74.1878 121.553 74.3341 121.324 74.3835 121.041C74.4924 120.416 74.0828 120.023 73.1547 119.86L72.8307 119.81Z" fill="white"/>
<path d="M103.542 76.3477C103.737 76.1524 103.737 75.8358 103.542 75.6406L100.36 72.4586C100.165 72.2633 99.8484 72.2633 99.6531 72.4586C99.4578 72.6539 99.4578 72.9705 99.6531 73.1657L102.482 75.9941L99.6531 78.8226C99.4578 79.0178 99.4578 79.3344 99.6531 79.5297C99.8484 79.7249 100.165 79.7249 100.36 79.5297L103.542 76.3477ZM56.6582 76.4941H103.189V75.4941H56.6582V76.4941Z" fill="white"/>
<ellipse cx="104.281" cy="37.7324" rx="2.54463" ry="2.55081" fill="white"/>
<ellipse cx="56.2946" cy="113.529" rx="2.54463" ry="2.55081" fill="white"/>
<defs>
<filter id="filter0_f_659_1072" x="0.783203" y="0.189453" width="155.074" height="155.207" filterUnits="userSpaceOnUse" color-interpolation-filters="sRGB">
<feFlood flood-opacity="0" result="BackgroundImageFix"/>
<feBlend mode="normal" in="SourceGraphic" in2="BackgroundImageFix" result="shape"/>
<feGaussianBlur stdDeviation="25" result="effect1_foregroundBlur_659_1072"/>
</filter>
</defs>
</svg>
