<svg width="121" height="115" viewBox="0 0 121 115" fill="none" xmlns="http://www.w3.org/2000/svg">
<g filter="url(#filter0_f_829_1274)">
<circle cx="61" cy="58" r="40" fill="#8A7BAE"/>
</g>
<path d="M30.1533 79.1228C29.3298 78.4875 28.6821 77.8231 28.2102 77.1295C27.7177 76.4058 27.4455 75.686 27.3937 74.9701C27.3392 74.2505 27.5865 73.7028 28.1353 73.3272C28.436 73.1214 28.7864 73.0087 29.1863 72.9891C29.5862 72.9695 30.1232 73.1959 30.7973 73.6683C30.5279 73.0294 30.4462 72.4196 30.5523 71.8387C30.6521 71.2566 30.9576 70.7906 31.4689 70.4406C32.1342 69.9852 32.8693 69.9076 33.6741 70.2076C34.4725 70.5064 35.2744 71.2476 36.0798 72.4312C36.6672 73.2944 37.0055 74.0103 37.095 74.5789C37.1818 75.1438 37.0673 75.5343 36.7516 75.7504C36.5486 75.8894 36.3232 75.9387 36.0753 75.8984C35.8249 75.8543 35.6125 75.7041 35.4381 75.4477C35.3099 75.2593 35.2415 75.0657 35.2331 74.8671C35.2221 74.6647 35.2837 74.3545 35.4181 73.9366C35.6076 73.3649 35.5793 72.8981 35.333 72.5362C35.0329 72.0952 34.6198 71.8282 34.0937 71.7353C33.5676 71.6423 33.0678 71.7579 32.5941 72.0821C32.3084 72.2776 32.0925 72.511 31.9465 72.7822C31.7941 73.0523 31.7208 73.3372 31.7266 73.6372C31.7298 73.9333 31.7822 74.1764 31.884 74.3665C31.982 74.5591 32.2448 74.998 32.6725 75.6831L32.2158 75.9957C31.8028 75.3889 31.4677 74.9774 31.2104 74.7612C30.9468 74.5438 30.6484 74.4414 30.3153 74.4539C29.9784 74.469 29.654 74.5833 29.342 74.7969C28.9623 75.0567 28.7303 75.3757 28.646 75.7539C28.558 76.1346 28.6435 76.5153 28.9025 76.896C29.1718 77.2918 29.5232 77.5734 29.9567 77.7408C30.3865 77.9107 31.0034 77.9388 31.8075 77.8249L32.1576 78.3394C31.3654 78.738 30.6973 78.9991 30.1533 79.1228Z" fill="white"/>
<path d="M30.5548 63.6545L30.6104 63.475C30.6298 63.4268 30.6602 63.392 30.7015 63.3708L30.7324 63.3548C31.1519 63.3491 31.4603 63.4106 31.6577 63.5393C31.8506 63.6693 31.9832 63.8616 32.0554 64.1162C32.1288 64.3752 32.1222 64.619 32.0356 64.8478C31.9434 65.0733 31.7396 65.3141 31.4242 65.5701C31.8104 65.664 32.1374 65.8578 32.4052 66.1515C32.6686 66.4464 32.8706 66.8419 33.0112 67.338C33.1406 67.7945 33.1416 68.1571 33.0144 68.4259C32.8827 68.6959 32.6615 68.8752 32.3507 68.9639C32.2063 69.0051 32.0509 69.0162 31.8846 68.9971C31.7171 68.9737 31.5413 68.9124 31.357 68.8131C31.1671 68.7107 30.9398 68.5264 30.6751 68.2603C30.6352 68.2195 30.5135 68.0739 30.31 67.8236L29.1887 66.3713C29.0186 66.4056 28.8482 66.447 28.6775 66.4957C28.0865 66.6642 27.7043 66.8515 27.5309 67.0575C27.4244 67.1828 27.4023 67.3552 27.4645 67.5746C27.5268 67.7941 27.6256 67.9842 27.761 68.1448C27.8964 68.3055 28.0416 68.4088 28.1966 68.4547C28.3103 68.4887 28.5069 68.4896 28.7864 68.4573C28.9877 68.4331 29.1074 68.4298 29.1455 68.4474C29.2474 68.4896 29.3582 68.5884 29.478 68.744C29.5922 68.8965 29.6733 68.9991 29.7214 69.0518C29.9024 69.2564 30.0128 69.4289 30.0526 69.5694C30.0175 69.6458 29.9518 69.6978 29.8555 69.7253C29.606 69.7964 29.3765 69.8049 29.1672 69.7507C28.8685 69.6651 28.5562 69.498 28.2302 69.2493C27.8986 68.9975 27.6455 68.7471 27.4708 68.498C27.2412 68.1555 27.0493 67.712 26.895 67.1677C26.7954 66.8165 26.7759 66.4971 26.8363 66.2095C26.8911 65.9187 27.0317 65.6888 27.2582 65.5198C27.4835 65.3464 27.9266 65.1655 28.5876 64.977L29.6767 64.6878L30.4675 64.4481L30.671 64.39C30.8549 64.3376 30.975 64.2772 31.0313 64.209C31.082 64.1376 31.0962 64.0624 31.0738 63.9834C31.0601 63.9351 31.0352 63.8971 30.999 63.8695L30.6344 63.76L30.5548 63.6545ZM29.6436 66.2487C29.7977 66.4752 30.018 66.7184 30.3046 66.9782C30.5856 67.235 30.8419 67.3967 31.0738 67.4634C31.2431 67.51 31.4328 67.5034 31.643 67.4435C31.8312 67.3898 31.9704 67.2884 32.0606 67.1393C32.1509 66.9902 32.1748 66.8411 32.1325 66.6918C32.0628 66.446 31.9337 66.2575 31.7451 66.1262C31.4909 65.9472 31.3035 65.8536 31.1829 65.8453C31.0579 65.8383 30.7349 65.909 30.214 66.0576C30.0214 66.1125 29.8312 66.1762 29.6436 66.2487Z" fill="white"/>
<path d="M25.7326 52.9498L26.2074 53.0538C26.2302 53.3422 26.2409 53.5092 26.2394 53.5548C26.2375 53.7602 26.2769 53.8847 26.3574 53.9284C26.4336 53.9673 26.7719 53.9962 27.3723 54.0151L27.9595 54.0199L28.5742 54.0187L29.3855 54.0648C29.5853 54.0802 29.7921 54.0913 30.0059 54.098C30.3425 54.1086 30.6027 54.0871 30.7865 54.0335C30.8636 53.7528 30.9136 53.5398 30.9364 53.3944C30.9478 53.3217 30.9636 53.2514 30.984 53.1836L31.4004 53.1899L31.3338 54.0028C31.3122 54.2578 31.2977 54.5016 31.2903 54.7343L31.293 55.7343L31.2936 56.5836L30.8776 56.5637C30.8615 56.4993 30.85 56.4281 30.8434 56.3503C30.8196 56.0938 30.7831 55.8781 30.734 55.703C30.2048 55.5905 29.2466 55.5124 27.8593 55.4687L26.2071 55.451C26.2117 55.7388 26.2092 56.0355 26.1996 56.3411C26.1879 56.7106 26.1745 56.9933 26.1592 57.1891L26.1273 57.7703C26.1235 57.8889 26.1264 58.0146 26.1359 58.1473L26.832 58.1623L29.9701 58.2748C30.2339 58.2831 30.4623 58.2606 30.6552 58.2073C30.7323 57.9266 30.7823 57.7136 30.8051 57.5682C30.8164 57.4955 30.8322 57.4275 30.8525 57.3642L31.2691 57.3637L31.2025 58.1766C31.1808 58.4316 31.1663 58.6754 31.159 58.9081L31.1617 59.9081L31.1623 60.7574L30.7463 60.7375C30.7301 60.6731 30.7187 60.6019 30.712 60.5241C30.6881 60.2722 30.6516 60.0565 30.6027 59.8768C30.2728 59.798 29.7621 59.7476 29.0708 59.7259L27.719 59.7107L26.8725 59.6978C26.4494 59.689 26.2055 59.6973 26.141 59.7227C26.0764 59.7481 26.0385 59.8679 26.0272 60.0821C26.0239 60.187 26.0052 60.3486 25.971 60.5666L25.4906 60.6406L25.5593 59.7592L25.6002 59.329L25.6012 58.8633C25.6043 58.7629 25.6135 58.6171 25.6286 58.4258L25.6971 56.9006L25.7359 54.7992L25.7599 54.252C25.7793 53.6362 25.7702 53.2021 25.7326 52.9498Z" fill="white"/>
<path d="M27.5926 47.5253L27.1227 47.4744C27.3375 46.9103 27.4848 46.4973 27.5646 46.2354L27.6618 45.8929L27.828 45.3712C28.0076 44.7819 28.1144 44.3613 28.1484 44.1092L28.5663 44.3304L28.4663 44.8223C28.4025 45.0318 28.4021 45.1581 28.465 45.2013C28.525 45.2388 28.88 45.3619 29.5302 45.5706L29.957 45.7158L30.4928 45.9014C31.8942 46.3308 32.6505 46.5268 32.7618 46.4893C32.9013 46.2505 33.003 46.0574 33.0669 45.9099C33.0956 45.8471 33.1292 45.7835 33.1679 45.719L33.5551 45.8304L33.3978 46.2762C33.2307 46.7308 33.1132 47.0695 33.0454 47.2921L32.5654 49.0778L32.1822 48.9532C32.1848 48.8824 32.1923 48.8107 32.2049 48.7382C32.2486 48.4701 32.2719 48.2529 32.275 48.0868C32.0168 47.9504 31.4764 47.7562 30.6539 47.5042L30.1884 47.3687L29.4669 47.1834C29.4016 47.1634 29.2868 47.1186 29.1224 47.0492C30.1893 48.8412 30.8192 49.9672 31.0121 50.4272C31.2306 50.4751 31.4082 50.4937 31.5447 50.483C31.6841 50.2442 31.7858 50.051 31.8497 49.9036C31.8784 49.8408 31.9114 49.7793 31.9488 49.7192L32.3379 49.8241L32.1806 50.2699C32.0122 50.7289 31.8947 51.0675 31.8282 51.2858L31.3482 53.0715L30.965 52.9469C30.9676 52.8761 30.9751 52.8044 30.9877 52.7319C31.0301 52.4681 31.0534 52.251 31.0578 52.0805C30.7996 51.9441 30.5203 51.8299 30.22 51.7379L29.1736 51.4244L28.2205 51.1323L27.866 51.0309L27.4397 50.9074C27.051 50.7931 26.8223 50.7397 26.7534 50.7472C26.6844 50.7547 26.6166 50.8604 26.5497 51.0642C26.5244 51.1471 26.4663 51.2987 26.3754 51.519L25.9055 51.4681C26.1203 50.904 26.2676 50.491 26.3474 50.2291L26.4446 49.8866L26.6108 49.3649C26.7904 48.7756 26.8965 48.3572 26.9292 48.1095L27.3491 48.3241L27.2492 48.816C27.184 49.0299 27.1829 49.1584 27.2458 49.2015C27.3058 49.239 27.6615 49.3599 28.313 49.5643L28.7052 49.706L29.1692 49.8697L30.418 50.2452L29.4802 48.6621C29.1892 48.1959 28.96 47.8083 28.7925 47.4993C28.628 47.196 28.5018 46.9855 28.4139 46.8679C28.2991 46.8231 28.2221 46.7948 28.1829 46.7828C27.9958 46.7254 27.8571 46.8213 27.7669 47.0705C27.7226 47.2001 27.6645 47.3517 27.5926 47.5253Z" fill="white"/>
<path d="M34.9117 39.9175C34.9848 39.877 35.0368 39.8449 35.0676 39.8211C35.1614 39.7559 35.2541 39.7141 35.3457 39.6959C35.6678 40.041 35.8454 40.503 35.8785 41.0819C35.9115 41.6609 35.7375 42.2588 35.3564 42.8757C35.1167 43.2637 34.7982 43.5973 34.4008 43.8766C34.0034 44.1558 33.6018 44.3251 33.1958 44.3843C32.8829 44.4315 32.55 44.4072 32.197 44.3114C31.8464 44.2116 31.5667 44.0969 31.3578 43.9671C31.1064 43.8109 30.8556 43.5799 30.6056 43.2742C30.3516 42.9661 30.1626 42.5963 30.0384 42.1648C29.9142 41.7333 29.8888 41.2718 29.9622 40.7805C30.038 40.2853 30.2269 39.7933 30.5289 39.3044C30.9436 38.6332 31.3369 38.2306 31.7087 38.0966C32.0806 37.9625 32.371 37.9604 32.5799 38.0902C32.7849 38.2175 32.9138 38.3728 32.9666 38.5559C33.0179 38.7328 32.9861 38.9143 32.871 39.1006C32.7727 39.2596 32.6294 39.3746 32.4411 39.4455C32.2551 39.5126 32.0108 39.5138 31.7081 39.4492C31.487 39.4085 31.3023 39.4172 31.154 39.4754C31.0095 39.5359 30.8905 39.6419 30.797 39.7932C30.5717 40.1579 30.527 40.5811 30.6629 41.0629C30.795 41.5423 31.1299 41.949 31.6676 42.2831C32.3136 42.6844 32.9359 42.8295 33.5346 42.7182C34.1318 42.6007 34.5682 42.3189 34.8439 41.8727C34.9805 41.6515 35.0716 41.4477 35.1172 41.2613C35.1423 41.1427 35.1484 40.9639 35.1354 40.725C35.1309 40.6631 35.0968 40.5319 35.0334 40.3313C34.9723 40.1269 34.9317 39.989 34.9117 39.9175Z" fill="white"/>
<path d="M41.0894 33.8032L41.2741 33.7712C41.3258 33.7666 41.3705 33.7779 41.4081 33.8051L41.4364 33.8255C41.6322 34.1975 41.7177 34.5009 41.6931 34.7358C41.6654 34.9673 41.5549 35.1732 41.3616 35.3534C41.1649 35.5368 40.9454 35.6419 40.7029 35.6686C40.4607 35.6888 40.1542 35.6163 39.7834 35.4511C39.8756 35.8387 39.8522 36.2189 39.7131 36.5917C39.5708 36.9611 39.3114 37.3214 38.9348 37.6727C38.5882 37.9959 38.2666 38.1618 37.9701 38.1704C37.6704 38.1757 37.4106 38.0597 37.1906 37.8224C37.0883 37.7121 37.0078 37.5784 36.9492 37.4213C36.8938 37.2611 36.8683 37.0761 36.8727 36.8663C36.8773 36.6501 36.9377 36.3633 37.0537 36.0059C37.0717 35.9516 37.1457 35.7767 37.2756 35.4811L38.0556 33.8189C37.9478 33.6826 37.8335 33.5493 37.7127 33.419C37.2944 32.9678 36.9543 32.7117 36.6925 32.6505C36.5329 32.6124 36.3697 32.6711 36.2031 32.8265C36.0365 32.9819 35.9126 33.1566 35.8315 33.3506C35.7504 33.5447 35.7246 33.7213 35.7543 33.8807C35.7758 33.9977 35.8644 34.1737 36.0201 34.4086C36.1331 34.5774 36.1904 34.6828 36.1921 34.7249C36.201 34.835 36.1636 34.9789 36.0799 35.1567C35.9964 35.3281 35.9421 35.4472 35.9172 35.5141C35.8177 35.7688 35.7147 35.9459 35.6081 36.0454C35.5242 36.0488 35.4482 36.0137 35.38 35.9402C35.2034 35.7497 35.0916 35.5487 35.0445 35.3371C34.9848 35.0314 34.9912 34.6764 35.0639 34.2721C35.1367 33.8614 35.2441 33.5214 35.3859 33.2521C35.5857 32.8912 35.8923 32.5181 36.3056 32.1327C36.5722 31.884 36.847 31.7212 37.1299 31.6443C37.4131 31.561 37.6812 31.582 37.9342 31.7075C38.1906 31.8298 38.5527 32.1433 39.0206 32.6479L39.7726 33.489L40.345 34.0862L40.4891 34.2416C40.6192 34.3819 40.7274 34.4617 40.8136 34.481C40.9001 34.4938 40.9734 34.4723 41.0333 34.4163C41.07 34.3821 41.0924 34.3426 41.1004 34.2977L41.032 33.9222L41.0894 33.8032ZM38.3713 34.1695C38.2402 34.4101 38.1244 34.7175 38.0239 35.0917C37.9236 35.4594 37.8965 35.762 37.9426 35.9994C37.9782 36.1718 38.0704 36.3383 38.2191 36.4987C38.3524 36.6424 38.5057 36.7206 38.6791 36.7334C38.8525 36.7461 38.9959 36.6997 39.1092 36.594C39.2959 36.4199 39.4046 36.2188 39.4354 35.9907C39.4788 35.6822 39.4768 35.4723 39.4293 35.3607C39.3787 35.2459 39.1691 34.9896 38.8003 34.5919C38.664 34.4449 38.521 34.3041 38.3713 34.1695Z" fill="white"/>
<path d="M41.8841 29.4329C41.882 29.3553 41.8652 29.252 41.8338 29.1229L41.7902 28.88C41.7337 28.5867 41.6566 28.2526 41.559 27.8777L41.5102 27.6535L41.7891 27.4943C41.8269 27.5147 41.8562 27.5295 41.8771 27.5386C42.0705 27.6487 42.1867 27.7057 42.2256 27.7098C42.2719 27.6991 42.479 27.5887 42.8468 27.3787L44.0706 26.6562L44.5427 26.3946L45.919 25.6086C45.9309 25.6019 45.9721 25.5731 46.0427 25.5222C46.1134 25.4714 46.1558 25.4262 46.17 25.3865C46.1842 25.3469 46.1806 25.2623 46.1594 25.1327L46.152 24.9951C46.2249 24.9482 46.3325 24.8841 46.4749 24.8028L47.0077 25.7274L47.2399 26.1226C47.3794 26.3685 47.4526 26.5157 47.4593 26.5644C47.3575 26.6803 47.2622 26.7662 47.1735 26.8221C47.0562 26.7631 46.871 26.6352 46.6179 26.4384C46.3969 26.2705 46.2505 26.1834 46.1788 26.1771C46.1111 26.1685 45.9349 26.2455 45.6501 26.4081L45.3272 26.6003C45.2125 26.6658 45.0826 26.7322 44.9374 26.7993L45.2296 27.2863L45.5791 27.9295L46.1497 28.99C46.7148 29.9854 47.0565 30.5228 47.1749 30.6023C47.4579 30.5195 47.6652 30.451 47.7968 30.3969C47.8645 30.3687 47.9326 30.3455 48.0009 30.3275L48.2129 30.687L47.4866 31.0544C47.2584 31.169 47.0454 31.2828 46.8477 31.3957L45.9925 31.9234L45.2704 32.3672L45.0762 31.9976C45.1186 31.9524 45.1712 31.9066 45.2339 31.8603C45.4397 31.7061 45.6042 31.5622 45.7274 31.4288C45.6151 31.0834 45.4092 30.6469 45.1098 30.1195L44.3566 28.8481C43.9941 28.2096 43.7433 27.791 43.6042 27.5921C43.4218 27.6858 43.2791 27.762 43.1763 27.8207C42.8243 28.0217 42.6155 28.1751 42.5498 28.2808C42.4842 28.3866 42.422 28.6321 42.3632 29.0175L42.3281 29.2187C42.307 29.3568 42.2787 29.436 42.2431 29.4563C42.1719 29.497 42.0522 29.4892 41.8841 29.4329Z" fill="white"/>
<path d="M50.4201 26.2047L51.1396 25.9444L51.3751 25.8518C52.4552 25.4933 53.2197 25.3838 53.6684 25.5234C54.1214 25.6614 54.4222 25.9558 54.5708 26.4064C54.7495 26.9479 54.6649 27.4327 54.3171 27.8605C53.9736 28.287 53.4065 28.6314 52.6158 28.8938L51.7431 29.169L49.157 30.1137L49.0413 29.7195L49.4412 29.5147C49.5982 29.4385 49.7164 29.3681 49.7957 29.3033C49.8219 29.1648 49.6621 28.5713 49.3162 27.5228L48.9323 26.4245L48.6599 25.6641C48.5327 25.2785 48.4468 25.0618 48.4023 25.0141C48.3607 24.9606 48.2377 24.9654 48.0332 25.0284L47.5451 25.1399L47.3645 24.7889L48.1531 24.52L48.3886 24.4274C48.5758 24.3556 48.8358 24.2646 49.1685 24.1542L49.903 23.896L50.3783 23.7455C50.4604 23.7182 50.5936 23.6572 50.778 23.5623L50.8461 24.0301C50.5709 24.155 50.4031 24.2276 50.3426 24.2476C50.0877 24.3322 49.9465 24.4127 49.9189 24.4892C49.89 24.5613 49.9155 24.7186 49.9956 24.9612L50.2057 25.5765L50.3193 25.9209C50.3479 26.0076 50.3815 26.1022 50.4201 26.2047ZM51.2779 28.696C51.4449 28.6935 51.6796 28.6421 51.982 28.5417C52.9628 28.2162 53.3374 27.7026 53.1059 27.0007C53.0058 26.6974 52.8005 26.4891 52.4899 26.3759C52.1793 26.2627 51.7778 26.2878 51.2852 26.4512C51.0821 26.5186 50.8589 26.6119 50.6154 26.7312C50.6282 26.7846 50.6361 26.8157 50.6389 26.8243L50.7783 27.2251C50.9025 27.6742 51.0339 28.1089 51.1725 28.5291C51.1911 28.5855 51.2262 28.6411 51.2779 28.696Z" fill="white"/>
<path d="M60.3662 25.7054C60.442 25.7406 60.4986 25.7636 60.5359 25.7744C60.6438 25.8117 60.7322 25.862 60.801 25.9253C60.714 26.3899 60.4475 26.8068 60.0015 27.176C59.5555 27.5451 58.9719 27.7581 58.2505 27.8147C57.7968 27.8503 57.3402 27.79 56.8807 27.6338C56.4211 27.4776 56.0476 27.2529 55.76 26.9596C55.537 26.7345 55.3597 26.4509 55.2281 26.1087C55.101 25.7662 55.0279 25.4721 55.0087 25.2265C54.9857 24.9307 55.0231 24.5913 55.1211 24.2083C55.2187 23.8206 55.4043 23.449 55.6779 23.0934C55.9514 22.7377 56.3074 22.4443 56.7459 22.213C57.1889 21.9814 57.6962 21.8431 58.2679 21.7983C59.0528 21.7366 59.6091 21.8166 59.9367 22.038C60.2644 22.2595 60.4378 22.4931 60.4569 22.7388C60.4757 22.9799 60.4271 23.176 60.311 23.327C60.1992 23.4731 60.0343 23.5547 59.8166 23.5718C59.6305 23.5864 59.4534 23.5386 59.285 23.4282C59.1212 23.3174 58.9757 23.1206 58.8487 22.8376C58.7507 22.6347 58.6345 22.4905 58.5 22.4049C58.3659 22.3239 58.2104 22.2903 58.0334 22.3042C57.6069 22.3377 57.2402 22.5519 56.9332 22.9468C56.6258 23.3371 56.4967 23.8485 56.546 24.4809C56.6052 25.2407 56.8565 25.8298 57.2999 26.2482C57.7475 26.6617 58.2322 26.8479 58.754 26.807C59.0126 26.7867 59.2303 26.7398 59.4072 26.6664C59.5174 26.6166 59.6648 26.5158 59.8492 26.3639C59.8963 26.3236 59.9817 26.2185 60.1054 26.0486C60.2336 25.8783 60.3206 25.7639 60.3662 25.7054Z" fill="white"/>
<path d="M68.9802 28.2142C68.9768 28.2832 68.9718 28.3357 68.9652 28.3716C68.9578 28.412 68.9381 28.4687 68.9062 28.5417C68.6153 28.488 68.3336 28.4222 68.061 28.3441L67.8743 28.3027L67.51 28.2076L67.0651 28.0978L65.9682 27.986L65.7949 27.9471L65.674 27.9248C65.6733 27.8782 65.6761 27.8254 65.6823 27.7662C65.6938 27.7034 65.6987 27.6393 65.6968 27.574C65.7635 27.5631 65.8732 27.5578 66.0259 27.5581C66.3588 27.5592 66.562 27.5363 66.6353 27.4895C66.6617 27.3459 66.7118 27.1231 66.7857 26.8212C66.8337 26.6351 66.9199 26.2032 67.0443 25.5254L66.7648 25.46C66.5589 25.422 66.3718 25.4455 66.2035 25.5305C66.0353 25.6155 65.8207 25.8265 65.5599 26.1636L64.7787 27.168C64.5991 27.4412 64.4687 27.6097 64.3875 27.6736L63.7815 27.534C63.3161 27.4482 63.0221 27.3986 62.8996 27.3853L62.4772 27.3422L62.2569 27.2947C62.2623 27.24 62.2691 27.1902 62.2774 27.1453C62.2889 27.0825 62.3098 27.019 62.34 26.955C62.6546 26.9805 62.8916 26.95 63.0509 26.8633C63.2111 26.7722 63.4252 26.5634 63.6933 26.237C64.1438 25.6983 64.4803 25.352 64.7029 25.1981C64.9308 25.0406 65.1748 24.9464 65.4349 24.9155C64.8899 24.7082 64.5035 24.4815 64.2757 24.2353C64.0479 23.9891 63.9661 23.691 64.0303 23.3409C64.1086 22.9145 64.3644 22.6043 64.7979 22.4105C65.2359 22.2175 65.8241 22.189 66.5626 22.3252L67.4279 22.5265L68.3696 22.728C68.6661 22.8013 68.933 22.8598 69.1702 22.9035C69.4388 22.953 69.665 23.0063 69.8488 23.0634C69.852 23.0965 69.8532 23.1153 69.8524 23.1198L69.7943 23.4362C69.7381 23.4398 69.6376 23.4329 69.4927 23.4154L69.3774 23.4011L69.2956 23.393L69.1362 23.3914C69.0907 23.3877 69.051 23.3896 69.0172 23.3973C68.9959 23.463 68.9823 23.5116 68.9766 23.543L68.9549 23.6991L68.9277 23.8472L68.8617 24.1691L68.7729 24.5774L68.4557 26.4957L68.3483 27.0049C68.2783 27.3864 68.2456 27.6658 68.2501 27.843C68.3541 27.9317 68.4928 28.0084 68.666 28.0728C68.8043 28.1261 68.909 28.1733 68.9802 28.2142ZM67.1578 24.9826L67.2313 24.5437L67.2629 24.3337L67.4849 23.0104C67.3978 22.9804 67.2805 22.9518 67.1328 22.9246C66.6673 22.8387 66.3101 22.8819 66.061 23.0541C65.8164 23.2271 65.6682 23.455 65.6163 23.7377C65.5018 24.3617 65.9078 24.759 66.8343 24.9299L67.1578 24.9826Z" fill="white"/>
<path d="M90.6338 35.6286C91.4628 36.2566 92.1164 36.9152 92.5945 37.6046C93.0933 38.3239 93.3718 39.0413 93.43 39.7567C93.4908 40.4758 93.2485 41.0256 92.703 41.4061C92.4041 41.6146 92.0547 41.7304 91.655 41.7535C91.2553 41.7766 90.7163 41.555 90.0381 41.0886C90.3131 41.725 90.4002 42.3342 90.2992 42.916C90.2046 43.4989 89.9032 43.9676 89.3951 44.3221C88.7337 44.7833 87.9994 44.8675 87.192 44.5746C86.391 44.2828 85.5826 43.5487 84.7667 42.3723C84.1718 41.5144 83.8271 40.8015 83.7326 40.2337C83.6408 39.6696 83.7518 39.2781 84.0656 39.0592C84.2674 38.9185 84.4924 38.8672 84.7405 38.9053C84.9913 38.9472 85.205 39.0955 85.3817 39.3502C85.5116 39.5376 85.5817 39.7305 85.5919 39.9291C85.6047 40.1314 85.5457 40.4421 85.4151 40.8612C85.2306 41.4345 85.2631 41.9011 85.5125 42.2607C85.8165 42.6991 86.232 42.9624 86.7589 43.0507C87.2858 43.139 87.7846 43.019 88.2554 42.6906C88.5393 42.4926 88.7531 42.2573 88.8967 41.9848C89.0467 41.7134 89.1175 41.4278 89.1091 41.1279C89.1033 40.8318 89.0487 40.5892 88.9453 40.4C88.8456 40.2083 88.5788 39.7718 88.1451 39.0904L88.5991 38.7738C89.0174 39.377 89.3561 39.7855 89.6153 39.9994C89.8809 40.2144 90.1801 40.3142 90.5131 40.2987C90.8498 40.2807 91.1732 40.1635 91.4833 39.9472C91.8607 39.684 92.0898 39.3629 92.1708 38.9841C92.2555 38.6026 92.1666 38.2226 91.9042 37.8442C91.6314 37.4509 91.2775 37.1724 90.8426 37.0088C90.4114 36.8427 89.7942 36.8201 88.9912 36.9411L88.6365 36.4297C89.4252 36.0241 90.0909 35.7571 90.6338 35.6286Z" fill="white"/>
<path d="M90.37 51.1017L90.316 51.2817C90.297 51.3301 90.267 51.3651 90.2259 51.3868L90.1951 51.403C89.7757 51.4124 89.4667 51.3537 89.2682 51.2267C89.0741 51.0984 88.9398 50.9073 88.8654 50.6533C88.7897 50.395 88.7942 50.1511 88.8787 49.9216C88.9689 49.6952 89.1706 49.4527 89.4837 49.1939C89.0967 49.1034 88.768 48.9125 88.4977 48.6212C88.2317 48.3286 88.0262 47.9349 87.8812 47.4401C87.7478 46.9848 87.7435 46.6221 87.8684 46.3523C87.9976 46.0811 88.2173 45.8998 88.5273 45.8084C88.6714 45.766 88.8266 45.7535 88.993 45.771C89.1607 45.7929 89.3371 45.8527 89.5223 45.9504C89.7131 46.0511 89.942 46.2333 90.209 46.4971C90.2493 46.5376 90.3723 46.6821 90.5779 46.9306L91.7121 48.3729C91.8818 48.3372 92.0519 48.2942 92.2222 48.244C92.8116 48.0702 93.1921 47.8796 93.3637 47.672C93.4691 47.5458 93.4897 47.3733 93.4255 47.1544C93.3614 46.9354 93.2609 46.7463 93.124 46.5868C92.9872 46.4274 92.8411 46.3254 92.6857 46.2808C92.5717 46.2478 92.3751 46.2487 92.0959 46.2834C91.8948 46.3094 91.7751 46.3137 91.7369 46.2965C91.6347 46.2552 91.523 46.1574 91.4018 46.0028C91.2863 45.8514 91.2042 45.7495 91.1557 45.6972C90.9729 45.4942 90.861 45.3227 90.8199 45.1826C90.8544 45.1058 90.9196 45.0533 91.0157 45.025C91.2645 44.9516 91.4939 44.9411 91.7037 44.9934C92.0031 45.0764 92.3169 45.2407 92.6451 45.4865C92.9789 45.7353 93.2342 45.9835 93.4111 46.2311C93.6437 46.5716 93.8395 47.0133 93.9986 47.5562C94.1013 47.9065 94.1237 48.2257 94.0658 48.5139C94.0136 48.8052 93.875 49.0363 93.65 49.2073C93.4262 49.3826 92.9847 49.5675 92.3254 49.7618L91.239 50.0607L90.4504 50.3074L90.2473 50.3673C90.0639 50.4213 89.9444 50.4827 89.8886 50.5515C89.8385 50.6233 89.825 50.6987 89.8481 50.7775C89.8622 50.8256 89.8875 50.8634 89.924 50.8907L90.2895 50.997L90.37 51.1017ZM91.2582 48.4996C91.1022 48.2744 90.8797 48.0332 90.5908 47.7759C90.3076 47.5216 90.0498 47.3622 89.8174 47.2975C89.6477 47.2524 89.458 47.2607 89.2484 47.3225C89.0607 47.3779 88.9224 47.4805 88.8335 47.6304C88.7446 47.7802 88.7219 47.9296 88.7655 48.0785C88.8374 48.3237 88.9682 48.5111 89.1579 48.6406C89.4137 48.8173 89.6019 48.9093 89.7226 48.9165C89.8477 48.9225 90.17 48.8489 90.6896 48.6957C90.8817 48.6391 91.0713 48.5737 91.2582 48.4996Z" fill="white"/>
<path d="M95.2845 61.7627L94.8088 61.6629C94.7835 61.3748 94.7713 61.2079 94.7724 61.1622C94.7724 60.9568 94.732 60.8326 94.651 60.7897C94.5745 60.7515 94.236 60.7256 93.6354 60.712L93.0482 60.7124L92.4336 60.719L91.6219 60.6801C91.422 60.6665 91.2151 60.6572 91.0012 60.6524C90.6645 60.6448 90.4045 60.6686 90.2212 60.7238C90.1466 61.0051 90.0985 61.2186 90.077 61.3642C90.0663 61.437 90.051 61.5074 90.0313 61.5754L89.6148 61.5728L89.6742 60.7593C89.6936 60.5041 89.706 60.2602 89.7112 60.0275L89.6997 59.0275L89.6916 58.1782L90.1077 58.1945C90.1245 58.2588 90.1365 58.3298 90.1439 58.4076C90.1699 58.6638 90.2083 58.8792 90.259 59.0538C90.7891 59.1617 91.748 59.2313 93.1356 59.2627L94.7879 59.2658C94.7808 58.9781 94.7807 58.6814 94.7876 58.3757C94.7959 58.0061 94.8069 57.7233 94.8204 57.5273L94.8472 56.9459C94.8499 56.8273 94.8459 56.7016 94.8353 56.569L94.139 56.5601L91.0001 56.4754C90.7362 56.4695 90.5081 56.494 90.3156 56.549C90.241 56.8303 90.1929 57.0438 90.1714 57.1894C90.1607 57.2622 90.1455 57.3303 90.1258 57.3938L89.7092 57.398L89.7686 56.5845C89.788 56.3293 89.8004 56.0854 89.8056 55.8527L89.7941 54.8527L89.786 54.0034L90.2022 54.0197C90.2189 54.084 90.231 54.155 90.2383 54.2328C90.2645 54.4844 90.3028 54.6999 90.3534 54.879C90.684 54.955 91.195 55.0008 91.8866 55.0164L93.2384 55.0196L94.085 55.0251C94.5082 55.0301 94.752 55.0196 94.8163 54.9937C94.8806 54.9677 94.9174 54.8476 94.9268 54.6333C94.9292 54.5283 94.9465 54.3667 94.9788 54.1483L95.4585 54.0701L95.3976 54.9521L95.3605 55.3826L95.3637 55.8483C95.3614 55.9487 95.3535 56.0946 95.3401 56.286L95.2851 57.8117L95.2649 59.9134L95.2457 60.4608C95.2318 61.0768 95.2447 61.5107 95.2845 61.7627Z" fill="white"/>
<path d="M93.4736 67.2034L93.9438 67.2502C93.7341 67.8162 93.5904 68.2305 93.5129 68.493L93.4187 68.8363L93.2572 69.3595C93.0828 69.9503 92.9797 70.3719 92.948 70.6243L92.5281 70.4068L92.6237 69.914C92.6857 69.704 92.685 69.5776 92.6217 69.535C92.5614 69.4981 92.2052 69.3782 91.5533 69.1752L91.1252 69.0338L90.5877 68.8529C89.1827 68.4359 88.4246 68.2467 88.3136 68.2851C88.1763 68.5252 88.0763 68.7192 88.0137 68.8672C87.9856 68.9303 87.9525 68.9942 87.9143 69.0591L87.5262 68.951L87.6795 68.5039C87.8426 68.0478 87.9571 67.7081 88.023 67.4849L88.4872 65.6951L88.8714 65.8162C88.8695 65.8871 88.8626 65.9588 88.8507 66.0314C88.8094 66.2999 88.7879 66.5173 88.7863 66.6834C89.0458 66.8175 89.5878 67.0069 90.4125 67.2517L90.8792 67.383L91.6023 67.5619C91.6678 67.5814 91.783 67.6251 91.948 67.6931C90.8653 65.9106 90.2255 64.7902 90.0285 64.3319C89.8095 64.286 89.6318 64.2689 89.4955 64.2808C89.3582 64.5209 89.2582 64.7149 89.1955 64.8629C89.1674 64.926 89.135 64.9877 89.0981 65.0482L88.7081 64.9467L88.8614 64.4996C89.0258 64.0391 89.1403 63.6995 89.2049 63.4806L89.6691 61.6908L90.0533 61.8119C90.0514 61.8828 90.0444 61.9545 90.0325 62.0271C89.9925 62.2913 89.9711 62.5086 89.9682 62.6791C90.2276 62.8132 90.5079 62.9249 90.8089 63.0143L91.8581 63.3185L92.8138 63.6021L93.1691 63.7004L93.5965 63.8201C93.9862 63.931 94.2154 63.9824 94.2843 63.9743C94.3531 63.9661 94.4201 63.8599 94.4851 63.6555C94.5097 63.5723 94.5664 63.4202 94.6554 63.1991L95.1257 63.2459C94.9159 63.8119 94.7723 64.2262 94.6948 64.4888L94.6006 64.832L94.439 65.3553C94.2647 65.946 94.1622 66.3654 94.1318 66.6134L93.7099 66.4025L93.8055 65.9098C93.8688 65.6953 93.8688 65.5668 93.8054 65.5242C93.7452 65.4873 93.3884 65.3695 92.7351 65.1709L92.3417 65.0327L91.8762 64.8731L90.6241 64.5087L91.576 66.0834C91.871 66.547 92.1037 66.9325 92.2739 67.2401C92.4411 67.5419 92.5691 67.7513 92.6581 67.8681C92.7733 67.9118 92.8505 67.9395 92.8898 67.9512C93.0774 68.0068 93.2153 67.9097 93.3033 67.6598C93.3464 67.5298 93.4031 67.3777 93.4736 67.2034Z" fill="white"/>
<path d="M86.2206 74.8731C86.1478 74.9142 86.0961 74.9468 86.0655 74.9709C85.9723 75.037 85.88 75.0795 85.7885 75.0986C85.4634 74.7564 85.2817 74.2959 85.2435 73.7173C85.2053 73.1387 85.3741 72.5392 85.7497 71.919C85.986 71.5289 86.3016 71.1925 86.6965 70.9097C87.0913 70.6269 87.4915 70.4541 87.8969 70.3914C88.2093 70.3414 88.5425 70.3627 88.8963 70.4554C89.2478 70.552 89.5285 70.6643 89.7385 70.7922C89.9913 70.9462 90.2441 71.175 90.4969 71.4784C90.7535 71.7843 90.9459 72.1524 91.0738 72.5828C91.2018 73.0132 91.2313 73.4744 91.1623 73.9663C91.0909 74.4622 90.9063 74.9559 90.6086 75.4474C90.1999 76.1222 89.8102 76.5283 89.4395 76.6656C89.0688 76.803 88.7785 76.8077 88.5685 76.6797C88.3623 76.5542 88.232 76.4001 88.1776 76.2174C88.1247 76.041 88.155 75.8592 88.2684 75.672C88.3653 75.512 88.5076 75.3958 88.6953 75.3232C88.8806 75.2545 89.1249 75.2512 89.4282 75.3131C89.6496 75.3518 89.8342 75.3415 89.9821 75.282C90.126 75.2201 90.2441 75.1132 90.3362 74.961C90.5583 74.5943 90.5992 74.1707 90.459 73.6902C90.3227 73.212 89.9843 72.8082 89.4437 72.4789C88.7941 72.0833 88.1705 71.9438 87.5729 72.0603C86.9767 72.1831 86.5428 72.4688 86.2711 72.9174C86.1364 73.1398 86.0471 73.3444 86.0031 73.5312C85.9791 73.65 85.9746 73.8289 85.9897 74.0677C85.9948 74.1295 86.03 74.2604 86.0952 74.4604C86.1581 74.6642 86.1999 74.8018 86.2206 74.8731Z" fill="white"/>
<path d="M80.0995 81.0446L79.9151 81.0783C79.8634 81.0833 79.8186 81.0724 79.7808 81.0455L79.7523 81.0254C79.5533 80.6551 79.465 80.3524 79.4875 80.1174C79.5132 79.8857 79.6219 79.6788 79.8136 79.4968C80.0086 79.3117 80.2272 79.2047 80.4695 79.1759C80.7115 79.1535 81.0186 79.2232 81.3908 79.3852C81.2952 78.9984 81.3153 78.618 81.4511 78.244C81.5901 77.8734 81.8463 77.5108 82.2198 77.1562C82.5635 76.8299 82.8836 76.6612 83.1801 76.6499C83.4797 76.642 83.7405 76.7557 83.9626 76.991C84.0658 77.1004 84.1475 77.2334 84.2076 77.39C84.2643 77.5498 84.2915 77.7345 84.2889 77.9443C84.2862 78.1605 84.2284 78.4478 84.1156 78.8063C84.098 78.8607 84.0256 79.0363 83.8983 79.333L83.133 81.002C83.242 81.1374 83.3575 81.2697 83.4795 81.3989C83.9017 81.8464 84.2441 82.0995 84.5064 82.1584C84.6664 82.195 84.829 82.1349 84.9942 81.9781C85.1595 81.8212 85.2818 81.6454 85.3612 81.4506C85.4406 81.2559 85.4648 81.079 85.4337 80.9199C85.4112 80.8031 85.321 80.6279 85.1633 80.3944C85.0488 80.2266 84.9905 80.1217 84.9884 80.0797C84.9785 79.9696 85.0147 79.8253 85.0969 79.6468C85.1788 79.4747 85.232 79.3551 85.2564 79.288C85.3535 79.0324 85.455 78.8544 85.5608 78.754C85.6446 78.7499 85.7209 78.7842 85.7897 78.8572C85.968 79.0461 86.0816 79.2461 86.1306 79.4573C86.193 79.7625 86.1897 80.1175 86.1206 80.5224C86.0514 80.9337 85.9471 81.2746 85.8077 81.5452C85.611 81.9078 85.3078 82.2837 84.8979 82.6727C84.6335 82.9237 84.3602 83.0889 84.0779 83.1683C83.7955 83.2542 83.5272 83.2355 83.2731 83.1123C83.0156 82.9923 82.6507 82.682 82.1784 82.1816L81.419 81.3472L80.8414 80.755L80.6959 80.6009C80.5645 80.4617 80.4556 80.3829 80.3692 80.3644C80.2826 80.3523 80.2096 80.3745 80.1501 80.431C80.1138 80.4655 80.0917 80.5052 80.0841 80.5502L80.1559 80.9251L80.0995 81.0446ZM82.8142 80.6543C82.9432 80.4125 83.0563 80.1041 83.1535 79.729C83.2505 79.3604 83.2749 79.0576 83.2267 78.8206C83.1896 78.6485 83.096 78.4829 82.9458 78.3238C82.8113 78.1813 82.6573 78.1045 82.4838 78.0932C82.3102 78.082 82.1673 78.1297 82.0549 78.2364C81.8698 78.4121 81.7629 78.6142 81.7341 78.8426C81.6934 79.1514 81.6973 79.3613 81.7457 79.4724C81.7973 79.5868 82.0092 79.8412 82.3815 80.2356C82.5191 80.3815 82.6634 80.521 82.8142 80.6543Z" fill="white"/>
<path d="M79.3413 85.4209C79.3441 85.4984 79.3618 85.6016 79.3943 85.7304L79.4401 85.9729C79.4992 86.2657 79.5792 86.5991 79.6802 86.9731L79.7309 87.1969L79.4535 87.3586C79.4155 87.3385 79.3861 87.324 79.3651 87.3151C79.1707 87.2067 79.054 87.1507 79.015 87.147C78.9688 87.1581 78.7628 87.2703 78.3968 87.4835L77.1795 88.2168L76.7097 88.4826L75.3404 89.2807C75.3286 89.2876 75.2876 89.3168 75.2174 89.3682C75.1472 89.4197 75.1052 89.4653 75.0914 89.505C75.0776 89.5447 75.0819 89.6293 75.1042 89.7588L75.1129 89.8963C75.0404 89.9438 74.9333 90.0088 74.7917 90.0914L74.2508 89.1716L74.0151 88.7785C73.8733 88.5338 73.7989 88.3872 73.7918 88.3386C73.8925 88.2218 73.987 88.135 74.0752 88.0783C74.1931 88.1363 74.3794 88.2626 74.6343 88.4572C74.8567 88.6231 75.0038 88.7089 75.0756 88.7146C75.1434 88.7226 75.3189 88.644 75.6022 88.4789L75.9234 88.2838C76.0375 88.2173 76.1669 88.1498 76.3114 88.0814L76.015 87.597L75.6598 86.9569L75.0798 85.9015C74.506 84.9111 74.1595 84.3767 74.0404 84.2984C73.7582 84.3836 73.5515 84.4539 73.4204 84.5093C73.3529 84.5381 73.285 84.5618 73.2168 84.5804L73.0017 84.2228L73.7247 83.849C73.9519 83.7324 74.1639 83.6167 74.3606 83.5021L75.2111 82.9668L75.9293 82.5166L76.1267 82.8845C76.0846 82.9301 76.0325 82.9763 75.9702 83.0232C75.7658 83.1792 75.6026 83.3245 75.4805 83.459C75.5959 83.8035 75.8056 84.2381 76.1097 84.7629L76.8741 86.0275C77.2422 86.6627 77.4967 87.0792 77.6375 87.2769C77.8192 87.1815 77.9611 87.1041 78.0634 87.0445C78.4136 86.8404 78.6211 86.6851 78.6858 86.5788C78.7505 86.4725 78.8106 86.2264 78.8659 85.8404L78.8992 85.639C78.9191 85.5007 78.9467 85.4212 78.9821 85.4006C79.053 85.3593 79.1727 85.3661 79.3413 85.4209Z" fill="white"/>
<path d="M70.837 88.7229L70.1199 88.9896L69.8852 89.0843C68.8083 89.4523 68.0448 89.5685 67.5949 89.433C67.1407 89.2989 66.8373 89.0072 66.6847 88.558C66.5013 88.018 66.5816 87.5326 66.9256 87.1016C67.2653 86.6722 67.8293 86.3227 68.6176 86.0534L69.4879 85.7704L72.0655 84.8029L72.1847 85.196L71.7867 85.4044C71.6303 85.4819 71.5128 85.5534 71.434 85.6189C71.409 85.7576 71.5741 86.3496 71.9292 87.395L72.3228 88.49L72.6019 89.2479C72.7325 89.6324 72.8203 89.8483 72.8652 89.8956C72.9073 89.9487 73.0303 89.9429 73.2342 89.878L73.7214 89.7622L73.905 90.1116L73.1189 90.3875L72.8842 90.4822C72.6976 90.5556 72.4384 90.6489 72.1067 90.7623L71.3745 91.027L70.9006 91.1817C70.8187 91.2096 70.686 91.2719 70.5025 91.3683L70.4303 90.9012C70.7044 90.7738 70.8715 90.6998 70.9318 90.6792C71.186 90.5924 71.3265 90.5106 71.3533 90.434C71.3816 90.3616 71.3547 90.2045 71.2725 89.9626L71.057 89.3492L70.9403 89.0058C70.911 88.9194 70.8765 88.8251 70.837 88.7229ZM69.9572 86.2392C69.7903 86.2432 69.5561 86.2968 69.2545 86.3998C68.2767 86.7339 67.9066 87.2509 68.1443 87.9507C68.2471 88.2531 68.4542 88.4596 68.7658 88.57C69.0774 88.6805 69.4787 88.6519 69.9698 88.4841C70.1722 88.4149 70.3947 88.3196 70.6371 88.1982C70.6238 88.1449 70.6157 88.1139 70.6128 88.1052L70.4698 87.7057C70.3417 87.2577 70.2064 86.8242 70.0641 86.4052C70.045 86.3491 70.0094 86.2937 69.9572 86.2392Z" fill="white"/>
<path d="M60.892 89.312C60.8159 89.2774 60.7591 89.2549 60.7216 89.2445C60.6134 89.2081 60.5246 89.1586 60.4552 89.096C60.5382 88.6306 60.801 88.2114 61.2437 87.8383C61.6863 87.4651 62.2681 87.2471 62.989 87.1841C63.4423 87.1444 63.8995 87.2007 64.3603 87.3528C64.8212 87.5049 65.1967 87.7263 65.4869 88.017C65.7119 88.2402 65.8916 88.5222 66.0263 88.8632C66.1564 89.2046 66.2322 89.498 66.2535 89.7435C66.2791 90.039 66.2447 90.3788 66.1501 90.7627C66.0559 91.1511 65.8736 91.5244 65.6032 91.8824C65.3328 92.2405 64.9794 92.5371 64.543 92.7722C64.1021 93.0077 63.596 93.1505 63.0248 93.2004C62.2404 93.269 61.6835 93.194 61.3539 92.9754C61.0243 92.7568 60.8488 92.5248 60.8275 92.2793C60.8066 92.0383 60.8535 91.8418 60.9682 91.6898C61.0787 91.5427 61.2428 91.4596 61.4605 91.4406C61.6463 91.4244 61.8239 91.4707 61.9933 91.5796C62.1581 91.6888 62.3052 91.8844 62.4348 92.1663C62.5345 92.3683 62.652 92.5115 62.7873 92.5959C62.9221 92.6757 63.0779 92.7079 63.2547 92.6924C63.6809 92.6552 64.0457 92.4377 64.3493 92.0402C64.6532 91.6471 64.7777 91.1346 64.7228 90.5026C64.6569 89.7434 64.4004 89.1565 63.9533 88.7421C63.5021 88.3326 63.0158 88.1506 62.4944 88.1962C62.236 88.2188 62.0187 88.2675 61.8425 88.3425C61.7327 88.3933 61.5862 88.4955 61.4031 88.6489C61.3564 88.6896 61.2719 88.7955 61.1497 88.9665C61.023 89.1379 60.9371 89.2531 60.892 89.312Z" fill="white"/>
<path d="M52.2593 86.8812C52.2621 86.8122 52.2666 86.7597 52.2729 86.7237C52.2799 86.6833 52.2991 86.6264 52.3303 86.5531C52.6217 86.6042 52.904 86.6675 53.1772 86.7432L53.3643 86.783L53.7295 86.8748L54.1753 86.9807L55.2731 87.0828L55.4468 87.1201L55.5678 87.1414C55.569 87.1879 55.5667 87.2408 55.561 87.3C55.55 87.3629 55.5457 87.4271 55.5482 87.4923C55.4815 87.5038 55.3719 87.5101 55.2192 87.5111C54.8863 87.513 54.6834 87.5377 54.6104 87.5851C54.5853 87.729 54.5372 87.9522 54.4659 88.2548C54.4196 88.4412 54.3372 88.8739 54.2188 89.5527L54.4989 89.6157C54.7051 89.6518 54.892 89.6267 55.0595 89.5402C55.227 89.4538 55.4397 89.2408 55.6975 88.9015L56.4698 87.8901C56.647 87.6154 56.7759 87.4458 56.8565 87.3811L57.4637 87.5153C57.9299 87.597 58.2243 87.644 58.3469 87.6562L58.7697 87.6956L58.9904 87.7412C58.9855 87.7959 58.9791 87.8458 58.9713 87.8907C58.9603 87.9537 58.94 88.0173 58.9103 88.0816C58.5955 88.0588 58.3588 88.0915 58.2002 88.1795C58.0409 88.2721 57.8286 88.4827 57.5634 88.8115C57.1177 89.3542 56.7842 89.7035 56.563 89.8593C56.3366 90.0189 56.0934 90.1152 55.8335 90.1484C56.3803 90.3508 56.7687 90.5741 56.9987 90.8183C57.2287 91.0624 57.3131 91.3599 57.252 91.7105C57.1775 92.1376 56.9244 92.45 56.4927 92.6477C56.0564 92.8446 55.4685 92.8782 54.7288 92.7486L53.8617 92.5549L52.9183 92.3618C52.6211 92.2911 52.3537 92.235 52.1161 92.1934C51.8472 92.1462 51.6205 92.0949 51.4362 92.0395C51.4327 92.0064 51.4313 91.9876 51.4321 91.9832L51.4874 91.6662C51.5435 91.6621 51.6441 91.6682 51.7891 91.6843L51.9046 91.6976L51.9865 91.705L52.1458 91.7052C52.1914 91.7085 52.2311 91.7062 52.2648 91.6982C52.2856 91.6324 52.2987 91.5837 52.3041 91.5522L52.3245 91.3959L52.3503 91.2476L52.4135 90.9251L52.4987 90.5161L52.7989 88.595L52.9018 88.0849C52.9684 87.7027 52.9987 87.4231 52.9926 87.246C52.8878 87.1581 52.7485 87.0827 52.5746 87.0198C52.4359 86.9677 52.3308 86.9215 52.2593 86.8812ZM54.1102 90.0966L54.0405 90.5361L54.0107 90.7463L53.8005 92.0716C53.8878 92.1008 54.0054 92.1284 54.1533 92.1543C54.6195 92.236 54.9764 92.1897 55.2239 92.0153C55.467 91.8401 55.6132 91.6109 55.6626 91.3277C55.7715 90.7028 55.362 90.309 54.4341 90.1464L54.1102 90.0966Z" fill="white"/>
<path d="M78.3899 57.8496C78.5851 57.6544 78.5851 57.3378 78.3899 57.1425L75.2079 53.9606C75.0126 53.7653 74.696 53.7653 74.5008 53.9606C74.3055 54.1558 74.3055 54.4724 74.5008 54.6677L77.3292 57.4961L74.5008 60.3245C74.3055 60.5198 74.3055 60.8364 74.5008 61.0316C74.696 61.2269 75.0126 61.2269 75.2079 61.0316L78.3899 57.8496ZM42.8477 57.9961H78.0363V56.9961H42.8477V57.9961Z" fill="white"/>
<ellipse cx="78.8619" cy="28.5471" rx="1.92438" ry="1.92989" fill="white"/>
<ellipse cx="42.5728" cy="85.8928" rx="1.92438" ry="1.92989" fill="white"/>
<g filter="url(#filter1_f_829_1274)">
<circle cx="61" cy="58" r="49.5" stroke="#8A7BAE"/>
</g>
<defs>
<filter id="filter0_f_829_1274" x="15" y="12" width="92" height="92" filterUnits="userSpaceOnUse" color-interpolation-filters="sRGB">
<feFlood flood-opacity="0" result="BackgroundImageFix"/>
<feBlend mode="normal" in="SourceGraphic" in2="BackgroundImageFix" result="shape"/>
<feGaussianBlur stdDeviation="3" result="effect1_foregroundBlur_829_1274"/>
</filter>
<filter id="filter1_f_829_1274" x="9" y="6" width="104" height="104" filterUnits="userSpaceOnUse" color-interpolation-filters="sRGB">
<feFlood flood-opacity="0" result="BackgroundImageFix"/>
<feBlend mode="normal" in="SourceGraphic" in2="BackgroundImageFix" result="shape"/>
<feGaussianBlur stdDeviation="1" result="effect1_foregroundBlur_829_1274"/>
</filter>
</defs>
</svg>
