<svg width="38" height="35" viewBox="0 0 38 35" fill="none" xmlns="http://www.w3.org/2000/svg">
<path fill-rule="evenodd" clip-rule="evenodd" d="M0.810051 18.2546C-0.316107 17.5996 -0.178853 16.7898 0.674828 16.2204C5.66251 12.8963 24.9188 4.26083 33.7444 0.511344C35.4008 -0.192534 37.0129 -0.211558 37.6727 0.716982C38.0743 1.28226 38.038 2.08261 37.9215 3.12077C36.8451 12.7359 35.3971 22.645 33.8511 32.1832C33.467 34.5503 31.0754 35.7152 29.4544 34.5335C25.1285 31.3792 21.0813 28.1913 17.2731 25.3441C16.1449 24.5007 16.2688 22.5241 17.8552 20.8441C21.5183 16.9646 24.7217 14.0019 27.8081 10.4286C28.2284 9.94214 28.4891 9.22512 28.2631 8.98053C28.057 8.75723 27.4147 8.95924 26.7219 9.45522C22.3211 12.6073 17.1697 17.101 12.0073 20.3508C10.3586 21.3885 8.8687 21.3106 7.35073 20.9057C5.16684 20.3228 2.88682 19.4631 0.810051 18.2546Z" fill="#8A7BAE"/>
</svg>
